<svg id="Layer_1" data-name="Layer 1" xmlns="http://www.w3.org/2000/svg" viewBox="0 0 512 512"><defs><style>.cls-1{fill:#b4c1c8;}.cls-2{fill:#96a6b1;}.cls-3{fill:#d6d7d9;}.cls-4{fill:#f1f4f7;}.cls-5{fill:#d4dbde;}.cls-6{fill:#96a6b0;}.cls-7{fill:#d6d8d9;}.cls-8{fill:#d3dade;}.cls-9{fill:#d2d9dd;}.cls-10{fill:#778891;}.cls-11{fill:#7b8a93;}.cls-12{fill:#9da8af;}.cls-13{fill:#8897a0;}.cls-14{fill:#babbbb;}.cls-15{fill:#a4afb4;}.cls-16{fill:#7e8d95;}.cls-17{fill:#83929b;}.cls-18{fill:#cad2d7;}.cls-19{fill:#747e87;}.cls-20{fill:#fbb7b6;}.cls-21{fill:#8f9097;}.cls-22{fill:#828189;}.cls-23{fill:#eb9595;}</style></defs><path class="cls-1" d="M192,263.76c.55-2.26,1.11-4.53,1.67-6.79l1,2c6-14.9,12.89-28.56,23.21-40.22.78-.88.65-2.57.95-3.88-7.33-12.85-19.25-20.67-31.06-28.65-1.94-1.31-3.4-3.32-5.08-5-2.38-2.81-4.89-5.5-7.11-8.43-7.41-9.76-15.42-19.12-20.39-30.53-6.17-14.18-8-29.07-6.82-44.32.8-10.05,1.17-20-.41-29.83L144,66.52l12,.24.73.65-.07-.06c4.38,2.26,8.75,4.56,13.17,6.76.55.27,1.36,0,2.05,0h0l.9,0,.8.53-.3,1.18c1.4,2,2.43,4.5,4.27,5.94,9.09,7.09,15.44,16.55,21.36,26a236,236,0,0,1,17,33.05c7.54,17.81,15.85,35.4,20.09,54.46.29,1.3,1.47,2.4,2.23,3.59l2.61,4.35-1.94,1.47.45,1.08,12.48-3.48,0-1.25,1.8-.34c5.54,2.82,11.22,2,16.91.64l4.15.25c.34,1.08.69,2.17,1,3.25l.7-.12V193.78c.28-1.89.52-3.78.84-5.66a151.93,151.93,0,0,1,21.85-57.37c4.42-6.93,10.59-11.76,19.62-11.15,1.56.11,3.16-.51,4.75-.79,4.21,2.5,7.9,6.38,13.55,5.07.67-.16,1.68.17,2.05-.21,3-3,6.24-.9,8.26.53,6.19,4.39,11.62,9.71,14,17.31l1.76,1.75-.06,0c.3.58.6,1.16.89,1.75l0-.07c.29.59.59,1.17.88,1.75l0-.06c.3.58.59,1.16.88,1.75l0-.06c.29.58.58,1.16.88,1.74l0-.06,1.71,2.57,0,0,.88.89,0,0,.89,1.74,0-.06.87,2.59a100.59,100.59,0,0,1,10.87,31.52c.15,1-.48,2-.75,3.05l-9.2-5.08-.87-1.91c-3.48-9.21-6.93-18.42-10.46-27.6-.14-.37-.9-.5-1.37-.74,0-.88-.08-1.76-.11-2.64l-2.51-3.35,0,0L353,145.65a1.82,1.82,0,0,0-.19-.69c-.16-1.36-.31-2.71-.47-4.06l-1.36,0-.55,3.26c-.06.77-.11,1.54-.16,2.31l-.83,1c-1.6,2.36-3.34,4.64-4.79,7.09-5.51,9.28-13.64,16.2-21.64,23-6,5.1-13,9.18-19.89,13-10.41,5.74-15.86,14.54-8,26.39,4.24,6.42,7.17,13.83,9.93,21.09,4.21,11.1,5.27,22.76,5,34.62-.3,13.25-5.28,24.35-14.39,33.73a17.66,17.66,0,0,1-3.41,2.21c-1.14-.52-2.25-1.13-3.43-1.55-14.25-5.12-28.92-5.35-43.7-3.43A48.14,48.14,0,0,0,223.18,312l-1.67,3.27,0,0h-1.8a56.87,56.87,0,0,0-5.78-4.07c-8-4.36-14.6-10.16-18.55-18.6C190.37,283.43,190.5,273.68,192,263.76Z"/><path class="cls-1" d="M170.18,438.48c0-.33.09-.66.14-1,3.2,0,3.38-2.87,3-4.46-.73-3.06,1.18-7.21-3.13-9,.26-1.49.62-3,.77-4.48,1.06-10.93,4.72-20.58,12.42-28.76,5.8-6.16,12.75-10.09,20.42-13.1a7.87,7.87,0,0,1,.84,0l3.78-.21v-1.25l-3.78-.2-6.75-.06a12.47,12.47,0,0,1-.09-3.16A89.79,89.79,0,0,1,200.63,361c3.27-9.14,6.54-18.32,10.51-27.18,2.88-6.44,6.89-12.38,10.39-18.54l0,0,1.66,0,3.39-3.42c6.91-4.46,14.65-6.14,22.68-6.84l1.75,1.54.85-2.1h16.85l1.78.53a48.13,48.13,0,0,1,7.15.79c4.93,1.29,9.77,2.92,14.65,4.41l0,.15c.29,9.49.79,19,.82,28.49q.15,52.4,0,104.77c0,2.28.6,5-2.67,5.81-2.15-3-4.21-6.06-6.47-9-1.27-1.65-2.85-3.08-4.29-4.61v0c-.57-1.37-1.05-2.78-1.73-4.09-1.35-2.56-2.82-5.06-4.23-7.59L272,422.4c-4.1,3.35-4,3.3-6.81-1.82-1.44-2.63-3.28-5-4.93-7.55l-1-3.14-1,.14c-.17,1-.33,2-.5,3l-1.62,2.66-1,5.68-.85,1.66-1.72,2.51-4,5.76-3.13-4.78-1.11,2.57-.84.83,0,0-.86.86h0l-6.75,5.91,0,0-.87,2.07a.78.78,0,0,1-.42.45l-1.27.87h0l-2.54,3.39v0l-1.7,2.55,0,0c-5.11,3.4-6.38,8.87-7.69,14.32-.55-1-1.59-1.95-1.57-2.91.15-6.49.73-13,.77-19.47.11-19.95.06-39.9,0-59.84,0-2.47.24-4.34,3.15-5.05,1.13-.28,2-1.67,3.56-3.08-5.79-.24-6.66-1.16-6.67-6.16,0-11.52,0-23,0-34.56,0-1.43-.18-2.86-.27-4.28l-1.58-.1a41.79,41.79,0,0,0-.64,5.19q-.06,62.79,0,125.58c0,1.41-.34,2.94.11,4.18s1.71,2.07,2.61,3.08q0,4.17,0,8.33l-8.63,3.48-4.18,0-2.56-.79-4.2-.87-2.53-.83-3.35-.91c-1-1.19-1.94-2.44-3-3.56a51.2,51.2,0,0,1-4-3.89c-2-2.57-3-2.49-4.75.71l-1.2.06-.5-.65-.78-1.08c-.55-.59-1.11-1.17-1.67-1.76l-5.14-9.2,0,0-2.5-6.75-.06-1.61c-.33-1.19-.65-2.38-1-3.57l-.66-.91A4.89,4.89,0,0,1,170.18,438.48ZM249.32,366c2.6.22,5.19.53,7.8.66,4.77.23,9.6,0,14.31.64,5.57.79,11,2.34,16.56,3.57l2.36.19c-.34-.65-.56-1.75-1-1.87a9.73,9.73,0,0,0-3,.11c-19.81-6-46-6.87-51.45-1.49l12.73-1.25,1,1.45Zm-18.79,2.22h-.34v1.24h.34Z"/><path class="cls-2" d="M311.06,327.81c1.6,3.23,3.55,6.34,4.75,9.71,3.28,9.25,6.34,18.57,9.31,27.92,2.45,7.73,4.85,15,12.23,20.14s10.86,13.38,13.09,22c.78,3,1.8,6,2.46,9.05,1.75,8.18-.22,15.92-3.06,23.53l-2.79,8.77.1.24-7.68,14.5v0a14.21,14.21,0,0,0-1.38.9c-6.61,5.49-12.53,11.94-21.14,14.54-4.89,1.48-9.73,3.13-14.59,4.71l-8.75.68c.7-5.76,2.05-11.2,1.82-16.58-.23-5-2.14-10-3.31-15a24.59,24.59,0,0,0,4-2.05c2.88-2.2,5.66-4.54,8.42-6.89,9-7.73,14.14-17.69,16.37-29.25v-4.22c-.58-2.37-1-4.78-1.75-7.09a42,42,0,0,0-17.62-23.26h0c-3.63-2.55-4.14-5.12-.18-7.9.57-.41.71-1.44,1.05-2.18h0c1.25-.9,3.08-1.53,3.64-2.75,1.58-3.46,2.64-7.17,3.91-10.77,0-.84,0-1.67.05-2.51.26-1.69.53-3.39.79-5.08v-2.53c-.26-1.69-.52-3.38-.79-5.08,0-.83,0-1.67-.05-2.51l-2.5-8.45-1.75-5c0-.27,0-.55,0-.83Z"/><path class="cls-1" d="M228.08,486.42l-.34,0-.33-.05c-.46-1.56-.84-3.15-1.41-4.66-.81-2.17-1.78-4.28-2.68-6.42,1.13-5.88,1.76-11.92,3.51-17.61,2.77-9.05,8.21-16.53,15.89-23.18,1.11,3.47,2.07,6.45,3,9.44l1.19-.12.72-3,7.68-15.43,3.25-6.48q.82-2.5,1.66-5l4.24,9.22c.29,2.51.44,5.05.91,7.53a90.56,90.56,0,0,0,2.82,12.16c.44,1.31,2.6,2.4,4.18,2.79.58.14,1.77-2,2.61-3.12a22,22,0,0,0,1.26-2.15l1.31.21c.12,8.07.76,16.17.25,24.2-.73,11.22-6.45,19.36-17.17,23.57a33.12,33.12,0,0,1-19.3,1.63C236.87,489.05,232.5,487.63,228.08,486.42Z"/><path class="cls-2" d="M311.06,327.81l-5.34-3.27-2.48-.88h0c-2.08-5.76-6.17-9.87-11-13.36l0-.15c0-.52,0-1,0-1.58a17.66,17.66,0,0,0,3.41-2.21c9.11-9.38,14.09-20.48,14.39-33.73.26-11.86-.8-23.52-5-34.62-2.76-7.26-5.69-14.67-9.93-21.09-7.83-11.85-2.38-20.65,8-26.39,6.93-3.82,13.9-7.9,19.89-13,8-6.82,16.13-13.74,21.64-23,1.45-2.45,3.19-4.73,4.79-7.09.05.31.09.62.13.93L342.78,166l-2.56,4.24-.84.84-1.71,2.51-3.3,2.61h0l-.86.86v0l-.85.86v0c-.28.29-.57.58-.86.86l0,0-.86.87,0,0c-.52.66-1,1.33-1.54,2-7.34,6.79-14.77,13.48-22,20.41-2.6,2.5-5.35,5.29-6.62,8.51-.64,1.62,1.37,5,3.05,6.71,5.72,5.89,9.76,12.87,14.42,19.5,6.24,8.88,9.16,18.61,11.21,28.77,2.09,10.37,1.09,20.78-4.68,29.84-2.83,4.45-7.26,8-11.42,11.46-3.79,3.12-8.18,5.51-12,8Z"/><path class="cls-3" d="M346.29,454.32c6.55-.5,12.8,0,17.52,5.42a9.4,9.4,0,0,1,2.05,2.95c.56,1.69.55,3.31,2.48,4.54s.69,6.48-1.41,8.1c-3.69,2.85-7.05,6.29-11.09,8.5-6.43,3.52-12.76,7.74-20.6,7.62l-1.71.89.05,0-27,1.67c-2.69-1.13-5.6-2-8-3.58-.85-.58-.38-3.07-.52-4.69l4.27-1.09c11.48-1.49,21.87-5.54,30.52-13.4,2.45-2.24,4.41-5,6.59-7.56v0Z"/><path class="cls-2" d="M228.08,486.42c4.42,1.21,8.79,2.63,13.27,3.57a33.12,33.12,0,0,0,19.3-1.63c10.72-4.21,16.44-12.35,17.17-23.57.51-8-.13-16.13-.25-24.2l-1.31-.21a22,22,0,0,1-1.26,2.15c-.84,1.14-2,3.26-2.61,3.12-1.58-.39-3.74-1.48-4.18-2.79a90.56,90.56,0,0,1-2.82-12.16c-.47-2.48-.62-5-.91-7.53l5.51,10.2,1.62-7.31,8.05,9.74v0c.85,1.57,1.63,3.18,2.56,4.7,2.76,4.49,6.3,8.65,8.21,13.47,4.49,11.34,6.27,22.85-2.35,33.42l-1.6,1.57-1.78.89.05-.05-.87,1.16a37.9,37.9,0,0,1-18.33,6.51C260.27,498,255,499,249.7,499,240.35,498.81,233,494.63,228.08,486.42Z"/><path class="cls-4" d="M179.47,461c.56.59,1.12,1.17,1.67,1.76l.78,1.08.5.65,5.78,6.74,3.82,2.55h-.1l7.85,5.59c-.09,4-2.3,5.88-6.07,7.27-8.07,3-15.27.27-22.6-2.35-2.58-.92-5.12-2-7.68-3h0c-.87-.53-1.73-1.07-2.59-1.61L156.65,478l0,0-.88-.88,0,0-.87-.87,0,0-.87-1.72,0,0-.84-6.8,0,0,.88-.88,0,0,9.35-1.21a13.54,13.54,0,0,0-5.37-.5c-2.84.33-3.41-1.12-3.1-3.47l4-4.09,1.08-.87h0l14.39-2.56Z"/><path class="cls-2" d="M238.22,198.85c-.76-1.19-1.94-2.29-2.23-3.59-4.24-19.06-12.55-36.65-20.09-54.46a236,236,0,0,0-17-33.05c-5.92-9.47-12.27-18.93-21.36-26-1.84-1.44-2.87-3.93-4.27-5.94l1.51,0c4.7,3.45,10,6.33,14,10.47,6.51,6.81,12.13,14.46,18.19,21.71,8.17,9.77,11.49,22,17.06,33.12,7.92,15.8,10.35,33.05,14.21,49.94C238.75,193.5,238.24,196.23,238.22,198.85Z"/><path class="cls-5" d="M144,66.52l4.07,1.58c1.58,9.8,1.21,19.78.41,29.83-1.22,15.25.65,30.14,6.82,44.32,5,11.41,13,20.77,20.39,30.53,2.22,2.93,4.73,5.62,7.11,8.43-.91-.25-2.06-.22-2.68-.78-8-7.26-15.35-15.13-21.2-24.16-3.59-5.54-6-11.83-9-17.78-.29-.66-.58-1.31-.88-2l0,.06L148.2,134l0,.06q-2.53-9.78-5.09-19.55l.05-2.42c.27-9.26.59-18.53.75-27.8a37.76,37.76,0,0,0-.8-6,38.19,38.19,0,0,0-1.59-6.55C140.32,68.81,141.4,67.41,144,66.52Z"/><path class="cls-6" d="M371.58,187.1l9.19,5.08c-1.3,4.27-5.2,3.91-8.3,4.18-8.25.73-15.9-2.33-23.31-5.28-6.36-2.53-12.2-6.33-18.28-9.57.05-.66.09-1.33.14-2l0,0,.86-.87,0,0,.86-.86v0l.85-.86v0l.86-.86h0l4.9.82,4.26,2.53a17.9,17.9,0,0,0,3.3,2.42C354.73,185.29,362.88,187.53,371.58,187.1Z"/><path class="cls-7" d="M163.42,481.32c2.56,1,5.1,2.09,7.68,3,7.33,2.62,14.53,5.33,22.6,2.35,3.77-1.39,6-3.22,6.07-7.27l23.51,6.33c.13,5.29-4.07,6.47-7.73,8.17l-.77.12.05,0c-8.45-.57-16.92-1-25.35-1.8-4.25-.41-8.43-1.58-12.64-2.41l0,0-4.26-1.72,0,0-1.73-.87.05,0c-.58-.29-1.16-.58-1.73-.88l0,0-1.73-.88.05,0-1.26-.87-.31,0-1-1-1.71-.88C163.35,482.36,163.39,481.84,163.42,481.32Z"/><path class="cls-8" d="M323.44,118.81c-1.59.28-3.19.9-4.75.79-9-.61-15.2,4.22-19.62,11.15a151.93,151.93,0,0,0-21.85,57.37c-.32,1.88-.56,3.77-.84,5.66q-.06-5.09-.11-10.18a120.85,120.85,0,0,1,7-32.36c1.84-5.09,3.56-10.13,7.05-14.59,3.26-4.16,5.29-9.28,8.1-13.83.8-1.31,2.41-2.12,3.65-3.16l2.81-1.72,0,0,1.72-.86h0l1.71-.86,0,0,13.11.84v0L323,118Z"/><path class="cls-9" d="M221.53,315.25c-3.5,6.16-7.51,12.1-10.39,18.54-4,8.86-7.24,18-10.51,27.18a89.79,89.79,0,0,0-2.82,11.78,12.47,12.47,0,0,0,.09,3.16l-4.91,1-.19-.19,2.61-7.57c3.68-12.18,6.57-24.68,11.33-36.41,2.65-6.54,6.39-13.38,13-17.5Z"/><path class="cls-9" d="M203.81,377.67c-7.67,3-14.62,6.94-20.42,13.1C175.69,399,172,408.6,171,419.53c-.15,1.51-.51,3-.77,4.48l-.21,6c-.8-2.35-2.46-4.78-2.25-7,1.06-11.33,2.78-22.67,10-32,3.61-4.64,8.28-8.45,12.48-12.63a19.75,19.75,0,0,0,3.33.26C197,378.41,200.39,378,203.81,377.67Z"/><path class="cls-9" d="M218.92,214.87c-.3,1.31-.17,3-.95,3.88-10.32,11.66-17.18,25.32-23.21,40.22l-1-2c.89-3,1.39-6.11,2.75-8.84,3.57-7.14,7.09-14.36,11.44-21C210.87,222.57,215.2,218.92,218.92,214.87Z"/><path class="cls-10" d="M288.08,487.37c8.62-10.57,6.84-22.08,2.35-33.42-1.91-4.82-5.45-9-8.21-13.47-.93-1.52-1.71-3.13-2.56-4.7,1.44,1.53,3,3,4.29,4.61,2.26,2.92,4.32,6,6.47,9l1.71,3.56c1.17,5,3.08,9.95,3.31,15,.23,5.38-1.12,10.82-1.82,16.58l8.75-.68v.81l-4.27,1.09Z"/><path class="cls-11" d="M223.28,485.74l-23.51-6.33-7.85-5.59a24,24,0,0,1,3.89,1.43A68.51,68.51,0,0,0,219,483.42a46.37,46.37,0,0,0,4.92.34c-.58-3.18-1.06-5.75-1.53-8.33l.8,0,.15-.14c.89,2.14,1.86,4.25,2.67,6.42.57,1.51.95,3.1,1.41,4.66Z"/><path class="cls-12" d="M143.14,78.25a37.76,37.76,0,0,1,.8,6c-.16,9.27-.48,18.54-.75,27.8-.54-1.06-1.58-2.12-1.56-3.17.22-10,.61-20,1-30.06C142.62,78.64,143,78.45,143.14,78.25Z"/><path class="cls-13" d="M192,263.76c-1.54,9.92-1.67,19.67,3.36,28.82-4.17-1.7-4.07-5.87-4.48-9.15-.71-5.78-.46-11.68-.45-17.53C190.47,265.18,191.49,264.47,192,263.76Z"/><path class="cls-14" d="M176.84,489.78c4.21.83,8.39,2,12.64,2.41,8.43.82,16.9,1.23,25.35,1.8-4.54.29-9.17,1.32-13.59.71C193,493.56,185,491.48,176.84,489.78Z"/><path class="cls-12" d="M203.81,377.67c-3.42.34-6.83.74-10.25,1a19.75,19.75,0,0,1-3.33-.26c.92-2.14,1.75-4.34,2.82-6.4a17.16,17.16,0,0,1,2.36-2.86l-2.61,7.57-.3.48.49-.29,4.91-1,6.75.06v1.66A7.87,7.87,0,0,0,203.81,377.67Z"/><path class="cls-1" d="M170,430l.21-6c4.31,1.82,2.4,6,3.13,9,.37,1.59.19,4.47-3,4.46-.06-.56-.11-1.13-.17-1.69l-.27-4.22Z"/><path class="cls-15" d="M143.14,114.5q2.55,9.78,5.09,19.55c-.27-.07-.75-.09-.78-.21C146,127.4,144.57,121,143.14,114.5Z"/><path class="cls-15" d="M270.49,201.32c-5.69,1.34-11.37,2.18-16.91-.64Z"/><path class="cls-14" d="M306.58,494l27-1.67A51.52,51.52,0,0,1,306.58,494Z"/><path class="cls-16" d="M346.29,454.32l-6.82,9.36,7.68-14.5C346.86,450.89,346.58,452.61,346.29,454.32Z"/><path class="cls-17" d="M171.87,74.11c-.69,0-1.5.27-2.05,0-4.42-2.2-8.79-4.5-13.17-6.76C162.38,68.12,167.6,70.05,171.87,74.11Z"/><path class="cls-18" d="M251.82,202.27l-12.48,3.48-.45-1.08,1.94-1.47,8.5-1.74Z"/><path class="cls-18" d="M174.41,454.32,160,456.88l13.54-5.1.39.09h.4l0,0Z"/><path class="cls-6" d="M276.27,183.6q0,5.1.11,10.18V204.7l-.7.12c-.35-1.08-.7-2.17-1-3.25.24-4.4.44-8.8.77-13.19A43.55,43.55,0,0,1,276.27,183.6Z"/><path class="cls-15" d="M321.35,117.12l-13.11-.84C312.8,113.53,317.11,114.86,321.35,117.12Z"/><path class="cls-14" d="M155,461.83c-.31,2.35.26,3.8,3.1,3.47a13.54,13.54,0,0,1,5.37.5L154.12,467Z"/><path class="cls-16" d="M347.05,448.94l2.79-8.77Z"/><path class="cls-14" d="M153.31,467.82l.84,6.8C152.11,472.57,150,470.53,153.31,467.82Z"/><path class="cls-13" d="M174.35,451.86H174l-.39-.09-1.71-6.67Z"/><path class="cls-9" d="M169.88,431.59l.27,4.22C167.14,434.59,169.84,433,169.88,431.59Z"/><path class="cls-14" d="M156.65,478l4.18,1.75c0,.54,0,1.09,0,1.63l-.11.13Z"/><path class="cls-14" d="M172.62,488.1l4.26,1.72Z"/><path class="cls-1" d="M170.81,439.93c.33,1.19.65,2.38,1,3.57C171.46,442.31,171.14,441.12,170.81,439.93Z"/><path class="cls-13" d="M368.12,152.53,366.41,150Z"/><path class="cls-14" d="M163.42,481.32c0,.52-.07,1-.11,1.55-.85-.47-1.69-.94-2.55-1.4l.11-.13,2.55,0Z"/><path class="cls-19" d="M331,179.52c0,.66-.09,1.33-.14,2h-1.4C330,180.85,330.5,180.18,331,179.52Z"/><path class="cls-15" d="M304.89,117.94l-2.81,1.72Z"/><path class="cls-13" d="M363.09,143.26l-1.76-1.75Z"/><path class="cls-15" d="M251.82,202.27l-2.49-.81,2.45-.44C251.8,201.43,251.81,201.85,251.82,202.27Z"/><path class="cls-15" d="M148.2,134l.88,2.59Z"/><path class="cls-13" d="M370.65,157.61l-.87-2.59Z"/><path class="cls-13" d="M366.45,150c-.3-.58-.59-1.16-.88-1.74C365.86,148.86,366.15,149.44,366.45,150Z"/><path class="cls-13" d="M369.82,155.08l-.89-1.74Z"/><path class="cls-14" d="M333.53,492.34l1.71-.89Z"/><path class="cls-10" d="M284.7,489.83l1.78-.89Z"/><path class="cls-14" d="M170.94,487.26l1.73.87Z"/><path class="cls-14" d="M169.26,486.41c.57.3,1.15.59,1.73.88C170.41,487,169.83,486.71,169.26,486.41Z"/><path class="cls-13" d="M365.6,148.34c-.29-.59-.58-1.17-.88-1.75C365,147.17,365.31,147.75,365.6,148.34Z"/><path class="cls-14" d="M167.57,485.57l1.73.88C168.73,486.15,168.15,485.86,167.57,485.57Z"/><path class="cls-13" d="M364.76,146.65c-.29-.58-.59-1.16-.88-1.75C364.17,145.49,364.47,146.07,364.76,146.65Z"/><path class="cls-15" d="M308.27,116.26l-1.71.86Z"/><path class="cls-13" d="M363.92,145c-.29-.59-.59-1.17-.89-1.75C363.33,143.8,363.63,144.38,363.92,145Z"/><path class="cls-15" d="M149,136.52c.3.66.59,1.31.88,2C149.63,137.84,149.34,137.18,149,136.52Z"/><path class="cls-15" d="M306.58,117.11l-1.72.86Z"/><path class="cls-14" d="M154.12,474.58l.87,1.72Z"/><path class="cls-14" d="M155,476.27l.87.87Z"/><path class="cls-14" d="M155.8,477.11l.88.88Z"/><path class="cls-15" d="M323,118l-1.64-.88Z"/><path class="cls-14" d="M154.16,467l-.88.88Z"/><path class="cls-14" d="M165,483.75l1,1Z"/><path class="cls-14" d="M166.36,484.73l1.26.87Z"/><path class="cls-18" d="M160,456.87l-1.08.87Z"/><path class="cls-1" d="M170.18,438.48a4.89,4.89,0,0,0,0,.54l-.33-.42Z"/><path class="cls-17" d="M174.76,75.77l-1.51,0,.3-1.18Z"/><path class="cls-10" d="M283.88,490.94l.87-1.16Z"/><path class="cls-13" d="M369,153.39l-.88-.89Z"/><path class="cls-17" d="M172.75,74.08l-.9,0Z"/><path class="cls-14" d="M214.78,494l.77-.12C215.3,494,215,494,214.78,494Z"/><path class="cls-17" d="M156.72,67.41l-.73-.65Z"/><path class="cls-20" d="M358.76,154.21c0,.88.07,1.76.1,2.64q4.8,14.25,9.61,28.55l-2,.33-.92-.31c-4.48-3.48-8.87-7.27-10.05-13-1.59-7.74-2.44-15.63-3.6-23.46l1-2.37,3.34,4.31,0,0C357.09,152,357.92,153.1,358.76,154.21Z"/><path class="cls-17" d="M292.23,308.57c0,.53,0,1.06,0,1.58-4.88-1.49-9.72-3.12-14.65-4.41a48.13,48.13,0,0,0-7.15-.79l-1.78-.53H251.84l-2.6.56c-8,.7-15.77,2.38-22.68,6.84l-1.79.33-1.59-.15a48.14,48.14,0,0,1,21.92-8.41c14.78-1.92,29.45-1.69,43.7,3.43C290,307.44,291.09,308.05,292.23,308.57Z"/><path class="cls-21" d="M366.52,185.73l2-.33q-4.83-14.33-9.61-28.55c.48.24,1.24.37,1.38.74,3.53,9.18,7,18.39,10.45,27.6Z"/><path class="cls-22" d="M366.52,185.73l4.17-.54c.3.64.59,1.27.88,1.91-8.69.43-16.84-1.81-24.74-5.17a17.5,17.5,0,0,1-3.29-2.42c1.25.38,2.5.79,3.76,1.13l18.3,4.78Z"/><path class="cls-22" d="M352.93,146.58,352,149c-.65,1.1-1.37,2.16-1.93,3.3-2.42,4.89-4.79,9.8-7.18,14.7l-.06-1,6.79-17.61.7-1.9c.05-.77.1-1.54.16-2.31l2.38.82a1.82,1.82,0,0,1,.19.69C353,146,353,146.27,352.93,146.58Z"/><path class="cls-16" d="M352.81,145l-2.38-.82c.18-1.09.37-2.18.55-3.26l1.36,0C352.5,142.25,352.65,143.6,352.81,145Z"/><path class="cls-16" d="M352.93,146.58c0-.31,0-.62.07-.93l3.27,5.24Z"/><path class="cls-9" d="M223.18,312l1.59.15-1.6,3.09-1.66,0Z"/><path class="cls-16" d="M358.76,154.21c-.84-1.11-1.67-2.23-2.51-3.35C357.09,152,357.92,153.1,358.76,154.21Z"/><path class="cls-16" d="M350.27,146.45l-.7,1.9c0-.31-.08-.62-.13-.93Z"/><path class="cls-1" d="M292.13,452.93l-1.71-3.56c3.27-.83,2.67-3.53,2.67-5.81q0-52.38,0-104.77c0-9.5-.53-19-.82-28.49,4.83,3.49,8.92,7.6,11,13.36-1.16-.88-2.32-1.75-3.46-2.65-.89-.7-1.74-1.43-2.61-2.15-.52,1-1.47,2.08-1.47,3.13q-.15,23.53,0,47.09c0,1.08.87,2.16,1.33,3.24a23.89,23.89,0,0,1,2.65-1.49,20.71,20.71,0,0,1,2.73-.74c-.34.74-.48,1.77-1.05,2.18-4,2.78-3.45,5.35.18,7.9l-5-.42a36.12,36.12,0,0,0-.9,5.65q-.1,28,0,56.05a39.25,39.25,0,0,0,1.06,6.23c3.2-2.86,6.07-5,8.46-7.65,3-3.22,6.08-6.51,8.1-10.32,1.84-3.47,2.47-7.64,3.33-11.57.55-2.52,1.67-3.75,4.28-3.4-2.23,11.56-7.33,21.52-16.37,29.25-2.76,2.35-5.54,4.69-8.42,6.89A24.59,24.59,0,0,1,292.13,452.93Z"/><path class="cls-1" d="M220.87,462.84c-.9-1-2.17-1.89-2.61-3.08s-.11-2.77-.11-4.18q0-62.79,0-125.58a41.79,41.79,0,0,1,.64-5.19l1.58.1c.09,1.42.26,2.85.27,4.28,0,11.52,0,23,0,34.56,0,5,.88,5.92,6.67,6.16-1.57,1.41-2.43,2.8-3.56,3.08-2.91.71-3.16,2.58-3.15,5.05,0,19.94.1,39.89,0,59.84,0,6.49-.62,13-.77,19.47,0,1,1,1.94,1.57,2.91Z"/><path class="cls-2" d="M222.38,475.43l1.53,8.33a46.37,46.37,0,0,1-4.92-.34,68.51,68.51,0,0,1-23.18-8.17,24,24,0,0,0-3.89-1.43h.1l-3.82-2.55-5.78-6.74,1.2-.06,11.79,6.74,3.35.91,2.53.83,4.2.87,2.56.79,4.18,0,9.42.78h.73Z"/><path class="cls-9" d="M247.65,440.87l-.72,3-1.19.12c-1-3-1.91-6-3-9.44-7.68,6.65-13.12,14.13-15.89,23.18-1.75,5.69-2.38,11.73-3.51,17.61l-.14.14c-1-6.42-1.62-12.87.87-19.07,1.44-3.59,3.37-7,5.08-10.44l0,0,1.7-2.55v0l2.54-3.39h0l1.27-.87a.78.78,0,0,0,.42-.45l.87-2.07,0,0,6.75-5.91h0l.86-.86,0,0h.84q.89,4.49,1.79,9Z"/><path class="cls-13" d="M247.57,366.52l-12.73,1.25c5.44-5.38,31.64-4.55,51.45,1.49.57.52,1.14,1,1.7,1.57-5.52-1.23-11-2.78-16.56-3.57-4.71-.67-9.54-.41-14.31-.64-2.61-.13-5.2-.44-7.8-.66Z"/><path class="cls-10" d="M279.66,435.8l-8.05-9.74L270,433.37l-5.51-10.2L260.24,414l0-.92c1.65,2.51,3.49,4.92,4.93,7.55,2.8,5.12,2.71,5.17,6.81,1.82.56.57,1.12,1.15,1.69,1.72,1.41,2.53,2.88,5,4.23,7.59C278.61,433,279.09,434.43,279.66,435.8Z"/><path class="cls-17" d="M229.13,445.94c-1.71,3.47-3.64,6.85-5.08,10.44-2.49,6.2-1.89,12.65-.87,19.07l-.8,0h-.73c-.27-1.42-.53-2.84-.79-4.26q0-4.16,0-8.33l.57-2.58C222.75,454.81,224,449.34,229.13,445.94Z"/><path class="cls-13" d="M246.06,438.93c-.6-3-1.2-6-1.79-9q0-.42,0-.84l1.11-2.57,3.13,4.78,4-5.76.36.29c-1.88,4.28-3.75,8.56-5.68,12.82C247.1,438.88,246.45,438.85,246.06,438.93Zm1.36-7.61h-.35v1.35h.35Z"/><path class="cls-1" d="M195.41,471.2l-11.79-6.74c1.74-3.2,2.77-3.28,4.75-.71a51.2,51.2,0,0,0,4,3.89C193.47,468.76,194.41,470,195.41,471.2Z"/><path class="cls-1" d="M220.86,471.17c.26,1.42.52,2.84.79,4.26l-9.42-.78Z"/><path class="cls-13" d="M260.27,413l0,.92q-.84,2.51-1.66,5l-3.21,2.64-.28-.21,1-5.68,1.62-2.66c.17-1,.33-2,.5-3l1-.14Z"/><path class="cls-13" d="M174.41,454.32l-.08-2.49,5.14,9.2Z"/><path class="cls-17" d="M242.6,430.77l-6.75,5.91Z"/><path class="cls-1" d="M288,370.83c-.56-.53-1.13-1.05-1.7-1.57a9.73,9.73,0,0,1,3-.11c.47.12.69,1.22,1,1.87Z"/><path class="cls-1" d="M204.65,377.63V376l3.78.2v1.25Z"/><path class="cls-1" d="M223.17,315.24l1.6-3.09,1.79-.33Z"/><path class="cls-1" d="M249.24,305l2.6-.56c-.28.7-.56,1.4-.85,2.1Z"/><path class="cls-17" d="M233.34,440l-2.54,3.39Z"/><path class="cls-1" d="M247.57,366.52l1.75-.56-.77,2Z"/><path class="cls-1" d="M257.73,413.05l-1.62,2.66Z"/><path class="cls-1" d="M273.7,424.12c-.57-.57-1.13-1.15-1.69-1.72C272.57,423,273.13,423.55,273.7,424.12Z"/><path class="cls-1" d="M208.05,474.6l-2.56-.79Z"/><path class="cls-1" d="M201.29,472.94l-2.53-.83Z"/><path class="cls-13" d="M252.52,425.56l1.72-2.51.26.22-1.62,2.58Z"/><path class="cls-17" d="M230.81,443.41l-1.7,2.55Z"/><path class="cls-1" d="M268.69,304.42l1.78.53Z"/><path class="cls-1" d="M230.53,368.18v1.24h-.34v-1.24Z"/><path class="cls-17" d="M235.87,436.66l-.87,2.07Z"/><path class="cls-13" d="M254.24,423.05l.85-1.66.28.21-.87,1.67Z"/><path class="cls-17" d="M243.45,429.92l-.86.86Z"/><path class="cls-17" d="M244.27,429.11q0,.42,0,.84h-.84Z"/><path class="cls-2" d="M181.92,463.87l-.78-1.08Z"/><path class="cls-17" d="M234.58,439.18l-1.27.87Z"/><path class="cls-1" d="M320.91,414.74c-2.61-.35-3.73.88-4.28,3.4-.86,3.93-1.49,8.1-3.33,11.57-2,3.81-5.14,7.1-8.1,10.32-2.39,2.61-5.26,4.79-8.46,7.65a39.25,39.25,0,0,1-1.06-6.23q-.1-28,0-56.05a36.12,36.12,0,0,1,.9-5.65l5,.42h0c1,1.77,1.52,4,3,5.23,5.8,4.86,10.09,10.35,11.6,18.1.47,2.41-.13,7.06,4.81,7Z"/><path class="cls-1" d="M302.41,370.09a20.71,20.71,0,0,0-2.73.74,23.89,23.89,0,0,0-2.65,1.49c-.46-1.08-1.32-2.16-1.33-3.24q-.13-23.55,0-47.09c0-1.05,1-2.09,1.47-3.13.87.72,1.72,1.45,2.61,2.15,1.14.9,2.3,1.77,3.46,2.65h0l2.47,1.71q.89,2.52,1.75,5,1.26,4.23,2.5,8.45c0,.84,0,1.68.05,2.51-3.23,2.24-2.43,3.85.79,5.08V349c-3.66,1.16-3.45,2.93-.79,5.08,0,.84,0,1.67-.05,2.51-4.41,3.44-4.7,9.2-7.55,13.52Z"/><path class="cls-1" d="M320.91,410.52c-4.94,0-4.34-4.61-4.81-7-1.51-7.75-5.8-13.24-11.6-18.1-1.44-1.2-2-3.46-3-5.23a42,42,0,0,1,17.62,23.26C319.9,405.74,320.33,408.15,320.91,410.52Z"/><path class="cls-16" d="M302.37,484.62v-.81c4.86-1.58,9.7-3.23,14.59-4.71,8.61-2.6,14.53-9.05,21.14-14.54a14.21,14.21,0,0,1,1.38-.9c-2.18,2.53-4.14,5.32-6.59,7.56C324.24,479.08,313.85,483.13,302.37,484.62Z"/><path class="cls-1" d="M302.41,370.09c2.85-4.32,3.14-10.08,7.55-13.52-1.27,3.6-2.33,7.31-3.91,10.77C305.49,368.56,303.66,369.19,302.41,370.09Z"/><path class="cls-1" d="M310,338.86q-1.24-4.22-2.5-8.45Q308.72,334.64,310,338.86Z"/><path class="cls-1" d="M310.8,346.45c-3.22-1.23-4-2.84-.79-5.08C310.28,343.07,310.54,344.76,310.8,346.45Z"/><path class="cls-1" d="M310,354.06c-2.66-2.15-2.87-3.92.79-5.08C310.54,350.67,310.27,352.37,310,354.06Z"/><path class="cls-1" d="M305.71,325.37l-2.47-1.71,2.48.88C305.73,324.82,305.72,325.1,305.71,325.37Z"/><path class="cls-18" d="M254.5,423.27l.87-1.67,3.21-2.64-3.25,6.48-7.68,15.43-1.59-1.93c.39-.09,1-.06,1.14-.27,1.93-4.26,3.8-8.54,5.68-12.82Z"/><path class="cls-19" d="M339.27,177l-4.9-.82,3.3-2.61.15.12C338.3,174.78,338.78,175.88,339.27,177Z"/><path class="cls-19" d="M342.78,166l.06,1-2.46,3.4-.16-.15Z"/><path class="cls-19" d="M337.67,173.55l1.71-2.51.26.23-1.82,2.41Z"/><path class="cls-19" d="M333.54,177l-.85.86Z"/><path class="cls-19" d="M332.7,177.83c-.28.29-.57.58-.86.86C332.13,178.41,332.42,178.12,332.7,177.83Z"/><path class="cls-19" d="M331.86,178.67l-.86.87Z"/><path class="cls-19" d="M334.39,176.15l-.86.86Z"/><path class="cls-19" d="M339.38,171l.84-.84.15.15-.73.92Z"/><path class="cls-11" d="M188.2,471.26l3.82,2.55Z"/><path class="cls-7" d="M163.42,481.32l-2.55,0c0-.54,0-1.09,0-1.63C161.69,480.25,162.55,480.79,163.42,481.32Z"/><path class="cls-23" d="M339.64,171.27l.73-.92,2.47-3.4c2.39-4.9,4.76-9.81,7.18-14.7.56-1.14,1.28-2.2,1.93-3.3,1.16,7.83,2,15.72,3.6,23.46,1.18,5.74,5.57,9.53,10.05,13l-18.3-4.78c-1.26-.34-2.51-.75-3.76-1.13L339.27,177c-.49-1.1-1-2.2-1.45-3.31Z"/><path class="cls-9" d="M193,376.92l-.49.29.3-.48Z"/><path class="cls-1" d="M247.42,431.32v1.35h-.35v-1.35Z"/></svg>