<svg id="Layer_1" data-name="Layer 1" xmlns="http://www.w3.org/2000/svg" viewBox="0 0 512 512"><defs><style>.cls-1{fill:#b4c0c8;}.cls-2{fill:#eff2f5;}.cls-3{fill:#d6d8d9;}.cls-4{fill:#b3c0c8;}.cls-5{fill:#96a5b0;}.cls-6{fill:#f0f4f7;}.cls-7{fill:#f1f5f8;}.cls-8{fill:#97a6b0;}.cls-9{fill:#99a7b0;}.cls-10{fill:#d3dbde;}.cls-11{fill:#7c8991;}.cls-12{fill:#aaaeb0;}.cls-13{fill:#bdbebf;}.cls-14{fill:#87949c;}.cls-15{fill:#c8c9ca;}.cls-16{fill:#eb9595;}.cls-17{fill:#f6f6f6;}.cls-18{fill:#c7ced3;}.cls-19{fill:#8e848b;}.cls-20{fill:#5a5e5d;}.cls-21{fill:#f85f52;}.cls-22{fill:#732222;}.cls-23{fill:#123b12;}.cls-24{fill:#e57875;}.cls-25{fill:#550e0e;}.cls-26{fill:#065510;}.cls-27{fill:#fcb8b7;}.cls-28{fill:#fcb9b7;}.cls-29{fill:#070f08;}</style></defs><path class="cls-1" d="M253.07,147.72c3.26.8,6.57,1.44,9.76,2.46,1.54.48,2.85,1.67,4.26,2.54l.88.74,0-.06c.85.82,1.7,1.64,2.56,2.45l1.5-2.76a.32.32,0,0,1,0-.41c.27-.59.55-1.17.83-1.75l-.05,0h.84l.87-1.65h0a41.73,41.73,0,0,0,2.4-4.07c4.08-9.11,7.71-18.45,12.22-27.35,7.24-14.27,18.57-25.14,31.64-33.84,6.62-4.4,14.61-6.77,22.08-9.81,3.18-1.29,6.62-1.92,9.94-2.86l-.13-.45-1.64-.1,2.65-.84.87,0,1.64.72.16-.55L354.47,70v-.85l14.74-4.85,6,.61-1.79,4.17-1,.92L371,71.47l-3.37,2.64c-5.16,1.72-10.4,3.24-15.46,5.22-8.45,3.3-16.82,6.84-25.17,10.41-1.16.49-2,1.71-3,2.6l0,0L321.49,94h0L319,95.66h0l-4.15,4.8a17.49,17.49,0,0,0-2.62,3.06c-2.78,5.26-5.42,10.61-8.1,15.92-.82,2-1.72,4-2.43,6q-5.42,15.65-10.75,31.32l-4.11,5.79L283,165.94c-.8.69-2,1.26-2.3,2.11-1,3.43,2.79,8.94,6.22,9.32,12.16,1.36,19.85,8.45,24.08,19.47,4.29,11.19,3.75,22.74,1.47,34.29C306.62,230,300.8,229,295,227.67c-.63-.14-1-1.52-1.48-2.33l1.63-3.37c3.26-10.42,1.52-20.33-3.85-29.49-3.57-6.06-11.15-7.91-15.55-4.21-6.42,5.39-8.78,12.61-8.29,20.87-.09,1.69-.16,3.38-.28,5.06-.09,1.19-.66,2.52-.3,3.54,1.88,5.39,2.51,11.48,7.84,15.07l-9.19,5.77-2.64,0h0l-.85-.85,0,0-3.31-1.66h0l-2.5-.84,0,0-1.67-.85h0a16.39,16.39,0,0,0-15.63,0h0l-1.67.84h0l-1.66.84,0,0L235,237h0l-1.68.84,0,0-.83.84h0l-.84.84h-2.53l-.84-.84h0l-1.13-.75c.19-.74.14-1.72.6-2.19,4.23-4.25,5.95-9.54,6.64-15.3.43-.46,1.23-.92,1.24-1.39.16-7.25.65-14.58-2.64-21.37-3.69-7.61-10.22-8.75-14.84-1.76-3.14,4.76-4.07,11-6,16.56-.13,1.95-.43,3.89-.37,5.83C212,223,210.27,228,215,232l-6.42,2.4c-2.31.26-3.55-.5-3.33-3.1.18-2,.06-4,.08-6,.24-.48.66-.94.69-1.42.91-14.77,4.5-28.66,13.1-41,.36-.53,0-1.54,0-2.32l.18-1.51h0l.84-.83h0l.84-.84h0l.83-.84v0l.84-.84v0l4.11-3.47,6.48-4,1.76-.85h0l4.13-1.66h0l3.24.77-.82.82-.86,1.63c-4.18,3.42-5.11,9.3-1.92,16.35l.35-4.73,0,0,1.66-1.67h0l2.49-2.49h0a15,15,0,0,1,1.63,3.12c.53,2.14.76,4.34,1.12,6.52l1,0,2.26-4.54-2.68.73v-3.37l1.41-3.94-1.33-.32-2.33.19-2.73,1.59-1.69-4.4a.87.87,0,0,1,0-.53l.81-1.07c0-.46.05-.93.08-1.39.28-.54.55-1.09.83-1.64l.83-.8,4.29-2.54-.55-1.7h-12.1l1.86-2.5,1.48-.77,1.62-.95c0-.25,0-.49,0-.73l0,0,.87-.84,0,0,.94.17.72-.18a1.15,1.15,0,0,1,.55-.1,6,6,0,0,0,1.63.06c3.39-.73,6.76-1.53,10.14-2.31l4.24.77C256.72,152.26,252.32,151.82,253.07,147.72Zm34.44,37.07c-.95-5-6.61-7.35-11.24-4.8Zm-66,3.39,12.29-6.08C228.64,180.63,226,181.93,221.46,188.18Z"/><path class="cls-2" d="M265.55,238.58l9.19-5.77,3.86-2.25,8.94-2c1.91.06,3.83,0,5.72.2,6.62.68,13.36.93,19.11,5,.55,2.77,1.11,5.53,1.68,8.38l-3.33,1,3,12.94-1.24.36-4.09-2c-1.12,2.74-1.85,5.38-3.19,7.66-5.8,9.85-15.85,13.31-25.86,16.67-.47.16-1.51-1.42-2.29-2.2l.31-.38-.39.3-2.43,1.3-.86,1.23,0,0-.85.85v0l-1.6.06c-1.43.75-3.2,1.18-4.21,2.3-4.44,4.92-9.43,8.37-16.43,7.64L249,289l-2.41-1.69h-1.72l0,0-.85-.85,0,0-1.25-.86-.13-.32c-.21-3.37-2.19-5.26-5.25-6.24a.9.9,0,0,0-.09-.33c0-.05-.16-.05-.24-.07l.35.38,2.07,4.22-12.2-1.76c-3.46-1.91-7.32-3.36-10.3-5.86-3.23-2.71-5.65-6.41-8.42-9.68-.45-1.4-.62-3-1.43-4.16-1.08-1.51-2.31-1.4-2.7.74h0L201.93,265l0,0V250.28c-1.61,1.95-2.45,3-3.3,4l0,0c-.52-1-1.37-2-1.47-3a14.49,14.49,0,0,1,.64-3.84l3.26-4.65,3.75-2.25-6.22-1.95v0l4.06-2.46a2.74,2.74,0,0,1,.64,0l5.2-1.68L215,232c-4.69-4-3-9.06-3.15-13.8-.06-1.94.24-3.88.37-5.83a20.17,20.17,0,0,0,2-2.42c2.12-3.5,3.37-7.75,7.74-9.31,1-.34,2.52-.59,3.13-.08,3.94,3.31,7.18,7.17,8.24,12.44-.29,3-.59,6-.88,9l-1.52-.85c-.33-4.59-2.82-7.82-6.4-8.29-3.27-.43-6.65,1.8-7.75,5.92-.72,2.67-.51,5.62-.58,8.45-.05,1.77.14,3.55.23,5.33l3.57,1.15v0l1.74.56,2.41,1.12,3.06,2.57,1.12.67h0l.84.84h0l1.12,2.24,1.47-2.24h0l.84-.84h0l.83-.84v0L235,237h0l.85-.85,0,0,1.66-.84h0l1.67-.84h15.59l1.67.85,0,0,2.5.84h0l3.31,1.66,0,0,.85.85h0C263.79,239.37,264.69,241.73,265.55,238.58ZM266.82,270l.27-.91c1.94-4.61,4-9.19,5.72-13.87.22-.57-1-1.68-1.55-2.54l-2.51-1.88c-.5,1.78-.6,3-1.18,4a15.92,15.92,0,0,1-19.25,6.53c-1-.38-2-1.05-3-1-3.17.26-6.31.81-9.46,1.24l-6.61-5.17c-.05,1.19-.52,2.51-.07,3a49.46,49.46,0,0,0,6.94,6.79c5.18,3.87,9.3,8.41,11.28,14.68,1.42,3.66,3.94,5.83,8,5.54,3.92-.28,7.63-4.22,8.74-9l2.32-6.39Zm-18.7-32.31L236.58,240c-3.55,3.22-3.69,5.35-.55,8.4,6.15,6,6.16,6,13.46,1.68a26.1,26.1,0,0,0,3.06-2c3.43-2.76,3.6-4.76.36-7.67C251.58,239.19,249.73,238.59,248.12,237.72Z"/><path class="cls-3" d="M274.59,463.21h-8.11c3.83,7,2,12.56-2.93,16.43-3.41,2.69-8,4-12.21,5.49-3.15,1.09-6.57,1.39-9.87,2-.47-.22-.95-.64-1.4-.62-13,.75-26,1.55-39,2.33l0,0-1.6-.11-2.56-2-.69-4.61c4.48,2.76,9.23,1.49,13.94.92,7.14-.85,14.34-1.37,21.42-2.58,5.58-.95,7.07-3.3,6.54-9a48.84,48.84,0,0,0-1.69-7.13c5,.1,10.06.33,15.09.28,4,0,8.24,1.4,12.37-1.42l-3.48-2.44c.86-.3,1.71-.68,2.59-.9,8.49-2.11,16.11-5.68,18.36-15a68.08,68.08,0,0,0,2-18.25C283,414,273,402.55,260.72,399.58c-5-1.21-10.16-2-15.18-3.29-7.93-2-14.46-5.79-17.06-14.33-.5-1.64-1.72-3.07-2.6-4.59q2-5.87,4-11.73l2.42-1.42a8.2,8.2,0,0,1,.94,2.68c-.11,4.64-.52,9.28-.58,13.93-.07,6,1.17,7.16,6.9,6.94.77,6,1,6,6.76,3.34a4,4,0,0,1,2.2-.09c3.64.56,5.63-1.08,6.28-4.59l0,0,.9-1.15,2.31-3.1c1.84,2.41,2.73,5.89,6.66,5.94l.85,0,0,0,.85.86h0l.51,1.14c1.83,2.28,3.78,2.89,6.21.74.73-.64,2-.64,2.79-1.21,1.64-1.16,3.78-2.21,4.56-3.85,2.06-4.32,3.49-8.94,5.17-13.44l8-4.81,6.61-.89,5.76,12.44,0-.05.85,1.7,0-.05c.62,1.94,1.19,3.9,1.86,5.82,2.47,7.1,5,14.18,7.47,21.27q0,6.78,0,13.57-3,9.4-6.05,18.81l0-.05-2.46,4.18h0l-.88,1.67,0-.06-1.69,1.7-.76.84L303.3,450l.05,0-.87.86,0,0-.86.87,0-.05-1.61.89-.86.78-1.7,1.67.05,0-.87.86,0-.05-3.31,1.71,0,0-.87.84.05-.05-1.7.86.05,0Z"/><path class="cls-4" d="M299.19,279.9l7.42,3.19c.87,1.14,1.66,2.35,2.63,3.4,2.21,2.4,4.8,4.51,6.73,7.12,8.92,12.05,11.16,26,10.27,40.49a19.5,19.5,0,0,1-4.65,11.07C311.72,356,299.83,363,284.42,361.62c-.41.25-1.22.59-1.19.72,2.54,9.75-5.54,15.45-8.26,24.08l-3.2-4.43c-.32,1.33-.49,2.06-.67,2.79l-4,4.13-.85,0h0l-.85-.86,0,0-.78-1.05c-.42-5.18-.84-10.36-1.18-14.63-1.29,1.92-1.29,1.92-1.32,13.15l0,0c-5-7.24-6.55-20.76.95-27.13.44-.37.48-1.21.7-1.82h0l5-3.32h0l5-2.49h0L277,348.4h0l2.49-2.49v0l1.67-.84,0,0,.87-1c2.52-1.77,4.3-5.08,8.21-4l.84-.81,4.12-2.5,0,0,0-1.65c-4.16-4.12-2.21-9.29-2.4-14.09v0l.82.82h0l1.11,3.91c3.37-4.85,1.64-9.83,1.44-14.2l7.25-2-.07-1.31-3.2-1.2h0l-.84-.84v0l-.83-.84h0l-.84-.84h0l-.83-1.65h0a20.74,20.74,0,0,1,3.36-2.89c3-1.64,3-2.44-.06-4.54h0l-1.66-2.48h0l-1.66-2.48h0a7.14,7.14,0,0,0-6.6-6.61h0l-.83-.83h0a29.47,29.47,0,0,1,3-2.42A34.59,34.59,0,0,1,296,279Zm-2.49,54.74.79,1.43,6.72-3.56-.79-1.43Z"/><path class="cls-1" d="M257.93,382.21l-2.31,3.1-.9,1.15,0,0-3.56,1a27.59,27.59,0,0,1-.08-3.85c.17-1.61.61-3.19,1-5.42-2.19,3.68-3.83,6.69-5.77,9.49a3.07,3.07,0,0,1-2.88.81c-.69-.3-1.09-1.74-1.22-2.73a33.14,33.14,0,0,1,0-4.46l-.74,0L239.93,384c-2.66.29-3.4-1-3.44-3.53-.06-4.12-.56-8.23-.87-12.34,0-1.86,0-3.72,0-5.58l.57-4c-15.33-1-28.92-4.81-37.61-18.52-3.38-7.9-.85-15.12,2.58-22.22.47-.22,1.18-.3,1.39-.67q6-10.33,11.81-20.74l1.59-.08,6.78,1.23c-1.89,10.86-1.51,14.84,2,18.44.36-1.49.68-2.78,1-4.08l.07.08c.57.68,1.46,1.29,1.64,2.07.72,3,1.21,6.07,1.78,9.11.06.09.16.18.15.26a3.74,3.74,0,0,1-.17.54c-.58,1.32-1.15,2.63-1.73,3.94-4.75-.74-9.1-3.86-14.24-2.39l5.29,1.27,15.61,8.33.82.84,1,1.14c.23-.39.47-.77.71-1.15l11.5,13.73.86,1.15,0,0,.84.84,0,0,.85.85,0,0,2,.85a.56.56,0,0,1,.44.52l.84,1.15,0,0,.85.86,0,0a33.22,33.22,0,0,1,1.36,3.68A23,23,0,0,1,257,365c0,3.38-.62,6.76-.51,10.13C256.57,377.5,257.42,379.85,257.93,382.21Z"/><path class="cls-5" d="M371,71.47,372.47,70l1-.92L375.24,65l-6-.61c2.57-2.79,6.1-2.12,9-1.65,1.4.23,3.5,3.53,3.27,5.16-1,6.87-2,13.88-4.29,20.39a105.69,105.69,0,0,1-21.14,35.44c-4,4.47-8.5,8.49-12.9,12.58-5.58,5.19-10.92,10.76-17,15.22-7.41,5.39-15.56,9.76-23.34,14.66-2.4,1.51-4.63,3.31-7.64,5.49,22.31,16.1,27.74,38.25,24.53,63.6l-1.52.09h0l-1.63-.81h0l-1.62-.81h0l-2.4-2.55c2.28-11.55,2.82-23.1-1.47-34.29-4.23-11-11.92-18.11-24.08-19.47-3.43-.38-7.21-5.89-6.22-9.32.25-.85,1.5-1.42,2.3-2.11l3.92-3.39,9.05-4.15h0l1.65-.83h0l6.59-3.89,12.54-9.13,1.58-1,3.27-1.54,3.3-2.49,1.6-1.71,1.7-.77.82-.83,1.61-1.69,2.51-1.62.82-.82,3.27-3.34.81-.84.82-.83,4.95-5,.84-.8.83-.81,2.5-2.47.82-.82,1.63-2.51,1.68-1.62.81-.83,1.67-2.48c.25-.56.51-1.13.76-1.7l.87-.78,1.66-2.47,1.65-2.48C366.12,93.08,369.12,82.49,371,71.47Z"/><path class="cls-1" d="M351.3,427.05c-1.72,4.2-3.38,8.43-5.19,12.6-2.94,6.81-8.32,11.5-13.94,16-.62.49-.68,1.7-1,2.57a7.81,7.81,0,0,0-2.28.11c-4.38,1.61-8.74,3.32-13.1,5l-20-.16a3.47,3.47,0,0,0,0-.72c1-.74,1.95-1.48,2.94-2.2A55.1,55.1,0,0,0,321.38,424c1.76-10.18,1.75-20.65,2.62-31,.1-1.26.42-3.1,1.25-3.54s2.77.09,3.63.86c4.69,4.2,9.91,8.08,13.54,13.09,3.33,4.61,5,10.45,7.16,15.86C350.53,421.7,350.75,424.44,351.3,427.05Z"/><path class="cls-6" d="M315.79,463.32c4.36-1.67,8.72-3.38,13.1-5a7.81,7.81,0,0,1,2.28-.11c2.8.81,5.63,1.53,8.39,2.45,8.59,2.85,17.26,5.62,24.41,11.47,2.79,2.28,5.16,5.05,7.72,7.6.07.55.14,1.1.2,1.66l-3.37,1.66-1.82-.76-.31.69,2.07.95h0l0,1.62c-2.74,8.28-2.74,8.28-9,8.24h-.82v0l-.85-1-.71-.61-1.72,0c-1,5.11-3.16,7.25-7.09,6.54-12.86-2.31-23.57-8.06-31-19.32C313.88,474.16,311.46,469.13,315.79,463.32Z"/><path class="cls-1" d="M246.48,142.78l3.34,1.67,1.67,1.57-.05-.05-2.27,3.36,3.59,2.82-7.95,2.14h-2.45a9.11,9.11,0,0,0-2.16-1.62c-8.35-2.95-16.83-5.25-25.8-5H196.92l-6.49.16-6.62.66c-4.8,0-9.6,0-14.4.1-2.66.08-5.31.49-8,.75l-13.09-1.65a36.37,36.37,0,0,0-4.5-2.72c-3.71-1.61-7.51-3-11.27-4.51l-.85,1.17c4.47.37,5.68,3.33,6.74,6.7.52,1.67,2.06,3,3.14,4.49l.87,1.62.13,1.54a73.66,73.66,0,0,1-5.71-4.84c-4.76-4.93-9.38-10-14.05-15-.56-3.07.47-4.63,3.82-4.19,1.46.19,3,.11,4.43.16l13.9,1.7,3.34,1.64,4.06.07c.71.49,1.42,1.41,2.14,1.41,10.43.07,20.92.72,31.27-.18a142.2,142.2,0,0,1,36.71,1.58c8,1.39,16,3.51,23.95,5.3l.87.62.21-.31-1.07-.32C246.49,143.3,246.49,143,246.48,142.78Z"/><path class="cls-7" d="M236.49,464.41a48.84,48.84,0,0,1,1.69,7.13c.53,5.68-1,8-6.54,9-7.08,1.21-14.28,1.73-21.42,2.58-4.71.57-9.46,1.84-13.94-.92.18-1.43.36-2.85.55-4.28l-.65-.28c-.57,1.26-1.13,2.52-1.69,3.77-6.47,0-8.83-1.78-10-7.49l1.17-2.67c-.85-1.34-1.67-2.07-1.71-2.84a14.21,14.21,0,0,1,.7-3.5l0,0,.87-.95a13.67,13.67,0,0,1,1.93-2.33c6-4.72,13.06-6.33,20.52-6.67a9.62,9.62,0,0,0,2.26-.69l.09-.38a2,2,0,0,0,.73.33l-.06-.05c1,.8,1.95,2,3.12,2.34,5.53,1.8,11.13,3.38,16.71,5Zm-49.37,3.82,1.63-.85a1,1,0,0,0,.3-.14s0-.15,0-.23l-.33.39-1.67.81a1.2,1.2,0,0,0-.31.18c0,.05,0,.17,0,.26Z"/><path class="cls-8" d="M351.3,427.05c-.55-2.61-.77-5.35-1.72-7.8-2.12-5.41-3.83-11.25-7.16-15.86-3.63-5-8.85-8.89-13.54-13.09-.86-.77-2.79-1.31-3.63-.86S324.1,391.72,324,393c-.87,10.34-.86,20.81-2.62,31a55.1,55.1,0,0,1-22.64,36.27c-1,.72-2,1.46-2.94,2.2H285.62l5.37-3.37-.05,0,1.7-.86-.05.05.87-.84,0,0,3.31-1.71,0,.05.87-.86-.05,0,1.7-1.67.86-.78,1.61-.89,0,.05.86-.87,0,0,.87-.86-.05,0,.88-1.64.76-.84,1.69-1.7,0,0c.29-.55.59-1.1.88-1.66h0l2.46-4.18,0,.05c4.14-5.58,6.71-11.68,6.05-18.81q0-6.78,0-13.57c.19-1.16.87-2.53.49-3.47-3.16-7.92-6.52-15.76-9.82-23.62l0,.05c-.28-.57-.57-1.13-.85-1.7l0,.05-5-12.48c3.66-1.39,7.29-2.9,11-4.1,1.29-.42,2.82,0,4.24,0q6.53,9.26,13,18.52c.85,1.21,1.52,2.55,2.28,3.83l.9.79-.06-.05,1,.86,7.23,7.42c.29.56.58,1.12.88,1.68l0,0,.81.91c7.07,7.84,10.9,16.84,9.86,27.58A24.39,24.39,0,0,1,351.3,427.05Z"/><path class="cls-1" d="M209.42,391.39q4.59-5.81,9.16-11.62c2.52,2.09.4,4.15-.26,6-6.36,17.49-5.85,34.36,3.92,50.6a91.22,91.22,0,0,1,5.51,11c1.81,4.17.43,7.42-3.62,9.47L211,454.18l.06.05-.73-.33-.09.38c-.26-.33-.53-.65-.79-1a21,21,0,0,0-1.38-4.1c-2.23-3.85-5-7.45-6.92-11.43-6.16-12.54-3.15-24.39,3.16-35.93C206.14,398.45,207.71,394.89,209.42,391.39Z"/><path class="cls-3" d="M315.79,463.32c-4.33,5.81-1.91,10.84,1.5,16,7.4,11.26,18.11,17,31,19.32,3.93.71,6.13-1.43,7.09-6.54l1.72,0,.71.61.85,1v0q.81,5.41,1.64,10.82l0,0-.87.87,0,0-11.69.82-12.27-5.56-2-1-.35,0-1.8-.88,0,0-1.7-.86.05,0-1.7-.86.05,0-1.7-.86.05,0-1.22-.85-.29.06-1.37-.89-.32.07L320.5,493c-8.35-4.11-16.14-9-22.63-15.81-3.13-3.27-4.6-7-3.55-11.48l1.5-2.57Z"/><path class="cls-9" d="M224.13,456.83c4.05-2.05,5.43-5.3,3.62-9.47a91.22,91.22,0,0,0-5.51-11c-9.77-16.24-10.28-33.11-3.92-50.6.66-1.83,2.78-3.89.26-6,2.91-5.37,6.53-10.44,7-16.82.09-.17.17-.35.26-.53l-.2,0,4.19,3.25q-2,5.87-4,11.73c-3.55,8.07-6.34,16.34-6.69,25.27a63.4,63.4,0,0,0,11,38.46c7.32,11.06,17.3,17.59,30.27,19.73l3.48,2.44c-4.13,2.82-8.38,1.38-12.37,1.42-5,.05-10.06-.18-15.09-.28l-5.7-2.85c-1-.75-1.89-1.54-2.89-2.24C226.67,458.45,225.39,457.66,224.13,456.83Z"/><path class="cls-3" d="M299.19,279.9,296,279c-6.56.85-13.11,1.79-19.69,2.44-1.09.11-2.3-1.05-3.45-1.62v0l.85-.85,0,0,.86-1.23,2.43-1.3.08.08c.78.78,1.82,2.36,2.29,2.2,10-3.36,20.06-6.82,25.86-16.67,1.34-2.28,2.07-4.92,3.19-7.66l4.09,2,1.24-.36-3-12.94,3.33-1c-.57-2.85-1.13-5.61-1.68-8.38l2.46,0h0l1.62.81h0l1.63.81h0l1.72.76c1.89.59,3.8,1.14,5.66,1.83.2.07.09,1,.12,1.47l-.86.88,0,0-1.69.86,0,0-2.26.86,1.45,1.59-.05,0,1,.86,3.12,3.07c.29.35.57.71.85,1.06v0l0,2.55-4.33,2.17v12.68l-1.17.17c-1.28-1.93-2.56-3.85-3.48-5.25-3.19,4.64-5.77,9.14-9.13,13-1.73,2-4.86,2.68-7.3,4.07A21.32,21.32,0,0,0,299.19,279.9Z"/><path class="cls-5" d="M284.42,361.62c15.41,1.4,27.3-5.62,37.17-16.45a19.5,19.5,0,0,0,4.65-11.07c.89-14.48-1.35-28.44-10.27-40.49-1.93-2.61-4.52-4.72-6.73-7.12-1-1.05-1.76-2.26-2.63-3.4,9.74,3.27,16.22,10.2,19.85,19.41,4.47,11.35,7.23,23.21,6.56,35.58-.37,7-4.06,12.39-9.36,16.65-2.44,2-5.22,3.5-7.84,5.22-6.21,1.85-12.35,4-18.63,5.49C287.52,367.77,287.32,367.55,284.42,361.62Z"/><path class="cls-5" d="M122.85,136.07c4.67,5,9.29,10.09,14.05,15a73.66,73.66,0,0,0,5.71,4.84h0l6.59,6.7c.22.47.31,1.19.68,1.39,5.94,3.22,11.91,6.4,17.92,9.48.49.26,1.35-.2,2-.32l12.37,2.69c3.19.52,6.41,1.62,9.56,1.44,9.38-.53,18.73-1.6,28.1-2.36.88-.07,1.82.56,2.73.87v0l-.84.84v0l-.83.84h0l-.84.84h0l-.84.83h0l-4.09,2.3c-6.92.64-13.84,1.58-20.77,1.85a73.5,73.5,0,0,1-30.29-5.66c-15.57-6.2-27.31-16.79-37.18-29.91,0-.25-.11-.5-.16-.75l0,0c-.56-1.11-1.11-2.23-1.67-3.35l.07,0-.87-.88,0,.05-.88-1.71,0,.06-.9-1.81.06-.28C122.78,138.06,122.81,137.07,122.85,136.07Z"/><path class="cls-10" d="M351,70.83l1.64.1.13.45c-3.32.94-6.76,1.57-9.94,2.86-7.47,3-15.46,5.41-22.08,9.81-13.07,8.7-24.4,19.57-31.64,33.84-4.51,8.9-8.14,18.24-12.22,27.35a41.73,41.73,0,0,1-2.4,4.07l4.17-17.37,0,.07,1-1.73c4.69-13.6,12.36-25.2,22-35.92C311.61,83.11,324,76.43,338.19,72.51,342.29,71.38,346.7,71.36,351,70.83Z"/><path class="cls-10" d="M246.47,143.56c-8-1.79-15.9-3.91-23.95-5.3a142.2,142.2,0,0,0-36.71-1.58c-10.35.9-20.84.25-31.27.18-.72,0-1.43-.92-2.14-1.41l7.34-.15L185.22,133l5.8-.18c4.21,0,8.42.12,12.62,0,1.07-.05,2.11-.95,3.17-1.45l17.61,2.57c.4.44.73,1.13,1.23,1.3,5.22,1.73,10.46,3.38,15.7,5.06l5.13,2.55c0,.26,0,.52,0,.77Z"/><path class="cls-10" d="M209.42,391.39c-1.71,3.5-3.28,7.06-5.15,10.46-6.31,11.54-9.32,23.39-3.16,35.93,2,4,4.69,7.58,6.92,11.43a21,21,0,0,1,1.38,4.1,32.5,32.5,0,0,1-13-13.59c-1.86-3.78-3.3-7.86-3-12.67.35-5.67.38-11.36,2.88-16.42C199.75,403.65,202.58,396.1,209.42,391.39Z"/><path class="cls-11" d="M284.42,361.62c2.9,5.93,3.1,6.15,12.77,3.82,6.28-1.52,12.42-3.64,18.63-5.49l.27,2.49c-1.42,0-2.95-.39-4.24,0-3.73,1.2-7.36,2.71-11,4.1l-.78,0-6.61.89c-7.2-.08-7.2-.08-8,4.81-1.68,4.5-3.11,9.12-5.17,13.44-.78,1.64-2.92,2.69-4.56,3.85-.81.57-2.06.57-2.79,1.21-2.43,2.15-4.38,1.54-6.21-.75l.38-.36,4.82-.3-.84-4.62.67-2.79,3.2,4.43c2.72-8.63,10.8-14.33,8.26-24.08C283.2,362.21,284,361.87,284.42,361.62Z"/><path class="cls-11" d="M229.83,365.64l-4.19-3.25-4.13-2.34,14.1,2.54c0,1.86,0,3.72,0,5.58-.5,1-1.38,1.93-1.42,2.92a94.39,94.39,0,0,0,0,11c.1,1.43,1.17,2.79,1.79,4.18l3.94-2.26,1.57-2.79.74,0a33.14,33.14,0,0,0,0,4.46c.13,1,.53,2.43,1.22,2.73a3.07,3.07,0,0,0,2.88-.81c1.94-2.8,3.58-5.81,5.77-9.49-.44,2.23-.88,3.81-1,5.42a27.59,27.59,0,0,0,.08,3.85l3.56-1c-.65,3.51-2.64,5.15-6.28,4.59a4,4,0,0,0-2.2.09c-5.77,2.7-6,2.61-6.76-3.34-5.73.22-7-.92-6.9-6.94.06-4.65.47-9.29.58-13.93a8.2,8.2,0,0,0-.94-2.68Z"/><path class="cls-5" d="M235.61,362.59l-14.1-2.54a37.25,37.25,0,0,1-20-12.55c-1.6-2-2-4.91-2.93-7.41,8.69,13.71,22.28,17.56,37.61,18.52C236,360,235.79,361.3,235.61,362.59Z"/><path class="cls-3" d="M359.45,493.79c6.24,0,6.24,0,9-8.24l1.7.84h0c2,3.92,4.2,7.76,3.31,12.44l0,0-.86.86,0,0-.86.86,0,0-.81.87-1.92.72-5.3.84Z"/><path class="cls-10" d="M219.11,180.6c0,.78.33,1.79,0,2.32-8.6,12.3-12.19,26.19-13.1,41a4.26,4.26,0,0,1-.7,1.42c-.28-3.29-.57-6.59-.86-9.88,2.3-7.9,2.36-16.46,7.2-23.64,2-3,3.5-6.32,5.23-9.5Z"/><path class="cls-12" d="M225.73,312l-1,4.08c-3.52-3.6-3.9-7.58-2-18.44l-6.78-1.23c-.12-.38-.24-.76-.37-1.15l.36-1.37,5.75-3.3,1.83.14-5.9,5.08,8.18-.49c-.59,1.26-1.42,2.32-1.54,3.45-.45,4.1-.7,8.24-.84,12.37C223.4,311.37,224.92,311.68,225.73,312Z"/><path class="cls-3" d="M184.48,473.9c1.18,5.71,3.54,7.47,10,7.49.27,2.62-.41,4-3.41,2.93a14.43,14.43,0,0,0-3.19-.39l0,0-1.74-.87c-3.59-2-4.62-4.86-3.25-9Z"/><path class="cls-3" d="M214.35,296.46q-5.88,10.38-11.81,20.74c-.21.37-.92.45-1.39.67.6-2.26.71-4.83,1.9-6.72,3.53-5.62,7.48-11,11.27-16.44Z"/><path class="cls-13" d="M201.08,488.88c13-.78,26-1.58,39-2.33.45,0,.93.4,1.4.62-5.24.76-10.46,1.9-15.73,2.2-7.61.44-15.25.29-22.88.32C202.27,489.69,201.67,489.16,201.08,488.88Z"/><path class="cls-14" d="M295.82,463.16l-1.5,2.57c0-2.72-1.9-2-3.47-2-5.42-.14-10.84-.34-16.26-.52l16.4-4.14-5.37,3.37H295.8A3.47,3.47,0,0,1,295.82,463.16Z"/><path class="cls-12" d="M237.39,279.05c3.06,1,5,2.87,5.25,6.23l-4.5-.27-8.94,1.74,1-3.56h-2.75c-.06-.57-.11-1.14-.17-1.7l12.2,1.76L237.41,279Z"/><path class="cls-14" d="M244.81,154.29l7.95-2.14-3.59-2.82,2.27-3.36,1.63,1.75c-.75,4.1,3.65,4.54,5,7.48l-4.24-.77-9,.7Z"/><path class="cls-13" d="M373.46,498.83c.89-4.68-1.35-8.52-3.31-12.44l4.15,2.89c-.31-2.54-.58-4.79-.85-7l.06-.06C377.22,487.75,376,493.29,373.46,498.83Z"/><path class="cls-12" d="M204.42,215.42c.29,3.29.58,6.59.86,9.88,0,2,.11,4-.07,6-.22,2.6,1,3.36,3.33,3.1l-5.2,1.68Z"/><path class="cls-10" d="M221.68,290.56l-5.75,3.3c.71-5.9,5.87-6.85,10-9Z"/><path class="cls-9" d="M185.22,133l-25.48,2.33Z"/><path class="cls-13" d="M359.45,493.79l4.36,9.1,5.3-.84a19.34,19.34,0,0,1-3.42,1.68,51.43,51.43,0,0,1-5.42.88q-.82-5.4-1.64-10.82Z"/><path class="cls-9" d="M278.62,131.94l-4.17,17.37h0l-.87,1.65h-.84Q275.71,141.45,278.62,131.94Z"/><path class="cls-1" d="M206.81,131.3c-1.06.5-2.1,1.4-3.17,1.45-4.2.16-8.41.05-12.62,0,3.23-.55,6.44-1.23,9.7-1.59A44.33,44.33,0,0,1,206.81,131.3Z"/><path class="cls-15" d="M198.65,254.28c.85-1,1.69-2.05,3.3-4V265c-.55-2.58-1-5.18-1.69-7.71A14.74,14.74,0,0,0,198.65,254.28Z"/><path class="cls-1" d="M221.68,290.56l4.21-5.7,1.56-1.67h2.75c-.4,1.4-.7,2.48-1,3.56-.23.19-.45.39-.67.59l-1.82.84h0l-1.67,1.67,0,0-1.68.85.1,0Z"/><path class="cls-9" d="M241.35,140.23c-5.24-1.68-10.48-3.33-15.7-5.06-.5-.17-.83-.86-1.23-1.3,4.69,1.3,9.41,2.52,14.05,4C239.57,138.21,240.4,139.41,241.35,140.23Z"/><path class="cls-13" d="M187.89,483.93a14.43,14.43,0,0,1,3.19.39c3,1.09,3.68-.31,3.41-2.93.56-1.25,1.12-2.51,1.69-3.77l.65.28c-.19,1.43-.37,2.85-.55,4.28l.69,4.61Z"/><path class="cls-13" d="M184.48,473.9l-1.54.14c-2.88-3.69-.81-6.46,1.7-9.15a14.21,14.21,0,0,0-.7,3.5c0,.77.86,1.5,1.71,2.84Z"/><path class="cls-14" d="M122.85,136.07c0,1-.07,2-.1,3-1.66-2.37-2.9-5.2-.55-7.38,2.7-2.5,6-1.69,8.9.36-1.48,0-3,0-4.43-.16C123.32,131.44,122.29,133,122.85,136.07Z"/><path class="cls-13" d="M347.78,506.23l11.69-.82C355.8,508.89,351.82,508.05,347.78,506.23Z"/><path class="cls-15" d="M197.84,247.41a14.49,14.49,0,0,0-.64,3.84c.1,1,1,2,1.47,3-2.53,2-3-.39-2.85-1.75C196,250.76,197.13,249.11,197.84,247.41Z"/><path class="cls-13" d="M198.63,238.56l6.22,1.95-3.75,2.25Z"/><path class="cls-9" d="M272,153.09l-1.5,2.76c-.86-.81-1.71-1.63-2.56-2.45Z"/><path class="cls-15" d="M204.43,262.53c.39-2.14,1.62-2.25,2.7-.74.81,1.14,1,2.76,1.43,4.16Z"/><path class="cls-15" d="M201.93,265l2.51-2.48-.49,5-1.2.13Z"/><path class="cls-13" d="M202.7,236.12l-4.06,2.46-2.89-1.15Z"/><path class="cls-11" d="M219.11,180.6l-2.26,1.68-1.65-.89,4.09-2.3Z"/><path class="cls-10" d="M148.34,135.38,145,133.74Z"/><path class="cls-14" d="M125.18,143.59c.56,1.12,1.11,2.24,1.67,3.35C126.29,145.83,125.74,144.71,125.18,143.59Z"/><path class="cls-13" d="M322.38,243.51l-1.45-1.59,2.26-.86Z"/><path class="cls-13" d="M320.5,493l2.75,1.72Z"/><path class="cls-13" d="M327.27,251l0-2.55Z"/><path class="cls-14" d="M251.49,146l-1.67-1.57C250.37,145,250.93,145.5,251.49,146Z"/><path class="cls-13" d="M371.89,481.4c-.06-.56-.13-1.11-.2-1.66.61.82,1.21,1.64,1.82,2.45l-.06.06Z"/><path class="cls-10" d="M214.35,296.46l0-1.75,1.26.53.36,1.14Z"/><path class="cls-13" d="M371,501.33l.81-.87Z"/><path class="cls-13" d="M333.5,499.64l2,1Z"/><path class="cls-13" d="M331.35,498.8l1.8.88Z"/><path class="cls-13" d="M329.7,498l1.7.86Z"/><path class="cls-13" d="M328.05,497.15l1.7.86Z"/><path class="cls-13" d="M326.4,496.32l1.7.86Z"/><path class="cls-13" d="M199.53,488.81l1.6.11Z"/><path class="cls-13" d="M186.19,483.09l1.74.87Z"/><path class="cls-14" d="M122.69,139.34l.9,1.81Z"/><path class="cls-12" d="M319.88,236.08l-1.72-.76,1.52-.09C319.75,235.51,319.81,235.8,319.88,236.08Z"/><path class="cls-14" d="M123.54,141.09l.88,1.71Z"/><path class="cls-13" d="M323.15,241.09l1.69-.86Z"/><path class="cls-9" d="M279.54,130.28l-1,1.73Z"/><path class="cls-14" d="M341.36,395.49c-.3-.56-.59-1.12-.88-1.68C340.77,394.37,341.06,394.93,341.36,395.49Z"/><path class="cls-9" d="M272.83,150.93c-.28.58-.56,1.16-.83,1.75C272.27,152.09,272.55,151.51,272.83,150.93Z"/><path class="cls-11" d="M225.84,362.42c-.09.18-.17.36-.26.53l0-.38Z"/><path class="cls-9" d="M268,153.46l-.88-.74Z"/><path class="cls-14" d="M126.8,146.92c0,.25.11.5.16.75A1,1,0,0,1,126.8,146.92Z"/><path class="cls-14" d="M332.3,385.58l-.9-.79Z"/><path class="cls-14" d="M333.25,386.39l-1-.86Z"/><path class="cls-14" d="M342.13,396.36l-.81-.91Z"/><path class="cls-13" d="M327.31,248.46c-.28-.35-.56-.71-.85-1.06C326.75,247.75,327,248.1,327.31,248.46Z"/><path class="cls-13" d="M323.34,244.33l-1-.86Z"/><path class="cls-13" d="M324.8,240.26l.86-.88Z"/><path class="cls-14" d="M124.38,142.75l.87.88Z"/><path class="cls-13" d="M185.49,464l-.87.95Z"/><path class="cls-10" d="M354.48,70l-.87,0,.86-.8V70Z"/><path class="cls-13" d="M323.57,494.67l1.37.89Z"/><path class="cls-13" d="M325.23,495.5l1.22.85Z"/><path class="cls-13" d="M372.63,499.65l.86-.86Z"/><path class="cls-13" d="M371.8,500.48l.86-.86Z"/><path class="cls-13" d="M359.43,505.44l.87-.87Z"/><path class="cls-16" d="M316.71,144.56l-12.55,9.12-6.59,3.89h0l-1.65.83h0l-4.8,1-.21-.21.93-2.39c5.63-7.91,6.87-17.48,9.77-26.4,1.16-3.56,1.72-7.31,2.55-11,2.68-5.31,5.32-10.66,8.1-15.92a17.49,17.49,0,0,1,2.62-3.06l4.15-4.8h0L321.5,94h0L324,92.32l0,0a41.68,41.68,0,0,0,4.12-1.74c10.95-6.07,22.75-9.83,34.75-13.1C359,81.05,355.52,85.19,351.2,88c-7.08,4.63-14.66,8.52-22.15,12.5-12.32,6.54-19.44,16.86-22.36,30.29-.58,2.66-.69,5.43-1.08,8.76l5.17-2.62h0l-6.74,11.3.48,1.06,12-4.92Z"/><path class="cls-16" d="M148.35,147.64l13.09,1.65,22.4,0,5.79-.15c10.59.07,21.23-.45,31.76.41,7.07.58,14,3.12,21,4.77h0l0,1.68,0,0-2.51.86,0,0-.87.84,0,0-1.64.9.05,0L235.91,160l-1.86,2.5a17.35,17.35,0,0,0,3.8,1.42,15.58,15.58,0,0,0,3.8-.39l0,.67-2.62,1.65h0l-4.13,1.66h0l-1.76.85-6.48,4-4.12.14c2.53-2.34,5.07-4.67,8.07-7.45L218,160.63l8.91-3.69.08-1c-3.68-.53-7.35-1.39-11.05-1.54-17.23-.69-34.48-.79-51.68-1.93C158,152,152,149.3,145.8,147.63Z"/><path class="cls-17" d="M278.6,230.56l-3.86,2.25c-5.33-3.59-6-9.68-7.84-15.07-.36-1,.21-2.35.3-3.54.12-1.68.19-3.37.28-5.06l3.75-6.8c6.82-8.32,13.34-7.86,19.39,1.36.16.23.77.16,1.17.23l-.05-.07,0,1,2.37,7c-1.41,1.87.24,5.7-3.76,5.92a27.27,27.27,0,0,0-.95-3.11c-1.31-3-3.22-5.44-6.93-5.38-3.88.06-5.84,2.61-7,5.88-1.49,4.26-1.3,8.42,1.4,12.24C277.48,228.5,278,229.53,278.6,230.56Z"/><path class="cls-18" d="M294.13,211.92l-2.37-7c.19-.3.37-.61.55-.92l-.57-.09.05.07c-.57-5.21-5.62-10-10.76-10.12-4.19-.14-10.61,4.45-11.23,8.09a10.9,10.9,0,0,0,1.43.44l-3.75,6.8c-.49-8.26,1.87-15.48,8.29-20.87,4.4-3.7,12-1.85,15.55,4.21,5.37,9.16,7.11,19.07,3.85,29.49,0-1.43,0-2.87-.12-4.28C294.83,215.76,294.45,213.85,294.13,211.92Z"/><path class="cls-18" d="M233.32,213c-1.06-5.27-4.3-9.13-8.24-12.44-.61-.51-2.17-.26-3.13.08-4.37,1.56-5.62,5.81-7.74,9.31a20.17,20.17,0,0,1-2,2.42c1.93-5.57,2.86-11.8,6-16.56,4.62-7,11.15-5.85,14.84,1.76,3.29,6.79,2.8,14.12,2.64,21.37,0,.47-.81.93-1.24,1.39C234.05,217.91,233.69,215.47,233.32,213Z"/><path class="cls-11" d="M222.58,172.49l4.12-.14-4.11,3.46c-.91-.31-1.85-.94-2.73-.87-9.37.76-18.72,1.83-28.1,2.36-3.15.18-6.37-.92-9.56-1.44a15.65,15.65,0,0,1,3.16-.37c11.67,1,23.24.73,34.65-2.23l2.57-.77Z"/><path class="cls-19" d="M362.83,77.5c-12,3.27-23.8,7-34.75,13.1A41.68,41.68,0,0,1,324,92.34c1-.89,1.83-2.11,3-2.6,8.35-3.57,16.72-7.11,25.17-10.41,5.06-2,10.3-3.5,15.46-5.22l1,.1a1.41,1.41,0,0,0-.1.81l0,0Z"/><path class="cls-13" d="M294.13,211.92c.32,1.93.7,3.84.92,5.77.15,1.41.09,2.85.12,4.28l-1.63,3.37-5,2.47.82-2.94,1-7C294.37,217.62,292.72,213.79,294.13,211.92Z"/><path class="cls-19" d="M304.17,119.43c-.83,3.66-1.39,7.41-2.55,11-2.9,8.92-4.14,18.49-9.77,26.4l-.86,0q5.37-15.66,10.75-31.32C302.45,123.4,303.35,121.43,304.17,119.43Z"/><path class="cls-20" d="M233.32,213c.37,2.44.73,4.88,1.1,7.33-.69,5.76-2.41,11-6.64,15.3-.46.47-.41,1.45-.6,2.19v.08l-3.06-2.57c4-2,6.52-5,6.83-9.7.08-1.25,1-2.44,1.48-3.66C232.73,219,233,216,233.32,213Z"/><path class="cls-11" d="M368.59,74.21l-1-.1L371,71.47c-1.83,11-4.83,21.61-11.47,30.83l-.41-.38c1.37-2.84,3.07-5.58,4.05-8.55,2-6.06,3.62-12.25,5.4-18.39l0,0C368.52,74.75,368.55,74.48,368.59,74.21Z"/><path class="cls-12" d="M288.59,227.81l5-2.47c.49.81.85,2.19,1.48,2.33,5.78,1.28,11.6,2.34,17.41,3.46l2.4,2.55-2.46,0c-5.75-4-12.49-4.29-19.11-5-1.89-.2-3.81-.14-5.72-.2Z"/><path class="cls-20" d="M287.51,184.79,276.27,180C280.9,177.44,286.56,179.83,287.51,184.79Z"/><path class="cls-20" d="M221.46,188.18c4.51-6.25,7.18-7.55,12.29-6.08Z"/><path class="cls-14" d="M239.06,165.87l2.62-1.65,0-.67a15.58,15.58,0,0,1-3.8.39,17.35,17.35,0,0,1-3.8-1.42h12.1l.55,1.7-4.29,2.53-.12-.11Z"/><path class="cls-14" d="M239.86,171.66a.87.87,0,0,0,0,.53q-.39,4.26-.77,8.52l-.35,4.73c-3.19-7.05-2.26-12.93,1.92-16.35l.13.11c0,.46-.05.93-.08,1.39Z"/><path class="cls-14" d="M246.49,179.07v3.37l2.68-.73-2.26,4.54-1,0c-.36-2.18-.59-4.38-1.12-6.52a15,15,0,0,0-1.63-3.12l1.08-1.59,2.33-.18C246.54,176.23,246.51,177.65,246.49,179.07Z"/><path class="cls-11" d="M291,156.76l.86,0-.93,2.39-.31.51.52-.3,4.8-1-9.05,4.15Z"/><path class="cls-18" d="M244.81,155.13l9-.7c-3.38.78-6.75,1.58-10.14,2.31a6,6,0,0,1-1.63-.06,3.46,3.46,0,0,0,.3-.75l0,0Z"/><path class="cls-12" d="M254.7,234.48H239.07A16.39,16.39,0,0,1,254.7,234.48Z"/><path class="cls-18" d="M239.05,180.71q.38-4.26.77-8.52c.56,1.47,1.13,2.93,1.69,4.4l.16.19-1,2.29h0L239,180.73Z"/><path class="cls-19" d="M319,95.65l-4.15,4.8Z"/><path class="cls-18" d="M246.49,179.07c0-1.42,0-2.84.08-4.25l1.33.31Z"/><path class="cls-12" d="M231.69,239.43l-1.47,2.24-1.12-2.24Z"/><path class="cls-12" d="M262.11,237.79l-3.31-1.66Z"/><path class="cls-14" d="M234.93,167.53l4.13-1.66Z"/><path class="cls-18" d="M244.24,175l-1.08,1.59h0l-1.5.2-.16-.19Z"/><path class="cls-12" d="M265.55,238.58c-.86,3.15-1.76.79-2.64,0Z"/><path class="cls-14" d="M241.67,176.78l1.5-.2-2.49,2.49Z"/><path class="cls-19" d="M324,92.32,321.49,94Z"/><path class="cls-19" d="M321.5,94,319,95.66Z"/><path class="cls-14" d="M239,180.73l1.66-1.67Z"/><path class="cls-10" d="M273.62,151l.87-1.65Z"/><path class="cls-19" d="M242.37,155.93a3.46,3.46,0,0,1-.3.75,1.15,1.15,0,0,0-.55.1,1.78,1.78,0,0,0-.72.18l-.94-.17Z"/><path class="cls-19" d="M235.91,160c.51-.53,1-1.05,1.55-1.57a2.68,2.68,0,0,1-.07.8Z"/><path class="cls-12" d="M258.82,236.13l-2.5-.84Z"/><path class="cls-10" d="M354.47,70l1.81.15-.16.55L354.48,70Z"/><path class="cls-12" d="M235,237l-1.67.84Z"/><path class="cls-12" d="M239.09,234.47l-1.67.84Z"/><path class="cls-14" d="M240.62,169.09l.86-1.63.1.11-.83,1.63Z"/><path class="cls-14" d="M233.18,168.37l1.76-.85Z"/><path class="cls-12" d="M237.44,235.3l-1.66.84Z"/><path class="cls-18" d="M237.39,159.25a2.68,2.68,0,0,0,.07-.8l-.05,0,1.6-.17Z"/><path class="cls-19" d="M239,158.3l-1.6.17,1.64-.9C239,157.81,239,158.05,239,158.3Z"/><path class="cls-12" d="M256.35,235.32l-1.67-.85Z"/><path class="cls-19" d="M239,157.61l.87-.84Z"/><path class="cls-18" d="M240.8,157a1.78,1.78,0,0,1,.72-.18Z"/><path class="cls-11" d="M219.28,179.1l.84-.83Z"/><path class="cls-14" d="M241.48,167.46l.82-.82.11.11-.83.81Z"/><path class="cls-12" d="M232.5,238.59l-.84.84Z"/><path class="cls-12" d="M229.13,239.43l-.84-.84Z"/><path class="cls-18" d="M239.86,171.66l.81-1.07Z"/><path class="cls-11" d="M220.1,178.28l.84-.84Z"/><path class="cls-12" d="M262.94,238.61l-.85-.85Z"/><path class="cls-12" d="M235.8,236.11,235,237Z"/><path class="cls-11" d="M220.93,177.45l.83-.84Z"/><path class="cls-12" d="M233.32,237.76l-.83.84Z"/><path class="cls-11" d="M373.45,69.12l-1,.92Z"/><path class="cls-11" d="M221.75,176.63l.84-.84Z"/><path class="cls-12" d="M227.19,237.93v-.08l1.13.75Z"/><path class="cls-3" d="M238.14,285l4.5.27s.13.33.13.33l1.25.86,0,0,.85.85,0,0,1.66.87,0,0,.85.85,0,0c2.94,5.61,14.52,5.51,17.33,0l0,0,.85-.85,0,0,.85-.85,0,0,.85-.85,0,0,.85-.85,0,0,.84-.85,0,0,1.67-1.67h0l18.94,0h0l.83.83h0l6.6,6.61h0l1.66,2.48h0l1.66,2.48h0c1.53,5.31-3.79,3-5.86,5.15l2.56,2.28h0l.83,1.65h0l.84.84h0l.83.84v0l.84.84h0c.33,2.59.33,2.59-5.66,2.18.26,3.68.59,7.32.7,11,0,.54-1,1.11-1.57,1.67h0c-.27-.27-.55-.54-.82-.82v0l-1.08-1.37-1.52,3.06c-1.05,2.27-2.09,4.53-3.13,6.8l.83.46,3.21-4.73q.45,5.73.91,11.46l-.89,1.69-.84.92v.74c-3.91-1.09-5.69,2.22-8.21,4l-.87,1,0,0-1.67.84v0L277,348.41h0l-3.32,2.49h0l-5,2.49h0l-5,3.32h0l-5.07,3.74-4-4.57,0,0-.85-.86,0,0a2,2,0,0,0,0-.81c7.7-.71,14.45-3.56,19.15-9.85,9.2-12.33,14.5-25.54,7.05-41.12h8.83c-1.61-1.73-2.82-3.11-4.12-4.41s-2.62-2.42-4.17-3.85l5.36-.64c-4.05-5.82-10.86-6.9-18.24-3.25C255.1,297.35,247.78,295.84,238.14,285Zm46.3,49.43c.29-.54.58-1.08.88-1.62l1.19-1.13-.27-.27-1.09,1.26-.81,1.64-1.08.41a3.15,3.15,0,0,0,.23.29C283.82,334.84,284.13,334.64,284.44,334.44Z"/><path class="cls-21" d="M248.12,237.72c1.61.87,3.46,1.47,4.79,2.66,3.24,2.91,3.07,4.91-.36,7.67a26.1,26.1,0,0,1-3.06,2c-7.3,4.31-7.31,4.3-13.46-1.68-3.14-3-3-5.18.55-8.4,1.33,3.61,4.66,4.4,9.73,3C249.94,242,248.8,239.9,248.12,237.72Z"/><path class="cls-15" d="M235.83,261.64c3.15-.43,6.29-1,9.46-1.24,1-.08,2,.59,3,1a15.92,15.92,0,0,0,19.25-6.53c.58-1,.68-2.23,1.18-4l2.51,1.88c-2.54,3.08-4.52,7.14-7.76,9-3.81,2.15-5,4.43-4.31,8.31-.75,5-4.16,6.08-8.53,5.69a.65.65,0,0,1-.15-.6c1.71-4.26.16-8-1.16-11.22L243.28,265Zm17.74,11.44c3.16-1.77,4.3-3.84,3.34-6.18-.36-.86-2.78-.86-5.22-1.51Z"/><path class="cls-22" d="M235.83,261.64l7.45,3.38c1,4.36,2.74,8.2,7.23,10.05a.65.65,0,0,0,.15.6c-.52,1.18-1,2.35-1.58,3.52l-.06-.13-.85,1.45-.8.44c-2-6.27-6.1-10.81-11.28-14.68a49.46,49.46,0,0,1-6.94-6.79c-.45-.5,0-1.82.07-3Z"/><path class="cls-23" d="M220,233.71l-3.57-1.15c-.09-1.78-.28-3.56-.23-5.33.07-2.83-.14-5.78.58-8.45,1.1-4.12,4.48-6.35,7.75-5.92,3.58.47,6.07,3.7,6.4,8.29l-2.49.89L224.86,219l.12,0-1.34-1-3.47,1.59-.2,9.09c-.51.4-1.49.91-1.43,1.16A33,33,0,0,0,220,233.71Z"/><path class="cls-24" d="M247.37,281l.8-.44c.29-.48.57-1,.85-1.45l.06.13,15-1.72c-1.11,4.8-4.82,8.74-8.74,9C251.31,286.78,248.79,284.61,247.37,281Z"/><path class="cls-22" d="M259.19,270c-.66-3.88.5-6.16,4.31-8.31,3.24-1.82,5.22-5.88,7.76-9,.55.86,1.77,2,1.55,2.54-1.75,4.68-3.78,9.26-5.72,13.87Z"/><path class="cls-25" d="M259.19,270l7.9-.86-.27.91c-.12.35-.24.69-.37,1q-1.15,3.19-2.32,6.39l-15,1.73c.53-1.17,1.06-2.34,1.58-3.52C255,276.06,258.44,275,259.19,270Z"/><path class="cls-26" d="M228.43,222l2.49-.89,1.52.85c-.52,1.22-1.4,2.41-1.48,3.66-.31,4.7-2.85,7.67-6.83,9.7l-2.41-1.12-1.74-.56v0a33,33,0,0,1-1.45-3.88c-.06-.25.92-.76,1.43-1.16,4.6,2.92,7.24,1.85,8.26-3.4A24.68,24.68,0,0,0,228.43,222Z"/><path class="cls-16" d="M248.12,237.72c.68,2.18,1.82,4.24-1.81,5.25-5.07,1.42-8.4.63-9.73-3Z"/><path class="cls-26" d="M288.59,227.81l-1,.73-8.94,2-1.69-3.1,1.71-2.12c4.74,3,7.94,1.42,8.29-4.2.07-1.07.06-2.15.09-3.22.78.44,2.14.79,2.24,1.35a37.28,37.28,0,0,1,.17,5.6C289.14,225.85,288.86,226.83,288.59,227.81Z"/><path class="cls-3" d="M250.6,289.83c7,.73,12-2.72,16.43-7.64,1-1.12,2.78-1.55,4.21-2.3-.29,1.09-.58,2.19-.86,3.28h0l-1.67,1.67,0,0-.84.85,0,0-.85.85,0,0-.85.85,0,0-.85.85,0,0-.85.85,0,0c-1.36.57-2.71,1.2-4.1,1.68C257.11,291.81,253.72,292.4,250.6,289.83Z"/><path class="cls-12" d="M270.38,283.17c.28-1.09.57-2.19.86-3.28l1.6-.06c1.15.57,2.36,1.73,3.45,1.62,6.58-.65,13.13-1.59,19.69-2.44a34.59,34.59,0,0,0-3.68,1.77,29.47,29.47,0,0,0-3,2.42Z"/><path class="cls-12" d="M250.6,289.83c3.12,2.57,6.51,2,9.92.79,1.39-.48,2.74-1.11,4.1-1.68-2.81,5.51-14.39,5.61-17.33,0H249Z"/><path class="cls-3" d="M249,289h-1.66l0,0-.85-.85,0,0,.06-.88Z"/><path class="cls-12" d="M246.54,287.26l-.06.88-1.66-.87Z"/><path class="cls-23" d="M220,233.68l1.74.56Z"/><path class="cls-22" d="M266.45,271.07c.13-.35.25-.69.37-1C266.7,270.38,266.58,270.72,266.45,271.07Z"/><path class="cls-3" d="M276.94,276.51l.39-.3-.31.38Z"/><path class="cls-12" d="M244.85,287.3l-.85-.85Z"/><path class="cls-12" d="M237.41,279l-.35-.38c.08,0,.2,0,.24.07a.9.9,0,0,1,.09.33Z"/><path class="cls-12" d="M274.51,277.81l-.86,1.23Z"/><path class="cls-12" d="M273.68,279l-.85.85Z"/><path class="cls-12" d="M244,286.47l-1.25-.86Z"/><path class="cls-7" d="M260.47,460.83c-13-2.14-23-8.67-30.27-19.73a63.4,63.4,0,0,1-11-38.46c.35-8.93,3.14-17.2,6.69-25.27.88,1.52,2.1,2.95,2.6,4.59,2.6,8.54,9.13,12.32,17.06,14.33,5,1.27,10.15,2.08,15.18,3.29,12.28,3,22.23,14.41,22.69,27.1a68.08,68.08,0,0,1-2,18.25c-2.25,9.32-9.87,12.89-18.36,15C262.18,460.15,261.33,460.53,260.47,460.83Z"/><path class="cls-14" d="M254.73,355.84l4,4.57,5.07-3.74c-.22.61-.26,1.45-.7,1.82-7.5,6.37-6,19.89-.95,27.13l.39.33-.35-.36c0-11.23,0-11.23,1.32-13.15.34,4.27.76,9.45,1.18,14.63,0,.36,0,.72-.07,1.08-3.93,0-4.82-3.53-6.66-5.94-.51-2.36-1.36-4.71-1.43-7.09-.11-3.37.49-6.75.51-10.13a23,23,0,0,0-.92-5.47A33.22,33.22,0,0,0,254.73,355.84Z"/><path class="cls-14" d="M306.6,380.65c3.3,7.86,6.66,15.7,9.82,23.62.38.94-.3,2.31-.49,3.47-2.49-7.09-5-14.17-7.47-21.27C307.79,384.55,307.22,382.59,306.6,380.65Z"/><path class="cls-14" d="M316,421.31c.66,7.13-1.91,13.23-6.05,18.81Q312.92,430.72,316,421.31Z"/><path class="cls-17" d="M285.47,372.31c.77-4.89.77-4.89,8-4.81Z"/><path class="cls-14" d="M300.05,366.61l.78,0,5,12.48Z"/><path class="cls-14" d="M309.93,440.07l-2.46,4.18Z"/><path class="cls-14" d="M296.75,455.76l-3.31,1.71Z"/><path class="cls-14" d="M306.63,445.85l-1.69,1.7Z"/><path class="cls-14" d="M299.23,453.3l-1.7,1.67Z"/><path class="cls-14" d="M292.64,458.24l-1.7.86Z"/><path class="cls-14" d="M301.7,451.63l-1.61.89Z"/><path class="cls-14" d="M304.18,448.39,303.3,450Z"/><path class="cls-14" d="M307.48,444.24c-.29.56-.59,1.11-.88,1.66Z"/><path class="cls-14" d="M305.78,379c.28.57.57,1.13.85,1.7C306.35,380.13,306.06,379.57,305.78,379Z"/><path class="cls-11" d="M254.72,386.46l.9-1.15Z"/><path class="cls-11" d="M264.59,388.15c0-.36.05-.72.07-1.08l.78,1.05Z"/><path class="cls-11" d="M265.4,388.08l.85.86Z"/><path class="cls-11" d="M266.23,388.93l.85,0c0,.26,0,.53,0,.79l-.38.36Z"/><path class="cls-14" d="M303.35,450l-.87.86Z"/><path class="cls-14" d="M302.52,450.81l-.86.87Z"/><path class="cls-14" d="M297.58,455l-.87.86Z"/><path class="cls-14" d="M293.46,457.45l-.87.84Z"/><path class="cls-12" d="M293.5,322c.55-.56,1.58-1.13,1.57-1.67-.11-3.65-.44-7.29-.7-11,6,.41,6,.41,5.66-2.18l3.2,1.2.07,1.31-7.25,2c.2,4.37,1.93,9.35-1.44,14.2Z"/><path class="cls-12" d="M291.88,336.8q-.47-5.73-.91-11.46c-.31-.84-.61-1.68-.91-2.53l1.52-3.06,1.08,1.37c.19,4.8-1.76,10,2.4,14.09l0,1.65,0,0Z"/><path class="cls-12" d="M296.73,303l-2.56-2.28c2.07-2.13,7.39.16,5.86-5.15,3.09,2.1,3,2.9.06,4.54A20.74,20.74,0,0,0,296.73,303Z"/><path class="cls-8" d="M267.12,389.7c0-.26,0-.53,0-.79l4-4.13.84,4.62Z"/><path class="cls-18" d="M296.7,334.64l6.72-3.56.79,1.43-6.72,3.56Z"/><path class="cls-12" d="M296.74,290.63l-6.6-6.61A7.14,7.14,0,0,1,296.74,290.63Z"/><path class="cls-14" d="M263.76,356.68l5-3.32Z"/><path class="cls-14" d="M268.71,353.37l5-2.49Z"/><path class="cls-18" d="M291.88,336.8l3.23,0-4.12,2.5h0v-.87Z"/><path class="cls-14" d="M273.65,350.89,277,348.4Z"/><path class="cls-14" d="M277,348.41l2.49-2.49Z"/><path class="cls-12" d="M298.39,293.11l-1.66-2.48Z"/><path class="cls-12" d="M300,295.59l-1.66-2.48Z"/><path class="cls-12" d="M297.57,304.67l-.83-1.65C297,303.57,297.29,304.12,297.57,304.67Z"/><path class="cls-18" d="M295.09,336.86l0-1.65Z"/><path class="cls-14" d="M279.43,345.94l1.67-.84Z"/><path class="cls-14" d="M281.07,345.12l.87-1Z"/><path class="cls-18" d="M290.15,340.15v-.74l.85-.06h0Z"/><path class="cls-12" d="M292.67,321.15c.27.28.55.55.82.82C293.22,321.7,292.94,321.43,292.67,321.15Z"/><path class="cls-12" d="M300.05,307.15l-.84-.84Z"/><path class="cls-12" d="M299.22,306.33l-.83-.84Z"/><path class="cls-12" d="M298.4,305.5l-.84-.84Z"/><path class="cls-12" d="M290.15,284l-.83-.83Z"/><path class="cls-6" d="M238.14,285c9.64,10.83,17,12.34,29.59,6.1,7.38-3.65,14.19-2.57,18.24,3.25l-5.36.64c1.55,1.43,2.9,2.6,4.17,3.85s2.51,2.68,4.12,4.41h-8.83c7.45,15.58,2.15,28.79-7.05,41.12-4.7,6.29-11.45,9.14-19.15,9.85l-.79-.34a.56.56,0,0,0-.44-.52l-2-.85,0,0-.85-.85,0,0-.84-.84,0,0-.86-1.15L236.63,336v0L235,328.67l1.6-.09c.09.34.17.68,0,.1.39.44.16.19-.07-.07l-2.31-10.3c-1.18,1.4-1.36,2.95-2.14,4.11-.55.82-1.91,1.09-2.91,1.61a3.74,3.74,0,0,0,.17-.54c0-.08-.09-.17-.14-.26V307.72l-1.18-.36-2.25,4.69-.07-.08c-.81-.29-2.33-.6-2.32-.86.14-4.13.39-8.27.84-12.37.12-1.13.95-2.19,1.54-3.45l-8.18.49,5.9-5.08-.1,0,1.68-.85,0,0c.56-.55,1.11-1.11,1.67-1.67h0l1.82-.84c.22-.2.44-.4.67-.59Z"/><path class="cls-9" d="M236.6,328.58l-1.6.09a1.21,1.21,0,0,0-.35-.19.42.42,0,0,0-.34.13c-.64,1.39-1.26,2.79-1.89,4.18h0l-2.47-1.66-.06.08L227.47,328c.58-1.31,1.15-2.62,1.73-3.94,1-.52,2.36-.79,2.91-1.61.78-1.16,1-2.71,2.14-4.11l2.31,10.3Z"/><path class="cls-9" d="M239.93,384,236,386.3c-.62-1.39-1.69-2.75-1.79-4.18a94.39,94.39,0,0,1,0-11c0-1,.92-1.94,1.42-2.92.31,4.11.81,8.22.87,12.34C236.53,383.07,237.27,384.33,239.93,384Z"/><path class="cls-14" d="M227.47,328l2.41,3.24-11.36-4.36-5.29-1.27C218.37,324.11,222.72,327.23,227.47,328Z"/><path class="cls-3" d="M218.52,326.85l11.36,4.36.06-.08,2.47,1.66h0l1.79,2.32-.08.07Z"/><path class="cls-12" d="M225.8,312.05l2.25-4.69,1.18.36v15.51c-.58-3-1.07-6.1-1.79-9.11C227.26,313.34,226.37,312.73,225.8,312.05Z"/><path class="cls-3" d="M236.63,336c-.24.38-.48.76-.71,1.15L235,336l.11-.14,1.57.16Z"/><path class="cls-14" d="M250.6,352.52l2,.85Z"/><path class="cls-14" d="M248.13,349.74l.86,1.15Z"/><path class="cls-14" d="M249,350.87l.84.84Z"/><path class="cls-14" d="M249.79,351.69l.85.85Z"/><path class="cls-14" d="M253.08,353.89l.79.34a2,2,0,0,1,0,.81Z"/><path class="cls-14" d="M253.9,355l.85.86Z"/><path class="cls-3" d="M235,336l-.82-.84.08-.07.85.77Z"/><path class="cls-11" d="M297.57,157.57l6.59-3.89Z"/><path class="cls-11" d="M343.76,122.07l-4.95,5-.08-.09c1.64-1.65,3.28-3.31,4.93-5Z"/><path class="cls-11" d="M337.18,128.7,333.91,132l-.32-.3,3.45-3.2Z"/><path class="cls-11" d="M347.93,118l-2.5,2.47-.18-.18c.79-.87,1.59-1.74,2.38-2.62Q347.78,117.84,347.93,118Z"/><path class="cls-11" d="M324.85,139.48l-3.3,2.49-.37-.41,3.32-2.44Z"/><path class="cls-11" d="M321.55,142l-3.27,1.54-.19.09,3.08-2C321.3,141.7,321.43,141.83,321.55,142Z"/><path class="cls-11" d="M354.54,109.73l-1.67,2.48-.49-.42,1.78-2.4Z"/><path class="cls-11" d="M359.48,102.3l-1.65,2.48-.34-.28,1.58-2.58Z"/><path class="cls-11" d="M330.58,134.48,329,136.17l-.33-.3,1.82-1.53Z"/><path class="cls-11" d="M333.09,132.86l-2.51,1.62-.12-.14,2.29-1.87Z"/><path class="cls-11" d="M357.83,104.78l-1.66,2.47-.31-.27,1.63-2.48Z"/><path class="cls-11" d="M352.06,113l-1.68,1.62-.17-.14,1.51-1.85C351.83,112.8,351.94,112.92,352.06,113Z"/><path class="cls-11" d="M350.38,114.66l-1.63,2.51-.39-.34,1.85-2.31Z"/><path class="cls-11" d="M326.45,137.77l-1.6,1.71-.35-.36,1.86-1.46Z"/><path class="cls-11" d="M328.15,137l-1.7.77-.09-.11,1.41-1.09Z"/><path class="cls-11" d="M295.92,158.4l1.65-.83Z"/><path class="cls-16" d="M318.28,143.51l-1.58,1-.14-.16,1.53-.79Z"/><path class="cls-12" d="M318.15,235.32l-1.63-.81Z"/><path class="cls-12" d="M316.49,234.5l-1.62-.81Z"/><path class="cls-11" d="M355.3,108c-.25.57-.51,1.14-.76,1.7l-.37-.34c.34-.49.67-1,1-1.46Z"/><path class="cls-11" d="M338,127.86l-.81.84-.14-.15.84-.8Z"/><path class="cls-11" d="M356.17,107.25l-.87.78-.12-.1.68-1Z"/><path class="cls-11" d="M338.81,127l-.82.83-.11-.11.85-.81Z"/><path class="cls-11" d="M345.43,120.46l-.83.81-.14-.14c.26-.29.52-.57.79-.85Z"/><path class="cls-11" d="M333.91,132l-.82.82-.34-.39.84-.73Z"/><path class="cls-11" d="M344.6,121.27l-.84.8-.1-.09.8-.85Z"/><path class="cls-11" d="M329,136.17l-.82.83c-.13-.14-.25-.29-.37-.43l.86-.7Z"/><path class="cls-11" d="M348.75,117.17l-.82.82-.3-.32.73-.84Z"/><path class="cls-11" d="M352.87,112.21l-.81.83-.34-.36.66-.89Z"/><path class="cls-3" d="M371.89,481.4l1.56.85c.27,2.24.54,4.49.85,7l-4.15-2.89h0l-1.68-2.46h0l.06-.88Z"/><path class="cls-13" d="M368.52,483.06l-.06.88-2.07-.95.31-.69Z"/><path class="cls-13" d="M368.46,483.93l1.68,2.46-1.7-.84C368.44,485,368.45,484.47,368.46,483.93Z"/><path class="cls-13" d="M357.07,492.17l-1.72,0Z"/><path class="cls-13" d="M358.63,493.81l-.85-1C358.07,493.12,358.35,493.47,358.63,493.81Z"/><path class="cls-19" d="M242.36,154.29c-7-1.65-13.9-4.19-21-4.77-10.53-.86-21.17-.34-31.76-.41l.8-1.33,6.49-.16H214.4c9-.2,17.45,2.1,25.8,5A9.11,9.11,0,0,1,242.36,154.29Z"/><path class="cls-14" d="M148.35,147.64H145.8l-7-2,3.06,7-.27.22c-1.08-1.48-2.62-2.82-3.14-4.49-1.06-3.37-2.27-6.33-6.74-6.7l.85-1.17c3.76,1.49,7.56,2.9,11.27,4.51A36.37,36.37,0,0,1,148.35,147.64Z"/><path class="cls-11" d="M183.84,149.26l-22.4,0c2.66-.26,5.31-.67,8-.75,4.8-.14,9.6-.08,14.4-.1Z"/><path class="cls-14" d="M214.4,147.62h0Z"/><path class="cls-14" d="M183.84,149.26l0-.82,6.62-.66-.8,1.33Z"/><path class="cls-19" d="M244.81,155.13l-2.48.83c0-.56,0-1.12,0-1.68h2.46Z"/><path class="cls-14" d="M142.61,155.93l-.13-1.54.39-.37,1.17,1.87-1.44,0Z"/><path class="cls-10" d="M246.48,143.55l1.07.32-.21.31-.87-.62Z"/><path class="cls-14" d="M142.48,154.39l-.87-1.62.27-.22,1,1.47Z"/><path class="cls-14" d="M224.13,456.83c1.26.83,2.54,1.62,3.77,2.49,1,.7,1.93,1.49,2.89,2.24-5.58-1.66-11.18-3.24-16.71-5-1.17-.38-2.09-1.54-3.12-2.34Z"/><path class="cls-13" d="M188.75,467.38l-1.63.85,0,0,1.67-.81Z"/><path class="cls-14" d="M210.29,453.9l.73.33A2,2,0,0,1,210.29,453.9Z"/><path class="cls-13" d="M188.77,467.4l.33-.39c0,.08,0,.19,0,.23a1,1,0,0,1-.3.14Z"/><path class="cls-13" d="M187.12,468.23l-.36.42c0-.09,0-.21,0-.26a1.2,1.2,0,0,1,.31-.18Z"/><path class="cls-27" d="M142.87,154l-1-1.47-3.06-7,7,2c6.15,1.67,12.23,4.38,18.46,4.8,17.2,1.14,34.45,1.24,51.68,1.93,3.7.15,7.37,1,11.05,1.54l-.08,1L218,160.63,230.65,165c-3,2.78-5.54,5.11-8.07,7.45h0l-2.57.77c-11.41,3-23,3.24-34.65,2.23a15.65,15.65,0,0,0-3.16.37l-12.37-2.69L149.2,161.6,144,155.89Z"/><path class="cls-12" d="M149.2,161.6l20.63,11.57c-.69.12-1.55.58-2,.32-6-3.08-12-6.26-17.92-9.48-.37-.2-.46-.92-.68-1.39Z"/><path class="cls-1" d="M149.2,161.6v1l-6.59-6.7,1.44,0Z"/><path class="cls-12" d="M226.74,288.17c-.56.56-1.11,1.12-1.67,1.67C225.63,289.29,226.18,288.73,226.74,288.17Z"/><path class="cls-12" d="M228.53,287.34l-1.82.84Z"/><path class="cls-12" d="M225.09,289.81l-1.68.85Z"/><path class="cls-28" d="M352.38,111.79l-.66.89c-.5.61-1,1.22-1.51,1.84l-1.85,2.31-.73.84-2.38,2.61c-.27.28-.53.56-.79.85l-.8.85c-1.65,1.65-3.29,3.31-4.93,5l-.85.81-.84.8-3.45,3.19-.84.73-2.29,1.87-1.82,1.53-.86.7-1.42,1.09-1.86,1.46-3.32,2.44-3.09,2-1.53.79-12,4.92-.48-1.06,6.74-11.3a.87.87,0,0,0,.27-.14s0-.13.05-.21l-.33.34-5.17,2.62c.39-3.33.5-6.1,1.08-8.76,2.92-13.43,10-23.75,22.36-30.29,7.49-4,15.07-7.87,22.15-12.5,4.32-2.82,7.78-7,11.63-10.51L368.52,75c-1.78,6.14-3.4,12.33-5.4,18.39-1,3-2.68,5.71-4.05,8.55l-1.58,2.58L355.86,107l-.68,1c-.34.48-.67,1-1,1.46Z"/><path class="cls-23" d="M289.41,224.87a37.28,37.28,0,0,0-.17-5.6c-.1-.56-1.46-.91-2.24-1.35l-3.23-2.37-5,.73c.11,2,.29,3.95.29,5.93a20,20,0,0,1-.46,3.13l-1.71,2.12c-2.7-3.81-2.89-8-1.4-12.23,1.14-3.27,3.1-5.82,7-5.88,3.71-.06,5.62,2.33,6.93,5.38a27.27,27.27,0,0,1,.95,3.11Z"/><path class="cls-29" d="M271.23,202.34a10.9,10.9,0,0,1-1.43-.44c.62-3.64,7-8.23,11.23-8.09,5.14.16,10.19,4.91,10.76,10.12-.4-.07-1,0-1.17-.23C284.57,194.48,278.05,194,271.23,202.34Z"/><path class="cls-29" d="M291.74,203.86l.57.09c-.18.31-.36.62-.55.92Z"/><path class="cls-16" d="M220,173.26l2.57-.77Z"/><path class="cls-28" d="M368.59,74.21c0,.27-.07.54-.1.81A1.41,1.41,0,0,1,368.59,74.21Z"/><path class="cls-16" d="M291.13,159.4l-.52.3.31-.51Z"/><path class="cls-13" d="M290.06,322.81c.3.85.6,1.69.91,2.53l-3.21,4.73-.83-.46C288,327.34,289,325.08,290.06,322.81Z"/><path class="cls-13" d="M285.15,332.68l1.09-1.26.27.27-1.19,1.13Z"/><path class="cls-12" d="M268.72,284.83l1.67-1.67Z"/><path class="cls-13" d="M284.33,334.32c.28-.55.55-1.09.82-1.64l.17.14c-.3.54-.59,1.08-.88,1.62Z"/><path class="cls-13" d="M284.44,334.44c-.31.2-.62.4-.95.58a3.15,3.15,0,0,1-.23-.29l1.08-.41Z"/><path class="cls-4" d="M291,339.35l-.85.06.84-.92Z"/><path class="cls-12" d="M266.25,287.31l.85-.85Z"/><path class="cls-12" d="M267.9,285.66l.84-.85Z"/><path class="cls-12" d="M264.6,289l.85-.85Z"/><path class="cls-12" d="M246.46,288.11l.85.85Z"/><path class="cls-12" d="M265.42,288.14l.85-.85Z"/><path class="cls-12" d="M267.07,286.49l.85-.85Z"/><path class="cls-2" d="M250.51,275.07c-4.49-1.85-6.21-5.69-7.23-10.05l6.07-1.17C250.67,267.1,252.22,270.81,250.51,275.07Z"/><path class="cls-7" d="M253.57,273.08l-1.88-7.69c2.44.65,4.86.65,5.22,1.51C257.87,269.24,256.73,271.31,253.57,273.08Z"/><path class="cls-25" d="M249,279.06c-.28.49-.56,1-.85,1.45C248.46,280,248.74,279.55,249,279.06Z"/><path class="cls-29" d="M228.43,222a24.68,24.68,0,0,1-.2,3.23c-1,5.25-3.66,6.32-8.26,3.4q.09-4.54.2-9.09c-.17,2,0,4.22,2.67,3.95s2.91-2.34,2-4.56Z"/><path class="cls-10" d="M224.86,219c.89,2.22.77,4.28-2,4.56s-2.84-1.9-2.67-3.95l3.47-1.59,1.34,1Z"/><path class="cls-29" d="M225,219l-1.34-1Z"/><path class="cls-29" d="M283.77,215.55l3.23,2.37c0,1.07,0,2.15-.09,3.22-.35,5.62-3.55,7.23-8.29,4.2a20,20,0,0,0,.46-3.13c0-2-.18-4-.29-5.93,1,1.23,2.15,3.51,3.15,3.46C284.3,219.65,284.73,217.67,283.77,215.55Z"/><path class="cls-4" d="M262.16,385.59l.35.36-.39-.33Z"/><path class="cls-14" d="M235.06,335.88l-.85-.77-1.79-2.32c.63-1.39,1.25-2.79,1.89-4.18a.42.42,0,0,1,.34-.13,1.21,1.21,0,0,1,.35.19l1.62,7.37Z"/><path class="cls-9" d="M236.56,328.61c.23.26.46.51.07.07.14.58.06.24,0-.1Z"/><path class="cls-14" d="M232.41,332.79l-2.47-1.66Z"/><path class="cls-16" d="M310.78,136.94l.33-.34c0,.08,0,.17-.05.21a.87.87,0,0,1-.27.14Z"/><path class="cls-3" d="M283.77,215.55c1,2.12.53,4.1-1.83,4.19-1,0-2.1-2.23-3.15-3.46Z"/></svg>