<svg id="Layer_1" data-name="Layer 1" xmlns="http://www.w3.org/2000/svg" viewBox="0 0 512 512"><defs><style>.cls-1{fill:#b4c0c7;}.cls-2{fill:#c1c1c1;}.cls-3{fill:#eff2f5;}.cls-4{fill:#b4c0c8;}.cls-5{fill:#b3c0c7;}.cls-6{fill:#d6d8d9;}.cls-7{fill:#f1f5f7;}.cls-8{fill:#97a6b1;}.cls-9{fill:#97a6b0;}.cls-10{fill:#b4c1c8;}.cls-11{fill:#99a7b0;}.cls-12{fill:#d3dadd;}.cls-13{fill:#d0d7db;}.cls-14{fill:#b3b5b7;}.cls-15{fill:#7a8992;}.cls-16{fill:#a9adb0;}.cls-17{fill:#8897a0;}.cls-18{fill:#ec9595;}.cls-19{fill:#f5f5f5;}.cls-20{fill:#898a91;}.cls-21{fill:#516168;}.cls-22{fill:#ebeceb;}.cls-23{fill:#fa6053;}.cls-24{fill:#711c1c;}.cls-25{fill:#0c5814;}.cls-26{fill:#143a14;}.cls-27{fill:#fcb8b7;}.cls-28{fill:#292a2a;}.cls-29{fill:#081009;}</style></defs><path class="cls-1" d="M203,189.58l6.32-4.78,6.47-2.38,0,0,4.77-.82a3.64,3.64,0,0,0-.05.74l-.79.79-.33.48.44-.37.8-.78,1.6-.79,1.68-3.21c-2.12,0-3.52.1-4.91,0-2.39-.2-4.76-.54-7.15-.82l0,0,3.52-2.43c5.36-1.26,10.71-2.51,16.05-3.8.19-.05.29-.41.43-.63l4.34.23.28-.95-3.11-1.24h0l-.79-.8h0l-.8-.81h0L231,164.8l7.19,1c6.45,3.06,7.34,9.57,9.69,15.23-1.1-6.36-2.12-12.73-7.87-17-2.57-4.09-5.22-8.14-7.66-12.3-.59-1-.51-2.41-.74-3.63a5.47,5.47,0,0,0,.24-2c-1.54-5.26-3.94-10.39-4.63-15.75-1.35-10.35-2.23-20.65,1-31.14,4.16-13.63,12-24.12,23.15-32.52A50.06,50.06,0,0,0,256.17,62l9-5.44L265.9,55h1.59l0,1.53c.25,1.36.49,2.72.74,4.08-.72,1-1.76,1.86-2.09,3-1.15,3.79-2.48,7.6-2.95,11.49-.63,5.32-1.55,10.94-.52,16,2,10.06,5.51,19.82,8,29.8,2.12,8.48,4.49,17,5.38,25.67,1.39,13.44-3.85,25.3-11.22,36.25a57.23,57.23,0,0,1-3.82,4.54c4.19,2.23,7.95,4.16,11.64,6.2A40.38,40.38,0,0,1,291.55,216c3.32,9.2,2.21,18.45.61,27.74l-16.8-3.29a10.31,10.31,0,0,1,.13-1.58c2.94-12.92-.53-24.22-9.15-33.89-2.52-2.83-6.27-4.55-9.43-6.83a24.36,24.36,0,0,1-2.2-2,16.64,16.64,0,0,1,13.33,6,20.24,20.24,0,0,0-1.87-4c-2.56-4-8.93-5.07-12.22-2.18a3.13,3.13,0,0,1-1.06.51c-3.69.25-6.81,1.56-8.08,5.27-1.14,3.28-2.53,6.71-2.54,10.08,0,3.78,1.39,7.58,2.26,11.35.07.31.72.49,1.09.74a65,65,0,0,0,1.54,7.69c1.56,4.86,3.43,9.62,5.17,14.42l-1.15.73-.34.11-1.1.65,0,0-.77.78h-.41l.37,0L244.75,251l-3.57,0,0,0-1.63-.82,0,0-.82-.82,0,0-1.61-.81h0l-2.41-.81,0,0-1.61-.81h0a17.52,17.52,0,0,0-15.89,0h0l-1.61.81h0l-2.44-.9c.29-1.89.58-3.79.86-5.68l.91-7.06c.28-2.19.92-4.41.77-6.58-.47-6.63-.28-13.54-2.19-19.78-1.81-5.9-6-7.68-11.65-3.11a25.06,25.06,0,0,0-6.13,6.59,48.9,48.9,0,0,0-5.62,34.06l-1.82,1-.19-.09-2.77.81h0c-.81-.75-2-1.36-2.35-2.27-1-2.88-1.58-5.87-2.33-8.82l.12-1,2.1.07a20,20,0,0,0,.8-2.12c2.12-8,3.86-16.08,6.42-23.92,2.22-6.75,7.12-11.92,12.12-16.86C202.94,191.56,202.82,190.42,203,189.58ZM219.76,192h.05l-1.7-4.3a.94.94,0,0,1,0-.55l.78-1c-.55-.12-1.52-.47-1.59-.34-2.33,4.38-3.35,8.87-.23,13.61l.23-3.57v0l1.59-1.6h0l2.52-2.25,2.34,6.45.9-.08q-.54-4.12-1.09-8.27l-.63.13a1.27,1.27,0,0,1-.61.08Zm35-19.18.81,1.61v0l3.84,6.42.51,3,4.42-7.76c1-1.43,2.42-2.71,3.05-4.29,7.23-18.2,6.56-36.45-.26-54.55-5.28-14-8.85-28.25-7.63-43.37.2-2.37.53-4.73.85-7.59a34.22,34.22,0,0,0-4.5,3c-3.58,3.39-7,6.93-10.53,10.41l-5.68,6.16-1.58,2.63h0a20.91,20.91,0,0,0-2.31,3c-5.94,11.79-6.9,24.16-3.51,36.77,1.33,4.94,3.83,9.57,5.81,14.34v0c.76,4.72,2.25,9,6.39,11.95h0l1.58,2.41h0l6.38,11.16v0l2.41,4.79Zm-54.22,29.83,10.38-5.11C205.85,195.69,203,198.61,200.54,202.67Z"/><path class="cls-2" d="M267.47,56.53l0-1.53h1.59Z"/><path class="cls-2" d="M265.9,55l-.71,1.56L265.1,55Z"/><path class="cls-3" d="M188.3,246.15l.2.09,4.3.12,3.12.52h3.22l3.8,1.88,4.95,6.13,3.9-4.81,4-2.32h0l1.61-.81h15.84l1.61.81,0,0,2.41.81h0l1.61.81,0,0,.82.82,0,0,1.63.82,0,0c1.18,1.54,2.37,2.55,3.57,0l4.15-2.62,0,0c.25-.26.51-.52.77-.77l0,0,1.09-.65.35-.11,1.14-.73,4.78-2.77,3.61-1.19,1.15,0,3.28-.63,1.52-.19,5.59.15,19.91,4.69c.46,2.7.92,5.41,1.4,8.27l-3.09.87c1,4.41,2,8.45,3.11,13.27l-6.78-2.67c-.23,6.51-3.54,10.74-8.13,13.54-5.58,3.41-11.67,6-17.53,8.92-2.65,1.33-5,1.41-6.63-1.84a35.16,35.16,0,0,0-4.67,2.52c-3.81,2.83-7.26,6.22-11.32,8.58-2.22,1.29-5.38,1.14-8.13,1.22-1.68,0-3.39-.69-5.09-1.07l-1.57.13h0l-.8-.8h0l-.8-.8h0l-.81-.8h0l-.79-.8h0c-1.59-1.86-3.17-3.73-4.76-5.6l-.42-.33.33.42,2,4-12.29-1.63h0l-2.39-.8c-5.6-2.19-10.07-6-14.11-10.29a10.18,10.18,0,0,1-1-1.54l-.84-.94,0,0-.82-1.62,0,0L184.7,274v0c-.6-2.66-1.93-1.72-3.23-.61-.82.69-1.57,1.45-2.36,2.19l0,0c.22-4.13.45-8.27.7-12.77l-5.47,2.77v-4.39l0,.06.84-1.77c.07-.52-.05-1.3.24-1.51,3.26-2.29,2.38-4.73,0-7.34l5.09-2.12,5.08-1.58h0Zm52.87,25.37h0l-.85.67-1.38,1-21,1.71-1.26-.52-.83-.51-8-6.08-4.95,2.11c6.61,4.31,13.82,7.54,17.66,14.74,3,5.88,6.76,7.44,12.72,5.29,3.57-1.32,5.17-4.15,5.84-7.68,3.9-7.73,9.2-13.76,18.66-15-2.22-2-4.14-2.91-6.77-1.13-2.27,1.54-4.82,2.67-7.24,4l-1.74.73h0ZM227,251c-4.24-1.7-8.2-.86-12,1.37-1.49,1.42-4.7,2.41-2.65,5.08a29.51,29.51,0,0,0,8.16,7.57c1.16.67,4-1.64,6.13-2.56,1.07-.48,2.38-.66,3.21-1.4,1.61-1.45,4.45-3.8,4.09-4.7-.8-2-3.22-3.41-5.07-5C228.4,251.05,227.6,251.12,227,251Zm-20.18,6.37-.08-.34c-.09,0-.25.05-.25.09a1,1,0,0,0,.07.33Z"/><path class="cls-4" d="M278.63,289.91l6.46,3.32,1,.64a.66.66,0,0,1,.55,0,10.83,10.83,0,0,0,1.42,2.17c2.17,2.05,4.74,3.74,6.59,6,7.08,8.73,10.57,19,11.76,30.06.63,5.75,1.25,12.12-2.65,16.87-10.31,12.57-23.25,20.18-40.21,18.92-.41.18-1.2.42-1.19.53a24,24,0,0,0,.69,2.58c-.53,7.87-5.31,13.19-9.95,18.6l-1.49-.52L252,380c-1.14,2.06-1.45,4.24-2.09,6.32-.91,2.95-.63,6.93-5.37,7l-.84-.74c-1.8-5-3.08-10.1-.66-15.51-1.13.78-2.16,1.68-2.31,2.72-.37,2.42-.19,4.92-.51,7.35-.09.73,1.84,3.12-1.28,2.25a52.4,52.4,0,0,1-2.14-7.2c-1.14-7.59-.91-14.45,7.87-19.26,3.86-2.11,7.25-5.1,10.85-7.7h0l3.19-2.4v0l1.61-.81h0l.83-.94c2.26-2.08,4.44-4.32,7.94-3.83l5.59-3.21,0,0,1.62-.8,5.61-2.59-1.07-1.59-4.53,4.19-1.57-.79c-2.59-.89-4.65-8.13-2.94-10.34l3.83,1.8V320.8l7.12-1.92,0-1.22-3.31-1.45h0l-.8-.8h0l-.81-.81h0l-.8-.81h0l-.81-.81v0a25.66,25.66,0,0,1,3.17-3.55c1.4-1.1,3.78-1.67.79-3.62h0l-1.6-2.39h0l-.8-.81v0l-1.6-2.39h0l-.8-1.6h0l-4.77-4h0l-3.19-1.6h0c.72-.57,1.37-1.46,2.17-1.64C272.6,290.84,275.62,290.42,278.63,289.91Zm4.59,49.32L283,339l-.22.21.3.31Z"/><path class="cls-5" d="M155.25,79.68c2.31-1.46,4.21-1,5.75,1.2a41.33,41.33,0,0,1,3.12,4.52c5.06,10,9.33,20.44,15.21,29.9s12.41,18.32,21.95,24.56c2.23,1.47,3.83,3.88,5.72,5.86l1,.84,3.78,3.1,12,20a1.44,1.44,0,0,0,0,.77l-5.66.86-15.94-10.43-1.56-1.55h0l-4.76-3.21h0l-.8-.8h0l-.8-.8h0l-.8-.8h0l-.8-.8h0l-.8-.8h0l-.8-.8h0l-3.21-4h0l-1.45-1.64-15.27-21.55c-3-6-5.88-12.11-8.86-18.14a8.62,8.62,0,0,0-1.47-1.69h0c-1.06-4.05-2.09-8.11-3.22-12.15-.14-.48-.83-.82-1.27-1.22l-1.09,2.19-4.89,9.58c-3.48,4.5-4.14,9.58-3.07,15l0,9.91c-1.31,8.12,1.54,14.78,7.16,20.47v0l4,4.8,0,0,4.79,4.79h0a12.69,12.69,0,0,0,2.39,2.82,90.42,90.42,0,0,0,38.13,14,35,35,0,0,1-5.28.34c-2.47-.21-4.91-.78-7.36-1.22-13.26-2.33-26.2-5.54-37.61-13.2-.76-.51-2.07-.23-3.12-.32-2.65-3.46-5.33-6.9-7.94-10.39a17.89,17.89,0,0,1-2.49-4,15.44,15.44,0,0,1-.5-4c.19-.47.58-1,.54-1.4-.45-6.69-1.6-13.41-1.32-20.07.66-15.5,4.42-29.83,18.45-39.2Z"/><path class="cls-4" d="M176.75,349.63c-.8-1.75-2.39-3.57-2.25-5.25.43-5.43,1.5-10.81,2.32-16.21l1.5-.89a2,2,0,0,0,0-.74c1.93-2.53,3.91-5,5.77-7.61,3.15-4.34,6.22-8.74,9.32-13.11l7.42,1.21c-1.75,6-2.6,12,1.27,18l2.31-3c.93,3.6,1.78,6.85,2.63,10.1l-1.65,3.68c-5.26-1.86-10-4-15.13-3.56l-.18,1.11,4.25.45c2,1,3.94,1.94,5.94,2.86,3,1.4,6.09,2.74,9.14,4.11h0l6.57,5,3,2.24c.27.26.53.53.79.8,1.7,4.29,3.73,8.28,8.68,9.64l.79.8.82.78.8.78,2.46,2.33h0c.8,2.18,2.18,4.33,2.3,6.55.31,5.74.07,11.51,0,17.27l-2.41,4-3.07,1.24-.64-6.11c-1.42,2.07-2.86,4.2-4.31,6.33-2.56,1.08-4.61.89-5.47-2.22.25-1.12.5-2.23.74-3.35l-.63-.21-1.06,1.86c-2.94.65-3.88-.46-3.95-3.51-.1-4.1-.89-8.19-1.39-12.29l.21-3.18,1.21-4.78c-2.54,0-4.51.14-6.46,0-8.33-.69-16.47-2-23.08-7.79C182.5,354.48,179.61,352.07,176.75,349.63Z"/><path class="cls-4" d="M331.34,429.51c-1.68,9-6.31,16.2-13.12,22.14-2.36,2.05-4.63,4.2-6.94,6.31l-14.22,5.7-20.9.52a37.52,37.52,0,0,1,2.72-3.17c7.08-6.68,14.65-12.79,18.58-22.27,4.51-10.88,4.9-22.43,6.57-33.78.34-2.33-.07-4.77.1-7.14a21.5,21.5,0,0,1,1.06-4c1.42.45,3.11.56,4.23,1.41,2.71,2.09,5,4.79,7.74,6.75,7.4,5.22,10.95,12.65,12.88,21.12C330.52,425.23,330.91,427.37,331.34,429.51Z"/><path class="cls-6" d="M269.07,347.24c-3.5-.49-5.68,1.75-7.94,3.83-.27.32-.55.63-.83.94h0l-1.61.81v0l-3.19,2.4h0l-18.85,11-3.4-3.07h0c-.27-.8-.55-1.59-.82-2.38,8-.93,15.23-3.28,19.82-10.6,1.68-2.67,3.25-5.44,5.15-8a24,24,0,0,0,4.62-20.47c-.67-3-1.46-6.05-2.3-9.46l7.33.6a10.5,10.5,0,0,0-3-4.52c-1.29-1.24-2.66-2.4-4.23-3.81l5.42-.74c-6.23-5.74-11.55-6.35-18.62-3.17a53.34,53.34,0,0,1-11.21,3.54c-8.77,1.78-13.39-5.74-19.77-9.32l4.9-.21h0l.79.8h0l.81.8h0l.8.8h0l.8.8h0l1.48.91c3.59,4.39,11.09,5.32,15.14,1.23-5.69,2.25-10.36.64-15-1.39l-.08-.88c1.7.38,3.41,1.12,5.09,1.07,2.75-.08,5.91.07,8.13-1.22,4.06-2.36,7.51-5.75,11.32-8.58a35.16,35.16,0,0,1,4.67-2.52c1.63,3.25,4,3.17,6.63,1.84,5.86-2.94,11.95-5.51,17.53-8.92,4.59-2.8,7.9-7,8.13-13.54l6.78,2.67c-1.13-4.82-2.08-8.86-3.11-13.27l3.09-.87c-.48-2.86-.94-5.57-1.4-8.27l2.32.07,0,0,1.56.78h0l.84.73h1.64l0,0,2.7,1.6.32,0,4.17,2.5h0l-3.2,1.61,0,0-2.18.91,1.58,1.43.59.62,1.6,1.75h0l1.79.8,1.41,1.38v2.68h-7.83c1.14,1.81,1.81,2.87,2.47,3.94,2.42,3.39,1.22,6.55-.38,9.15l-3.88-5.29-1.44,1.45c-1.6,9.8-8.57,14.53-17.5,16.2-2.62.47-5.23,1.13-7.87,1.36-6.85.62-13.72,1-20.57,1.61-.47,0-.84,1.09-1.26,1.67l-1.09.89.46.45.86-1.1,18.17-.07h0l3.19,1.6h0l4.77,4h0c.27.53.54,1.06.8,1.6h0c.54.79,1.07,1.59,1.6,2.39v0l.8.81h0c.53.8,1.06,1.6,1.6,2.39h0l-5.85,4.66c.29.4,1.09,1.45,1.89,2.51v0l.81.81h0l.8.81h0l.81.81h0l.8.8h0c.94,1.59.65,2.53-1.36,2.35-1.74-.15-3.47-.42-4.69-.58.59,4.34,1.15,8.38,1.81,13.17l-5.3-3.38c-.6,2.24-1.1,4.08-1.59,5.92l-1.41,1.71.81.44.64-2.11c.52.23,1.47.41,1.51.7.37,3.19.6,6.4.87,9.6l-1.57,1.62-.77.13.74,1.48Zm-3.18-9.57-1.37,1.66.81.43c.2-.69.39-1.37.58-2.06a.8.8,0,0,0,.31-.14s0-.16,0-.24Zm-24.21-37.93.23.51,1.38-.65-.23-.48Z"/><path class="cls-7" d="M297.06,463.66l14.22-5.7c.8.78,1.46,2,2.4,2.29,6.52,2.07,13.31,3.43,19.57,6.05,4.95,2.08,9.4,5.46,13.84,8.6,2.39,1.69,4.28,4.09,6.4,6.17l-3.24,3-1.4,0-1.71-1.42-.49.72,1.74,1.12.18,1.36c-2.41,7.91-2.41,7.91-8.68,8-.25,0-.51-.06-.76-.08l0,0-1.64-.83.05,0-.74-1.22-.74,1.1c-2,5.38-3.69,6.28-10.52,4.91-12.67-2.53-23.19-8.32-29.94-19.89C291.88,471.46,291.91,469.89,297.06,463.66Z"/><path class="cls-8" d="M298.58,247.7h-1.64l-.84-.73h0l-1.56-.78,0,0-2.32-2.45c1.6-9.29,2.71-18.54-.61-27.74a40.38,40.38,0,0,0-18.9-22.42c-3.69-2-7.45-4-11.64-6.2a57.23,57.23,0,0,0,3.82-4.54c7.37-11,12.61-22.81,11.22-36.25-.89-8.65-3.26-17.19-5.38-25.67-2.51-10-6-19.74-8-29.8-1-5.11-.11-10.73.52-16,.47-3.89,1.8-7.7,2.95-11.49.33-1.1,1.37-2,2.09-3-.32,4.34-.54,8.69-1,13-1.18,12.22,1.45,23.52,6.31,34.81,4,9.38,6.69,19.48,8.91,29.5a78.24,78.24,0,0,1-4.75,48.82c-.42,1-.12,3.11.62,3.64,12.69,9.15,19,21.8,21.09,37A52,52,0,0,1,298.58,247.7Z"/><path class="cls-9" d="M331.34,429.51c-.43-2.14-.82-4.28-1.3-6.41-1.93-8.47-5.48-15.9-12.88-21.12-2.78-2-5-4.66-7.74-6.75-1.12-.85-2.81-1-4.23-1.41a21.5,21.5,0,0,0-1.06,4c-.17,2.37.24,4.81-.1,7.14-1.67,11.35-2.06,22.9-6.57,33.78-3.93,9.48-11.5,15.59-18.58,22.27a37.52,37.52,0,0,0-2.72,3.17l-1.73.55-5.46.11-3.86-2c2.09-1.34,4-3,6.28-4,8.6-3.7,14-10.78,18.59-18.31a41.51,41.51,0,0,0,5.27-29.43,56.7,56.7,0,0,0-7.63-20.22c-3.26-5.28-5-11.51-7.41-17.31,1.66-.87,3.3-1.8,5-2.59,2.29-1.07,4.64-2,7-3h0l3.18.8c.26.3.55.57.78.88l13.53,18.2.88.8-.05,0,1,.82q3.09,3.15,6.17,6.29l2.4,1.7,0,0,.84,1.61,0,0,.84.9c5.49,4.48,7.79,10.83,9.32,17.3C331.94,421.07,331.28,425.37,331.34,429.51Z"/><path class="cls-7" d="M162.46,465a8.69,8.69,0,0,1,1.82-2.18c2-1.21,4.08-2.2,6.14-3.27l4-1.61,0,0,15.14-.66,17.48,4.9,8.79,3.68a55.89,55.89,0,0,0,1,5.81c1.33,4.8-1.15,8.76-6,9.37-6.26.77-12.5,1.86-18.79,2.24-6.07.37-12.3,2.6-18.25-.73l1.14-5.09-.67-.3c-.73,1.54-1.47,3.07-2.21,4.61-4.31,1-7.44-1.2-10.37-3.9l.73-6.05a10.22,10.22,0,0,1-1.25-2.88,10.87,10.87,0,0,1,.61-3.06l0,0Zm3.16,3.31,1.57-.24-.18-.51-1.4.75c-.35.08-.71.17,0,0C165.06,468.75,165.34,468.52,165.62,468.28Z"/><path class="cls-10" d="M186.26,454c0-.27-.08-.54-.11-.8-.54-1.27-.76-2.87-1.67-3.75a29.07,29.07,0,0,1-8.55-15.28c-2.17-10.6.14-20.23,6.51-29,2-2.79,3.16-6.19,4.71-9.31l7-7.87L195,387h0l3-1.58a10.61,10.61,0,0,1-.58,1.54,12.12,12.12,0,0,0-1,1.25A57.89,57.89,0,0,0,192.28,420,51.27,51.27,0,0,0,197,434.18c2.17,4.62,5.45,8.69,7.88,13.2,2.86,5.28,1.72,8.55-3.42,11.34l-12.67-3.17a6,6,0,0,0-.74-.05,4,4,0,0,1-.31-.52Z"/><path class="cls-6" d="M173.66,482.54c6,3.33,12.18,1.1,18.25.73,6.29-.38,12.53-1.47,18.79-2.24,4.89-.61,7.37-4.57,6-9.37a55.89,55.89,0,0,1-1-5.81c3.75-.12,7.5-.34,11.25-.35,5.05,0,10.22,1.8,15-1.17l3.94,1.54c3.39,10-2.25,15-11.76,18.26-3.38,1.17-7,1.66-10.49,2.47-7.22.54-14.45,1-21.67,1.68-.76.07-1.44.94-2.16,1.44l-7.24,0L177.51,489l.05,0-1.64-.82,0,0-.83-.83,0,0-.81-.81v0C174.11,485.27,173.89,483.91,173.66,482.54Z"/><path class="cls-11" d="M242,464.33c-4.81,3-10,1.16-15,1.17-3.75,0-7.5.23-11.25.35L207,462.17l-5.54-3.45c5.14-2.79,6.28-6.06,3.42-11.34-2.43-4.51-5.71-8.58-7.88-13.2A51.27,51.27,0,0,1,192.28,420a57.89,57.89,0,0,1,4.26-31.76,12.12,12.12,0,0,1,1-1.25,10.61,10.61,0,0,0,.58-1.54L195,387c2.24-3.83,4.6-7.59,6.67-11.52a35.59,35.59,0,0,0,1.9-5.81c2.09-.67,3.33.24,4,2.16q-1.89,5.63-3.79,11.24c-4.18,9.58-8.2,19.22-7.19,30,.22,2.29,1.15,4.51,1.52,6.8,3.57,21.9,19.5,39.64,43,42.63l.8.3Z"/><path class="cls-6" d="M274.43,464.73l1.73-.55,20.9-.52c-5.15,6.23-5.18,7.8-1.43,14.2,6.75,11.57,17.27,17.36,29.94,19.89,6.83,1.37,8.51.47,10.52-4.9l1.48.11-.05,0,1.64.83,0,0,1.59,2.45,0,0q0,3.19,0,6.38c-.25.55-.51,1.1-.77,1.64l0,0-1.62.82,0,0-10.47,0a19.1,19.1,0,0,1-3.81-.8c-8.22-3.51-16.7-6.58-24.51-10.85a134.8,134.8,0,0,1-22.08-14.86C272.12,473.89,271.44,471.64,274.43,464.73Z"/><path class="cls-8" d="M263.51,368c17,1.26,29.9-6.35,40.21-18.92,3.9-4.75,3.28-11.12,2.65-16.87-1.19-11-4.68-21.33-11.76-30.06-1.85-2.29-4.42-4-6.59-6a10.83,10.83,0,0,1-1.42-2.17c1.22.19,2.81,0,3.6.65,4.23,3.69,8.82,7.16,12.23,11.53,9,11.52,10.21,25.43,10.33,39.37.06,7.15-4.78,11.95-9.93,16.15a68.38,68.38,0,0,1-7.33,4.66l-3.33,1.68h0c-7,1.49-14,3.19-21,4.36-2.16.36-4.55-.75-6.84-1.18v0Z"/><path class="cls-8" d="M150.39,160.14c1.05.09,2.36-.19,3.12.32,11.41,7.66,24.35,10.87,37.61,13.2,2.45.44,4.89,1,7.36,1.22a35,35,0,0,0,5.28-.34l3.88.7,2.6.11,1.56,2.32,0,0-1.49,1.4c.49.33,1,.92,1.49.94,2.07.11,4.15.05,5.7.05l-1.76,2.41,0,0-15.11.72c-15.42-1.61-30-5.7-42.38-15.46A106.08,106.08,0,0,1,150.39,160.14Z"/><path class="cls-12" d="M256.17,62a50.06,50.06,0,0,1-4.84,4.72c-11.17,8.4-19,18.89-23.15,32.52-3.2,10.49-2.32,20.79-1,31.14.69,5.36,3.09,10.49,4.63,15.75a5.47,5.47,0,0,1-.24,2c-3.5-5-6.37-10.07-7-16.4-.53-5.24-2.49-10.33-3.05-15.57-.32-3.07.87-6.3,1.38-9.45l4-16,0,0,2.42-4,0,0c.27-.55.55-1.09.82-1.64l0,0c.27-.42.55-.83.82-1.24h0c.3-.4.6-.81.91-1.21,3.83-4.73,5.95-10.79,12.51-13.31C248.55,67.86,252.22,64.56,256.17,62Z"/><path class="cls-12" d="M187.15,395.82c-1.55,3.12-2.71,6.52-4.71,9.31-6.37,8.81-8.68,18.44-6.51,29a29.07,29.07,0,0,0,8.55,15.28c.91.88,1.13,2.48,1.67,3.75-8-2.79-12.59-8.94-14.46-16.71-2.63-10.91.39-21.09,6.44-30.25C180.64,402.44,184.11,399.28,187.15,395.82Z"/><path class="cls-12" d="M155.25,79.68l1.88,1.42c-14,9.37-17.79,23.7-18.45,39.2-.28,6.66.87,13.38,1.32,20.07,0,.45-.35.93-.54,1.4-1.34-2.87-2.82-5.69-4-8.64a23,23,0,0,1-.79-5c2.08-2.18,2.07-8,0-10.18q1.09-4.38,2.21-8.76,1.61-5.24,3.22-10.47l0,0,1.62-4,0,0L144.11,90l0,0,.82-.82,0,0,.81-1.62v0l.81-.82,0,0c.27-.55.55-1.09.82-1.63l0,0c.28-.28.55-.56.83-.83l0,0,.83-.83,0,0,.82-.82,0,0,.83-.84,0,0,2.47-.81Z"/><path class="cls-6" d="M339.89,493.8c6.27-.1,6.27-.1,8.68-8l1.68-1.75,3.24-3,1.67,3.75c-.1,1.67-.2,3.33-.32,5.26l-2.71-3.24,2.14,11.74,0,0-.82.82v0l-.81,1-4,1.4c-3.6.43-6.7.16-6.85-4.61,0-.34-.73-.65-1.12-1l0,0Z"/><path class="cls-9" d="M176.75,349.63c2.86,2.44,5.75,4.85,8.58,7.33,6.61,5.83,14.75,7.1,23.08,7.79,2,.17,3.92,0,6.46,0-.47,1.87-.84,3.33-1.21,4.78l-11.88-2.37c-6.87-.91-12.43-4.57-18-8.31C180.26,356.55,177,354.34,176.75,349.63Z"/><path class="cls-9" d="M223.76,169.67l-12-20c3.55,2.45,7.17,4.82,10.63,7.39,2.42,1.8,4.64,3.87,6.94,5.82L226,165.24l5.73,2h0l.8.81h0l.79.8h0Z"/><path class="cls-13" d="M203,189.58c-.18.84-.06,2-.57,2.48-5,4.94-9.9,10.11-12.12,16.86-2.56,7.84-4.3,15.94-6.42,23.92a20,20,0,0,1-.8,2.12q.82-6.75,1.63-13.51c.87-4,1.18-8.33,2.77-12.06a56.76,56.76,0,0,1,7.38-12.14C197.12,194.34,200.25,192.11,203,189.58Z"/><path class="cls-14" d="M220.56,294.66l-4.9.21c-4.77-.72-8.38.9-11.81,4.43-2.12,2.17-5.64,3-8.52,4.39l-.3-.27c3.23-2.66,6.47-5.29,9.65-8,.36-.31.36-1.05.52-1.59l.19-2.33,12.29,1.63-2-4,.09-.09Z"/><path class="cls-15" d="M201.78,367.19l11.88,2.37-.21,3.18c-.55,1-1.52,2-1.58,3a84.1,84.1,0,0,0,0,10.65c.1,1.47,1.24,4.14,1.67,4.1,1.8-.2,3.51-1.22,5.26-1.93l1.06-1.86.63.21c-.24,1.12-.49,2.23-.74,3.35l-.93,6-1.72-3.89c-5.69.56-6.85-.46-6.77-6.47.05-4.34.41-8.67.54-13a9,9,0,0,0-.58-2.43l-2.65,1.42c-.71-1.92-1.95-2.83-4-2.16Z"/><path class="cls-13" d="M193.43,305.82c-3.1,4.37-6.17,8.77-9.32,13.11-1.86,2.58-3.84,5.08-5.77,7.61,1.12-2.79,1.93-5.76,3.45-8.31,2.58-4.35,5.54-8.48,8.49-12.6.71-1,2-1.56,3-2.33l.21.2C193.49,304.27,193.46,305.05,193.43,305.82Z"/><path class="cls-16" d="M249.06,293c.42-.58.79-1.63,1.26-1.67,6.85-.6,13.72-1,20.57-1.61,2.64-.23,5.25-.89,7.87-1.36,0,.53-.09,1.06-.13,1.59-3,.51-6,.93-9,1.58-.8.18-1.45,1.07-2.17,1.64l-18.17.07Z"/><path class="cls-6" d="M161.55,477.86c2.93,2.7,6.06,4.87,10.37,3.9v3.46l-7.29-1-3.82-3C161.06,480.12,161.3,479,161.55,477.86Z"/><path class="cls-2" d="M174.38,261.21v4.39l5.47-2.77c-.25,4.5-.48,8.64-.7,12.77-.76-2.78-1.53-5.55-2.33-8.48C172.34,266.34,172.15,265.92,174.38,261.21Z"/><path class="cls-2" d="M161.55,477.86c-.25,1.13-.49,2.26-.74,3.39-1.45-5.22-4.21-10.51.83-15.38a10.87,10.87,0,0,0-.61,3.06,10.22,10.22,0,0,0,1.25,2.88Z"/><path class="cls-17" d="M240,164.1c5.75,4.23,6.77,10.6,7.87,17-2.35-5.66-3.24-12.17-9.69-15.23Z"/><path class="cls-2" d="M354.27,498.58l-2.14-11.74,2.71,3.24c.12-1.93.22-3.59.32-5.26C357.87,489.6,356.19,494.1,354.27,498.58Z"/><path class="cls-17" d="M265.11,462.81l3.86,2-14.84-.28c0-.32-.07-.65-.11-1Z"/><path class="cls-13" d="M205.2,293.84c-.16.54-.16,1.28-.52,1.59-3.18,2.7-6.42,5.33-9.65,8l-1.5.08-.21-.2C195.83,298.32,200.31,295.83,205.2,293.84Z"/><path class="cls-2" d="M199.9,489.72c.72-.5,1.4-1.37,2.16-1.44,7.22-.64,14.45-1.14,21.67-1.68-3.51.73-7,1.68-10.56,2.13C208.77,489.28,204.32,489.41,199.9,489.72Z"/><path class="cls-2" d="M164.63,484.24l7.29,1v-3.46c.74-1.54,1.48-3.07,2.21-4.61l.67.3-1.14,5.09c.23,1.37.45,2.73.67,4.1Z"/><path class="cls-11" d="M184.72,221.45q-.81,6.75-1.63,13.51l-2.1-.07c.75-4.16,1.47-8.32,2.32-12.45C183.39,222,184.23,221.77,184.72,221.45Z"/><path class="cls-16" d="M185.55,247l-5.08,1.58q.21-6.34.4-12.67c.75,2.95,1.37,5.94,2.33,8.82C183.51,245.59,184.74,246.2,185.55,247Z"/><path class="cls-15" d="M200.68,183.14l15.11-.72-6.47,2.38Z"/><path class="cls-2" d="M177.51,489l15.15.77Z"/><path class="cls-11" d="M226.88,90.8l-4,16c0-1.84-.45-3.81.05-5.5C224,97.69,225.55,94.28,226.88,90.8Z"/><path class="cls-13" d="M188,455.5a6,6,0,0,1,.74.05c.25.57.49,1.15.73,1.72l-15.14.66c2.71-.55,5.41-1.13,8.12-1.62C184.31,456,186.17,455.76,188,455.5Z"/><path class="cls-10" d="M134.71,118c2.08,2.15,2.09,8,0,10.18C134.72,124.77,134.71,121.38,134.71,118Z"/><path class="cls-14" d="M254,463.58c0,.33.07.66.11,1a48.05,48.05,0,0,0-5.87-.15c-.79.06-1.52.95-2.28,1.46L242,464.33c0-.49,0-1-.08-1.47Z"/><path class="cls-14" d="M340.7,496.14c.39.33,1.11.64,1.12,1,.15,4.77,3.25,5,6.85,4.61l-7.05.86-.91-.07Q340.71,499.34,340.7,496.14Z"/><path class="cls-2" d="M179.12,275.58c.79-.74,1.54-1.5,2.36-2.19,1.3-1.11,2.63-2.05,3.23.61l-4.88,4Z"/><path class="cls-11" d="M140.14,98.76q-1.62,5.24-3.22,10.47Q138.53,104,140.14,98.76Z"/><path class="cls-2" d="M327.89,504.92l10.47,0C334.87,507.83,331.38,506.27,327.89,504.92Z"/><path class="cls-15" d="M231.7,167.26l-5.73-2,3.39-2.37c.55.64,1.09,1.28,1.63,1.93C231.23,165.62,231.46,166.44,231.7,167.26Z"/><path class="cls-2" d="M302,266.81c-.66-1.07-1.33-2.13-2.47-3.94h7.83a17.13,17.13,0,0,0-3.44,1.5A10.68,10.68,0,0,0,302,266.81Z"/><path class="cls-2" d="M305.75,251.72l-4.17-2.5,6.1.28.29,1Z"/><path class="cls-11" d="M229.28,86.82l-2.42,4Z"/><path class="cls-11" d="M144.11,90l-2.41,4.82Z"/><path class="cls-15" d="M292.17,367.94l3.33-1.68-.15,2.48Z"/><path class="cls-13" d="M174.37,457.91l-4,1.61Z"/><path class="cls-11" d="M141.73,94.78l-1.62,4Z"/><path class="cls-2" d="M302,255.65l-1.58-1.43,2.18-.91Z"/><path class="cls-17" d="M320.06,397.39l-2.4-1.7Z"/><path class="cls-2" d="M184.7,274l1.61,2.41C185.77,275.59,185.23,274.79,184.7,274Z"/><path class="cls-2" d="M307.32,262.88V260.2C307.86,261.1,310.67,262,307.32,262.88Z"/><path class="cls-2" d="M302.52,253.33l3.2-1.61Z"/><path class="cls-11" d="M152.93,81.25l-2.47.81Z"/><path class="cls-2" d="M301.26,249.26l-2.7-1.6Z"/><path class="cls-2" d="M304.14,258l-1.6-1.75Z"/><path class="cls-14" d="M203,290.72l2.39.8Z"/><path class="cls-2" d="M340.71,502.52l.91.07-1.68,1.57C340.2,503.62,340.46,503.07,340.71,502.52Z"/><path class="cls-2" d="M175.18,259.5l-.84,1.77Z"/><path class="cls-2" d="M338.34,505l1.62-.82Z"/><path class="cls-13" d="M178.32,327.28l-1.5.89Z"/><path class="cls-2" d="M175.92,488.21l1.64.82Z"/><path class="cls-11" d="M147.3,85.22c-.27.54-.55,1.08-.82,1.63C146.75,86.3,147,85.76,147.3,85.22Z"/><path class="cls-11" d="M230.07,85.22c-.27.55-.55,1.09-.82,1.64C229.52,86.31,229.8,85.77,230.07,85.22Z"/><path class="cls-2" d="M305.91,258.82l-1.79-.8Z"/><path class="cls-13" d="M186.26,454l1.45,1Z"/><path class="cls-17" d="M320.88,399l-.84-1.61Z"/><path class="cls-11" d="M145.7,87.62l-.81,1.62Z"/><path class="cls-2" d="M186.29,276.37l.82,1.62Z"/><path class="cls-2" d="M187.08,278l.84.94Z"/><path class="cls-9" d="M208,146.56l-1-.84Z"/><path class="cls-11" d="M195,387l-.86.93Z"/><path class="cls-17" d="M310.54,388.62l-.88-.8Z"/><path class="cls-17" d="M311.49,389.4l-1-.82Z"/><path class="cls-11" d="M144.91,89.21l-.82.82Z"/><path class="cls-8" d="M286.05,293.87l-1-.64Z"/><path class="cls-17" d="M321.69,399.84l-.84-.9Z"/><path class="cls-11" d="M146.5,86.82l-.81.82Z"/><path class="cls-11" d="M230.87,84c-.27.41-.55.82-.82,1.24C230.32,84.85,230.6,84.44,230.87,84Z"/><path class="cls-11" d="M148.1,84.43c-.28.27-.55.55-.83.83C147.55,85,147.82,84.7,148.1,84.43Z"/><path class="cls-2" d="M162.46,465l-.84.93Z"/><path class="cls-11" d="M148.9,83.63l-.83.83Z"/><path class="cls-11" d="M231.74,82.83c-.31.4-.61.81-.91,1.21C231.13,83.64,231.44,83.24,231.74,82.83Z"/><path class="cls-11" d="M149.69,82.84l-.82.82Z"/><path class="cls-11" d="M150.49,82l-.83.84Z"/><path class="cls-2" d="M174.34,486.62l.81.81Z"/><path class="cls-2" d="M175.13,487.41l.83.83Z"/><path class="cls-2" d="M353.47,499.37l.82-.82Z"/><path class="cls-2" d="M352.67,500.33l.81-1Z"/><path class="cls-18" d="M239.63,85.82l5.68-6.16,5.45-4.13c-.57,1.57-1.08,3.17-1.71,4.71-2.59,6.29-6.25,12.36-7.58,18.9-2.09,10.3-2.21,20.83,2.11,31,3.25,7.63,5.85,15.54,9.1,23.17.67,1.56,3,2.42,4.5,3.6.76-1.52,1.58-3,2.27-4.57a6.72,6.72,0,0,0,.26-1.82,34.22,34.22,0,0,1,2.13,8c.36,2.29.5,4.61.73,6.92l6.39-3q-2.32,6.85-4.63,13.71l-4.42,7.76c-.3-1.72-.4-2.35-.5-3q-1.94-3.21-3.85-6.42v0l-.81-1.61v0l-2.41-4.79v0L246,156.93h0l-1.58-2.41h0L238,142.59v0a29.78,29.78,0,0,0-.94-3.39c-6.66-16.24-8.09-32.4.47-48.5a8.33,8.33,0,0,0,.48-2.27h0Z"/><path class="cls-12" d="M254.71,196.14a24.36,24.36,0,0,0,2.2,2c3.16,2.28,6.91,4,9.43,6.83,8.62,9.67,12.09,21,9.15,33.89a10.31,10.31,0,0,0-.13,1.58l-2.13-.85c-.3-4.86.53-9.94-2.82-14.19l-4.58-8.11-.76-.69.08.11-.89-.89.07.08a13.08,13.08,0,0,0-1.62-2.56c-3.33-3.29-7.35-5.37-12-4.12s-4.34,5.62-4.91,9.31c0,1.79-.11,3.57-.16,5.36-.38-.24-1-.42-1.1-.73-.87-3.77-2.26-7.57-2.26-11.35,0-3.37,1.4-6.8,2.54-10.08,1.27-3.71,4.39-5,8.08-5.27A3.13,3.13,0,0,0,254,196,1.68,1.68,0,0,1,254.71,196.14Z"/><path class="cls-13" d="M190.31,245.29a48.9,48.9,0,0,1,5.62-34.06,25.06,25.06,0,0,1,6.13-6.59c5.61-4.57,9.84-2.79,11.65,3.11,1.91,6.24,1.72,13.15,2.19,19.78.15,2.17-.49,4.39-.77,6.58q-.52-2.94-1-5.87c-1.32-1.47,1.37-4.47-2-5.16-.79-2.19-1.2-4.68-2.54-6.45-.63-.82-3.53-.94-4.61-.21-2.77,1.86-5.09,4.38-7.6,6.63-4,4.25-4.3,9.87-5.47,15.16Q191.11,241.75,190.31,245.29Z"/><path class="cls-19" d="M265.83,217.29l4.58,8.11-1.53,3.17c-3.34-5.59-4.77-6.47-10.51-4.89-4.07,1.12-4.94,5-5,8.53,0,2.57,1.21,5.17,1.89,7.75l.16-.15-.19.12,1,1.51,0,0,.86,1.84L252.32,246c-1.73-4.8-3.6-9.56-5.16-14.42a65,65,0,0,1-1.54-7.69c.06-1.8.12-3.58.17-5.37a21.58,21.58,0,0,0,1.78-2.43c2.4-4.45,4.25-5.41,9-3.84a68.46,68.46,0,0,1,7.77,3.64l-.07-.08.89.89-.08-.11Z"/><path class="cls-20" d="M250.76,75.53l-5.45,4.13c3.5-3.48,6.95-7,10.53-10.41a34.22,34.22,0,0,1,4.5-3c-.32,2.86-.65,5.22-.85,7.59-1.22,15.12,2.35,29.36,7.63,43.37,6.82,18.1,7.49,36.35.26,54.55-.63,1.58-2,2.86-3.05,4.29q2.31-6.85,4.63-13.71c4-16.08,2-31.62-3.77-47-5.28-14.09-9.37-28.49-7.87-43.85,0-.13,0-.27,0-.4a10.14,10.14,0,0,0,1.1-.82c.06,0-.16-.4-.25-.61l-1.32,1-3.7,2.54-.9.89Z"/><path class="cls-20" d="M238.05,88.45a8.33,8.33,0,0,1-.48,2.27c-8.56,16.1-7.13,32.26-.47,48.5a29.78,29.78,0,0,1,.94,3.39c-2-4.77-4.48-9.4-5.81-14.34-3.39-12.61-2.43-25,3.51-36.77A20.91,20.91,0,0,1,238.05,88.45Z"/><path class="cls-2" d="M211.79,250.07l-3.9,4.81-4.95-6.13c3.54-.79,6.5-2.26,7.3-6.25.39-1.46.77-2.92,1.15-4.38l1.79-.08,1,3.13c-.28,1.89-.57,3.79-.86,5.68Z"/><path class="cls-21" d="M254.71,196.14A1.68,1.68,0,0,0,254,196c3.29-2.89,9.66-1.79,12.22,2.18a20.24,20.24,0,0,1,1.87,4A16.64,16.64,0,0,0,254.71,196.14Z"/><path class="cls-15" d="M215.76,182.44l1.76-2.41c-1.55,0-3.63.06-5.7-.05-.51,0-1-.61-1.49-.94l1.49-1.4c2.39.28,4.76.62,7.15.82,1.39.12,2.79,0,4.91,0l-1.68,3.21-1.67-.07Z"/><path class="cls-10" d="M218.12,171.3l5.66-.86,8,.37c-.14.22-.24.58-.43.63-5.34,1.29-10.69,2.54-16.05,3.8,0,0,0-.39,0-.38Z"/><path class="cls-21" d="M200.54,202.67c2.43-4.06,5.31-7,10.38-5.11Z"/><path class="cls-16" d="M273.23,239.59l2.13.85,16.8,3.29,2.32,2.45-2.32-.07-19.91-4.69Z"/><path class="cls-17" d="M217.34,195.9l-.23,3.57c-3.12-4.74-2.1-9.23.23-13.61.07-.13,1,.22,1.59.35l-.78,1a.94.94,0,0,0,0,.55Q217.74,191.83,217.34,195.9Z"/><path class="cls-20" d="M238,142.59l6.39,11.95C240.28,151.64,238.79,147.31,238,142.59Z"/><path class="cls-15" d="M214.22,241.17c-.34-1-.69-2.09-1-3.13q.45-4.9.91-9.81.51,2.94,1,5.88Q214.68,237.65,214.22,241.17Z"/><path class="cls-16" d="M233.25,247H217.36A17.52,17.52,0,0,1,233.25,247Z"/><path class="cls-17" d="M223.59,190.19q.56,4.14,1.09,8.27l-.9.08-2.34-6.45-.29-.34,1.21-1.35a1.25,1.25,0,0,0,.6-.08A1.91,1.91,0,0,0,223.59,190.19Z"/><path class="cls-20" d="M246,156.93l6.38,11.16Z"/><path class="cls-15" d="M231.8,170.81l-8-.37a1.44,1.44,0,0,1,0-.77l9.55-.82,3.11,1.24-.28.95Z"/><path class="cls-13" d="M217.34,195.9q.39-4.08.77-8.17.85,2.15,1.7,4.3c-.3.77-.6,1.54-.89,2.31h0l-1.59,1.6Z"/><path class="cls-16" d="M190.31,245.29q.8-3.54,1.58-7.08c.3,2.72.6,5.43.91,8.15l-4.3-.12Z"/><path class="cls-20" d="M255.56,174.43q1.92,3.21,3.85,6.42Q257.48,177.64,255.56,174.43Z"/><path class="cls-16" d="M211.79,250.07l1.57-3.22,2.44.9Z"/><path class="cls-15" d="M211.8,177.67l-1.56-2.32,5-.5,0,.39Z"/><path class="cls-20" d="M252.36,168.07l2.41,4.79Z"/><path class="cls-16" d="M244.75,251c-1.2,2.53-2.39,1.52-3.57,0Z"/><path class="cls-17" d="M218.92,194.34c.29-.77.59-1.54.89-2.31h-.05l1.39-.27.29.34Z"/><path class="cls-13" d="M221.15,191.75l-1.39.27,2.59-1.62Q221.77,191.08,221.15,191.75Z"/><path class="cls-20" d="M239.63,85.82l-1.58,2.63Z"/><path class="cls-20" d="M244.42,154.53l1.58,2.41Z"/><path class="cls-17" d="M217.33,195.93l1.59-1.6Z"/><path class="cls-16" d="M237.23,248.55l-2.41-.81Z"/><path class="cls-16" d="M188.3,246.15l-2.77.81Z"/><path class="cls-17" d="M220.53,181.62l1.67.07-1.6.79-.13-.12A4.52,4.52,0,0,1,220.53,181.62Z"/><path class="cls-19" d="M251.18,246.74l-.35.11Z"/><path class="cls-16" d="M217.39,247l-1.61.81Z"/><path class="cls-20" d="M254.76,172.84l.81,1.61Z"/><path class="cls-16" d="M234.84,247.76l-1.61-.81Z"/><path class="cls-19" d="M248.94,248.3l0,0-.37,0Z"/><path class="cls-16" d="M238.82,249.35l-1.61-.81Z"/><path class="cls-16" d="M241.21,251l-1.63-.82Z"/><path class="cls-13" d="M223.59,190.19a1.91,1.91,0,0,1-.63.13Z"/><path class="cls-13" d="M218.15,187.18l.78-1Z"/><path class="cls-16" d="M239.62,250.15l-.82-.82Z"/><path class="cls-15" d="M232.49,168.06l-.8-.81Z"/><path class="cls-15" d="M233.28,168.85l-.79-.8Z"/><path class="cls-19" d="M249.74,247.5l0,0Z"/><path class="cls-17" d="M219.8,183.26l-.44.37.33-.48Z"/><path class="cls-17" d="M220.6,182.48l-.8.78-.11-.11.79-.79Z"/><path class="cls-22" d="M192.8,246.36c-.31-2.72-.61-5.43-.91-8.15,1.17-5.29,1.43-10.91,5.47-15.16a4.9,4.9,0,0,0,1.88-.27c7.23-4.63,7.22-4.64,12.87.3,3.35.69.66,3.69,2,5.16q-.47,4.89-.91,9.8l-1.79.08.09-1.57c.07-.09.24-.23.21-.27a2.85,2.85,0,0,0-.38-.55,35.7,35.7,0,0,0-2.07-5.11c-1.54-2.59-4.16-4.51-6.93-3-2.56,1.36-5.62,3.83-6.21,6.33-.83,3.53.42,7.54.78,11.35l-1,1.62Z"/><path class="cls-23" d="M227,251c.64.12,1.44.05,1.88.41,1.85,1.54,4.27,2.94,5.07,5,.36.9-2.48,3.25-4.09,4.7-.83.74-2.14.92-3.21,1.4-2.1.92-5,3.23-6.13,2.56a29.51,29.51,0,0,1-8.16-7.57c-2-2.67,1.16-3.66,2.65-5.08-.3,2.62,1.52,3.33,3.44,3.22,3.28-.2,6.54-.82,10.11-1.3C227.71,252.57,227.33,251.78,227,251Z"/><path class="cls-24" d="M243.77,270.09c2.42-1.31,5-2.44,7.24-4,2.63-1.78,4.55-.83,6.77,1.13-9.46,1.27-14.76,7.3-18.66,15l-3.85-1.4c-.08-3.17.69-5.94,3.65-7.66l1.38-1,.85-.67h0l.87-.71h0Z"/><path class="cls-24" d="M220.56,284.66c-3.84-7.2-11.05-10.43-17.66-14.74l4.95-2.11,8,6.08.83.51,1.26.52,2.14,1.51,3,6.51Z"/><path class="cls-25" d="M210.24,242.5c-.8,4-3.76,5.46-7.3,6.25l-3.8-1.88L199,245.7c.28-.94.57-1.88.85-2.82,5.08,2.68,7.82,1.07,8-4.73,0-.78,0-1.57.08-2.35.75.42,2.05.76,2.14,1.29A36.07,36.07,0,0,1,210.24,242.5Z"/><path class="cls-14" d="M273.23,239.59l-1,1.83-5.59-.15q1.15-5.15,2.32-10.29l-.1-2.41,1.53-3.17C273.76,229.65,272.93,234.73,273.23,239.59Z"/><path class="cls-18" d="M227,251c.37.78.75,1.57,1.56,3.29-3.57.48-6.83,1.1-10.11,1.3-1.92.11-3.74-.6-3.44-3.22C218.76,250.14,222.72,249.3,227,251Z"/><path class="cls-25" d="M269,231q-1.17,5.15-2.32,10.29l-1.52.19-3.28.63-1.15,0-4.47-.65,0,0c-.34-.5-.68-1-1-1.51l.19-.12-.16.15,1.84-1.81c6.64,2.7,8.57,1.49,8.86-5.56,0-.26.06-.51.08-.77Z"/><path class="cls-18" d="M220.56,284.66l2.52-1.73,3.63,3.76h6.17l1.05.05a16.63,16.63,0,0,0-1.14,2.22c-.09.25.31.67.49,1C227.32,292.1,223.58,290.54,220.56,284.66Z"/><path class="cls-16" d="M220.09,276.43,218,274.92l21-1.71c-3,1.72-3.73,4.49-3.65,7.66a.79.79,0,0,0-.45-.1l-.66-4.34Z"/><path class="cls-23" d="M234.82,280.77a.79.79,0,0,1,.45.1l3.85,1.4c-.67,3.53-2.27,6.36-5.84,7.67-.18-.33-.58-.75-.49-1a16.63,16.63,0,0,1,1.14-2.22c0-.38.09-.75.13-1.12l0-.08c.26-1,.51-2.06.77-3.09Z"/><path class="cls-26" d="M256.24,241.4l4.47.65-3.61,1.19C256.81,242.62,256.53,242,256.24,241.4Z"/><path class="cls-16" d="M199,245.7l.15,1.17h-3.22l1-1.62Z"/><path class="cls-14" d="M261.86,242.09l3.28-.63Z"/><path class="cls-14" d="M225.21,298.77l-1.48-.92,1.57-.13c0,.29.06.58.08.88Z"/><path class="cls-2" d="M206.78,257.37l-.26.08a1,1,0,0,1-.07-.33s.16-.06.25-.09Z"/><path class="cls-16" d="M243.77,270.09l-1.74.73Z"/><path class="cls-14" d="M215.71,289.15l-.33-.42.42.33Z"/><path class="cls-16" d="M216.69,274.4l-.83-.51Z"/><path class="cls-16" d="M241.15,271.53l-.85.67Z"/><path class="cls-16" d="M242,270.81l-.87.71Z"/><path class="cls-14" d="M221.35,295.47l-.79-.8Z"/><path class="cls-14" d="M222.15,296.26l-.81-.8Z"/><path class="cls-14" d="M222.94,297.06l-.8-.8Z"/><path class="cls-14" d="M223.74,297.86l-.8-.8Z"/><path class="cls-17" d="M244.57,393.26c4.73,0,4.45-4,5.36-7,.64-2.08.95-4.26,2.09-6.32l-.45,9.17,1.49.52c4.64-5.41,9.42-10.73,9.95-18.6l1.32.05v0l.72,4.74a5,5,0,0,1-.15,1.18c-1.81,4.71-3.44,9.52-5.6,14.07-.65,1.37-2.72,2.16-4.25,3-.87.47-2.3.17-2.91.78-3.34,3.32-5.64,1.36-7.89-1.31Z"/><path class="cls-16" d="M268.27,333.69c.49-1.84,1-3.68,1.59-5.92l5.3,3.38c-.66-4.79-1.22-8.83-1.81-13.17,1.22.16,2.95.43,4.69.58,2,.18,2.3-.76,1.36-2.35l3.31,1.45,0,1.22-7.12,1.92v13.14l-3.83-1.8c-1.71,2.21.35,9.45,2.94,10.34l-.06,1.58,0,0h-4c-.27-3.2-.5-6.41-.87-9.6,0-.29-1-.47-1.51-.7Z"/><path class="cls-17" d="M233.29,363.15l3.4,3.07,18.85-11c-3.6,2.6-7,5.59-10.85,7.7-8.78,4.81-9,11.67-7.87,19.26a52.4,52.4,0,0,0,2.14,7.2l-.52.48L235.71,388l-.07-1c0-5.76.26-11.53,0-17.27C235.47,367.48,234.09,365.33,233.29,363.15Z"/><path class="cls-17" d="M239,389.34c3.12.87,1.19-1.52,1.28-2.25.32-2.43.14-4.93.51-7.35.15-1,1.18-1.94,2.31-2.72-2.42,5.41-1.14,10.47.66,15.51l-.22.24q-2.52-1.49-5.06-2.95Z"/><path class="cls-16" d="M276.23,313c-.8-1.06-1.6-2.11-1.89-2.51l5.85-4.66c3,1.95.61,2.52-.79,3.62A25.66,25.66,0,0,0,276.23,313Z"/><path class="cls-13" d="M276.25,343.27l4.53-4.19,1.07,1.59-5.61,2.59Z"/><path class="cls-16" d="M275.42,298.7l-4.77-4Z"/><path class="cls-13" d="M270.69,344h4l-5.59,3.21,0,0,0-1.61Z"/><path class="cls-15" d="M264.33,371.11l-1.32-.05a24,24,0,0,1-.69-2.58c0-.11.78-.35,1.19-.53C263.78,369,264.06,370.05,264.33,371.11Z"/><path class="cls-17" d="M255.53,355.19l3.19-2.4Z"/><path class="cls-16" d="M270.65,294.72l-3.19-1.6Z"/><path class="cls-16" d="M280.2,305.86c-.54-.79-1.07-1.59-1.6-2.39C279.13,304.27,279.66,305.07,280.2,305.86Z"/><path class="cls-16" d="M277.81,302.68c-.53-.8-1.06-1.6-1.6-2.39C276.75,301.08,277.28,301.88,277.81,302.68Z"/><path class="cls-13" d="M274.62,344.06l.06-1.58,1.57.79h0Z"/><path class="cls-16" d="M276.22,300.29c-.26-.54-.53-1.07-.8-1.6C275.69,299.22,276,299.75,276.22,300.29Z"/><path class="cls-13" d="M283.22,339.23l-.1.27-.3-.31L283,339Z"/><path class="cls-17" d="M258.71,352.81l1.61-.81Z"/><path class="cls-17" d="M260.3,352c.28-.31.56-.62.83-.94C260.86,351.39,260.58,351.7,260.3,352Z"/><path class="cls-16" d="M277.82,314.62l-.8-.81Z"/><path class="cls-17" d="M243.72,392.53l.84.74-.31.32-.75-.82Z"/><path class="cls-16" d="M277,313.82l-.81-.81Z"/><path class="cls-16" d="M278.61,303.47l-.8-.81Z"/><path class="cls-16" d="M279.41,316.21l-.8-.8Z"/><path class="cls-16" d="M278.62,315.42l-.81-.81Z"/><path class="cls-27" d="M150.38,102.77l4.89-9.58,1.65,2.27c.25,14.68,5.53,27.54,13.45,39.74,5.7,8.8,13.4,15.53,20.57,22.86,1.58,1.62,2.48,3.9,3.7,5.88a69.75,69.75,0,0,1-7.68-1.2,23.91,23.91,0,0,1-4.69-2.41l6.36,9.33a26.81,26.81,0,0,1-4.11-1.26c-7.12-3.52-14.19-7.13-21.28-10.7h0l-4.79-4.79,0,0-4-4.8v0c-1.33-2.64-3-5.17-3.91-7.94-1.36-4.08-2.2-8.34-3.25-12.53l0-9.91Q148.84,110.28,150.38,102.77Z"/><path class="cls-18" d="M188.63,169.66l-6.36-9.33a23.91,23.91,0,0,0,4.69,2.41,69.75,69.75,0,0,0,7.68,1.2c-1.22-2-2.12-4.26-3.7-5.88-7.17-7.33-14.87-14.06-20.57-22.86-7.92-12.2-13.2-25.06-13.45-39.74l3.93,8.91h0c1.78,7.48,4.73,14.34,10.33,19.83l15.26,21.55c.49.55,1,1.1,1.46,1.64h0l3.21,4h0l.8.8h0l.8.8h0l.8.8h0l.8.8h0l.8.8h0l.8.8h0l4.76,3.21h0l1.56,1.55,15.94,10.43-2.85,3.56-5,.49-2.6-.11A10.76,10.76,0,0,0,205,173.7C199.56,172.28,194.09,171,188.63,169.66Z"/><path class="cls-20" d="M188.63,169.66c5.46,1.33,10.93,2.62,16.37,4a10.76,10.76,0,0,1,2.64,1.54l-3.88-.7a90.42,90.42,0,0,1-38.13-14,12.69,12.69,0,0,1-2.39-2.82c7.09,3.57,14.16,7.18,21.28,10.7A26.81,26.81,0,0,0,188.63,169.66Z"/><path class="cls-20" d="M147.34,127.69c1,4.19,1.89,8.45,3.25,12.53.92,2.77,2.58,5.3,3.91,7.94C148.88,142.47,146,135.81,147.34,127.69Z"/><path class="cls-20" d="M171.18,124.19c-5.6-5.49-8.55-12.35-10.33-19.83a8.62,8.62,0,0,1,1.47,1.69C165.3,112.08,168.23,118.14,171.18,124.19Z"/><path class="cls-17" d="M150.38,102.77q-1.53,7.52-3.07,15C146.24,112.35,146.9,107.27,150.38,102.77Z"/><path class="cls-20" d="M160.85,104.37l-3.93-8.91-1.65-2.27c.37-.73.73-1.46,1.09-2.19.44.4,1.13.74,1.27,1.22C158.76,96.26,159.79,100.32,160.85,104.37Z"/><path class="cls-20" d="M154.49,148.14l4,4.8Z"/><path class="cls-20" d="M158.46,152.92l4.79,4.79Z"/><path class="cls-20" d="M200.63,159.33l-4.76-3.21Z"/><path class="cls-20" d="M191.1,151.34l-3.21-4Z"/><path class="cls-20" d="M187.9,147.38c-.49-.54-1-1.09-1.46-1.64C186.93,146.29,187.41,146.84,187.9,147.38Z"/><path class="cls-20" d="M202.18,160.87l-1.56-1.55Z"/><path class="cls-20" d="M195.08,155.33l-.8-.8Z"/><path class="cls-20" d="M194.28,154.53l-.8-.8Z"/><path class="cls-20" d="M193.48,153.73l-.8-.8Z"/><path class="cls-20" d="M192.69,152.94l-.8-.8Z"/><path class="cls-20" d="M191.89,152.14l-.8-.8Z"/><path class="cls-20" d="M195.87,156.12l-.8-.8Z"/><path class="cls-17" d="M194.35,333.87l-4.25-.45.18-1.11c5.15-.45,9.87,1.7,15.13,3.56l1.65-3.68,1.59-.12c.22-.14.5-.23.63-.42.78-1.13,1.52-2.29,2.28-3.44.77,1.33,1.57,2.64,2.29,4a6,6,0,0,1,.33,1.51l-.54,3.29,0,4.69-4.25-.86h0C205.35,336.46,199.92,335,194.35,333.87Z"/><path class="cls-14" d="M208.65,332.07l-1.59.12c-.85-3.25-1.7-6.5-2.63-10.1l-2.31,3c-3.87-6-3-12-1.27-18l-7.42-1.21c0-.77.06-1.55.1-2.32l1.5-.08.29.27c.73.48,1.45,1.34,2.2,1.37a59.55,59.55,0,0,0,6.4-.31c-3.12,5.5-4.07,10.84-2,16.78l3.9-4.46C206.72,322,207.69,327,208.65,332.07Z"/><path class="cls-9" d="M218.79,388.54c-1.75.71-3.46,1.73-5.26,1.93-.43,0-1.57-2.63-1.67-4.1a84.1,84.1,0,0,1,0-10.65c.06-1,1-2,1.58-3,.5,4.1,1.29,8.19,1.39,12.29C214.91,388.08,215.85,389.19,218.79,388.54Z"/><path class="cls-15" d="M225.21,392.46c1.45-2.13,2.89-4.26,4.31-6.33l.64,6.11,3.07-1.24.31.3c-2.26,4.56-4.07,5.25-8.87,3.39Z"/><path class="cls-17" d="M225.21,392.46l-.54,2.22c-1.55,2.05-3,4.39-5.86,1.56l.93-6C220.6,393.35,222.65,393.54,225.21,392.46Z"/><path class="cls-13" d="M194.35,333.87c5.57,1.16,11,2.59,15.08,7-3.05-1.37-6.11-2.71-9.14-4.11C198.29,335.81,196.33,334.83,194.35,333.87Z"/><path class="cls-17" d="M228.42,358.47c-4.95-1.36-7-5.35-8.68-9.64l.24-.26,8.88,9.49Z"/><path class="cls-13" d="M209.42,340.83l4.24.86c.7,1,1.39,2,2.09,2.93l.24,1.17Z"/><path class="cls-17" d="M216,345.79l-.24-1.16,2.36.67a.25.25,0,0,0,.11.37l1.11,2L219,348Z"/><path class="cls-15" d="M235.64,387c0,.33.05.66.07,1l-2.17,3.34-.31-.3Z"/><path class="cls-17" d="M232.47,360.78l.82,2.38-2.46-2.33c.16-.19.33-.38.48-.58Z"/><path class="cls-17" d="M229.21,359.27l-.79-.8.44-.41.83.72Z"/><path class="cls-17" d="M230,360.05l-.82-.78.48-.49.84.75Z"/><path class="cls-17" d="M230.83,360.83l-.8-.78c.16-.17.33-.35.5-.51l.79.71C231.16,360.45,231,360.64,230.83,360.83Z"/><path class="cls-17" d="M219.74,348.83c-.26-.27-.52-.54-.79-.8l.38-.33.65.87Z"/><path class="cls-7" d="M220,348.57l-.65-.87c-.37-.68-.74-1.35-1.1-2l2.3,0,.8.79.34.18-.35-.17-.78-.8-6.36-11.94a6,6,0,0,0-.33-1.51c-.72-1.35-1.52-2.66-2.29-4-.76,1.15-1.5,2.31-2.28,3.44-.13.19-.41.28-.63.42-1-5-1.93-10.05-2.88-15l-3.9,4.46c-2-5.94-1.07-11.28,2-16.78a59.55,59.55,0,0,1-6.4.31c-.75,0-1.47-.89-2.2-1.37,2.89-1.42,6.41-2.22,8.53-4.39,3.43-3.53,7-5.15,11.81-4.43,6.38,3.58,11,11.1,19.77,9.32a53.34,53.34,0,0,0,11.21-3.54c7.07-3.18,12.39-2.57,18.62,3.17l-5.42.74c1.57,1.41,2.94,2.57,4.23,3.81a10.5,10.5,0,0,1,3,4.52l-7.33-.6c.84,3.41,1.63,6.42,2.3,9.46a24,24,0,0,1-4.62,20.47c-1.9,2.52-3.47,5.29-5.15,8-4.59,7.32-11.83,9.67-19.82,10.6l-1.16-.53-.78-.71-.84-.76-.83-.72Z"/><path class="cls-14" d="M225.38,298.6c4.61,2,9.28,3.64,15,1.39-4,4.09-11.55,3.16-15.14-1.23Z"/><path class="cls-16" d="M268.31,333.73l-.64,2.11-.81-.44,1.41-1.71Z"/><path class="cls-16" d="M265.91,337.7l-.58,2.06-.81-.43,1.37-1.66Z"/><path class="cls-16" d="M249.29,293.2l-.86,1.1-.46-.45,1.09-.89Z"/><path class="cls-14" d="M241.68,299.74l1.38-.62.23.48-1.38.65Z"/><path class="cls-4" d="M269.12,345.65l0,1.61c-.25-.5-.5-1-.74-1.48Z"/><path class="cls-16" d="M294.52,246.2l1.56.78Z"/><path class="cls-16" d="M265.89,337.67l.38-.35c0,.08,0,.2,0,.24a.8.8,0,0,1-.31.14Z"/><path class="cls-16" d="M296.1,247l.84.73Z"/><path class="cls-2" d="M348.38,484.44l-1.73-1.13.49-.72,1.7,1.42A3.12,3.12,0,0,1,348.38,484.44Z"/><path class="cls-14" d="M339.89,493.8l.83,2.36-1.59-2.44C339.38,493.74,339.64,493.76,339.89,493.8Z"/><path class="cls-14" d="M337.57,493l-1.48-.11.74-1.11C337.08,492.14,337.33,492.55,337.57,493Z"/><path class="cls-2" d="M350.25,484l-1.68,1.75-.18-1.36a3,3,0,0,0,.45-.42Z"/><path class="cls-14" d="M339.16,493.76l-1.64-.83Z"/><path class="cls-6" d="M233.54,391.3l2.17-3.34,2.73,1.86q2.53,1.47,5.06,2.95l.75.82c2.25,2.67,4.55,4.63,7.89,1.31.61-.61,2-.31,2.91-.78,1.53-.84,3.6-1.63,4.25-3,2.16-4.55,3.79-9.36,5.6-14.07a5,5,0,0,0,.15-1.17c.23-.45.42-1.27.69-1.29,4.82-.4,9.64-.7,14.47-1,2.41,5.8,4.15,12,7.41,17.31a56.7,56.7,0,0,1,7.63,20.22A41.51,41.51,0,0,1,290,440.53c-4.58,7.53-10,14.61-18.59,18.31-2.25,1-4.19,2.63-6.28,4l-11.09.77L242,462.86l-.8-.3c2.25-1.08,4.49-2.22,6.77-3.23,7.74-3.44,13-8.84,14-17.61a74.29,74.29,0,0,0,.7-10.62c-.32-10.36-9.51-23.23-18.64-25.89-5.54-1.61-11.26-2.58-16.91-3.84-9.29-2.07-17.88-5.1-21.43-15.28a16.32,16.32,0,0,0-1.83-3q1.89-5.62,3.79-11.24l2.65-1.42a9,9,0,0,1,.58,2.43c-.13,4.34-.49,8.67-.54,13-.08,6,1.08,7,6.77,6.47l1.72,3.89c2.85,2.83,4.31.49,5.86-1.56C229.47,396.55,231.28,395.86,233.54,391.3Z"/><path class="cls-15" d="M280.21,373.57c-4.83.32-9.65.62-14.47,1-.27,0-.46.84-.69,1.29l-.72-4.75c2.29.43,4.68,1.54,6.84,1.18,7-1.17,14-2.87,21-4.36-2.32,1-4.67,2-7,3C283.51,371.77,281.87,372.7,280.21,373.57Z"/><path class="cls-17" d="M189.49,457.27c-.24-.57-.48-1.15-.73-1.72l12.67,3.17,5.54,3.45Z"/><path class="cls-2" d="M165.61,468.28l1.4-.75.18.51-1.57.24Z"/><path class="cls-2" d="M165.62,468.28c-.28.24-.56.47,0,0-.73.18-.37.09,0,0Z"/><path class="cls-7" d="M203.84,383.1a16.32,16.32,0,0,1,1.83,3c3.55,10.18,12.14,13.21,21.43,15.28,5.65,1.26,11.37,2.23,16.91,3.84,9.13,2.66,18.32,15.53,18.64,25.89a74.29,74.29,0,0,1-.7,10.62c-1,8.77-6.28,14.17-14,17.61-2.28,1-4.52,2.15-6.77,3.23-23.49-3-39.42-20.73-43-42.63-.37-2.29-1.3-4.51-1.52-6.8C195.64,402.32,199.66,392.68,203.84,383.1Z"/><path class="cls-27" d="M250.76,75.53l1.49-1.43.9-.89,3.7-2.54a5,5,0,0,1,.47.45c0,.13,0,.27,0,.4-1.5,15.36,2.59,29.76,7.87,43.85,5.75,15.36,7.74,30.9,3.77,47l-6.39,3c-.23-2.31-.37-4.63-.73-6.92a34.22,34.22,0,0,0-2.13-8,6.72,6.72,0,0,1-.26,1.82c-.69,1.55-1.51,3.05-2.27,4.57-1.54-1.18-3.83-2-4.5-3.6-3.25-7.63-5.85-15.54-9.1-23.17-4.32-10.14-4.2-20.67-2.11-31,1.33-6.54,5-12.61,7.58-18.9C249.68,78.7,250.19,77.1,250.76,75.53Z"/><path class="cls-28" d="M264.33,215.9a68.46,68.46,0,0,0-7.77-3.64c-4.74-1.57-6.59-.61-9,3.84a21.58,21.58,0,0,1-1.78,2.43c.57-3.69.36-8.09,4.91-9.31s8.68.83,12,4.12A13.08,13.08,0,0,1,264.33,215.9Z"/><path class="cls-28" d="M265.15,216.71l-.89-.89Z"/><path class="cls-28" d="M265.83,217.29l-.76-.69Z"/><path class="cls-28" d="M212.11,223.08c-5.65-4.94-5.64-4.93-12.87-.3a4.9,4.9,0,0,1-1.88.27c2.51-2.25,4.83-4.77,7.6-6.63,1.08-.73,4-.61,4.61.21C210.91,218.4,211.32,220.89,212.11,223.08Z"/><path class="cls-26" d="M269,231l-2.92.84-2.67-2.27c-2-3-4.05-.84-6.09-.1-.34,1.82-.67,3.65-1,5.47-.18.3-.37.6-.53.91,0,0,.18.14.27.22l.39-1,2.95.09-2.25,3L255.28,240c-.68-2.58-1.92-5.18-1.89-7.75,0-3.53.91-7.41,5-8.53,5.74-1.58,7.17-.7,10.51,4.89C268.91,229.37,268.94,230.18,269,231Z"/><path class="cls-26" d="M255.25,239.93c.35.5.69,1,1,1.51C255.94,240.94,255.6,240.43,255.25,239.93Z"/><path class="cls-27" d="M256.85,70.67l1.32-1c.09.21.31.56.25.61a10.14,10.14,0,0,1-1.1.82A5,5,0,0,0,256.85,70.67Z"/><path class="cls-18" d="M253.15,73.21l-.9.89Z"/><path class="cls-26" d="M199,245.7l-2.11-.44c-.36-3.81-1.61-7.82-.78-11.35.59-2.5,3.65-5,6.21-6.33,2.77-1.47,5.39.45,6.93,3a35.7,35.7,0,0,1,2.07,5.11c0,.1-.07.21,0,.29a4.18,4.18,0,0,0,.21.53l-.09,1.57c-.38,1.46-.76,2.92-1.15,4.38a36.07,36.07,0,0,0-.16-5.41c-.09-.53-1.39-.87-2.15-1.29l-2.71-2.09.08-.08-1-1-4.37,2.28c-1.66,2.09-1.39,3.72,1,4.76l-1.07,3.18Z"/><path class="cls-2" d="M211.48,236.55a4.18,4.18,0,0,1-.21-.53c0-.08,0-.19,0-.29a2.85,2.85,0,0,1,.38.55S211.55,236.46,211.48,236.55Z"/><path class="cls-22" d="M234.82,280.77l0,1.66c-.26,1-.51,2.07-.77,3.09l0,.08-1.18,1.07h-1.67l-1-1.68-3.48,1.69-3.63-3.76-3-6.5h14.07Z"/><path class="cls-29" d="M205.22,233.71l2.71,2.09c0,.78,0,1.57-.07,2.35-.2,5.8-2.94,7.41-8,4.73.36-1,.71-2.11,1.07-3.18-2.38-1-2.65-2.67-1-4.76l3.19,2.64C203.82,236.29,204.52,235,205.22,233.71Z"/><path class="cls-29" d="M257.12,238.15l2.25-3-2.95-.09-.13-.12c.34-1.82.67-3.65,1-5.47l3.68,3.63,2.41-3.53,2.67,2.27c0,.26-.06.51-.08.77C265.69,239.64,263.76,240.85,257.12,238.15Z"/><path class="cls-16" d="M226.71,286.69l3.48-1.69,1,1.68Z"/><path class="cls-16" d="M232.88,286.67l1.18-1.07c0,.37-.09.74-.13,1.12Z"/><path class="cls-16" d="M234.09,285.52c.26-1,.51-2,.77-3.09C234.6,283.46,234.35,284.49,234.09,285.52Z"/><path class="cls-13" d="M214.18,333.71l6.36,11.94h0l-2.3,0a.25.25,0,0,1-.12-.37l-4.47-8.3Z"/><path class="cls-7" d="M213.64,337l4.47,8.3-2.36-.67-2.09-2.94C213.66,340.13,213.65,338.57,213.64,337Z"/><path class="cls-13" d="M221.32,346.45l.35.17-.34-.18Z"/><path class="cls-13" d="M221.33,346.44l-.8-.79h0l.78.8Z"/><path class="cls-6" d="M263.39,229.55,261,233.08l-3.68-3.63C259.34,228.71,261.41,226.54,263.39,229.55Z"/><path class="cls-29" d="M256.42,235l-.39,1c-.09-.08-.28-.2-.27-.22.16-.31.35-.61.53-.91Z"/><path class="cls-6" d="M205.22,233.71c-.7,1.29-1.4,2.58-2.11,3.87l-3.19-2.64,4.37-2.28,1,1Z"/><path class="cls-29" d="M205.3,233.63l-1-1Z"/></svg>