<svg id="Layer_1" data-name="Layer 1" xmlns="http://www.w3.org/2000/svg" viewBox="0 0 1920 1080"><defs><style>.cls-1{fill:#e3f2fe;}.cls-2{fill:#dcf2fe;}.cls-3{fill:#a9dffb;}.cls-4{fill:#b0e1fb;}.cls-5{fill:#afe1fb;}.cls-6{fill:#a2dbfa;}.cls-7{fill:#b6e3fc;}.cls-8{fill:#bce5fd;}.cls-9{fill:#c2e7fd;}.cls-10{fill:#b9e4fc;}.cls-11{fill:#b5e3fc;}.cls-12{fill:#c7e9fd;}.cls-13{fill:#cdecfe;}.cls-14{fill:#bfe7fc;}.cls-15{fill:#bce6fd;}.cls-16{fill:#ddf1fe;}.cls-17{fill:#fefefe;}.cls-18{fill:#c9eafd;}.cls-19{fill:#cfedfe;}.cls-20{fill:#d5f1fe;}.cls-21{fill:#bbe5fc;}.cls-22{fill:#d6f2fe;}</style></defs><path class="cls-1" d="M401.82,458.49c24.85-17.86,50.73-31.33,82.46-35,31.39-3.6,60.3.45,87.89,13.54,4.85-29-6.89-58.2,7.5-85.36,55.88,0,105.3,16.5,149.34,50.5,14.51-63.67,66.11-80.24,118-89.43,65.74-11.62,122.67,13.47,170.6,58.84,7,6.64,12.05,15.37,18.94,24.35,11-5.8,21.83-12.64,33.47-17.4,54.08-22.09,108.53,2.38,119.13,63.6,52.69-24.44,104.81-16.09,152.32,10.47,47.22,26.4,82.75,66.17,100.52,119.45,16-5.11,32.21-13.07,49.07-15a352.29,352.29,0,0,1,73.53-.55c18.08,1.79,36,8.32,53.18,14.93,10.13,3.9,18.62,12.07,27.85,18.32-2.86,9.93-10.66,9.4-18.73,9.4q-161.31-.18-322.62.19c-8.83,0-17.65,3.89-26.48,6-19.47-24-44-40.26-75.32-40-18.33.14-26.74-4.51-34.75-22.45-23.63-52.89-80.18-87.53-146.9-77.48-19.71,3-38.62,10.5-45.83,32.24-1.54,4.64.37,10.43.7,15.7,4.59-.32,9.33,0,13.76-1.07,8-1.86,15.66-5.83,23.69-6.61,57.13-5.55,106.38,46,115.05,93.44-89.82,0-179.65-.16-269.47.29-8.92.05-17.82,3.9-26.73,6L813.34,596c-17.32-18.27-34.59-36.53-38.65-63-.32-2.08-3.28-3.75-5-5.62,1.54-18.24,3.08-36.49,4.6-54.45-24.57,2-45.79,24.79-51.34,57.59q-1.59,23.4-3.2,46.81c-3.28,5.64-6.56,11.28-10.9,18.76h-14.9c-76.75,0-153.49.09-230.24-.14-8.15,0-16.29-2-24.44-3l-34.33-34.34c-10.66-22.34-16.24-45.31-9.69-70.1C397.86,478.58,399.65,468.49,401.82,458.49Z"/><path class="cls-2" d="M1277.82,605.37c8.83-2.07,17.65-5.93,26.48-6q161.31-.63,322.62-.19c8.07,0,15.87.53,18.73-9.4l18.72,28.1c-4.73,8.39-8.1,18.05-14.48,24.9-15.21,16.32-31.85,31.32-47.91,46.86-5.4,1.71-10.87,3.24-16.19,5.17-46.06,16.67-92.31,29.87-140.32,8.1l-8.59,11.78c-8.67,1-17.33,2.94-26,2.95q-242.69.27-485.36.14c-18.75-14.54-32.64-32.33-37.46-56.19-1-7.6-3.74-15.44-2.68-22.73,2.12-14.62-5.85-18.1-17.48-21-12.22-3.1-23.94-8.22-35.88-12.46,8.91-2.08,17.81-5.93,26.73-6,89.82-.45,179.65-.28,269.47-.29,4.8,7.9,9.59,15.81,14.59,24.06,52.24-22.26,92.52,2.64,131.38,34.6C1290.82,640.58,1284.68,623,1277.82,605.37Z"/><path class="cls-3" d="M1490,836.52c-13.57,20.63-35.46,29.81-56.63,38.57a356.08,356.08,0,0,1-156.84,26.6c-20.35-1.1-40.5-5.83-60.74-8.9-59.08-1-118.16-2.49-177.24-2.76-33.1-.15-66.22,1.63-99.32,2.85-4,.15-7.85,2.28-11.78,3.5l-15.91-22.92c-41,34.24-89.09,40-139.42,31.73-30.28-5-60.16-13.23-89.66-21.91-23.68-7-43.19-21.63-59.25-40.58,2.83-9.87,10.56-9.43,18.63-9.42q156.89.18,313.77-.19c7.66,0,15.31-3.9,23-6,20.9,11.44,42.08,23.3,67,18.47,20.49-4,40.54-10.25,60.79-15.5,5.86,1.09,11.71,3.13,17.57,3.14,113.37.19,226.74.07,340.11.27C1472.67,833.51,1481.32,835.47,1490,836.52Z"/><path class="cls-4" d="M978.55,827.11c-7.66,2.08-15.31,5.95-23,6q-156.89.6-313.77.19c-8.07,0-15.8-.45-18.63,9.42-16.28-16.45-27.58-35.29-28.29-59.21,2-5.85,3.93-11.71,5-14.77,9.81,1.95,18.18,4.78,26.63,5.07,20.56.71,41.17.47,61.75.09,6.38-.12,12.74-1.92,19.11-3,5.74,2.31,11.3,5.6,17.26,6.78,32.18,6.34,64.44,16.63,96.72,16.82,28.48.17,57-11.14,85.54-17.38,18,0,36.07-.4,54.08.13,13.22.39,26.4,2,39.59,3.07l-62.71,9.95Z"/><path class="cls-5" d="M1490,836.52c-8.65-1-17.3-3-26-3-113.37-.2-226.74-.08-340.11-.27-5.86,0-11.71-2.05-17.57-3.14,3.14-2.55,6-5.63,9.46-7.58,23.51-13.17,42.47-30.93,55.86-54.47,2.95-5.18,5.73-10.45,9.62-17.57,27.12,32.88,62.85,45.54,100.4,51,38.95,5.71,76.35-2,108.36-27.43,4.54,2.07,9,5.84,13.62,5.91,31.54.53,63.12.9,94.64,0,11.31-.34,18.57,2.76,22.94,12.94C1517.64,812.34,1508,827.46,1490,836.52Z"/><path class="cls-6" d="M927.42,896.38c3.93-1.22,7.82-3.35,11.78-3.5,33.1-1.22,66.22-3,99.32-2.85,59.08.27,118.16,1.77,177.24,2.76-11.58,26-30.88,44.33-56.4,56.08-48.89,22.52-99.84,30.45-152.07,15.26-29.31-8.53-55.79-23.75-72.9-50.88C931.19,908.18,929.7,902,927.42,896.38Z"/><path class="cls-7" d="M582.76,746.21c-16.32,22.29-42,25.95-65.86,30.39-62.19,11.56-124.3,9.21-185.43-8-17.25-4.87-34.16-11-51.22-16.5-1.71-5.67-3.41-11.35-5.27-17.51H584.65C583.89,739.21,583.32,742.71,582.76,746.21Z"/><path class="cls-8" d="M245.87,727.44c-18.25-12.72-15.76-31.77-15.29-50.21,14.14-10.86,30.58-9.62,47-9.5q68.55.49,137.11,0c8.17-.05,16.32-1.94,24.48-3,4.94,5.65,8.86,13.12,15,16.62,17.37,9.88,35.66,18.13,53.59,27-6.38,2.11-12.74,6-19.13,6-75,.43-150,.31-225.07.24C254.47,714.64,245.11,713.85,245.87,727.44Z"/><path class="cls-9" d="M439.22,664.73c-8.16,1-16.31,2.92-24.48,3q-68.55.45-137.11,0c-16.47-.12-32.91-1.36-47,9.5,8-34.43,31.25-53.37,63.78-62.61,23.07-6.54,46.39-9.38,70.06-3,4.45-3.11,8.89-8.84,13.36-8.86,18.4-.07,36.8,1.59,55.2,2.62C427.86,625.93,428.67,645.84,439.22,664.73Z"/><path class="cls-10" d="M245.87,727.44c-.76-13.59,8.6-12.8,17.76-12.79,75,.07,150.05.19,225.07-.24,6.39,0,12.75-3.93,19.13-6l9.34.12c5.55,2.07,11.13,6,16.66,5.9,33.91-.43,67.81-1.76,101.72-2.79l.1-.05,18.7,25c-15.31-1-30.64-1.84-45.92-3.2-9.8-.87-14.82,2.44-13.46,12.87H582.75l1.9-11.66H275c1.86,6.16,3.56,11.84,5.27,17.51Z"/><path class="cls-11" d="M1521.23,792.88c-4.37-10.18-11.63-13.28-22.94-12.94-31.52.95-63.1.58-94.64,0-4.57-.07-9.08-3.84-13.62-5.91l37.48-37.52h198.58c.36,6.51.61,11.05.87,15.58l-31,12.78-37.7.1-33.93-5.92C1523.25,770.52,1522.24,781.7,1521.23,792.88Z"/><path class="cls-10" d="M1627,752.14c-.26-4.53-.51-9.07-.87-15.58H1427.51q4.68-10.92,9.37-21.83l8.59-11.78c48,21.77,94.26,8.57,140.32-8.1,5.32-1.93,10.79-3.46,16.19-5.17l53.91,3.86c1,7.87,1.71,13,2.39,18.09Z"/><path class="cls-7" d="M595,746.21c-1.36-10.43,3.66-13.74,13.46-12.87,15.28,1.36,30.61,2.16,45.92,3.2l53,34.39c-6.37,1-12.73,2.83-19.11,3-20.58.38-41.19.62-61.75-.09-8.45-.29-16.82-3.12-26.63-5.07-1,3.06-3,8.92-5,14.77Q594.93,764.84,595,746.21Z"/><path class="cls-12" d="M433,605.39c-18.4-1-36.8-2.69-55.2-2.62-4.47,0-8.91,5.75-13.36,8.86q-7.74-28.1-15.49-56.19l56,3.11,34.33,34.34Z"/><path class="cls-13" d="M404.93,558.55l-56-3.11c-.68-42.34,22.16-71.8,52.89-96.94-2.17,10-4,20.08-6.58,29.95C388.69,513.24,394.27,536.21,404.93,558.55Z"/><path class="cls-14" d="M1658.28,711.63c-.68-5.11-1.35-10.22-2.39-18.09L1602,689.68c16.06-15.54,32.7-30.54,47.91-46.86,6.38-6.85,9.75-16.51,14.48-24.9,12,15.77,11.08,34.39,8.45,51.9C1670.67,684.16,1663.32,697.72,1658.28,711.63Z"/><path class="cls-15" d="M1558.21,765l37.7-.1Z"/><path class="cls-16" d="M433,605.39l6.28-12.5c8.15,1,16.29,3,24.44,3,76.75.23,153.49.14,230.24.14h14.9c4.34-7.48,7.62-13.12,10.91-18.76q3.12,12.51,6.25,25c1.47,4.89,2,10.39,4.58,14.56,13.63,21.83,29.81,41.16,54.67,51L843.67,695c.85,3.61,2.38,10.08,3.9,16.55H635.65l-.1.05c-6.36-13.15-12.71-26.3-19.34-40-30.85,18.06-60.53,39.58-99,36.91l-9.34-.12c-17.93-8.89-36.22-17.14-53.59-27-6.16-3.5-10.08-11-15-16.62C428.67,645.84,427.86,625.93,433,605.39Z"/><path class="cls-17" d="M1277.82,605.37c6.86,17.64,13,35.21-3.63,52.41-38.86-32-79.14-56.86-131.38-34.6-5-8.25-9.79-16.16-14.59-24.06-8.67-47.44-57.92-99-115.05-93.44-8,.78-15.71,4.75-23.69,6.61-4.43,1-9.17.75-13.76,1.07-.33-5.27-2.24-11.06-.7-15.7,7.21-21.74,26.12-29.27,45.83-32.24,66.72-10.05,123.27,24.59,146.9,77.48,8,17.94,16.42,22.59,34.75,22.45C1233.87,565.11,1258.35,581.33,1277.82,605.37Z"/><path class="cls-9" d="M785.25,667.87c-24.86-9.86-41-29.19-54.67-51-2.61-4.17-3.11-9.67-4.58-14.56,20.72-1,41.45-1.92,62.16-3.24,8.42-.53,16.79-2,25.18-3.08L832,605.39c11.94,4.24,23.66,9.36,35.88,12.46,11.63,2.95,19.6,6.43,17.48,21-1.06,7.29,1.67,15.13,2.68,22.73-28.37,1-56.76,1.92-85.12,3.2C797,665.1,791.14,666.82,785.25,667.87Z"/><path class="cls-18" d="M813.34,596c-8.39,1.06-16.76,2.55-25.18,3.08-20.71,1.32-41.44,2.19-62.16,3.24q-3.13-12.51-6.25-25,1.59-23.4,3.19-46.81l46.74-3.14c1.73,1.87,4.69,3.54,5,5.62C778.75,559.44,796,577.7,813.34,596Z"/><path class="cls-19" d="M769.68,527.31l-46.74,3.14c5.55-32.8,26.77-55.59,51.34-57.59C772.76,490.82,771.22,509.07,769.68,527.31Z"/><path class="cls-20" d="M1436.88,714.73q-4.68,10.92-9.37,21.83L1390,774.08c-32,25.4-69.41,33.14-108.36,27.43-37.55-5.51-73.28-18.17-100.4-51-3.89,7.12-6.67,12.39-9.62,17.57-13.39,23.54-32.35,41.3-55.86,54.47-3.47,2-6.32,5-9.46,7.58-20.25,5.25-40.3,11.53-60.79,15.5-24.91,4.83-46.09-7-67-18.47L937.81,790.3l62.71-9.95c22.15-3.71,32-19.72,41.29-40.57-41.27,7.46-78.18,2.2-113.09-15.77l-3.2-6.19q242.68,0,485.36-.14C1419.55,717.67,1428.21,715.76,1436.88,714.73Z"/><path class="cls-21" d="M925.52,717.82l3.2,6.2-68.82,3.22-12.33-15.68c-1.52-6.47-3.05-12.94-3.9-16.55l-58.42-27.14c5.89-1,11.76-2.77,17.69-3,28.36-1.28,56.75-2.17,85.12-3.2C892.88,685.49,906.77,703.28,925.52,717.82Z"/><path class="cls-22" d="M847.57,711.56l12.33,15.68c2.17,4.8,3.18,10.81,6.71,14.18,13,12.38,26.75,23.89,40.24,35.73-28.52,6.24-57.06,17.55-85.54,17.38-32.28-.19-64.54-10.48-96.72-16.82-6-1.18-11.52-4.47-17.26-6.78l-53-34.39-18.7-25Z"/><path class="cls-11" d="M906.85,777.15c-13.49-11.84-27.28-23.35-40.24-35.73-3.53-3.37-4.54-9.38-6.71-14.18L928.72,724c34.91,18,71.82,23.22,113.09,15.76-9.31,20.85-19.14,36.86-41.29,40.57-13.19-1.07-26.37-2.68-39.59-3.07C942.92,776.75,924.88,777.15,906.85,777.15Z"/><path class="cls-8" d="M517.17,708.49c38.51,2.67,68.19-18.85,99-36.91,6.63,13.72,13,26.87,19.34,40-33.91,1-67.81,2.36-101.72,2.79C528.3,714.46,522.72,710.56,517.17,708.49Z"/></svg>