<svg id="Layer_1" data-name="Layer 1" xmlns="http://www.w3.org/2000/svg" viewBox="0 0 1920 1080"><defs><style>.cls-1{fill:#e6f3fe;}.cls-2{fill:#e1f2fe;}.cls-3{fill:#dcf2fe;}.cls-4{fill:#d5f1fe;}.cls-5{fill:#a1dbfa;}.cls-6{fill:#dff1fd;}.cls-7{fill:#a2ddfb;}.cls-8{fill:#ade2fc;}.cls-9{fill:#a8e0fb;}.cls-10{fill:#aee2fc;}.cls-11{fill:#bfe9fd;}.cls-12{fill:#a8defb;}.cls-13{fill:#b4e4fc;}.cls-14{fill:#b0e1fb;}.cls-15{fill:#bae5fc;}.cls-16{fill:#fefefe;}.cls-17{fill:#fdfefe;}.cls-18{fill:#d0f1fe;}.cls-19{fill:#d2f1fe;}.cls-20{fill:#ccf1fe;}.cls-21{fill:#d9f2fe;}.cls-22{fill:#cdecfe;}.cls-23{fill:#e5f3fe;}.cls-24{fill:#daf2fe;}.cls-25{fill:#c4e8fd;}</style></defs><path class="cls-1" d="M323.14,420.89c-3.38-26.66,11.75-33.32,38.47-40.86,8.64-2.44,18-2.27,26.8-4.21,20.73-4.56,26.62-14.61,19.87-34.47-5.82-17.16-14.1-33.62-18.52-51.09-11.84-46.71-11-93.56,13-136.18,20-35.54,47.88-64.8,91-72.85,56.46-10.54,111.93,9,141.54,65.29-27.13,1.18-52.21,6.15-66.93,36.07,59.82-8,104.38,13.18,134.74,62.83,12.19-11.4,17.44-33.73,8.75-45.81a166.72,166.72,0,0,0-30.89-33c-8.94-7.12-8.31-11-1.18-18,40.7-40.07,90.57-42.95,142.26-33,22,4.23,37,21.17,49,40.23,16.14,25.66,20.66,54.05,18.84,83.19-1.24,20-6.62,39.83-10.7,62.81,7.53-4.61,15.32-8.09,21.53-13.41,17.71-15.14,18.6-36.5,17.53-57.19-.58-11.16,2.5-15,12.78-15.61,20.83-1.27,31.53,5.69,42.16,24.68a164.53,164.53,0,0,0,23.22,31.66c12,12.82,29.29,11,44.83,11.84,24.6,1.38,34.59,12.63,33.09,31.95-.67,8.67,2.21,18,5.16,26.45,3.29,9.42,8.49,18.17,13.78,29.13,11.76-11.18,20.76-19.79,29.85-28.33,1.64-1.55,3.39-3.46,5.43-4,20.21-5.69,40.64-16,60.73-15.44,27.55.76,55.36,8.62,72.86,34.52,7.55,11.19,16.78,21.33,23.53,32.94,4.15,7.14,5.06,16.16,7.42,24.34-12.56.41-25.13,1-37.69,1.18-44.73.58-89.47,1.31-134.2,1.35-22.94,0-45.88-1.94-68.81-1.85-32.54.13-65.07,1.87-97.61,1.88-26.82,0-53.64-2-80.47-2.16-18.82-.1-37.65,2.19-56.47,2.12-24.6-.1-49.2-2.08-73.81-2.12-21.55,0-43.11,1.5-64.67,2.33-7.12-9.68-15.14-18.85-21.17-29.17-12.66-21.64-35-31.3-55.77-37.79-40.85-12.75-79.83,1.73-117,19.24-3.62,1.7-5.91,6.21-8.82,9.42l-4.17,3.31.89.89,3.32-4.17c38.83-10.32,75.87-8.9,108.66,17.45,6.46,5.19,11.61,12,17.37,18.08-7.84,1.83-15.61,4.77-23.52,5.19-9.41.49-18.93-1.79-28.41-1.81-25.49,0-51,.77-76.47.69-25.08-.08-50.15-1.38-75.22-1.16C373.71,418.55,348.43,420,323.14,420.89Z"/><path class="cls-2" d="M679.33,418.15c21.56-.83,43.12-2.36,64.67-2.33,24.61,0,49.21,2,73.81,2.12,18.82.07,37.65-2.22,56.47-2.12,26.83.14,53.65,2.17,80.47,2.16,32.54,0,65.07-1.75,97.61-1.88,22.93-.09,45.87,1.88,68.81,1.85,44.73,0,89.47-.77,134.2-1.35,12.56-.16,25.13-.77,37.69-1.18.79,3.87,1.58,7.74,3,15-18.75-10.09-33.62-1.55-48.41,5.06-3.5,1.56-4.85,7.88-9.38,15.87,41.56-4.88,67.82,12.81,86.84,48.48,2.57-7,5.8-11.87,5.9-16.83a111.07,111.07,0,0,0-2.74-25.54c-3.68-16.8-.22-21.14,16.77-23,26.51-3,34.35,7.71,42.7,31.48,7.53,21.45,17.66,30.95,40.82,33.15,1.36-9.68,2.3-19.48,4.16-29.1,7.25-37.37,24.57-69.24,52.78-95.09,21.28-19.5,46.67-13.53,65.27,8,13.84,16,21.23,31.9,29,67,2.64-2.46,5.91-4.12,6.92-6.68,8.43-21.37,27.9-28.53,46.77-35.76,17.78-6.82,54.68,11.14,64.78,29.77,14.46,26.66,14.86,54.32,7,82.77a22.31,22.31,0,0,0-1.09,5.3c-.07,2.69.28,5.4.49,8.75,8,1.48,16.43,1.61,23.6,4.65,17.78,7.55,27,24.06,26.77,41.17-.22,17.28-8.15,34.45-12.7,51.67-5.75-.9-11.49-2.52-17.25-2.61q-78.4-1.12-156.82-1.63c-1.31,0-2.64,2.74-4,4.2l-39.82-6.15c-8.1-14.27-16.23-30.82-26.42-46-11.79-17.57-48.72-40.24-70.34-29.86-9.32,4.48-18.56,9.12-27.84,13.69-5.62-.71-11.29-2.3-16.85-2-20,1.19-39.93,3-59.89,4.59-.89.07-2.16.07-2.64-.45-12.86-14.11-26.39-5.87-39.92-1.46a53.64,53.64,0,0,1-12,2c-16.95,1.48-33.82-5.55-51-.22-3.37,1-7.82-1.5-11.79-2.21-2.95-.52-6.21-1.67-8.89-.94-18.73,5.11-37,7.17-55.06-3-3.54-2-9.06-2.13-13.19-1.14-12,2.89-23.76,6.79-35.62,10.29-5.06-25.53-18.9-44.92-42.95-54.94-8.68-3.61-19.76-1-29.48-2.78-6.62-1.19-14.67-3.33-18.76-8-11.55-13.07-25.56-20.79-41.61-26.88-39.54-15-90.08-1.45-108.39,44.74-4.53,11.43-9.06,22.86-13.66,34.43-29.08-17.63-58.9-15-89-8.25-5.24-25.09-19.35-40.17-41.25-49.1-4.12-1.69-7.77-7.55-9.22-12.23C691.82,463.27,685.72,440.66,679.33,418.15Z"/><path class="cls-3" d="M1093.11,568.58c11.86-3.5,23.62-7.4,35.62-10.29,4.13-1,9.65-.85,13.19,1.14,18,10.16,36.33,8.1,55.06,3,2.68-.73,5.94.42,8.89.94,4,.71,8.42,3.25,11.79,2.21,17.14-5.33,34,1.7,51,.22a53.64,53.64,0,0,0,12-2c13.53-4.41,27.06-12.65,39.92,1.46.48.52,1.75.52,2.64.45,20-1.55,39.9-3.4,59.89-4.59,5.56-.33,11.23,1.26,16.85,2-24.91,20-36,49-26.51,68.17,10.72-9.94,19.94-23.49,32.71-29.39,34.07-15.73,64.2-8.31,86.16,21.33,9.78,13.2,13.48,30.9,19.94,46.56-40.35,0-80.69-.13-121,.12-7.12,0-14.24,1.7-21.36,2.62-6.66-8-12.7-16.64-20.08-23.91-43.48-42.81-89.08-36.56-129.66-14-30.42,16.88-55.78,41.11-75.85,70.15-4.68,6.78-9.86,13.22-14,18.77-20.52-22.37-38.51-42.34-70.6-46.46-33.81-4.34-53,13.45-71.57,37.93-25.9-38.79-59.41-53.26-103.12-39.7-6.67-.92-13.35-2.64-20-2.64q-333.4-.21-666.81-.24c-7.63,0-15.26-1.7-22.88-2.62q-1.38-20.49-2.75-41L188,611.85l-10.15-15.8L199,587.29c-5-12.15-23.88,8.11-25.88-12.33H276.61l14.9,16.43,3.45-2.84-4.9-12.68H374c2.35,6.17-.89,19.6,14.18,12.53-.34-4.45-.65-8.69-1-13.51h134c5,6.24,8.42,10.43,11.79,14.62l10.46-14.39h66.77c-.43,5.36-.78,9.59-1.23,15.19l15.39-.78c-.4-6.1-.68-10.3-1.05-16l28,1.88c0,1.39,0,2.77,0,4.15l-17.55,7.28c.4,1.22.79,2.43,1.18,3.65,6.14-.59,12.82-3,18.31-1.4,13.54,4,18.73-.05,16.13-14.09h26.49v15.6c-18.58,41.7-19.24,45-11.31,54.79,21.79-33.2,54.39-51,92.27-53.79,37.34-2.71,72.94,8.73,104.14,36.22,1.59-10.27,2.11-17.82,4-25,5-19.07,9.19-38.53,16.4-56.77,5.59-14.16,26.24-20.8,39.53-13.09,9.74,5.64,17.72,14.87,25.25,23.56,4.58,5.29,7.11,9,13.74,2.8,25-23.3,57.48-24.72,84.55-3.48,9.6,7.53,18.21,16.32,27.95,25.14C1092.63,576.56,1092.87,572.57,1093.11,568.58Z"/><path class="cls-4" d="M1369.82,672.51c7.12-.92,14.24-2.58,21.36-2.62,40.35-.25,80.69-.12,121-.12,3.31,0,6.78.72,9.91,0,27.81-6.47,50.2,1.17,66.2,25.19,5.35,8,9.93,16.6,13.67,22.9,36.32-6.33,60.62,9.52,79.42,40.85,2.81-5.77,5.43-9.06,6-12.68,4.54-28.23-19.18-58.85-47.35-62.8-13.87-1.94-27.37-2.5-37.53-17.27-9.46-13.75-25.22-23.19-38.21-34.53,1.32-1.46,2.65-4.21,4-4.2q78.42.53,156.82,1.63c5.76.09,11.5,1.71,17.25,2.61.68,11.59,7,13.88,17.61,12.1,28.31-4.77,62.27,9.22,77,37.44,16.71,32,2.06,55.15-22,72.47a74.21,74.21,0,0,1-29.86,12.24c-13.78,2.38-22,8.67-24.49,19.45l61.57,70.39H1745c-3.33-2.49-6.3-6.12-10-7.26-16.35-5-32.74-10.18-49.47-13.48-17.26-3.41-35-6.71-52.43-6.37-17.63.34-35.08,6.41-52.79,7.83-35.18,2.82-70.48,4.17-105.74,6.13-2.69-40.95-13.18-54.42-48.35-60.56-9.89-1.73-20.11-1.62-30.84-2.41.59-5.61,1.43-11.74,1.83-17.9C1399.28,728.44,1387.06,699.7,1369.82,672.51Z"/><path class="cls-2" d="M323.14,420.89c25.29-.91,50.57-2.34,75.87-2.57,25.07-.22,50.14,1.08,75.22,1.16,25.49.08,51-.73,76.47-.69,9.48,0,19,2.3,28.41,1.81,7.91-.42,15.68-3.36,23.52-5.19,32.5,32.95,45.79,72.8,41,116.41l43.93,14.89c-3.34,1.74-6.7,4.95-10,4.94-9.65,0-19.29-1.52-28.95-2.19-11.92-.83-23.89-2.32-35.78-1.9-16.89.6-33.72,3.81-50.58,3.88-30,.13-60.06-1.75-90.1-1.83-19-.06-38.05,1.77-57.08,2.46-17.76.64-35.54,1.56-53.28,1.1-14.06-.37-28.08-2.62-42.11-4.1-2.18-.23-4.35-1.33-6.47-1.19-20.21,1.32-40.4,3.62-60.63,4s-40.38-1.3-60.57-1.46c-11.05-.09-22.11,1.09-33.16,1.7-1.89-25.15,4.62-48.36,15.2-68.56,15.48-2,30-2.41,43.81-5.88,22.35-5.63,39.64,4,57.06,15.14,6,3.85,12.05,8.1,18.7,10.37,23.4,8,45-12,39.88-36.45C330.24,451.44,326.59,436.18,323.14,420.89Z"/><path class="cls-5" d="M1501.44,995.52l-8.33,2.44-11,5.11c-33.67,3.76-67.26,8.67-101,11-34.42,2.36-69,2.63-103.55,3-107.93,1.07-215.88,3.11-323.79,1.92-43.28-.48-86.54-7.89-129.67-13.28-11.06-1.38-21.58-7-32.35-10.74,6.51-2.64,13-5.29,19.52-7.9,4.44-1.78,8.9-3.5,13.35-5.25l19.07,2.48,60.48,0c21.92,16.82,46.89,21.2,73.93,19.48,18.14-1.15,36.44.35,54.63-.35,64.33-2.49,128.64-5.41,193-8.19,1.8-.08,3.59-.61,5.4-.65,30.41-.59,61-3.34,91.19-1,21.4,1.69,41.32.58,61.21-6.53,32.86,0,65.73-.44,98.57.4C1488.56,987.57,1495,992.68,1501.44,995.52Z"/><path class="cls-6" d="M158.81,552.17c11.05-.61,22.11-1.79,33.16-1.7,20.19.16,40.4,1.88,60.57,1.46s40.42-2.73,60.63-4c2.12-.14,4.29,1,6.47,1.19,14,1.48,28.05,3.73,42.11,4.1,17.74.46,35.52-.46,53.28-1.1,19-.69,38.06-2.52,57.08-2.46,30,.08,60.07,2,90.1,1.83,16.86-.07,33.69-3.28,50.58-3.88,11.89-.42,23.86,1.07,35.78,1.9,9.66.67,19.3,2.14,28.95,2.19,3.33,0,6.69-3.2,10-4.94,12,6.47,17.36,17.13,19.12,30.08l-5.4,8.23c-1.8,1.86-3.61,3.71-5.42,5.57V575H669.36c2.6,14-2.59,18.08-16.13,14.09-5.49-1.61-12.17.81-18.31,1.4-.39-1.22-.78-2.43-1.18-3.65l17.55-7.28c0-1.38,0-2.76,0-4.15l-28-1.88c.37,5.71.65,9.91,1.05,16l-15.39.78c.45-5.6.8-9.83,1.23-15.19H543.4l-10.46,14.39c-3.37-4.19-6.75-8.38-11.79-14.62h-134c.36,4.82.67,9.06,1,13.51-15.07,7.07-11.83-6.36-14.18-12.53H290.06l4.9,12.68-3.45,2.84L276.61,575H173.07c2,20.44,20.86.18,25.88,12.33l-21.14,8.76C161.74,585.62,160.19,568.93,158.81,552.17Z"/><path class="cls-7" d="M698.52,940.42c-28.15,3.2-56.3,6.5-84.47,9.55a193,193,0,0,1-24.37,1.41c-36.29-.71-73,1.21-108.75-3.53-35.41-4.69-70-15.84-104.72-25.09-6.47-1.73-11.75-7.9-17.58-12-.48-9,4.48-11.2,12.65-11.4,12.3-.31,24.56-1.78,36.84-2.75,4.6,1.91,9.1,4.14,13.82,5.66,14.51,4.68,29.11,9.09,43.67,13.61,15.59.62,31.17,1.32,46.76,1.69.83,0,1.73-2.82,2.6-4.32l143.24-1.37c5.43-33.48,16.84-46.24,40.24-47.84q-4.07,21.84-8.12,43.67Z"/><path class="cls-8" d="M123,861.28c-14.46-9.3-30.9-16.6-35.77-35.52,8.17-1.86,16.28-5,24.51-5.32,18.43-.85,36.92-.34,55.39-.38,5.63,1.5,11.72,2.1,16.81,4.66,24.78,12.5,50.72,18.57,78.6,17.53,13.54-.5,27.16,1.65,40.74,1.5,3,0,7.2-4.16,8.65-7.39,3.52-7.81,5.74-16.21,8.49-24.37l43.78,0q4.17,21.86,8.33,43.7c-76.41,0-152.82-.12-229.23.27C136.52,856,129.76,859.43,123,861.28Z"/><path class="cls-9" d="M123,861.28c6.76-1.85,13.52-5.27,20.3-5.3,76.41-.39,152.82-.26,229.23-.27l35.59,40.87c-12.28,1-24.54,2.44-36.84,2.75-8.17.2-13.13,2.37-12.65,11.4-9.21-7.71-19.68-14.38-27.28-23.45-6.76-8.07-12.53-9.95-23-8.52-58.56,8.07-116.86,8-173.86-10.6C130.37,866.8,126.82,863.62,123,861.28Z"/><path class="cls-10" d="M1474.52,842.41c35.26-2,70.56-3.31,105.74-6.13,17.71-1.42,35.16-7.49,52.79-7.83,17.45-.34,35.17,3,52.43,6.37,16.73,3.3,33.12,8.5,49.47,13.48,3.74,1.14,6.71,4.77,10,7.26-49.49,1-99,1.56-148.47,3.15-17.93.57-35.79,3.54-53.69,5.41l-5.94-.16c-6.83-2.74-13.84-8.12-20.46-7.68-14.36,1-28.53,4.89-42.78,7.6Z"/><path class="cls-11" d="M172.45,628.79q1.38,20.48,2.75,41c1.21,4.28,1.42,9.25,3.82,12.71,7.21,10.4,3.46,16.9-5.72,23.41-12.42,8.8-25.33,17.44-35.76,28.32-6.18,6.45-8,17.1-11.74,25.85l-43.65-2.74c.3-29.62,25.32-74.31,49.49-77.85,9.3-1.36,18.75-1.7,28.79-2.55C164,660.48,156.08,641.39,172.45,628.79Z"/><path class="cls-12" d="M1501.44,995.52c-6.46-2.84-12.88-7.95-19.41-8.12-32.84-.84-65.71-.39-98.57-.4,6.08-7.61,11.57-15.81,18.47-22.6,3.77-3.72,10-7.29,15-7,14.4.74,28.72,3.3,43,5.38,26.78,3.87,53.5,7.57,76.89-11.34l27.57,5.55Q1543.36,993.23,1501.44,995.52Z"/><path class="cls-13" d="M82.15,757.31l43.65,2.74c4.51,10.39,7.51,21.83,13.91,30.88,7.62,10.78,18.15,19.51,27.42,29.13-18.47,0-37-.47-55.39.38-8.23.37-16.34,3.46-24.51,5.32C73.05,803.87,74.37,780.83,82.15,757.31Z"/><path class="cls-12" d="M824.59,981.78c-4.45,1.74-8.91,3.46-13.35,5.24-6.52,2.61-13,5.26-19.52,7.9C762.05,990.47,737,976.74,714.93,957c4.2-2.69,8.15-7,12.67-7.7,8.42-1.31,17.17-.51,25.78-.58C774.63,965.05,796.05,981,824.59,981.78Z"/><path class="cls-14" d="M753.38,948.69c-8.61.07-17.36-.73-25.78.58-4.52.69-8.47,5-12.67,7.7l-16.41-16.55-8.19-32.74,49.21,8.25Z"/><path class="cls-15" d="M1536.89,864l5.94.16c23.89,14.2,33.7,35.58,32.22,62.75l-29.79-8.19Z"/><path class="cls-14" d="M1545.26,918.68l29.79,8.19q-5.34,15-10.67,30.08l-27.57-5.55q4.15-15,8.3-30C1545.15,920.47,1545.2,919.57,1545.26,918.68Z"/><path class="cls-12" d="M1482.11,1003.07l11-5.11Z"/><path class="cls-16" d="M706.67,576.79c-1.76-12.95-7.14-23.61-19.12-30.08l-43.93-14.89c4.8-43.61-8.49-83.46-41-116.41-5.76-6.07-10.91-12.89-17.37-18.08C552.47,371,515.43,369.56,476.6,379.88l0,0c2.91-3.21,5.2-7.72,8.82-9.42,37.18-17.51,76.16-32,117-19.24,20.78,6.49,43.11,16.15,55.77,37.79,6,10.32,14.05,19.49,21.17,29.17,6.39,22.51,12.49,45.12,19.42,67.46,1.45,4.68,5.1,10.54,9.22,12.23,21.9,8.93,36,24,41.25,49.1,30.14-6.72,60-9.38,89,8.25,4.6-11.57,9.13-23,13.66-34.43C870.23,474.57,920.77,461,960.31,476c16.05,6.09,30.06,13.81,41.61,26.88,4.09,4.63,12.14,6.77,18.76,8,9.72,1.75,20.8-.83,29.48,2.78,24,10,37.89,29.41,42.95,54.94-.24,4-.48,8-.74,12.38-9.74-8.82-18.35-17.61-27.95-25.14-27.07-21.24-59.55-19.82-84.55,3.48-6.63,6.18-9.16,2.49-13.74-2.8-7.53-8.69-15.51-17.92-25.25-23.56-13.29-7.71-33.94-1.07-39.53,13.09-7.21,18.24-11.4,37.7-16.4,56.77-1.89,7.19-2.41,14.74-4,25-31.2-27.49-66.8-38.93-104.14-36.22-37.88,2.74-70.48,20.59-92.27,53.79-7.93-9.8-7.27-13.09,11.31-54.79,1.81-1.86,3.62-3.71,5.42-5.57Z"/><path class="cls-16" d="M476.6,379.88l-3.32,4.17-.89-.89,4.17-3.31Z"/><path class="cls-17" d="M1564.34,631.42c13,11.34,28.75,20.78,38.21,34.53,10.16,14.77,23.66,15.33,37.53,17.27,28.17,3.95,51.89,34.57,47.35,62.8-.58,3.62-3.2,6.91-6,12.68-18.8-31.33-43.1-47.18-79.42-40.85-3.74-6.3-8.32-14.86-13.67-22.9-16-24-38.39-31.66-66.2-25.19-3.13.73-6.6,0-9.91,0-6.46-15.66-10.16-33.36-19.94-46.56-22-29.64-52.09-37.06-86.16-21.33-12.77,5.9-22,19.45-32.71,29.39-9.45-19.21,1.6-48.13,26.51-68.17,9.28-4.57,18.52-9.21,27.84-13.69,21.62-10.38,58.55,12.29,70.34,29.86,10.19,15.18,18.32,31.73,26.42,46Z"/><path class="cls-4" d="M167.13,820.06c-9.27-9.62-19.8-18.35-27.42-29.13-6.4-9-9.4-20.49-13.91-30.88,3.77-8.75,5.56-19.4,11.74-25.85,10.43-10.88,23.34-19.52,35.76-28.32,9.18-6.51,12.93-13,5.72-23.41-2.4-3.46-2.61-8.43-3.82-12.71,7.62.92,15.25,2.62,22.88,2.62q333.41.23,666.81.24c6.68,0,13.36,1.72,20,2.64-2.58,1.74-5.44,3.16-7.68,5.25-15.59,14.54-32.41,28.34-33.56,52.15l.06,0L841,735.4c-.78,1.06-2,2-2.27,3.18-2.57,12.15,2.25,29.28-19.82,28.07-1.64-.09-3.54,4.58-5.31,7-7.54-.36-15.31-2.08-22.58-.84-23.89,4.09-42.1,17.73-56.88,36.39-114.71,0-229.42-.16-344.12.25-11.55,0-20.07-1.49-23.09-13.92.74-5.25.6-10.82,2.4-15.68,5.2-14.07,11.17-27.86,16.84-41.75l1.15-.64-.53-.52-.62,1.16c-6.46,2.84-13.37,5-19.31,8.65-24.51,15.2-37.52,38.8-46.43,65.2-2.75,8.16-5,16.56-8.49,24.37-1.45,3.23-5.66,7.36-8.65,7.39-13.58.15-27.2-2-40.74-1.5-27.88,1-53.82-5-78.6-17.53C178.85,822.16,172.76,821.56,167.13,820.06Z"/><path class="cls-16" d="M843.68,732.66c1.15-23.81,18-37.61,33.56-52.15,2.24-2.09,5.1-3.51,7.68-5.25,43.71-13.56,77.22.91,103.12,39.7,18.53-24.48,37.76-42.27,71.57-37.93,32.09,4.12,50.08,24.09,70.6,46.46,4.16-5.55,9.34-12,14-18.77,20.07-29,45.43-53.27,75.85-70.15,40.58-22.53,86.18-28.78,129.66,14,7.38,7.27,13.42,15.9,20.08,23.91,17.24,27.19,29.46,55.93,27.34,89-.4,6.16-1.24,12.29-1.83,17.9,10.73.79,21,.68,30.84,2.41,35.17,6.14,45.66,19.61,48.35,60.56q-.43,10.74-.86,21.47l-8-10.86c-16.68-49.8-53.8-69.88-116.16-42.56q-2.18-14.36-4.32-28.58c-5.5-13.71-9.32-28.41-16.79-41-28-47-79.1-54.78-118.22-40.65-17.92,6.47-29.53,20.22-42.67,32.72-15.08,14.34-24.71,30.54-25,51.64l-4.8,5-3.49-5c-7.56-26.49-20.5-48.57-46.36-61.81-11.51-5.89-22.49-11.69-35.51-7.94-37.32,10.75-63.85,32.41-71.48,72.49v22.53c-16.85-18.68-37-12.8-59.21-15.37,7-4.41,10.54-7.67,14.77-9.21,14.36-5.26,19.79-13.12,16.6-27.37-6.14-27.31-40.36-52.57-72.53-37.81C868.71,725.52,856,728.56,843.68,732.66Z"/><path class="cls-18" d="M1545.11,921.37q-4.14,15-8.3,30c-23.39,18.91-50.11,15.21-76.89,11.34-14.32-2.08-28.64-4.64-43-5.38-4.93-.25-11.18,3.32-15,7-6.9,6.79-12.39,15-18.47,22.6-19.89,7.11-39.81,8.22-61.21,6.53-30.19-2.38-60.78.37-91.19,1-1.81,0-3.6.57-5.4.65-64.32,2.78-128.63,5.7-193,8.19-18.19.7-36.49-.8-54.63.35-27,1.72-52-2.66-73.93-19.48q-5.55-21.84-11.08-43.68l11-27.35c7.17.91,14.34,2.6,21.52,2.62q103.41.3,206.83,0c5.18,0,10.35-1.77,15.52-2.72,5.58.37,6.65,11,15.31,5.6,15.65-9.78,31.45-8.19,46.59,2.14,6.52,4.45,13.3,8.51,21.64,13.81.56-5.48.95-9.36,1.35-13.23,7.61-.92,15.23-2.6,22.85-2.62q124.43-.28,248.85,0C1518,918.8,1531.56,920.46,1545.11,921.37Z"/><path class="cls-19" d="M753.38,948.69l-13.84-32.76.12-5.51c12.11-.91,24.22-2.46,36.34-2.59,32.63-.36,65.27-.11,97.91-.11L852,943.28q-4.18,20.49-8.35,41l-19.07-2.48C796.05,981,774.63,965.05,753.38,948.69Z"/><path class="cls-12" d="M843.66,984.25l8.34-41,41.06-2.76q5.54,21.84,11.08,43.68Z"/><path class="cls-3" d="M706.67,576.79l-5.4,8.23Z"/><path class="cls-20" d="M366.92,795.57c3,12.43,11.54,14,23.09,13.92,114.7-.41,229.41-.25,344.12-.25l-8.22,11-24.67,43.73-2.79.09c-23.4,1.6-34.81,14.36-40.24,47.84L515,913.22l-49.36,2.63c-14.56-4.52-29.16-8.93-43.67-13.61-4.72-1.52-9.22-3.75-13.82-5.66l-35.59-40.87q-4.17-21.86-8.33-43.7Q365.55,803.79,366.92,795.57Z"/><path class="cls-15" d="M698.45,864l2.79-.09c4.72.92,9.4,2.11,14.16,2.7,8.94,1.12,17.93,1.89,26.9,2.81l-2.64,41-.12,5.51-49.21-8.25Q694.38,885.84,698.45,864Z"/><path class="cls-13" d="M465.61,915.85,515,913.22c-.87,1.5-1.77,4.34-2.6,4.32C496.78,917.17,481.2,916.47,465.61,915.85Z"/><path class="cls-15" d="M366.92,795.57q-1.37,8.22-2.72,16.44l-43.78,0c8.91-26.4,21.92-50,46.43-65.2,5.94-3.69,12.85-5.81,19.31-8.65-5.67,13.89-11.64,27.68-16.84,41.75C367.52,784.75,367.66,790.32,366.92,795.57Z"/><path class="cls-21" d="M1545.11,921.37c-13.55-.91-27.09-2.57-40.64-2.61q-124.42-.36-248.85,0c-7.62,0-15.24,1.7-22.85,2.62-11.79-28.07-38.76-41.56-63.17-32.69-8.37-10.3-16.43-20.25-24.5-30.19,6.73-1.83,13.47-5.24,20.21-5.26,100.1-.34,200.21-.23,300.31-.22l8,10.86c14.24-2.71,28.41-6.64,42.77-7.6,6.62-.44,13.63,4.94,20.46,7.68l8.37,54.72C1545.2,919.57,1545.15,920.47,1545.11,921.37Z"/><path class="cls-2" d="M1465.62,853c-100.1,0-200.21-.12-300.31.22-6.74,0-13.48,3.43-20.21,5.26-31-19.33-62.08-23.6-93.12,0-5.64-1.83-11.27-5.24-16.92-5.26-88.08-.34-176.16-.12-264.24-.47-6.76,0-13.5-3.41-20.25-5.23l11-21.86,52-52c1.77-2.46,3.67-7.13,5.31-7,22.07,1.21,17.25-15.92,19.82-28.07.24-1.17,1.49-2.12,2.27-3.18l2.75-2.78-.06,0c12.27-4.1,25-7.14,36.72-12.51,32.17-14.76,66.39,10.5,72.53,37.81,3.19,14.25-2.24,22.11-16.6,27.37-4.23,1.54-7.82,4.8-14.77,9.21,22.16,2.57,42.36-3.31,59.21,15.37V787.38c17,0,34.07.28,51.09-.08,34.09-.7,68.17-1.75,102.26-2.66l3.49,5,4.8-5q93.6,0,187.2-.13c5.18,0,10.35-1.71,15.53-2.63q2.16,14.25,4.32,28.58C1411.82,783.14,1448.94,803.22,1465.62,853Z"/><path class="cls-22" d="M813.59,773.69l-52,52c-4.21-1.83-8.3-4.75-12.66-5.25-7.57-.87-15.31-.24-23-.24l8.22-11c14.78-18.66,33-32.3,56.88-36.39C798.28,771.61,806.05,773.33,813.59,773.69Z"/><polygon class="cls-15" points="386.16 738.14 386.78 736.98 387.31 737.5 386.16 738.14"/><path class="cls-16" d="M843.74,732.62,841,735.4Z"/><path class="cls-23" d="M1345.14,781.88c-5.18.92-10.35,2.62-15.53,2.63q-93.6.29-187.2.13c.34-21.1,10-37.3,25-51.64,13.14-12.5,24.75-26.25,42.67-32.72,39.12-14.13,90.24-6.34,118.22,40.65C1335.82,753.47,1339.64,768.17,1345.14,781.88Z"/><path class="cls-23" d="M1134.12,784.64c-34.09.91-68.17,2-102.26,2.66-17,.36-34.06.07-51.09.08,7.63-40.08,34.16-61.74,71.48-72.49,13-3.75,24,2.05,35.51,7.94C1113.62,736.07,1126.56,758.15,1134.12,784.64Z"/><path class="cls-24" d="M750.57,847.54c6.75,1.82,13.49,5.2,20.25,5.23,88.08.35,176.16.13,264.24.47,5.65,0,11.28,3.43,16.91,5.26-24.74,36-25.4,37.42-21.39,49,3.24-2.88,5.86-6.2,9.28-8.07,10.48-5.75,20.73-13.09,32.05-15.92,28.7-7.17,51.28,8.21,73.27,23.61,1.54,1.08,1.83,3.94,2.7,6-5.17,1-10.34,2.71-15.52,2.72q-103.41.29-206.83,0c-7.18,0-14.35-1.71-21.52-2.62l20-25.65a33.57,33.57,0,0,0-19.36,3.29C894.2,896,884.15,902,873.91,907.72c-32.64,0-65.28-.25-97.91.11-12.12.13-24.23,1.68-36.34,2.59l2.64-41Q746.44,858.48,750.57,847.54Z"/><path class="cls-17" d="M1147.88,913.06c-.87-2-1.16-4.89-2.7-6-22-15.4-44.57-30.78-73.27-23.61-11.32,2.83-21.57,10.17-32.05,15.92-3.42,1.87-6,5.19-9.28,8.07-4-11.55-3.35-13,21.39-49,31-23.6,62.09-19.33,93.13,0,8.07,9.94,16.13,19.89,24.5,30.19,24.41-8.87,51.38,4.62,63.17,32.69-.4,3.87-.79,7.75-1.35,13.23-8.34-5.3-15.12-9.36-21.64-13.81-15.14-10.33-30.94-11.92-46.59-2.14C1154.53,924.07,1153.46,913.43,1147.88,913.06Z"/><path class="cls-13" d="M873.91,907.72C884.15,902,894.2,896,904.7,890.81a33.57,33.57,0,0,1,19.36-3.29l-20,25.65-11,27.35L852,943.28Q863,925.5,873.91,907.72Z"/><path class="cls-25" d="M750.57,847.54q-4.14,10.94-8.27,21.89c-9-.92-18-1.69-26.9-2.81-4.76-.59-9.44-1.78-14.16-2.7l24.67-43.73c7.67,0,15.41-.63,23,.24,4.36.5,8.45,3.42,12.66,5.25Z"/></svg>