<svg id="Layer_1" data-name="Layer 1" xmlns="http://www.w3.org/2000/svg" viewBox="0 0 1920 1080"><defs><style>.cls-1{fill:#e0f1fd;}.cls-2{fill:#e6f3fd;}.cls-3{fill:#dbf1fc;}.cls-4{fill:#b4ddf8;}.cls-5{fill:#e9f2fd;}.cls-6{fill:#b1dbf7;}.cls-7{fill:#e2f2fc;}.cls-8{fill:#b8dff8;}.cls-9{fill:#bde1f9;}.cls-10{fill:#c4e6fa;}.cls-11{fill:#bce1f8;}.cls-12{fill:#ceeafb;}.cls-13{fill:#e3f2fc;}.cls-14{fill:#b9dff8;}.cls-15{fill:#bee2f9;}.cls-16{fill:#d9f0fc;}.cls-17{fill:#bfe3f9;}</style></defs><path class="cls-1" d="M393.74,592.74,500.21,554c-2.17-5.25-5.66-13.69-9.16-22.13,9.28-1.36,18.55-3.89,27.82-3.91q246.42-.36,492.85,0c7.86,0,15.71,2.59,23.56,4-6.31,4.56-12.57,9.21-18.95,13.68-47.24,33-88.37,91.91-78.08,150.81,19.93-17.69,41.08-39.89,65.62-57.32,28.05-19.93,56.67-41.36,94.8-38.55,8.43.62,17.14-2.42,25.72-3.77,3.88,2.7,7.67,7.57,11.66,7.74,19.56.81,39.2.92,58.75,0,5.07-.24,9.93-5.09,14.89-7.82,34.2,1.34,66.13,9,94.1,30.43,4.14,3.18,14.25,1.72,20-1,12.55-5.93,24.07-14.05,36-21.28q17.35,0,34.7.05l269.85,0c18.8,13.32,38.14,26,56.28,40.12,22.82,17.82,36.08,42.43,45,69.57-43.75,1.35-87.51,3.82-131.27,3.86q-501.4.48-1002.81.18c-74.36,0-148.73.52-223.08-.38-18.45-.22-36.84-5-55.25-7.76q-.06-14.19-.11-28.38c1.06-5.12,1.1-10.74,3.33-15.29C368.56,642,381.24,617.42,393.74,592.74Z"/><path class="cls-2" d="M1035.28,532c-7.85-1.39-15.7-4-23.56-4q-246.42-.36-492.85,0c-9.27,0-18.54,2.55-27.82,3.91-8.72-6.66-12.71-12.7-7-25.31,4.94-11,1.85-25.28,4.67-37.57,7.59-33.07,21.67-62.73,43.68-89.46,34-41.29,71.76-77.86,123.44-93.94,73.39-22.82,149-13.11,201.66,55.27,14.14,18.35,11.85,30-6.55,45.91-13.49,11.71-28.37,38.44-8.29,63.26,52.44-46.73,113.54-59.36,183.25-40.4,1.91-27.51-19.18-36.2-35.42-48.32,1.85-15.46,13.82-12.07,23.36-12.08q197.36-.19,394.7-.08c-2.36,19.75-4.45,39.54-7.15,59.25-2.46,17.93-14.35,25.25-31.19,29-53.19,11.9-98.92,37.95-136.69,77.13-10.1,10.48-18.52,13.48-33.25,8.83-48.68-15.38-97.42-12.59-145.47,4.55C1048.57,530.16,1041.79,530.68,1035.28,532Z"/><path class="cls-3" d="M353.2,710.51c18.41,2.71,36.8,7.54,55.25,7.76,74.35.9,148.72.38,223.08.38q501.41,0,1002.81-.18c43.76,0,87.52-2.51,131.27-3.86,4.87,21.62,9.83,43.22,14.33,64.91.21,1-3.68,2.86-5.67,4.32-5.6,1.31-11.39,2.1-16.78,4-33.82,12-67.56,24.24-101.32,36.41-54.85,9.43-109.4,21.69-164.63,27.43-47.75,5-94.83-5.78-139.8-23.44-11.7-7.27-23.52-14.36-35.08-21.85s-22.63-15.25-33.93-22.91c-19.16-22.75-46.62-28.14-73.37-34.39-57.75-13.49-108.64,1.6-153.89,38.6-10.15,9.37-19.11,24.72-30.65,27-36.66,7.21-74.27,9.54-111.51,13.75H860.56c-37.24-2.64-72.35-11.23-102.39-35.18-5.53-4.41-12.85-6.58-19.34-9.78l-41.46-60.36-43.86,56.36L617,808c-3.6-1.37-7.14-3.68-10.83-4-66.73-5.06-134.77,11.36-200.38-12.29-5.15-3.61-11.09-6.49-15.29-11-8.85-9.5-16.79-19.86-25.1-29.86Q359.31,730.73,353.2,710.51Z"/><path class="cls-4" d="M860.56,828.44h52.75c3.51,3.53,6.64,9.53,10.6,10.14,11.64,1.77,23.6,1.8,35.43,1.81,120.72.1,241.44.35,362.15-.47,10.11-.07,20.17-7.61,30.25-11.67,45,17.66,92,28.4,139.8,23.44,55.23-5.74,109.78-18,164.63-27.43,22.82,2.69,45.58,6.49,68.48,7.77,24.33,1.35,48.8.32,73.2.34-.09,2.66-.19,5.33-.27,8l-11.52,8.23c-27,34.32-66.35,45.87-106.07,52-70.18,10.88-140.33.26-210.31-7.15-50.56-5.36-101.15-10.66-151.84-14.51-12.86-1-26.14,3.7-39.23,5.78-4.53-3.92-8.76-10.75-13.65-11.27-23.38-2.47-46.94-4.39-70.45-4.42q-364.25-.43-728.49,0c-16.73,0-33.57,1.92-50.12,4.46-3.81.58-6.67,7.41-10,11.37L340.89,861c-.61-5-1.23-9.92-2-16.46,34.28,0,67,.94,99.67-.36,19-.76,37.9-5.11,56.84-7.85,19.1,0,38.21.42,57.29-.19,9.25-.29,18.44-2.52,27.65-3.88,9.6,2.74,19.18,7.81,28.78,7.84q119.51.39,239-1.26C852.29,838.76,856.41,832.05,860.56,828.44Z"/><path class="cls-5" d="M1408.51,349.18q-197.35,0-394.7.08c-9.54,0-21.51-3.38-23.36,12.08-16.06-8.47-6.68-19-1.57-28.13,32.86-58.65,85.54-89.49,149.56-101C1212,219,1283,230.48,1349.28,265.05,1382.7,282.47,1399,313.93,1408.51,349.18Z"/><path class="cls-6" d="M405.94,884.88c3.29-4,6.15-10.79,10-11.37,16.55-2.54,33.39-4.44,50.12-4.46q364.25-.39,728.49,0c23.51,0,47.07,2,70.45,4.42,4.89.52,9.12,7.35,13.65,11.27-64.81,5.48-129.6,11.11-194.42,16.37q-35.1,2.85-70.34,4.2c-41.67,1.66-83.35,3.18-125,4.07-75.46,1.63-150.92,3.33-226.39,3.92-76.63.59-152.86-4.67-228.08-20.48l-8.22-3.43Z"/><path class="cls-7" d="M1664.35,604.92l-269.85,0q-17.34,0-34.7-.05c23.87-23.23,55.55-29.84,85.86-35.71,69.64-13.49,137.13.13,202.73,24.4C1654.3,595.78,1659.06,601.07,1664.35,604.92Z"/><path class="cls-8" d="M495.38,836.3c-18.95,2.74-37.83,7.09-56.85,7.85-32.65,1.3-65.39.36-99.67.36.8,6.54,1.42,11.5,2,16.46l-32.45-24.42-12.08-8.3q-2.13-4-4.28-8c5.54-13.64,15.38-18.11,30-16.64,14,1.42,28.38.84,42.54.17,15.14-.73,30.23-2.58,45.34-3.95Z"/><path class="cls-9" d="M410,799.82c-15.11,1.37-30.2,3.22-45.34,3.95-14.16.67-28.49,1.25-42.54-.17-14.64-1.47-24.48,3-30,16.64-14.41-21.24-20.44-43.9-11.75-69.07l85.1-.24c8.31,10,16.25,20.36,25.1,29.86,4.2,4.5,10.14,7.38,15.29,11Q407.91,795.8,410,799.82Z"/><path class="cls-10" d="M365.43,750.93l-85.1.24q8.06-34.51,16.1-69h56.66q.06,14.19.11,28.38Q359.32,730.73,365.43,750.93Z"/><path class="cls-11" d="M1797.85,832.37c-24.4,0-48.87,1-73.2-.34-22.9-1.28-45.66-5.08-68.48-7.77,33.76-12.17,67.5-24.41,101.32-36.41,5.39-1.91,11.18-2.7,16.78-4-3.73,8.7-4.81,16.37,6.94,19.71C1796,807.75,1800.77,817.87,1797.85,832.37Z"/><path class="cls-12" d="M353.09,682.13H296.43c17.28-21.52,32.92-44.72,52.45-64,11.83-11.65,29.7-17.17,44.86-25.44-12.5,24.68-25.18,49.26-37.32,74.1C354.19,671.39,354.15,677,353.09,682.13Z"/><path class="cls-13" d="M1209.69,596.75c-5,2.73-9.82,7.58-14.89,7.82-19.55.92-39.19.81-58.75,0-4-.17-7.78-5-11.66-7.74C1135.71,585,1198.21,584.94,1209.69,596.75Z"/><path class="cls-9" d="M296.36,828.25l12.08,8.3Z"/><path class="cls-11" d="M1786.06,848.6l11.52-8.23Q1791.81,844.48,1786.06,848.6Z"/><path class="cls-4" d="M426.12,889.39l8.22,3.43Z"/><path class="cls-14" d="M1351.74,828.25c-10.08,4.06-20.14,11.6-30.25,11.67-120.71.82-241.43.57-362.15.47-11.83,0-23.79,0-35.43-1.81-4-.61-7.09-6.61-10.6-10.14,37.24-4.21,74.85-6.54,111.51-13.75,11.54-2.27,20.5-17.62,30.65-27,7.22,1.34,14.43,3.81,21.66,3.85,63.34.3,126.69.37,190-.18,5.22,0,10.38-5.13,15.57-7.88,11.3,7.66,22.48,15.49,33.93,22.91S1340,821,1351.74,828.25Z"/><path class="cls-14" d="M860.56,828.44c-4.15,3.61-8.27,10.32-12.47,10.37q-119.49,1.52-239,1.26c-9.6,0-19.18-5.1-28.77-7.84L617,808l36.48-28.55c27.77,15.66,56.61,8.5,85.32,4,6.49,3.2,13.81,5.37,19.34,9.78C788.21,817.21,823.32,825.8,860.56,828.44Z"/><path class="cls-15" d="M1282.73,783.49c-5.19,2.75-10.35,7.83-15.57,7.88-63.34.55-126.69.48-190,.18-7.23,0-14.44-2.51-21.66-3.85,45.25-37,96.14-52.09,153.89-38.6C1236.11,755.35,1263.57,760.74,1282.73,783.49Z"/><path class="cls-16" d="M617,808l-36.71,24.2c-9.22,1.36-18.41,3.59-27.66,3.88-19.08.61-38.19.19-57.29.19L410,799.82q-2.07-4-4.16-8c65.61,23.65,133.65,7.23,200.38,12.29C609.89,804.35,613.43,806.66,617,808Z"/><path class="cls-17" d="M738.83,783.48c-28.71,4.5-57.55,11.66-85.32-4l43.86-56.36Z"/></svg>