<svg id="Layer_1" data-name="Layer 1" xmlns="http://www.w3.org/2000/svg" viewBox="0 0 512 512"><defs><style>.cls-1{fill:#b66637;}.cls-2{fill:#ebd2b0;}.cls-3{fill:#b66738;}.cls-4{fill:#ac5d31;}.cls-5{fill:#f3e0c5;}.cls-6{fill:#934d27;}.cls-7{fill:#8c4a24;}.cls-8{fill:#ac5e32;}.cls-9{fill:#775e4e;}.cls-10{fill:#795f4f;}.cls-11{fill:#b86a3b;}.cls-12{fill:#402c1e;}.cls-13{fill:#d4ae90;}.cls-14{fill:#c27249;}.cls-15{fill:#715643;}.cls-16{fill:#efb8a0;}.cls-17{fill:#e4aa79;}.cls-18{fill:#735845;}.cls-19{fill:#86695c;}.cls-20{fill:#e29b66;}.cls-21{fill:#e19a65;}.cls-22{fill:#e8c59f;}.cls-23{fill:#f7e0d4;}.cls-24{fill:#dabc96;}.cls-25{fill:#3a271a;}.cls-26{fill:#dca385;}.cls-27{fill:#eeb59d;}.cls-28{fill:#fefefe;}.cls-29{fill:#422f23;}</style></defs><path class="cls-1" d="M308.27,322.28c1.18-3.79,2.55-7.53,3.47-11.39.48-2.06.19-4.33.25-6.5,1,.37,2.29.46,3.08,1.16,3.74,3.34,4.76,7.81,4.09,12.83,5.17,1.87,6.38,4.15,4.95,9.21a8.4,8.4,0,0,0-.56-2.61,10.37,10.37,0,0,0-2.94-3.47c-.61-.37-2.73.53-2.83,1.11-.29,1.83-.45,4.09.33,5.56.46.87,2.81.65,4.31.72.61,0,1.24-.49,1.87-.75,2.45,0,3.25,1.57,3.42,4,.2,2.77.63,5.53,1,8.29-1.45,4.05-4.52,5.41-8.49,5.77,0,3.1-.08,6.22,0,9.33a94.82,94.82,0,0,1-6,36.49c-2.8,7.42-6.78,14.33-10.47,21.33-3.59,6.83-7.52,13.5-6.37,21.88.45,3.29,1.19,6.53,1.82,9.79,1.33,6.86-.47,13.31-2.48,19.63-1.64,5.17-3.83,10.13-5.82,15.16a10.75,10.75,0,0,1-1.15,1.8l-9.85,3.07c1.38-5.84,2.88-11.64,4.12-17.51,1.5-7.12,2.58-14.36,6.05-20.8,1.19-2.23.8-3-1.69-3.28-11.51-1.26-19.18-8.82-25.1-18.66a50.94,50.94,0,0,1-7.43-21.58,187.66,187.66,0,0,1-.47-20.27c.05-3.28.91-6.54,1.41-9.81l-.91-.46c-2.45,4.42-5.09,8.73-7.28,13.3-1,2.06-2.16,3.11-4.17,3.22a15.83,15.83,0,0,1-4.07,0c-4.47-1-9.52-4.83-9.64-11.16-.1-5.73-1.56-11.54-3.13-17.09-1-3.6-3.29-6.79-5-10.16l-.79.43c.07.38.13.77.21,1.14,2.88,13.35,5.17,26.78,4.85,40.58-.08,3.46-.06,6.94,0,10.4a16.8,16.8,0,0,0,.58,2.94l-.48,3.9c-2.37,17.71-4.66,35.43-7.14,53.12-1,6.89-2.32,13.72-3.51,20.57l-10.48,5.19c.4-8.56.47-17.16,1.32-25.67a77.49,77.49,0,0,1,3.53-15.37c.82-2.62,2.78-4.82,4-6.83a38.56,38.56,0,0,1-5.62-3.34c-4.71-4-5.82-10.22-7.76-15.86-3.1-9-5.86-18.16-9.06-27.13-.69-1.91-2.63-3.3-4-4.94l-.41-.06c-2.82-5.52-3.49-11.86-5.52-17.71-2.23-6.43-2.19-13.78-3.09-20.29l-3.07,2.17c-.16-7.75-.6-14.88,2-21.7,1.3-3.36,2.93-6.65,3.69-10.15,2.35-10.74,5.58-21.09,10.6-30.72,3.57-6.85,7.67-13.33,13.27-18.43,3.6-3.28,7.49-6.17,11.25-9.24l1.62,0-3.51,9.38a10,10,0,0,0-1.51,2.39A43.32,43.32,0,0,0,215.21,305c-.38.31-.78.6-1.14.94-1.56,1.41-2.4,3.14-1.29,5.21.76,1.4,1.64,3.1,2.88,3.74,1.91,1,3.13-.8,4.14-2.4l1.79,2.52c-3.14,5.23-.76,14.33,5,17.3,6.91,3.58,13,.39,13.15-7.79l2.33,0q.18,5.55,4.47,5.68c2.78.09,4-1.4,4.19-5l3.58-.7,1.09.1a33.62,33.62,0,0,0,5.4,2.77c5.6,1.73,9-.57,9.27-6l8-.62c2.32,6.38,6.84,10,12.86,11.22,4.8.95,11.1-1.2,11.23-8.69l5.77,3.22c-5.3.24-7.29,4.94-4.44,9.74a12.58,12.58,0,0,0,2.07,2.19c2,2,6.58,2.68,8.2,1.05,2.23-2.24,1.88-4.82.44-7.41a20.39,20.39,0,0,0-.93-3.26c-.7-1.51-1.62-2.91-2.45-4.35,3.63.13,5.55-1.93,5.17-5.73-.08-.79-.64-2.07-1.12-2.15a3.24,3.24,0,0,0-2.47.93c-1.89,1.89-1.78,4.44-1.57,7Zm-54.44,9.19a16.46,16.46,0,0,0-2.33,0,7.16,7.16,0,0,0-5.87,5,8.08,8.08,0,0,0,2.08,8.31c3.59,3.09,10.83,3.36,14.59.54,3.58-2.68,3.89-7.2.62-10.41A12,12,0,0,0,253.83,331.47Zm29.6,4.37c-3.49,0-4.8,1.18-4.75,4.29.06,3.44,2.81,6.5,5.86,6.5,2.64,0,4.13-1.78,4.09-4.9C288.57,337.74,286.9,335.85,283.43,335.84Zm-52.32,8.33c1.44-1.28,3.45-2.27,4.16-3.92.84-1.93-3-5-6-4.9-2,.08-3.55,1-3.63,3.54S227.82,343.38,231.11,344.17Zm66.51-9.1c-1.58.38-2.42.59-3.26.77-2.63.56-3.43,2.41-1.71,4.63a6.59,6.59,0,0,0,3.62,2.18c1.2.26,3.06.12,3.72-.7a5.09,5.09,0,0,0,.59-4.25C300.06,336.44,298.41,335.73,297.62,335.07Zm8.73,24.05c1.45,1.86,2.36,3.65,3.75,4.55.83.54,2.76.13,3.61-.62,2.67-2.34.23-4.37-.92-6.13-.66-1-2.49-2.09-3.29-1.76C308.34,355.65,307.63,357.4,306.35,359.12Zm-32.3-12.51c1-1.09,2.44-2,2.79-3.33.47-1.77-2.37-4.46-4.34-3.89-1.4.4-3.42,2.13-3.47,3.35C268.92,345.48,271.3,345.89,274.05,346.61Zm0-11.73c1.62-1.33,3.06-2.08,3.82-3.31.34-.55-.47-2.83-1.1-3a15.25,15.25,0,0,0-5.75-.46c-.34,0-1.06,2.47-.66,3.18C271.08,332.61,272.51,333.48,274,334.88Zm40.11,18.84c1.46-1.91,3-3.05,2.87-4-.13-1.15-1.58-3-2.47-3s-2.57,1.48-2.88,2.64C311.42,350.28,312.85,351.63,314.13,353.72ZM303.78,347l-2.3,2.16c.77.83,1.42,1.94,2.34,2.36.49.23,1.45-.75,2.2-1.19Z"/><path class="cls-2" d="M187.85,389.45l.41.06q2.48,8.1,5,16.18l-1.93-.46a8.55,8.55,0,0,0-.95-1.44c-6.06-5.91-12.23-11.7-18.19-17.73-5.44-5.5-10.35-11.53-13.47-19-2.34-5.57-5.31-10.94-5.29-17.36h0c2.35-1.78,1.5,1.1,1.62,1.57.61,2.4.42,5.15,3.32,6.86L161.05,347c.89,1.57,1.66,2.92,2.65,4.68.7-1.65,1.28-2.83,1.72-4.08s.58-2.94,1.28-4.12c1.55-2.6,3.62-4.87,5-7.55,2-3.9,3.67-8,2.55-12.9l-5.3,9.78-.46-.15.66-11.47-.91-.25c-2,6.1-4,12.2-8.1,17.24l-.64-1.84-3.08,4.42-.63-.47c1.12-5.06,2.23-10.12,3.52-16l-4.61,6.38a19.88,19.88,0,0,1-.68-6,7.16,7.16,0,0,0-.19-1.92,31.24,31.24,0,0,1-1.55-4.71,49.17,49.17,0,0,1-.06-6.33,4.6,4.6,0,0,1-1.06.31,6,6,0,0,1-1.35-.45l7.36-18.23-1.35-.12c4-7.31,7.89-14.37,11.74-21.46,1.42-2.62,2.09-5.4,1-8.4,8.07,1.92,16.15,3.81,24.21,5.75a3.94,3.94,0,0,1,2.58,5.23,34.2,34.2,0,0,1-2.53,6,99.32,99.32,0,0,0-10.67,28.22c-.84,3.74-1.23,7.6-2.17,11.3-1.66,6.54-4,12.9-5.25,19.52a59.2,59.2,0,0,0-.73,16.06c.4,4.11,2.44,8,3.8,12,1.63,4.8,3.06,9.69,5,14.31C184.06,384.52,186.15,386.88,187.85,389.45Z"/><path class="cls-2" d="M218.62,263.42l-1.62,0c-1.59.41-3.17.87-4.78,1.21-11.66,2.47-23.24,1.07-34.82-.88-3.34-.56-6.68-1.07-10-1.61l-1.17-.63c-3.22-1.63-6.63-2.93-9.62-5-3.21-2.19-6-5.07-9-7.65,2-.35,4.08-.27,5.81-1.14,3.06-1.53,2.34-4.85,2.34-7.72,1.61.17,2.62,3.28,4.7,1.12,2.16.95,3.66-.39,5.14-1.76.8-.94,1.94-1.72,2.35-2.83,2-5.47-.1-12.64-7.8-13.55-.73-3-2.84-2-4.33-1.37-1.67.69-3.74,1.68-2.36,4.48-1.22,4.1-2.14,8.18.58,12-.66-.13-1.32-.25-2-.4-4.55-1.11-6.78.15-8.57,4.83-3.06-5.33-3.52-11.16-2.54-17.16,1.05-6.45,3.7-12.21,6.92-17.71a13.77,13.77,0,0,0,.86-2.28l3.63-2.92c2.34.41,5.07.13,6.95,1.37a86.83,86.83,0,0,1,12.48,10,23.54,23.54,0,0,1,6.73,12.85c-1.13,1-2.25,1.94-3.4,2.88-6.07,5-6.81,12.92-1.17,18.34,6.68,6.42,14.67,7.33,23.11,4.83,5.44-1.61,8.89-5.39,9.29-11.45.36-5.54-2.48-9.5-7-12.08,2.44-2.93,4.72-6,7.35-8.75,7.11-7.3,15.23-11.69,25.41-9.39,1.38,4,2.93,7.93,4.1,12,4.73,16.41-.51,30.45-14.82,37.79A14.24,14.24,0,0,0,218.62,263.42Zm3-22.14a9.44,9.44,0,0,1,.67-1.66c2.54-3.91,2.33-7.87.26-11.88.52-2.88-1.38-4-3.31-4.5-1.47-.43-3.53-1.18-4.13,1.62-1.66.9-3.7,1.4-4.9,2.77-3.78,4.31-3.19,11.2.88,13.67l2.36,1.43a10.48,10.48,0,0,0,3.19.81,17.73,17.73,0,0,0,3.84-1c-1.48,2.21-1.94,4.57-.33,6.87s5.58,3.37,7.81,2.25c4.9-2.48,5.3-6.76,1-10.31C226.46,239.31,224,240.23,221.59,241.28Z"/><path class="cls-3" d="M178.49,226.69a23.54,23.54,0,0,0-6.73-12.85,86.83,86.83,0,0,0-12.48-10c-1.88-1.24-4.61-1-6.95-1.37l-.6-.92,1.06-1.3,12.32-9,1.66.38.66.81.55-.94,1.26-2.56,2.23-.68c2.41,1.1,4.13-.33,5.8-1.88h3c-.4,3.34-.57,6.67,1.89,9.25a3.26,3.26,0,0,0,2.73,1,3.17,3.17,0,0,0,1.68-2.42c0-3-.35-6-.57-9.06h1.79l2,3.67c1.08-1,2.18-2,3.21-3.08.2-.22.09-.8.13-1.22l.47-.07,1.89.78c-1,2.5-2.12,4.95-2.91,7.52-.23.76.29,2.5.79,2.66a4,4,0,0,0,3.14-.4c3-1.87,3.78-5,3.55-8.56l2.33-.66a6.6,6.6,0,0,0-.47,2.11,37.63,37.63,0,0,0,.91,4,13.62,13.62,0,0,0,3.53-1.36A25.74,25.74,0,0,0,209.6,187L214,189l3,2,6.5,6.73,12.14-5.56,4.29.6-6.09,4.41,0,0a1.37,1.37,0,0,0-.52.16L225,199.46a43.6,43.6,0,0,1,3.55,5.25c1.12,2.25,2.44,2.32,4.2,1.16l1.76-1.14,0,0c5.29-1.24,8.24-5.3,10.31-10.25.44-1.07.06-2.54.07-3.83l-3.38.81-.08-3.84,1.77-1.45c1.7,2.05,3.37,2.13,5.54.05,1.76-1.67,2.19-3.58.27-5.54l1.84-1.87c.7,2.18.79,5,4.06,4.43-.15,1.31-.29,2.63-.44,3.94-1.65-1.15-3.38-2.05-4.68.36-.58,1.09-1.27,3.14-.83,3.65.82.94,2.44,1.07,3.73,1.54l-3,5.06a5.66,5.66,0,0,0,.06-1.53,19.57,19.57,0,0,0-.74-2.24l-2.15,1.09a11,11,0,0,0,1.16,2.47c.28.34,1.11.15,1.68.2a8.06,8.06,0,0,0-.08,1.78c3.1.93,1.36,2.67.42,3.85-3.84,4.81-8.67,7.5-14.64,7.56-1.06,0-2.13.05-3.2.07-10.18-2.3-18.3,2.09-25.41,9.39-2.63,2.71-4.91,5.82-7.35,8.75-4.42-1.23-8.8-2.82-13.29-3.56C183.65,225.25,181,226.3,178.49,226.69Zm24.37-22.53c-1.47-2-2.29-4-3.65-4.63a4,4,0,0,0-4,1.28,13.66,13.66,0,0,0-2,6.82A3.45,3.45,0,0,0,199,210.2C200.49,208.83,201.36,206.56,202.86,204.16Zm-19.05-1.54c0,3.59,1.95,6.5,3.68,6.4,2.34-.15,2.91-2.14,3.13-4.15.23-2.17-2.37-6.25-3.56-5.62C185.57,200.05,184.52,201.84,183.81,202.62ZM195.93,216c0-1.74.38-3.78-2.23-3.69-2.21.08-3.59,1.92-3.62,4.69,0,2.19.9,3.65,2.84,4C194.69,221.33,195.92,219.13,195.93,216Zm-25-21.21c.52,2.68,3.18,5.7,4.91,5.17a4.59,4.59,0,0,0,2.46-3.13c.4-2.26-2.05-5.11-3.93-4.65C173.15,192.47,172.11,193.86,171,194.77Zm37.81.17c-.46-.45-1.22-1.74-2.25-2.08-1.52-.5-4.46,3.12-4.08,5.14a3.44,3.44,0,0,0,2.31,2.2C206.73,200.49,208.78,198,208.78,194.94Zm6.6-2.24c-1.34,2-2.41,3.24-2.9,4.67-.14.41,1.87,2.28,2.06,2.14a12.73,12.73,0,0,0,3.25-3.45C218,195.79,216.65,194.43,215.38,192.7Zm-34.75,9.12-1.12.07c-.53.7-1.61,1.55-1.49,2.08.37,1.63-.3,4.22,2.18,4.37.72,0,2.2-1.53,2.13-2.21C182.18,204.64,181.24,203.25,180.63,201.82Zm7.71,13.39-2.64-4.12c-.66,1-2,2.12-1.82,2.94.22,1.2,1.48,2.17,2.29,3.25Z"/><path class="cls-4" d="M227.45,405.87a16.8,16.8,0,0,1-.58-2.94c-.07-3.46-.09-6.94,0-10.4.32-13.8-2-27.23-4.85-40.58-.08-.37-.14-.76-.21-1.14l.79-.43c1.71,3.37,4,6.56,5,10.16,1.57,5.55,3,11.36,3.13,17.09.12,6.33,5.17,10.18,9.64,11.16a15.83,15.83,0,0,0,4.07,0c2-.11,3.18-1.16,4.17-3.22,2.19-4.57,4.83-8.88,7.28-13.3l.91.46c-.5,3.27-1.36,6.53-1.41,9.81a187.66,187.66,0,0,0,.47,20.27,50.94,50.94,0,0,0,7.43,21.58c5.92,9.84,13.59,17.4,25.1,18.66,2.49.27,2.88,1.05,1.69,3.28-3.47,6.44-4.55,13.68-6.05,20.8-1.24,5.87-2.74,11.67-4.12,17.51l-7.58,0c1-6.47,2.11-12.94,3.1-19.42.42-2.78.61-5.6,1-8.4.79-6-1.4-10.59-5.61-14.27l-6-5.18c-9.92-7.17-15.9-17.14-18.16-29.77-.35-1.51-.75-3-1-4.53-1.14-6-1.53-6.33-7.26-6.16-.58,0-1.16,0-1.74.08-7.27.5-7.27.5-9,7.9C227.57,405.26,227.51,405.57,227.45,405.87Z"/><path class="cls-5" d="M166.2,261.47l1.17.63,1.19,1.24c1.1,3,.43,5.78-1,8.4-3.85,7.09-7.73,14.15-11.74,21.46l1.35.12-7.36,18.23a6,6,0,0,0,1.35.45,4.6,4.6,0,0,0,1.06-.31,49.17,49.17,0,0,0,.06,6.33,31.24,31.24,0,0,0,1.55,4.71,7.16,7.16,0,0,1,.19,1.92,19.88,19.88,0,0,0,.68,6l4.61-6.38c-1.29,5.84-2.4,10.9-3.52,16l.63.47,3.08-4.42.64,1.84c4.11-5,6.11-11.14,8.1-17.24l.91.25-.66,11.47.46.15,5.3-9.78c1.12,4.85-.52,9-2.55,12.9-1.39,2.68-3.46,5-5,7.55-.7,1.18-.8,2.76-1.28,4.12s-1,2.43-1.72,4.08c-1-1.76-1.76-3.11-2.65-4.68l-2.72,11.21c-2.9-1.71-2.71-4.46-3.32-6.86-.12-.47.73-3.35-1.62-1.57l-.24-.15.24.14c0,6.42,3,11.79,5.29,17.36,3.12,7.43,8,13.46,13.47,19,6,6,12.13,11.82,18.19,17.73a8.55,8.55,0,0,1,.95,1.44l-4.78-2.49c-15.69-10.07-26.83-24.47-34.4-42.27l-4.54-13.23c-.78-5.07-1.62-10.13-2.31-15.22-.39-2.87-.53-5.78-.8-8.9l-3.1.65c.63-3.75,1.18-7.14,1.79-10.51.23-1.31.61-2.58.92-3.87a.61.61,0,0,0,.2-.09s0-.11,0-.17l-.26.25-2.53,1.45-.79-.31c1.19-3.82,2.38-7.63,3.63-11.61l-1.83-.14a3.7,3.7,0,0,1,.12-.84c2.46-6.06,7.12-10,11.54-14.22,2.73-2.61,5.2-5.54,7.73-8.38C165.38,271.46,166.28,266.63,166.2,261.47Z"/><path class="cls-6" d="M162.26,467c.42-15.41.75-30.82,1.29-46.23a35.06,35.06,0,0,0-4.61-18.44c-3.89-7-5.44-14.85-7.2-22.6-1-4.44-1.32-9.06-2-13.61a18.63,18.63,0,0,1,2.32,3.11,98,98,0,0,0,16.35,24.54c6.44,6.95,10,15.3,9.85,24.95-.16,8.18-1.59,16.34-2.55,24.5-.77,6.5-1.67,13-2.51,19.48Z"/><path class="cls-6" d="M264.61,438l-7.72,21.51c-5,2.15-10,3.92-15.47,2.47.81-6.51,1.16-13.13,2.52-19.5,1.85-8.62,1.89-16.5-4.34-23.19.42-.47,1-1.42,1.24-1.34,2,.61,4.4.89,5.8,2.3,2,2,3.32,4.76,4.66,7.37C254.26,433.4,257.84,438.07,264.61,438Z"/><path class="cls-7" d="M173.25,462.74c.84-6.5,1.74-13,2.51-19.48,1-8.16,2.39-16.32,2.55-24.5.18-9.65-3.41-18-9.85-24.95a98,98,0,0,1-16.35-24.54,18.63,18.63,0,0,0-2.32-3.11l-.32-1.28c1.49-1,1.47-1.8-.18-2.51l-.4-1.3,3.22-.6c7.57,17.8,18.71,32.2,34.4,42.27-1.52,11.16-3,22.33-4.58,33.48-1,6.78-2.18,13.53-3.26,20.29-.22,1.4-.3,2.83-.45,4.24Z"/><path class="cls-8" d="M193.22,405.69q-2.47-8.08-5-16.18c1.36,1.64,3.3,3,4,4.94,3.2,9,6,18.12,9.06,27.13,1.94,5.64,3.05,11.86,7.76,15.86a38.56,38.56,0,0,0,5.62,3.34c-1.22,2-3.18,4.21-4,6.83A77.49,77.49,0,0,0,207.16,463c-.85,8.51-.92,17.11-1.32,25.67l-5.17,1.25q.56-12.07,1.13-24.15,0-8.47,0-17C203.5,433.37,196.87,419.88,193.22,405.69Z"/><path class="cls-9" d="M214,189,209.6,187c0-.12-.11-.24-.17-.36l3.94-3c.21,1.53.57,1.34,1.55.41A23.63,23.63,0,0,0,222,171.59c.68-3.16-.69-6.43-3.1-7.27-.22-2.12.45-4.12,2.46-4,1,.08,2,2.22,2.7,3.62.61,1.25.63,2.81,1.14,4.13.2.52,1,.75,1.59,1.1l.45,3.24c4.11-5.53,7.66-10.38,9-16.73,1.14-5.27,2.69-10.44,3.93-15.69.17-.7-.42-1.61-.66-2.42,1-.59,2.26-1.91,2.84-1.62,1,.53,1.66,2,2.45,3.14-.55.82-1.41,1.56-1.61,2.46-.76,3.43-1.33,6.9-1.92,10.36-.39,2.24-.7,4.49-1.05,6.73.23,3.73,2.66,3.9,5.26,3.79-.44.46-.82,1.17-1.34,1.33-2.29.7-4.69,1.05-6.93,1.91-1.23.47-2.87,1.5-3.15,2.62s.8,2.79,1.29,4.21l.29,1.24-1.83-.6-.24-.14.24.14c.42.85.67,2.26,1.27,2.46a51.61,51.61,0,0,0,6.31,1.33c-1.16.84-2.22,2.07-3.49,2.41a12.06,12.06,0,0,1-4.9.07c-6.25-.91-11,1.85-15.06,6.7C216.94,187.37,215.32,188,214,189Z"/><path class="cls-10" d="M160.56,158.59c.21.65.43,1.3.65,1.95.69-2.28,1.34-4.58,2.11-6.83.14-.43.74-.67,1.13-1q-.22,4.41-.46,8.82c2.73-3.34,2.64-6.43.46-8.84,2.19-1.05,3.87.42,3.53,3.3a18.84,18.84,0,0,1-1.23,4.48c-3.07,7.89-1,14.86,3.16,21.49.53.86,1.14,1.67,1.71,2.5-.45.43-.9.86-1.36,1.28l-3.4.79c-1.83-3.45-3.58-7-5.61-10.28-.23-.37-2.09.42-3.19.67h-1.75c-1-.62-1.89-1.56-2.94-1.82-4.28-1-7.26-4.14-7.56-8.16l4.3,1.7c-1.53,1.27-.42,1.88.55,2.41,3,1.6,6,.69,9,.76l.16-1.14-1.76-.66c.84-6.83-1.85-12.13-6.3-16.56-2.67-2.66-5.59-5-8.21-7.72-2.3-2.37-2.36-5.2-.51-7.3,1.06,1.82,2,3.74,3.22,5.43,1,1.43,2.4,2.61,4.15.89,2.83.71,4.1-.57,3.82-3.44a31.29,31.29,0,0,1,.35-5.35c1.16,6,2.22,12,3.56,17.89C158.51,155.54,159.73,157,160.56,158.59Z"/><path class="cls-11" d="M151.73,201.57l.6.92-3.63,2.92c-4.08-1.11-8.25-1.92-12.2-3.42-3-1.15-3-3-.64-4.83a62.74,62.74,0,0,1-4.23-6c-.58-1-1.63-3.13,1.11-3.22l.68,0-.29-.44c-1.35-6.2-2.27-12.42-.63-18.74,1.79,2.38,3,6.28,6.91,3.09l.66,1.22c-.43.38-1.13.68-1.26,1.16a11.39,11.39,0,0,0-.5,3.87c.05.5,1.25.86,1.93,1.29l1.51-3.29c4.06,4.89,8.07,9.83,12.21,14.65a20.25,20.25,0,0,0,3.49,2.64l-1.25,1.88-5.44-2.62c-2.48-3.05-4.93-6.12-7.43-9.15a7.83,7.83,0,0,0-2.3-2.32,2.32,2.32,0,0,0-2.15,1c-1,5,2.72,13.36,6.9,15v0l.6.79Zm-17.87-22.36,1.18.1c1.74-1.19,1.82-2.95,1-4.76-.15-.36-1.26-.23-1.92-.32Zm2.39,6.33c.63-.92,1.33-1.51,1.25-1.93a7.61,7.61,0,0,0-1.12-2.17c-.53.47-1.51,1-1.48,1.41C135,183.62,135.61,184.35,136.25,185.54Z"/><path class="cls-2" d="M328.67,340.43c-.33-2.76-.76-5.52-1-8.29-.17-2.42-1-4-3.42-4a2.45,2.45,0,0,0-.18-.56c1.43-5.06.22-7.34-4.95-9.21.67-5-.35-9.49-4.09-12.83-.79-.7-2-.79-3.08-1.16a54.33,54.33,0,0,1,.15-7.23,4.68,4.68,0,0,1,2.09-3.25c.74-.33,2.41.62,3.1,1.52a22.36,22.36,0,0,1,5.12,14.31c0,1.35,0,2.71,0,4.05,5.87.23,6.31,1.63,3.89,11.31,1.26.49,2.93.59,3.61,1.53a9,9,0,0,1,1.22,4.6C331.33,334.56,331.41,338,328.67,340.43Z"/><path class="cls-7" d="M264.61,438c-6.77,0-10.35-4.63-13.31-10.38-1.34-2.61-2.7-5.38-4.66-7.37-1.4-1.41-3.8-1.69-5.8-2.3-.28-.08-.82.87-1.24,1.34l-9.74-9.65,16.78-2c2.26,12.63,8.24,22.6,18.16,29.77C264.74,437.63,264.67,437.83,264.61,438Z"/><path class="cls-12" d="M200.67,489.9l5.17-1.25,10.48-5.19c-1.58,9.44-4.75,17.85-12.83,23-.69.44-2,.79-2.46.4A4.07,4.07,0,0,1,199.8,504C200,499.32,200.36,494.61,200.67,489.9Z"/><path class="cls-12" d="M173.25,462.74l5-2c-2.22,6.95-3.53,14.39-9.05,19.53a20.61,20.61,0,0,1-3.89,3.14,3.93,3.93,0,0,1-3.15.13c-.5-.23-.74-1.78-.7-2.71.21-4.61.54-9.2.83-13.8Z"/><path class="cls-12" d="M272.32,484.71l7.58,0,9.85-3.07c-3.15,8.13-7.95,14.78-15.15,19.13-2.33,1.41-4.85-.58-4.44-3.51C270.75,493,271.59,488.88,272.32,484.71Z"/><path class="cls-13" d="M246.64,407.67l-16.78,2-2.89.1.48-3.9c.06-.3.12-.61.19-.91,1.69-7.4,1.69-7.4,9-7.9.58,0,1.16-.06,1.74-.08,5.73-.17,6.12.17,7.26,6.16C245.89,404.66,246.29,406.16,246.64,407.67Z"/><path class="cls-12" d="M241.42,462c5.47,1.45,10.49-.32,15.47-2.47-2.57,7.85-6.91,14.23-13.55,18.58a2.72,2.72,0,0,1-4.1-2.58C239.76,471,240.67,466.52,241.42,462Z"/><path class="cls-14" d="M215.21,305a43.32,43.32,0,0,1-1.61-29.83,10,10,0,0,1,1.51-2.39c-1,6.41-1.56,12.82-.26,19.28A39.8,39.8,0,0,0,226,312.49L222.13,315h-.54l-1.79-2.52,0-.66c.18-4.54-.45-5.62-4-6.74Z"/><path class="cls-15" d="M143,138.43c-1.85,2.1-1.79,4.93.51,7.3,2.62,2.7,5.54,5.06,8.21,7.72,4.45,4.43,7.14,9.73,6.3,16.56l-3-.7c-1.23-7.72-3.86-14.37-10.44-18.8-3.28-2.2-6.46-5.21-6-10.23.07-.86.68-2.21,1.25-2.36C140.84,137.68,142,138.22,143,138.43Z"/><path class="cls-16" d="M143.46,242.56c1.79-4.68,4-5.94,8.57-4.83.65.15,1.31.27,2,.4l1.72,1.86c0,2.87.72,6.19-2.34,7.72-1.73.87-3.86.79-5.81,1.14A6.89,6.89,0,0,1,143.46,242.56Z"/><path class="cls-17" d="M278.67,315.16c7.86-.51,15.54.27,22.83,3.79l.54,3.68a79.37,79.37,0,0,0-23.9-2.52C278.31,318.46,278.49,316.81,278.67,315.16Z"/><path class="cls-18" d="M214,189c1.35-.93,3-1.6,4-2.83,4.08-4.85,8.81-7.61,15.06-6.7a12.06,12.06,0,0,0,4.9-.07c1.27-.34,2.33-1.57,3.49-2.41.39-.85.78-1.69,1.16-2.53.56,1.14,1.78,2.52,1.52,3.39a6.84,6.84,0,0,1-2.85,3.84,7.71,7.71,0,0,1-4.79.49c-6.17-1.11-11.37.45-15.62,5.6a25,25,0,0,1-3.88,3.18Z"/><path class="cls-18" d="M235.38,172.53c-.49-1.42-1.59-3-1.29-4.21s1.92-2.15,3.15-2.62c2.24-.86,4.64-1.21,6.93-1.91.52-.16.9-.87,1.34-1.33a27.93,27.93,0,0,1,2.92-.88c3.08-.61,2.36-4.11,3.88-5.9,2.53,1.84,2.64,5.15.2,7.4-3.67,3.39-8.26,4.17-12.76,5.12C237.43,168.69,235.44,169.44,235.38,172.53Z"/><path class="cls-17" d="M222.13,315l3.82-2.55,11.39,6.39,2.28,5A28.39,28.39,0,0,1,222.13,315Z"/><path class="cls-17" d="M255.39,324.58l-1.09-.1c-.61-1.67-1.21-3.33-1.81-5l14.07-2.43,2.9,3.63c-1.85.65-3.68,1.41-5.57,1.92C261.08,323.36,258.22,323.93,255.39,324.58Z"/><path class="cls-14" d="M252.49,319.48c.6,1.67,1.2,3.33,1.81,5l-3.58.7c-2.78-1.83-5.69-1.77-8.66-.66l-2.33,0c0-.22-.08-.45-.11-.67l-2.28-5Z"/><path class="cls-19" d="M239.54,137.6c.24.81.83,1.72.66,2.42-1.24,5.25-2.79,10.42-3.93,15.69-1.37,6.35-4.92,11.2-9,16.73l-.45-3.24.47-.49.7-.72-.07.09.65-.83c4.55-4.94,5.83-11.51,7.54-17.85,1-3.64,1.85-7.31,2.76-11l.75-.75Z"/><path class="cls-18" d="M154.57,136a31.29,31.29,0,0,0-.35,5.35c.28,2.87-1,4.15-3.82,3.44a27.59,27.59,0,0,0,.54-4.1c0-3.21-.45-6.41-.35-9.61a4.56,4.56,0,0,1,1.77-3.16c.51-.34,1.82.72,2.78,1.15l-.58,2.52v1.26l-.9.49.9.78Z"/><path class="cls-19" d="M218.9,164.32c2.41.84,3.78,4.11,3.1,7.27a23.63,23.63,0,0,1-7.08,12.47c-1,.93-1.34,1.12-1.55-.41C217.7,178,219.92,171.72,218.9,164.32Z"/><path class="cls-19" d="M154.55,132.81v-1.26l1.52-.08c1.23,7.18,2.48,14.35,3.7,21.53.31,1.86.52,3.73.78,5.59-.83-1.57-2.05-3.05-2.43-4.74-1.34-5.92-2.4-11.92-3.56-17.89,0-.63,0-1.25,0-1.88Z"/><path class="cls-14" d="M269.46,320.68l-2.9-3.63,12.11-1.89c-.18,1.65-.36,3.3-.53,4.95,0,.22-.05.44-.08.66l-8,.62Z"/><path class="cls-15" d="M158.06,176.91c1.1-.25,3-1,3.19-.67,2,3.31,3.78,6.83,5.61,10.28l-.67,1.11-1.05.28-.7-.12Z"/><path class="cls-18" d="M145.81,166.94c.3,4,3.28,7.13,7.56,8.16,1,.26,2,1.2,2.94,1.82-5.09.55-9.57-.83-12.82-5.29a5,5,0,0,1-.34-3.72C143.31,167.34,144.88,167.25,145.81,166.94Z"/><path class="cls-18" d="M240.25,158.67c.35-2.24.66-4.49,1.05-6.73.59-3.46,1.16-6.93,1.92-10.36.2-.9,1.06-1.64,1.61-2.46-.45,4.49-.86,9-1.36,13.47-.22,2-.6,4.06-.91,6.08Z"/><path class="cls-14" d="M302,322.63,301.5,319c1.67,1,3.32,2,5,2.94a6.36,6.36,0,0,0,1.75.39l2.55,2.21h0c.83,1.44,1.75,2.84,2.45,4.35a20.39,20.39,0,0,1,.93,3.26l-6.27-5.57-5.77-3.23C302.11,323.07,302.08,322.85,302,322.63Z"/><path class="cls-19" d="M240.25,158.67h2.31c1.79,1.89,3.27.7,4.7-.59.63-.58,1.16-1.29,1.74-1.94l1.17-.64,2.14.18c-1.52,1.79-.8,5.29-3.88,5.9a27.93,27.93,0,0,0-2.92.88C242.91,162.57,240.48,162.4,240.25,158.67Z"/><path class="cls-20" d="M209.43,186.67c.06.12.12.24.17.36a25.74,25.74,0,0,1-3.31,3.51,13.62,13.62,0,0,1-3.53,1.36,37.63,37.63,0,0,1-.91-4,6.6,6.6,0,0,1,.47-2.11c.09-.53.18-1.07.26-1.6Z"/><path class="cls-14" d="M164.44,187.79l.7.12,0,3.36-12.32,9,3.41-5,1.25-1.88Z"/><path class="cls-20" d="M248.93,180.71c1.92,2,1.49,3.87-.27,5.54-2.17,2.08-3.84,2-5.54-.05Z"/><path class="cls-21" d="M252.61,192.76c-1.29-.47-2.91-.6-3.73-1.54-.44-.51.25-2.56.83-3.65,1.3-2.41,3-1.51,4.68-.36-.44,1.42-.88,2.83-1.31,4.25l-.56,1.3Z"/><path class="cls-6" d="M152.11,360.47l-3.22.6-1.32-13.83Q149.85,353.85,152.11,360.47Z"/><path class="cls-17" d="M170.26,185.73c.46-.42.91-.85,1.36-1.28l5.68-1.2,0,3.15c-1.67,1.55-3.39,3-5.8,1.88C171.07,187.43,170.67,186.58,170.26,185.73Z"/><path class="cls-14" d="M177.27,186.4l0-3.15,9.91-1.25c.2.84.41,1.67.62,2.5l-.07.66H186c-3-2.65-3.89-2.45-5.73,1.24Z"/><path class="cls-20" d="M139.41,171.88c-3.92,3.19-5.12-.71-6.91-3.09,1.9-2.46,3.24-2.54,4.88-.22C138.12,169.62,138.73,170.78,139.41,171.88Z"/><path class="cls-19" d="M155.1,169.31l3,.7,1.76.66-.16,1.14c-3-.07-6,.84-9-.76-1-.53-2.08-1.14-.55-2.41a.32.32,0,0,1,.37.13l.56.1Z"/><path class="cls-19" d="M242.58,174.43c-.38.84-.77,1.68-1.16,2.53a51.61,51.61,0,0,1-6.31-1.33c-.6-.2-.85-1.61-1.27-2.46h0l1.83.6Z"/><path class="cls-14" d="M202.58,184.2c-.08.53-.17,1.07-.26,1.6l-2.33.66-4.57-1.22-1.89-.78c0-.7,0-1.4.07-2.09Z"/><path class="cls-20" d="M241.35,187.65c0,1.28.05,2.56.08,3.84v0l-1.19.94a.43.43,0,0,1-.36.29l-4.29-.6Z"/><path class="cls-21" d="M141.75,176.13l-1.51,3.29c-.68-.43-1.88-.79-1.93-1.29a11.39,11.39,0,0,1,.5-3.87c.13-.48.83-.78,1.26-1.16Z"/><path class="cls-20" d="M254.83,183.27c-3.27.58-3.36-2.25-4.06-4.43,1.11,0,2.9-.47,3.19,0C254.64,180.1,254.59,181.78,254.83,183.27Z"/><path class="cls-17" d="M193.6,182.37c0,.69,0,1.39-.07,2.09l-.48.07-5.22,0c-.21-.83-.42-1.66-.62-2.5Z"/><path class="cls-6" d="M201.84,448.79q0,8.49,0,17Q201.83,457.28,201.84,448.79Z"/><path class="cls-10" d="M156.08,131.47l-1.52.08c.19-.84.39-1.68.58-2.52Z"/><path class="cls-6" d="M149.29,362.37c1.65.71,1.67,1.55.18,2.51Z"/><path class="cls-3" d="M252.52,192.76l.56-1.3Z"/><path class="cls-18" d="M250.17,155.5l-1.17.64Z"/><path class="cls-9" d="M239.59,137.68l-.75.75Z"/><path class="cls-9" d="M228,168l-.7.72Z"/><path class="cls-10" d="M151,168.87l-.56-.1A.73.73,0,0,1,151,168.87Z"/><path class="cls-9" d="M228.54,167.25l-.65.83Z"/><path class="cls-22" d="M168.56,263.34l-1.19-1.24c3.35.54,6.69,1,10,1.61,11.58,2,23.16,3.35,34.82.88,1.61-.34,3.19-.8,4.78-1.21-3.76,3.07-7.65,6-11.25,9.24-5.6,5.1-9.7,11.58-13.27,18.43-5,9.63-8.25,20-10.6,30.72-.76,3.5-2.39,6.79-3.69,10.15-2.62,6.82-2.18,13.95-2,21.7l3.07-2.17c.9,6.51.86,13.86,3.09,20.29,2,5.85,2.7,12.19,5.52,17.71-1.7-2.57-3.79-4.93-5-7.74-2-4.62-3.42-9.51-5-14.31-1.36-4-3.4-7.91-3.8-12a59.2,59.2,0,0,1,.73-16.06c1.22-6.62,3.59-13,5.25-19.52.94-3.7,1.33-7.56,2.17-11.3a99.32,99.32,0,0,1,10.67-28.22,34.2,34.2,0,0,0,2.53-6,3.94,3.94,0,0,0-2.58-5.23C184.71,267.15,176.63,265.26,168.56,263.34Z"/><path class="cls-20" d="M253.83,331.47a12,12,0,0,1,9.09,3.45c3.27,3.21,3,7.73-.62,10.41-3.76,2.82-11,2.55-14.59-.54a8.08,8.08,0,0,1-2.08-8.31,7.16,7.16,0,0,1,5.87-5A16.46,16.46,0,0,1,253.83,331.47Z"/><path class="cls-20" d="M239.62,323.87c0,.22.07.45.11.67-.19,8.18-6.24,11.37-13.15,7.79-5.75-3-8.13-12.07-5-17.3h.54A28.39,28.39,0,0,0,239.62,323.87Z"/><path class="cls-20" d="M302,322.63c0,.22.07.44.11.66-.13,7.5-6.43,9.65-11.23,8.7-6-1.19-10.54-4.84-12.86-11.22,0-.22.05-.44.08-.66A79.37,79.37,0,0,1,302,322.63Z"/><path class="cls-20" d="M307.92,326.52l6.27,5.57c1.44,2.59,1.79,5.17-.44,7.41-1.62,1.63-6.19.94-8.2-1.05a12.58,12.58,0,0,1-2.07-2.19C300.63,331.46,302.62,326.76,307.92,326.52Z"/><path class="cls-20" d="M283.43,335.84c3.47,0,5.14,1.9,5.2,5.89,0,3.12-1.45,4.91-4.09,4.9-3.05,0-5.8-3.06-5.86-6.5C278.63,337,279.94,335.84,283.43,335.84Z"/><path class="cls-21" d="M231.11,344.17c-3.29-.79-5.52-2.86-5.45-5.28s1.65-3.46,3.63-3.54c3-.13,6.82,3,6,4.9C234.56,341.9,232.55,342.89,231.11,344.17Z"/><path class="cls-20" d="M269.46,320.68l.6.71c-.25,5.39-3.67,7.69-9.27,6a33.62,33.62,0,0,1-5.4-2.77c2.83-.65,5.69-1.22,8.5-2C265.78,322.09,267.61,321.33,269.46,320.68Z"/><path class="cls-21" d="M297.62,335.07c.79.66,2.44,1.37,3,2.63A5.09,5.09,0,0,1,300,342c-.66.82-2.52,1-3.72.7a6.59,6.59,0,0,1-3.62-2.18c-1.72-2.22-.92-4.07,1.71-4.63C295.2,335.66,296,335.45,297.62,335.07Z"/><path class="cls-21" d="M306.35,359.12c1.28-1.72,2-3.47,3.15-4,.8-.33,2.63.76,3.29,1.76,1.15,1.76,3.59,3.79.92,6.13-.85.75-2.78,1.16-3.61.62C308.71,362.77,307.8,361,306.35,359.12Z"/><path class="cls-20" d="M219.77,311.85l0,.66c-1,1.6-2.23,3.4-4.14,2.4-1.24-.64-2.12-2.34-2.88-3.74-1.11-2.07-.27-3.8,1.29-5.21.36-.34.76-.63,1.14-.94l.6.08Z"/><path class="cls-20" d="M242.06,324.52c3-1.11,5.88-1.17,8.66.66-.17,3.62-1.41,5.11-4.19,5S242.18,328.22,242.06,324.52Z"/><path class="cls-21" d="M324.11,327.59a2.45,2.45,0,0,1,.18.56c-.63.26-1.26.78-1.87.75-1.5-.07-3.85.15-4.31-.72-.78-1.47-.62-3.73-.33-5.56.1-.58,2.22-1.48,2.83-1.11a10.37,10.37,0,0,1,2.94,3.47A8.4,8.4,0,0,1,324.11,327.59Z"/><path class="cls-21" d="M274.05,346.61c-2.75-.72-5.13-1.13-5-3.87.05-1.22,2.07-2.95,3.47-3.35,2-.57,4.81,2.12,4.34,3.89C276.49,344.58,275,345.52,274.05,346.61Z"/><path class="cls-21" d="M274,334.88c-1.51-1.4-2.94-2.27-3.69-3.61-.4-.71.32-3.15.66-3.18a15.25,15.25,0,0,1,5.75.46c.63.19,1.44,2.47,1.1,3C277.08,332.8,275.64,333.55,274,334.88Z"/><path class="cls-21" d="M310.82,324.49c-.21-2.52-.32-5.07,1.57-7a3.24,3.24,0,0,1,2.47-.93c.48.08,1,1.36,1.12,2.15.38,3.8-1.54,5.86-5.17,5.73Z"/><path class="cls-21" d="M314.13,353.72c-1.28-2.09-2.71-3.44-2.48-4.29.31-1.16,1.87-2.65,2.88-2.64s2.34,1.81,2.47,3C317.1,350.67,315.59,351.81,314.13,353.72Z"/><path class="cls-21" d="M303.78,347l2.24,3.33c-.75.44-1.71,1.42-2.2,1.19-.92-.42-1.57-1.53-2.34-2.36Z"/><path class="cls-23" d="M178.49,226.69c2.54-.39,5.16-1.44,7.58-1,4.49.74,8.87,2.33,13.29,3.56,4.48,2.58,7.32,6.54,7,12.08-.4,6.06-3.85,9.84-9.29,11.45-8.44,2.5-16.43,1.59-23.11-4.83-5.64-5.42-4.9-13.37,1.17-18.34C176.24,228.63,177.36,227.65,178.49,226.69Zm11,16.31c-1-3.87,1.79-4.25,3.91-5.31,1.64-.81,3.27-1.89,2.58-4.24a3.75,3.75,0,0,0-4.5-2.88l.58,1.81-9.48.56.45-2.21c-3.16,1.16-3.63,2.59-1.57,4.72,1.09,1.12,2.62,1.73,3.75,2.81a30.6,30.6,0,0,1,2.89,3.65l-3.71,1.39.16.67h7.85v-.64Z"/><path class="cls-24" d="M155.72,240,154,238.13c-2.72-3.87-1.8-7.95-.58-12l6.69-3.11c7.7.91,9.83,8.08,7.8,13.55-.41,1.11-1.55,1.89-2.35,2.83,0-2.06.44-4.31-.21-6.1a5.1,5.1,0,0,0-3.73-2.58c-.9-.1-2.21,1.49-2.93,2.62-2.05,3.19-.58,5.66,1.73,7.82C158.34,243.27,157.33,240.16,155.72,240Z"/><path class="cls-24" d="M220.45,242.52a17.73,17.73,0,0,1-3.84,1,10.48,10.48,0,0,1-3.19-.81,4.59,4.59,0,0,0,4.93-3c1-2.21,0-6-1.91-7.34a3.25,3.25,0,0,0-5,1.39c-.82,2.19-.33,5-.4,7.49-4.07-2.47-4.66-9.36-.88-13.67,1.2-1.37,3.24-1.87,4.9-2.77,2.25,1.64,4.3,3.91,7.44,2.88,2.07,4,2.28,8-.26,11.88a9.44,9.44,0,0,0-.67,1.66h0l-.59.67Z"/><path class="cls-16" d="M220.45,242.52l.56-.58c.19-.23.39-.45.59-.67h0c2.45-1.05,4.87-2,7.32.05,4.32,3.55,3.92,7.83-1,10.31-2.23,1.12-6.16.11-7.81-2.25S219,244.73,220.45,242.52Z"/><path class="cls-25" d="M211.06,241.3c.07-2.53-.42-5.3.4-7.49a3.25,3.25,0,0,1,5-1.39c1.9,1.32,2.91,5.13,1.91,7.34a4.59,4.59,0,0,1-4.93,3Z"/><path class="cls-12" d="M160.42,241.11c-2.31-2.16-3.78-4.63-1.73-7.82.72-1.13,2-2.72,2.93-2.62a5.1,5.1,0,0,1,3.73,2.58c.65,1.79.19,4,.21,6.1C164.08,240.72,162.58,242.06,160.42,241.11Z"/><path class="cls-11" d="M222.52,227.74c-3.14,1-5.19-1.24-7.44-2.88.6-2.8,2.66-2.05,4.13-1.62C221.14,223.79,223,224.86,222.52,227.74Z"/><path class="cls-11" d="M160.11,223l-6.69,3.11c-1.38-2.8.69-3.79,2.36-4.48C157.27,221,159.38,220,160.11,223Z"/><path class="cls-26" d="M232.71,205.87c-1.76,1.16-3.08,1.09-4.2-1.16a43.6,43.6,0,0,0-3.55-5.25l8.35-2.22.52-.16,0,0,6.25-1.2c-.59,1.65-.78,2.94-1.43,3.85-1.26,1.78-2.78,3.34-4.19,5l0,0Z"/><path class="cls-21" d="M202.86,204.16c-1.5,2.4-2.37,4.67-3.9,6a3.45,3.45,0,0,1-5.72-2.57,13.66,13.66,0,0,1,2-6.82,4,4,0,0,1,4-1.28C200.57,200.2,201.39,202.17,202.86,204.16Z"/><path class="cls-20" d="M180.24,186.4c1.84-3.69,2.76-3.89,5.73-1.24.22,3,.57,6,.57,9.06a3.17,3.17,0,0,1-1.68,2.42,3.26,3.26,0,0,1-2.73-1C179.67,193.07,179.84,189.74,180.24,186.4Z"/><path class="cls-26" d="M156.2,195.3l-3.41,5-1.06,1.3-5.35-3.63-.6-.79v0a25,25,0,0,1-1.55-3.57,17.69,17.69,0,0,1-.3-3.44c1,.3,2,.53,3,.9,1.31.49,2.58,1.07,3.87,1.61Z"/><path class="cls-20" d="M195.42,185.24l4.57,1.22c.23,3.54-.53,6.69-3.55,8.56a4,4,0,0,1-3.14.4c-.5-.16-1-1.9-.79-2.66C193.3,190.19,194.43,187.74,195.42,185.24Z"/><path class="cls-27" d="M234.43,204.76c1.41-1.66,2.93-3.22,4.19-5,.65-.91.84-2.2,1.43-3.85l-6.25,1.2,6.09-4.41a.43.43,0,0,0,.36-.29c.39-.32.79-.63,1.19-.94v0l3.38-.81c0,1.29.37,2.76-.07,3.83C242.67,199.46,239.72,203.52,234.43,204.76Z"/><path class="cls-21" d="M183.81,202.62c.71-.78,1.76-2.57,3.25-3.37,1.19-.63,3.79,3.45,3.56,5.62-.22,2-.79,4-3.13,4.15C185.76,209.12,183.8,206.21,183.81,202.62Z"/><path class="cls-21" d="M195.93,216c0,3.15-1.24,5.35-3,5-1.94-.37-2.87-1.83-2.84-4,0-2.77,1.41-4.61,3.62-4.69C196.31,212.2,195.91,214.24,195.93,216Z"/><path class="cls-21" d="M171,194.77c1.14-.91,2.18-2.3,3.44-2.61,1.88-.46,4.33,2.39,3.93,4.65a4.59,4.59,0,0,1-2.46,3.13C174.15,200.47,171.49,197.45,171,194.77Z"/><path class="cls-21" d="M208.78,194.94c0,3.09-2.05,5.55-4,5.26a3.44,3.44,0,0,1-2.31-2.2c-.38-2,2.56-5.64,4.08-5.14C207.56,193.2,208.32,194.49,208.78,194.94Z"/><path class="cls-21" d="M215.38,192.7c1.27,1.73,2.58,3.09,2.41,3.36a12.73,12.73,0,0,1-3.25,3.45c-.19.14-2.2-1.73-2.06-2.14C213,195.94,214,194.74,215.38,192.7Z"/><path class="cls-21" d="M180.63,201.82c.61,1.43,1.55,2.82,1.7,4.31.07.68-1.41,2.25-2.13,2.21-2.48-.15-1.81-2.74-2.18-4.37-.12-.53,1-1.38,1.49-2.08Z"/><path class="cls-21" d="M188.34,215.21l-2.17,2.07c-.81-1.08-2.07-2.05-2.29-3.25-.15-.82,1.16-1.95,1.82-2.94Z"/><path class="cls-21" d="M187.83,184.5l5.22,0c0,.42.08,1-.12,1.22-1,1.08-2.13,2.06-3.21,3.08l-2-3.67C187.79,184.94,187.81,184.72,187.83,184.5Z"/><path class="cls-17" d="M165.11,191.27l0-3.36,1.05-.28,3.05,1.33L168,191.52l-1.21.13Z"/><path class="cls-21" d="M249.62,197.81c-.57-.05-1.4.14-1.68-.2a11,11,0,0,1-1.16-2.47l2.15-1.09a19.57,19.57,0,0,1,.74,2.24,5.66,5.66,0,0,1-.06,1.53Z"/><path class="cls-14" d="M169.24,189l-3.05-1.33.67-1.11,3.4-.79c.41.85.81,1.7,1.21,2.55Z"/><path class="cls-27" d="M232.71,205.87l1.76-1.14Z"/><path class="cls-14" d="M166.77,191.65l1.21-.13c-.18.31-.36.63-.55.94Z"/><path class="cls-27" d="M233.83,197.08l-.52.16A1.37,1.37,0,0,1,233.83,197.08Z"/><path class="cls-2" d="M153.39,349.74l-.24-.14.24.15Z"/><path class="cls-28" d="M144.06,309.38l.26-.25c0,.06,0,.14,0,.17a.61.61,0,0,1-.2.09Z"/><path class="cls-19" d="M233.84,173.17l-.24-.14.24.14Z"/><path class="cls-19" d="M164.45,152.68c2.18,2.41,2.27,5.5-.46,8.84q.24-4.41.46-8.82Z"/><path class="cls-27" d="M150.76,192.68c-1.29-.54-2.56-1.12-3.87-1.61-1-.37-2-.6-3-.9a17.69,17.69,0,0,0,.3,3.44,25,25,0,0,0,1.55,3.57c-4.18-1.64-7.89-10-6.9-15a2.32,2.32,0,0,1,2.15-1,7.83,7.83,0,0,1,2.3,2.32C145.83,186.56,148.28,189.63,150.76,192.68Z"/><path class="cls-21" d="M133.86,179.21l.29-5c.66.09,1.77,0,1.92.32.79,1.81.71,3.57-1,4.76Z"/><path class="cls-21" d="M136.25,185.54c-.64-1.19-1.29-1.92-1.35-2.69,0-.43.95-.94,1.48-1.41a7.61,7.61,0,0,1,1.12,2.17C137.58,184,136.88,184.62,136.25,185.54Z"/><path class="cls-28" d="M133.13,187.53l.29.44-.68,0Z"/><path class="cls-27" d="M145.78,197.15l.6.79Z"/><path class="cls-17" d="M219.77,311.85l-4-6.75C219.32,306.23,220,307.31,219.77,311.85Z"/><path class="cls-10" d="M154.55,132.81v1.27l-.9-.78Z"/><path class="cls-3" d="M241.44,191.47c-.4.31-.8.62-1.19.94Z"/><path class="cls-29" d="M189.46,243l2.92.33V244h-7.85l-.16-.67,3.71-1.39a30.6,30.6,0,0,0-2.89-3.65c-1.13-1.08-2.66-1.69-3.75-2.81-2.06-2.13-1.59-3.56,1.57-4.72l-.45,2.21,9.48-.56-.58-1.81a3.75,3.75,0,0,1,4.5,2.88c.69,2.35-.94,3.43-2.58,4.24C191.25,238.75,188.47,239.13,189.46,243Z"/><path class="cls-2" d="M221.6,241.27c-.2.22-.4.44-.59.67C221.2,241.71,221.4,241.49,221.6,241.27Z"/></svg>