<svg id="Layer_1" data-name="Layer 1" xmlns="http://www.w3.org/2000/svg" viewBox="0 0 512 512"><defs><style>.cls-1{fill:#b56637;}.cls-2{fill:#ebd1b0;}.cls-3{fill:#b66738;}.cls-4{fill:#934e27;}.cls-5{fill:#775e4e;}.cls-6{fill:#ac5e32;}.cls-7{fill:#ead1af;}.cls-8{fill:#e39b66;}.cls-9{fill:#402c1e;}.cls-10{fill:#3f2b1c;}.cls-11{fill:#412d1e;}.cls-12{fill:#725845;}.cls-13{fill:#85675a;}.cls-14{fill:#715642;}.cls-15{fill:#c27248;}.cls-16{fill:#e19965;}.cls-17{fill:#e4aa79;}.cls-18{fill:#ac5406;}.cls-19{fill:#ac5d31;}.cls-20{fill:#e29a66;}.cls-21{fill:#b76c43;}.cls-22{fill:#f7e0d4;}.cls-23{fill:#dabc96;}.cls-24{fill:#efb8a0;}.cls-25{fill:#dca385;}.cls-26{fill:#edb59c;}.cls-27{fill:#3f2d21;}.cls-28{fill:#3b2719;}.cls-29{fill:#e9e6e4;}</style></defs><path class="cls-1" d="M283.3,357.5l8-2.11a10.48,10.48,0,0,0,1.06,1.92c2.65,3.1,5.81,1.22,8.87.92,6.3-.63,8.48-2.84,8.73-9.28l9.88-3.28c.22,3-.33,5.9,1.8,8.77,3.1,4.18,15.32,2.69,18.44-1.84a15.07,15.07,0,0,0,2.35-13.07l6-1.13c.68,2.26.76,5,2.15,6.7,4.12,4.88,9.09,8.69,15.71,9.89,6.84,1.23,12.66-.07,16.8-6a36.58,36.58,0,0,0,2.66-5.53c8.82,3.41,15.31,9.85,21.83,17.12,1-3.53,1.88-6.62,2.75-9.71.91-.22,2.05-.19,2.68-.74a4.29,4.29,0,0,0,1-2.57c0-.36-1.09-1.25-1.18-1.19a15.43,15.43,0,0,0-1.91,1.8c.2-2.21.41-4.43.61-6.65,8.2,3.79,9.68,11,9.33,18.89,6.46,2.39,8.17,5.65,6.67,12.75,3.4,0,4.5,2.18,4.78,5.11q.57,5.89,1.16,11.79c-1.72,4.85-5.71,6.52-10.3,7.14-.33,5.26-.56,10.31-1,15.33-1.29,14.84-6.21,27.95-18.18,37.64-2.52,2-5,4.12-7.51,6.18l-13.31,4.34c2.08,1.64,4.18,3.5,6.48,5.08,6.59,4.53,11.63,9.87,10.59,18.69-4.32,6.78-11.18,4.93-17.4,5-4.61.06-9.22-.3-13.83-.47,0-.19,0-.38,0-.57-.84-.45-1.68-1.3-2.52-1.31q-23-.12-46.06,0c-.85,0-1.7.84-2.55,1.29,0,.2,0,.39,0,.59l-16.65.57c-2-2.53-4.21-5-6.09-7.61-1.71-2.41-3.1-5-4.64-7.59,2.42-.64,4.86-1.23,7.25-2,.56-.17,1-.82,1.44-1.25,2.73-.18,5.46-.38,8.19-.54,1.6-.09,3.21,0,4.81-.17,1.41-.12,2.81-.6,4.22-.62,5.86-.07,11.73.07,17.59-.08,2.92-.07,5.82-.61,8.73-.95l-.09-1a22.79,22.79,0,0,1-4.82-.06c-5.23-1.14-11-1.52-15.49-4-6.2-3.44-12.19-7.46-16.37-13.88s-7.25-13-8-20.57c-1.25-13,4.45-23.62,12.35-33.34l6.86-8.47-.68-.71c-1.37,1-2.8,1.88-4.1,2.94-3.9,3.2-8.15,5.75-13.23,6.29a129.94,129.94,0,0,1-13.52.68c-4.51,0-9-.32-13.53-.64-2.6-.19-4,1-4.43,3.4a15.51,15.51,0,0,0,1.74,11.47c3.55,5.87,7.08,11.78,10.24,17.86,4.68,9,7.55,18.52,7,28.83-.21,3.66-1.15,6.89-4.45,9.09a12.4,12.4,0,0,0-2.23,2.66,14.39,14.39,0,0,1-1.92.44c-14.38,1.37-28.64-.24-42.92-1.63-5-.49-10-.73-15.08-1.09-9.59-1.23-19.15-1.17-28.43,1.7-4.74,1.47-9.21,3.83-13.79,5.8-.29-.17-.6-.51-.84-.47-7.65,1.25-14.92-.17-22-3.08l5.32-5.79a31.91,31.91,0,0,1,2.34-3.47c4.33-4.92,8.75-9.75,13.08-14.65,1.18-1.33,2.17-2.82,3.24-4.24,2.57-1,5.18-1.79,7.68-2.9,3.36-1.48,6.62-3.17,9.93-4.76,3-.21,5.91-.57,8.87-.58,11.78,0,23.46.71,34.78,4.46,2.37.79,5,.88,7.47,1.29-10.13-7.17-17-16.17-18.57-27.73,5.57-5.1,11.08-9.43,15.71-14.55,7.58-8.4,10.25-18.48,7.94-29.69-.58-2.78-1.34-5.51-2-8.27A52.08,52.08,0,0,0,276.7,359a8.39,8.39,0,0,1,1.95-.11c-.37.38-.7,1-1.13,1.08-1.61.33-3.25.66-2.65,2.81a3.45,3.45,0,0,0,3.77,2.85C282.83,365.49,284.89,362.08,283.3,357.5Zm112.08,32.12.44-.89c2.92.3,5.71-.1,7.13-3s.74-6-1-8.77c-3.37-5.38-11.69-5.67-16-3.32a6.77,6.77,0,0,0-3.57,6.93c.29,2.81,2,4.26,4.7,4.75a6.37,6.37,0,0,1,1.76.71C391,387.24,393.21,388.44,395.38,389.62Zm-1.7-20.79c4.45,0,7.89-3.78,7.91-8.67a7.8,7.8,0,0,0-7.6-7.92c-3.51-.07-8.43,4.41-8.41,7.65C385.63,365.85,388.33,368.84,393.68,368.83Zm-34.4,12.62c4,0,5-.89,4.94-4.38,0-3.88-3.68-8.88-6.5-8.92-3.94-.06-7,2.24-7.17,5.38C350.34,377.64,354.53,381.43,359.28,381.45Zm20.41-16.32c0-4.12-2.77-7-6.68-6.93-2.86,0-6,3.34-5.94,6.34,0,3.17,4.15,7,7.44,6.94C377.61,371.4,379.72,368.82,379.69,365.13ZM349.19,364l.19-.47a24.5,24.5,0,0,0,3,0,4,4,0,0,0,2.9-6c-1.52-2.57-6.11-4.81-8.83-3.66a8.53,8.53,0,0,0-4.24,4.11c-.41,1,.9,3.27,2.06,4.22S347.51,363.39,349.19,364Zm68.21,4.64c1,2.88.55,5.71,3.73,6,1.54.15,3.91-.35,4.58-1.4a5.72,5.72,0,0,0-.06-5c-1-1.64-2.92-3.35-4.66-3.61C420,364.44,418.61,367.17,417.4,368.61Zm-.82-7.32-2.43-3.61a32.78,32.78,0,0,0-3.32,2.63c-2.75,2.83,0,5,1.11,7.26.88,1.85,2.16,1.46,2.83-.07A53.34,53.34,0,0,0,416.58,361.29Zm-94,2.55c0-2.51-1.29-4.23-3.36-4-1.82.17-3.83.61-3.91,3.13-.07,2.29,1.92,3.9,4.6,3.93C322.13,366.88,322.68,365.58,322.54,363.84Zm85.18,11.59,0,1.52c1.16.81,2.45,2.41,3.44,2.23a4.6,4.6,0,0,0,2.89-3.05c.41-1.95-1.12-3.1-3.07-2.63C409.78,373.77,408.79,374.76,407.72,375.43Z"/><path class="cls-2" d="M196.6,435.19c-3.31,1.59-6.57,3.28-9.93,4.76-2.5,1.11-5.11,1.94-7.68,2.9-3.5.73-7.1,2.36-10.5,2-7-.7-13.81-2.44-20.71-3.76-4.08-3.76-8.68-7.1-12.12-11.38-4.28-5.33-6.62-11.81-7.78-18.63-.85-5-1.79-10.06-2.69-15.09,7.42-7.53,16.48-10.66,26.91-9.9a53.76,53.76,0,0,1,22.33,6.17c-.44,1-.88,2-1.33,3-2.94,6.54-.55,15.9,5.11,19.92,5.08,3.61,16.4,3.65,21.36-.44,5.21-4.3,11-7.81,14.33-14.41,3.64-7.15,4.27-13.6-.37-20.07a6.92,6.92,0,0,1-.65-2.15c2.46.76,4.91,2.1,7.38,2.14,4.66.07,6.33-3.8,8.21-7.32,3.08-5.75-.26-16-7.75-17.47-.64-1.32-1-3.38-2-3.82-3.18-1.37-7.19,1.49-7.81,5.14-.63,1.26-1.24,2.52-1.89,3.77-2.45,4.69-2.06,9.27.65,13.67a37.46,37.46,0,0,0,3.15,3.89c-4.95-2.37-9.9-4.75-15.65-4-1.73-5.93-2.41-11.95-.71-18s3.44-12.05,5.59-17.92c2.76-7.55,9-11.49,16.13-10.67.57.82,1,1.91,1.75,2.41,4.16,2.62,8.73,4.7,12.57,7.71,5.9,4.64,10.79,10.27,13.44,17.52a25.4,25.4,0,0,0,1.48,2.89c.31,4.59,1.17,9.21.85,13.75-.86,12.32-6.85,22.6-14.41,31.89-3.82,4.68-8.63,8.55-13.19,13,2.34,5,4.69,9.95,6.91,14.65-5.66,0-11.19-.31-16.67.09C206,431.86,200.67,431.25,196.6,435.19Zm-43-37c-1-.18-2.17-.76-3-.45-3.84,1.45-5.45,5.41-4.12,9.6,1.15,7.77,3.1,12.24,11.18,14.27,3.13.79,9.3-1.15,10.71-3.65,2.9-5.18,1.62-16.74-6.1-19.53C159.16,397.27,156.5,397.9,153.61,398.16Zm.47,39.75c5.68,0,9.6-3.3,9.68-8.17.08-4.46-2.42-7.12-6.68-7.12-5.67,0-10.06,4.16-9.92,9.39C147.24,435,150.62,437.9,154.08,437.91ZM237,376.78a8.88,8.88,0,0,0,9.1-8.76c.1-4.48-2.36-7.09-6.78-7.18-4.84-.1-9,4.36-9.15,9.77C230.08,374.61,232.45,376.75,237,376.78Z"/><path class="cls-3" d="M218.21,327.61c-7.11-.82-13.37,3.12-16.13,10.67-2.15,5.87-3.89,11.9-5.59,17.92s-1,12,.71,18c-8.12,2.34-14.46,7.27-19.74,13.68-1.13,1.38-2,2.95-3,4.43a53.76,53.76,0,0,0-22.33-6.17c-10.43-.76-19.49,2.37-26.91,9.9-3.37,1.47-6.68,3.12-10.13,4.38-5.42,2-10.84.79-16.16-.65-1.12-.3-2-1.39-3.38-2.35l2.75-2.05-3.65-2.57c.65,0,1.55.2,1.9-.14.86-.82,2-1.92,2-2.9,0-.74-1.6-1.46-2.49-2.19a28.94,28.94,0,0,0-1.57,3.34c-.19.55.12,1.27.2,1.91l-4.82-2.53A16.91,16.91,0,0,0,92,388c.56-.81,1.38-2.44,1.16-2.63-1.68-1.45-3.45-3.28-5.46-3.72-2.24-.49-2.89,1.82-3,3.83l-3.39-3.35c2.53-2.59,3.79-5.39,1.47-8.79l3.26.13a16.31,16.31,0,0,0,.12,2.62c.64,3.22,2.59,4.8,6.17,4.45,2.83-.28,4.51-2.07,4.38-5.14l2.57.21c0,3.08,2,4.21,4.62,4.42s5.07-.47,5.48-3.77c5.16-.8,10.35-1.47,15.46-2.51a4.93,4.93,0,0,0,2.85-2.83c1.13-2.93,1.83-6,2.71-9.07.5-1.46,1-2.92,1.49-4.37l3.31-5.36.69-.64c1.94.76,3.84,1.67,5.83,2.25,1.73.51,3.7,1.25,4.79-1.23s.18-4.22-1.63-5.82a24.28,24.28,0,0,1-1.68-1.83l3.38-2c.19,4.34,6.75,9.47,10.82,8.46,3.14-.78,3.84-3.12,1.7-5.59a19.14,19.14,0,0,0-1.84-2.32c-2-1.71-3.51-4.31-6.74-3.95l2.71-2,4.54,3c4-2.82,4-2.82,2-7.63l2.05,0c.83,4,2,7.83,5.39,10.5a22.71,22.71,0,0,0,3.5,1.93c.79-1.48,2.07-2.89,2.28-4.45.59-4.34-.54-8.28-4-11.24l4.1-2,.61.1,2.6,2.46,3.41-3.9.7-.65h3.28c2.48,2.84,2.6,2.82,6-1.33,5.43.42,10.86.88,16.29,1.25,1.87.13,3.76.06,5.63.08q2.63-4.68,5.23-9.37c2-6.29,2.42-12.59-.42-18.71-.69-1.51-2.34-2.58-3.55-3.85-.82,1.44-1.66,2.88-2.47,4.33-.1.18,0,.44-.08.65q-2,9.48-4,18.95l-3.34,4.68-2.69-.79c1.58-4.38,3.66-8.65,4.63-13.15A77.71,77.71,0,0,0,207,289.13a18.06,18.06,0,0,0,1.58,2.08c.63.65,1.7,1.78,2.08,1.61a4.17,4.17,0,0,0,2-2.27c1.1-3.49-1.23-5.54-5.24-4.77,0-.67.06-1.34.08-2C213,282,213,282,212.86,276.05c0-.33,0-.66,0-1,2.16,2.62,4.83,5,6.37,7.91,2.35,4.5,3.93,9.4,5.81,14l1.8-1.57c3,3.31,1.73,6.95,1.13,10.38-.4,2.31-1.77,4.67,2.36,4.63.18,0,.93,2.49.47,3.29a47.17,47.17,0,0,1-5.72,8.36C223.14,324.26,220.53,325.8,218.21,327.61ZM122.54,390c.88-1.09,2.33-2.08,2.51-3.27a88.1,88.1,0,0,0,.59-9.18l-10.37,3.76c-5-.14-9.89-.38-14.83-.37a3.93,3.93,0,0,0-2.88,1.53c-.29.44.53,2.17,1.28,2.66,3.17,2.06,6.31,4.39,9.81,5.63C113.2,392.37,118,391.78,122.54,390ZM169,365.36c0-3.74-2.86-5-4.61-6.77-2.08-2.16-6.25-2.44-8.2-.82-2.13,1.76-2.44,5.83-.56,8.47a9.75,9.75,0,0,0,2.28,2.38c2.64,1.84,5.62,2.31,8.39.66C167.56,368.54,168.15,366.7,169,365.36Zm-1.41-12.22.86.51a12.79,12.79,0,0,0,0,3,5.15,5.15,0,0,0,5.16,4.27c2.83.16,3.25-2.05,3.54-3.91.21-1.38-.38-2.93-.78-4.35-.82-2.89-3.22-4.62-5.89-3.58C169.24,349.56,168.58,351.72,167.62,353.14ZM181.38,331c-2.27,0-3.74,2.06-3.72,5.26,0,3.89,1.32,6,3.67,6,1.92,0,4.86-3.47,4.95-5.87S183.52,331,181.38,331Zm-8.51,37.84c-3.21,0-3.82.41-3.83,2.7s4.28,7.87,5.61,7.14a8.68,8.68,0,0,0,4-4.48C179.38,371.67,175.9,368.81,172.87,368.79Zm-26.23-4.31c1.93-1,3.69-1.32,4.5-2.4.58-.77.24-3.42-.32-3.65a29.61,29.61,0,0,0-7.58-1.73c-.22,0-1.47,3-1,3.8C143.25,362.11,145.13,363.18,146.64,364.48Zm-10.72-1.64c-3.16.53-3.94,2.16-4,4.19-.14,2.73,2.19,3.21,4,3.44,2.07.27,4-1.27,3.55-3.27C139.08,365.57,137.15,364.28,135.92,362.84ZM182.28,346l-1.72,0a18.27,18.27,0,0,0-1.51,4.05c-.31,2.4.06,4.94,3.06,5.21.84.07,2.75-1.93,2.62-2.71C184.33,350.28,183.15,348.15,182.28,346Zm1.59,21c-.2-1.52,0-2.54-.45-3-1-1.07-2.48-2.76-3.47-2.58-2,.37-2.45,2.24-1.48,4.19.29.59.39,1.36.84,1.77a26,26,0,0,0,2.88,2.07ZM212,284.65c1.78,1.38,3.18,2.51,4.67,3.5.11.08,1.35-1.17,1.29-1.25-1.17-1.69-2.46-3.29-3.73-4.91Zm6,11.78,1-.1c.39-.88,1.28-1.91,1.06-2.58-.33-1-1.44-1.78-2.21-2.65-.52.76-1.53,1.58-1.44,2.24C216.55,294.43,217.43,295.41,218,296.43Z"/><path class="cls-4" d="M147.78,441.11c6.9,1.32,13.75,3.06,20.71,3.76,3.4.34,7-1.29,10.5-2-1.07,1.42-2.06,2.91-3.24,4.24-4.33,4.9-8.75,9.73-13.08,14.65a31.91,31.91,0,0,0-2.34,3.47c-5.5-.67-11-1.48-16.49-2-6.78-.61-13.59-.94-20.38-1.44a10.16,10.16,0,0,1-2.16-.62c-.2-.5-.26-1.16-.62-1.5a22.26,22.26,0,0,1-7-12c-.1-.51-1.14-.83-1.75-1.25,8.89-1.43,17.77-2.89,26.66-4.27C141.61,441.7,144.7,441.46,147.78,441.11Z"/><path class="cls-5" d="M135.17,352.16l-3.31,5.36c-4.89-.49-9.81-.79-14.67-1.51a14.38,14.38,0,0,0-11,2.92c-2.84,2-5.61,4.18-8.52,6.11a4.8,4.8,0,0,1-6.34-1.53c5.94-1.38,8.51-4.32,7.79-9.35l-1.77.73c0-.44,0-.88,0-1.33-.09-5.72-2.43-7.21-7.79-5.16-3,1.14-6,2-9.09,2.86a6.14,6.14,0,0,1-2.39-.39c.9-.59,1.85-1.12,2.7-1.79,2.28-1.78,2.52-4.41.63-6.17a9.41,9.41,0,0,0-4-6.93A38.69,38.69,0,0,1,67,324.91c-1-1.62-2.29-3.07-3.45-4.59.41-3,2.59-1.93,4.33-1.87a8.47,8.47,0,0,0-.14,1.21c0,.06.33.13.5.2l.13-1.44,4.38,1.86-2.52.54c2.53,2.73,5,5.71,7.83,8.39,5.47,5.25,9.72,11.92,17,15.08,2.6,1.12,5.26,2.14,7.94,3a12.29,12.29,0,0,0,3.06.26l-.18-2.8q-1.2-5-2.41-10.08c-.42-1.77-.84-3.72,1.6-4.21,2-.4,4.29-.56,4.87,2.36-2,3.12-.94,7.4,2.22,11.35,3.28,4.11,7.89,5.87,12.41,7.9,2.52,1.13,4.94,1.74,7-.79Z"/><path class="cls-6" d="M196.6,435.19c4.07-3.94,9.41-3.33,14.34-3.69,5.48-.4,11-.09,16.67-.09-2.22-4.7-4.57-9.67-6.91-14.65,4.56-4.43,9.37-8.3,13.19-13,7.56-9.29,13.55-19.57,14.41-31.89.32-4.54-.54-9.16-.85-13.75l3.34,2c.67,2.76,1.43,5.49,2,8.27,2.31,11.21-.36,21.29-7.94,29.69-4.63,5.12-10.14,9.45-15.71,14.55,1.61,11.56,8.44,20.56,18.57,27.73-2.5-.41-5.1-.5-7.47-1.29-11.32-3.75-23-4.49-34.78-4.46C202.51,434.62,199.56,435,196.6,435.19Z"/><path class="cls-5" d="M173.63,295.82c-2.88-2.76-5.79-5.48-8.62-8.27-2.6-2.56-2.77-4.94-.65-7.27a14.83,14.83,0,0,0,7.15,10.15l.89-.57L170.66,287l-4.2-6.88c1.93,1.44,3.91,2.82,5.78,4.33a39.22,39.22,0,0,1,3.12,3.3c-.54-1.83-.82-2.81-1.11-3.78,3.22-2.28.74-4.78,0-6.93-3.13-9.33-6.53-18.56-9.84-27.83,1.5,2.14,3.11,4.22,4.46,6.46,1.12,1.85,1.58,4.18,3,5.76s3.48,2.15,4.53-.78c3.53-.06,5-1.48,5.33-5.55.23-2.84.15-5.7.2-8.55,1.38,2.26,3.38,4.36,4,6.8.72,2.9.63,6.21-2.2,8.49l-.62.11.62,1.22-.63,1.33-6.9,5.6.91,1.29,4.63-2.9c-.67,3-1.55,5.89-2,8.89-.86,6.34,1.64,12,3.95,17.67l-1.44,2.68c4.47-.31,7.37-2.51,10.12-5,1.76-1.58,2.76-3.38,1.2-5.7l2.15-3.26c2,.78,2.7,1.78,2.28,4.25-.67,3.95-3,6.7-5.24,9.64a14.67,14.67,0,0,0-1.5,3.63l0,0-.87-.32c-3.22,0-6,2.44-6,5-.09,4.78-.42,9.56-.64,14.34l-5.25.06.53-2.77,0-.64v-2a15.09,15.09,0,0,0,1.24-3.54c.12-1.16-.58-2.39-.51-3.56a17.21,17.21,0,0,0-5.65-14Z"/><path class="cls-7" d="M299.19,471.15c-.47.43-.88,1.08-1.44,1.25-2.39.74-4.83,1.33-7.24,2-2.24.92-4.49,1.81-6.71,2.77-2.82,1.23-5.62,2.51-8.44,3.77-.57-.37-1.12-1-1.73-1.08-9.51-1-19.12-1.3-28.51-2.94-6.26-1.1-12.24-3.91-18.26-6.19a56.55,56.55,0,0,1-6.81-3.65c5,.36,10.06.6,15.08,1.09,14.28,1.39,28.54,3,42.92,1.63a14.39,14.39,0,0,0,1.92-.44Z"/><path class="cls-4" d="M400.22,484.47c1-8.82-4-14.16-10.59-18.69-2.3-1.58-4.4-3.44-6.48-5.08l13.31-4.34c7,1.91,12.37,6.26,17.15,11.39a15.75,15.75,0,0,1,3.18,5.68c1.94,5.81-1.5,10.65-7.63,10.95C406.18,484.53,403.2,484.45,400.22,484.47Z"/><path class="cls-8" d="M385.68,343.47A36.58,36.58,0,0,1,383,349c-4.14,5.92-10,7.22-16.8,6-6.62-1.2-11.59-5-15.71-9.89-1.39-1.66-1.47-4.44-2.15-6.7,8.2.15,16.44-.18,24.57.65C377.28,339.49,381.44,341.93,385.68,343.47Z"/><path class="cls-2" d="M433.44,390.07q-.58-5.9-1.16-11.79c-.28-2.93-1.38-5.12-4.78-5.11,1.5-7.1-.21-10.36-6.67-12.75.35-7.94-1.13-15.1-9.33-18.89,0-3.38-.22-6.78.11-10.14a5.28,5.28,0,0,1,2.34-3.54c.57-.33,2.37,1,3.29,1.85,5.71,5.54,7.48,12.73,8.21,20.3.14,1.42,0,2.85,0,4.22,6.6,1.83,7.85,3.26,6.83,7.68-.48,2-1.05,4.05-1.57,6.07-.19.72-.39,1.43-.59,2.2,5.29-.16,7,1.16,7.1,6.64C437.31,381.48,437.09,386.34,433.44,390.07Z"/><path class="cls-9" d="M155,471c7.06,2.91,14.33,4.33,22,3.08.24,0,.55.3.84.47-4.55,3.29-9,6.79-13.66,9.83a113.63,113.63,0,0,1-13,7.15,18.07,18.07,0,0,1-6.71,1.37c-2.63.12-3.44-1.48-3-4.07.83-4.64,4.76-7,7.31-10.33C150.78,475.92,152.94,473.5,155,471Z"/><path class="cls-10" d="M275.36,480.91c2.82-1.26,5.62-2.54,8.44-3.77,2.22-1,4.47-1.85,6.71-2.77,1.53,2.54,2.92,5.18,4.63,7.59,1.88,2.65,4.05,5.08,6.09,7.61q-15.59,1.13-31.19,2.26c-2,.15-3.84.07-4.47-2.26a3.82,3.82,0,0,1,2.24-4.85C270.34,483.47,272.85,482.18,275.36,480.91Z"/><path class="cls-11" d="M111.89,446.44c.61.42,1.65.74,1.75,1.25a22.26,22.26,0,0,0,7,12c.36.34.42,1,.62,1.5a13.62,13.62,0,0,1-3.35.58c-8-.58-16-1.15-23.92-2-1.42-.16-3.59-1.56-3.78-2.68-.23-1.27,1-3.71,2.24-4.16C98.86,450.48,105.41,448.54,111.89,446.44Z"/><path class="cls-8" d="M342.4,339.53a15.07,15.07,0,0,1-2.35,13.07c-3.12,4.53-15.34,6-18.44,1.84-2.13-2.87-1.58-5.78-1.8-8.77,5.6-1.43,11.2-2.84,16.79-4.32C338.55,340.83,340.47,340.14,342.4,339.53Z"/><path class="cls-12" d="M183.69,295.06c-2.31-5.67-4.81-11.33-3.95-17.67.41-3,1.29-5.93,2-8.89l1.36-4,.63-1.33v-1.33c2.83-2.28,2.92-5.59,2.2-8.49-.61-2.44-2.61-4.54-4-6.8,1.36-.39,3.39-1.53,3.94-1,1.6,1.45,3.42,3.45,3.66,5.42a25.09,25.09,0,0,1-1,9A98.9,98.9,0,0,1,185,270.19c-1.79,4.81-.94,9.59.27,14.28a68.74,68.74,0,0,0,3.09,7.95Z"/><path class="cls-12" d="M91.35,363.51A4.8,4.8,0,0,0,97.69,365c2.91-1.93,5.68-4.07,8.52-6.11a14.38,14.38,0,0,1,11-2.92c4.86.72,9.78,1,14.67,1.51-.5,1.45-1,2.91-1.49,4.37-4.45-.6-8.9-1.19-13.34-1.8a14,14,0,0,0-12.73,4.51c-2.68,2.81-5.74,5-9.93,4.9-4.77-.11-6.85-3.37-5-8Z"/><path class="cls-12" d="M78.07,350.87a6.14,6.14,0,0,0,2.39.39c3.06-.84,6.12-1.72,9.09-2.86,5.36-2,7.7-.56,7.79,5.16,0,.45,0,.89,0,1.33-.24.43-.48.87-.73,1.3-.84-4.55-3.31-5.38-7.07-3.49-6,3-12.47,4.95-19.29,4-4-.56-6.27-5.49-4.34-9.07,1.69-3.14,4.5-1.44,6.93-.9-1.34.86-3.86,1.79-3.81,2.56.16,2.63,2.62,2.32,4.55,2.22C75.1,351.43,76.58,351.09,78.07,350.87Z"/><path class="cls-13" d="M105.93,344.8l.18,2.8a12.29,12.29,0,0,1-3.06-.26c-2.68-.91-5.34-1.93-7.94-3-7.31-3.16-11.56-9.83-17-15.08-2.8-2.68-5.3-5.66-7.83-8.39l2.52-.54c6.28,6.06,12.71,12,18.79,18.23C95.59,342.66,100.79,343.5,105.93,344.8Z"/><path class="cls-8" d="M309.93,349c-.25,6.44-2.43,8.65-8.73,9.28-3.06.3-6.22,2.18-8.87-.92a10.48,10.48,0,0,1-1.06-1.92Z"/><path class="cls-13" d="M131.65,351.33c-2.09,2.53-4.51,1.92-7,.79-4.52-2-9.13-3.79-12.41-7.9-3.16-4-4.19-8.23-2.22-11.35a23.06,23.06,0,0,1,2.13,3.26c3.56,8.13,10,12.64,18.38,14.65A6,6,0,0,1,131.65,351.33Z"/><path class="cls-13" d="M164.43,249.22c3.31,9.27,6.71,18.5,9.84,27.83.72,2.15,3.2,4.65,0,6.93l0-.05-.56-.82c-1.49-3.88-3-7.74-4.44-11.65-2.34-6.51-4.57-13-6.85-19.58l-.63-1.32-.05-1.33,2.67,0Z"/><path class="cls-14" d="M176.37,260.66c-1.05,2.93-3.13,2.4-4.53.78s-1.83-3.91-3-5.76c-1.35-2.24-3-4.32-4.46-6.46h0c-.89-1.1-1.78-2.21-2.68-3.31,1.58-3.44,4.57-3.6,6.79-.11,1.66,2.63,2.82,5.58,4.26,8.35C174,256.34,175.18,258.49,176.37,260.66Z"/><path class="cls-12" d="M63.57,320.32c1.16,1.52,2.44,3,3.45,4.59A38.69,38.69,0,0,0,77.43,336a9.41,9.41,0,0,1,4,6.93l-2,2.64c-1.27-2.28-2.24-4.82-3.88-6.79-2.47-3-5.92-5.2-8-8.36C65.55,327.46,64.83,323.71,63.57,320.32Z"/><path class="cls-12" d="M183.68,320.34c.22-4.78.55-9.56.64-14.34.05-2.54,2.8-5,6-5l.06.88c-1.39.59-2.64,1-1.77,3.15,1.93,4.87,1.45,9.8-.36,14.64l-.43.74-1.4.16Z"/><path class="cls-14" d="M191.26,301.32a14.67,14.67,0,0,1,1.5-3.63c2.28-2.94,4.57-5.69,5.24-9.64.42-2.47-.32-3.47-2.28-4.25l4-2.59c.87,1.6,2.56,3.23,2.5,4.79C201.91,293.36,197.64,298.17,191.26,301.32Z"/><path class="cls-8" d="M143.17,344.89a24.28,24.28,0,0,0,1.68,1.83c1.81,1.6,2.69,3.4,1.63,5.82s-3.06,1.74-4.79,1.23c-2-.58-3.89-1.49-5.83-2.25q3.24-3.74,6.49-7.45Z"/><path class="cls-15" d="M200.22,321.52l2.69.79,8.67,3.32c-1.87,0-3.76.05-5.63-.08-5.43-.37-10.86-.83-16.29-1.25-.44-1.33-.89-2.66-1.33-4h0Z"/><path class="cls-8" d="M96.68,375.44c.13,3.07-1.55,4.86-4.38,5.14-3.58.35-5.53-1.23-6.17-4.45a16.31,16.31,0,0,1-.12-2.62Z"/><path class="cls-16" d="M283.3,357.5c1.59,4.58-.47,8-4.66,8.08a3.45,3.45,0,0,1-3.77-2.85c-.6-2.15,1-2.48,2.65-2.81.43-.09.76-.7,1.13-1.08Z"/><path class="cls-13" d="M79.38,345.55l2-2.64c1.89,1.76,1.65,4.39-.63,6.17-.85.67-1.8,1.2-2.7,1.79-1.49.22-3,.56-4.46.64-1.93.1-4.39.41-4.55-2.22,0-.77,2.47-1.7,3.81-2.56h-.06c1.8,2.82,3.5,1.09,5.21-.11Z"/><path class="cls-15" d="M173.06,327.62l-4.1,2-4-1.88-3.17,5.14-2.05,0-.62-.05-.76-2.63c3.28-3.49,7.61-5.09,12-6.61Z"/><path class="cls-16" d="M84.67,385.52c.14-2,.79-4.32,3-3.83,2,.44,3.78,2.27,5.46,3.72.22.19-.6,1.82-1.16,2.63a16.91,16.91,0,0,1-2.18,2.22l-4.47-3.93-.69-.89Z"/><path class="cls-16" d="M212.86,275.06c0,.33,0,.66,0,1,.16,6,.16,6-5.32,7.71,0-2.14-.3-4.35.13-6.4a6.7,6.7,0,0,1,2.66-3.33C210.7,273.75,212,274.68,212.86,275.06Z"/><path class="cls-13" d="M173.63,295.82l.46-1.94a17.21,17.21,0,0,1,5.65,14c-.07,1.17.63,2.4.51,3.56A15.09,15.09,0,0,1,179,315q-2.34-9.14-4.69-18.29l-.71-.94Z"/><path class="cls-17" d="M173.06,327.62l-2.67-4,7.65-2c3,0,2.21,2.3,2.34,4l-.7.65-6,1.44Z"/><path class="cls-13" d="M96.64,356.19c.25-.43.49-.87.73-1.3l1.77-.73c.72,5-1.85,8-7.79,9.35l-2-2Z"/><path class="cls-13" d="M183.69,295.06l4.64-2.64,5.24-5.36c1.56,2.32.56,4.12-1.2,5.7-2.75,2.47-5.65,4.67-10.12,5Z"/><path class="cls-15" d="M143.17,344.89l-.82-.82,8.74-9.2,2.06,2a4.46,4.46,0,0,0,0,.63l-2.71,2-3.94,3.4Z"/><path class="cls-16" d="M207.46,285.78c4-.77,6.34,1.28,5.24,4.77a4.17,4.17,0,0,1-2,2.27c-.38.17-1.45-1-2.08-1.61a18.06,18.06,0,0,1-1.58-2.08Z"/><path class="cls-8" d="M109.35,376.3c-.41,3.3-2.77,4-5.48,3.77s-4.62-1.34-4.62-4.42Z"/><path class="cls-18" d="M317.88,489c0-.2,0-.39,0-.59l51.13,0c0,.19,0,.38,0,.57Z"/><path class="cls-16" d="M82.75,373.38c2.32,3.4,1.06,6.2-1.47,8.79a28.57,28.57,0,0,1-2.19-3.62c-1.13-2.63,0-4.56,3-5.64.23.17.45.35.67.53Z"/><path class="cls-13" d="M166.46,280.13l4.2,6.88,1.74,2.85-.89.57a14.83,14.83,0,0,1-7.15-10.15Z"/><path class="cls-17" d="M153.15,336.91l-2.06-2,7.32-4.62c.25.87.5,1.75.76,2.63Z"/><path class="cls-15" d="M180.38,325.63c-.13-1.71.66-4-2.34-4l.39-1.22,5.25-.06q1.38.14,2.76.24l-2.79,5.05Z"/><path class="cls-16" d="M410.89,348.18a15.43,15.43,0,0,1,1.91-1.8c.09-.06,1.23.83,1.18,1.19a4.29,4.29,0,0,1-1,2.57c-.63.55-1.77.52-2.68.74Z"/><path class="cls-5" d="M161.75,245.9c.9,1.1,1.79,2.21,2.68,3.31l-2.67,0Z"/><path class="cls-12" d="M78,346.61c-1.71,1.2-3.41,2.93-5.21.11Z"/><path class="cls-13" d="M68.39,318.42l-.13,1.44c-.17-.07-.5-.14-.5-.2a8.47,8.47,0,0,1,.14-1.21Z"/><path class="cls-5" d="M161.81,250.56l.63,1.32Z"/><path class="cls-5" d="M173.61,295.76l.71.94Z"/><path class="cls-3" d="M82.77,373.44c-.22-.18-.44-.36-.67-.53C82.33,373.08,82.55,373.26,82.77,373.44Z"/><path class="cls-14" d="M190.4,301.9l-.06-.88.87.32Z"/><path class="cls-3" d="M84.66,385.44l.69.89Z"/><path class="cls-13" d="M179,317l0,.64A.69.69,0,0,1,179,317Z"/><path class="cls-5" d="M173.73,283.11l.56.82Z"/><path class="cls-15" d="M187.84,320.43l.43-.74a1.09,1.09,0,0,1,.07.62h0A1.66,1.66,0,0,1,187.84,320.43Z"/><path class="cls-19" d="M299.19,471.15,280,469.33a12.4,12.4,0,0,1,2.23-2.66c3.3-2.2,4.24-5.43,4.45-9.09.59-10.31-2.28-19.83-7-28.83-3.16-6.08-6.69-12-10.24-17.86a15.51,15.51,0,0,1-1.74-11.47c.46-2.42,1.83-3.59,4.43-3.4,4.5.32,9,.64,13.53.64a129.94,129.94,0,0,0,13.52-.68c5.08-.54,9.33-3.09,13.23-6.29,1.3-1.06,2.73-2,4.1-2.94l.68.71-6.86,8.47c-7.9,9.72-13.6,20.31-12.35,33.34.72,7.53,3.79,14.15,8,20.57s10.17,10.44,16.37,13.88c4.53,2.5,10.26,2.88,15.49,4a22.79,22.79,0,0,0,4.82.06l.09,1c-2.91.34-5.81.88-8.73.95-5.86.15-11.73,0-17.59.08-1.41,0-2.81.5-4.22.62-1.6.14-3.21.08-4.81.17C304.65,470.77,301.92,471,299.19,471.15Z"/><path class="cls-20" d="M395.38,389.62c-2.17-1.18-4.34-2.38-6.52-3.54a6.37,6.37,0,0,0-1.76-.71c-2.69-.49-4.41-1.94-4.7-4.75a6.77,6.77,0,0,1,3.57-6.93c4.3-2.35,12.62-2.06,16,3.32,1.73,2.76,2.49,5.77,1,8.77s-4.21,3.25-7.13,3Z"/><path class="cls-20" d="M393.68,368.83c-5.35,0-8.05-3-8.1-8.94,0-3.24,4.9-7.72,8.41-7.65a7.8,7.8,0,0,1,7.6,7.92C401.57,365.05,398.13,368.82,393.68,368.83Z"/><path class="cls-20" d="M359.28,381.45c-4.75,0-8.94-3.81-8.73-7.92.16-3.14,3.23-5.44,7.17-5.38,2.82,0,6.47,5,6.5,8.92C364.25,380.56,363.25,381.46,359.28,381.45Z"/><path class="cls-20" d="M379.69,365.13c0,3.69-2.08,6.27-5.18,6.35-3.29.09-7.43-3.77-7.44-6.94,0-3,3.08-6.3,5.94-6.34C376.92,358.16,379.66,361,379.69,365.13Z"/><path class="cls-20" d="M349.19,364c-1.68-.58-3.66-.79-4.95-1.84s-2.47-3.23-2.06-4.22a8.53,8.53,0,0,1,4.24-4.11c2.72-1.15,7.31,1.09,8.83,3.66a4,4,0,0,1-2.9,6,24.5,24.5,0,0,1-3,0Z"/><path class="cls-16" d="M417.4,368.61c1.21-1.44,2.61-4.17,3.59-4,1.74.26,3.7,2,4.66,3.61a5.72,5.72,0,0,1,.06,5c-.67,1-3,1.55-4.58,1.4C418,374.32,418.39,371.49,417.4,368.61Z"/><path class="cls-21" d="M369,488.43l-51.13,0c.85-.45,1.7-1.28,2.55-1.29q23-.12,46.06,0C367.32,487.13,368.16,488,369,488.43Z"/><path class="cls-16" d="M416.58,361.29a53.34,53.34,0,0,1-1.81,6.21c-.67,1.53-1.95,1.92-2.83.07-1.09-2.29-3.86-4.43-1.11-7.26a32.78,32.78,0,0,1,3.32-2.63Z"/><path class="cls-16" d="M322.54,363.84c.14,1.74-.41,3-2.67,3-2.68,0-4.67-1.64-4.6-3.93.08-2.52,2.09-3,3.91-3.13C321.25,359.61,322.58,361.33,322.54,363.84Z"/><path class="cls-16" d="M407.72,375.43c1.07-.67,2.06-1.66,3.22-1.93,1.95-.47,3.48.68,3.07,2.63a4.6,4.6,0,0,1-2.89,3.05c-1,.18-2.28-1.42-3.44-2.23Z"/><path class="cls-22" d="M174.43,392.28c1-1.48,1.9-3,3-4.43,5.28-6.41,11.62-11.34,19.74-13.68,5.75-.77,10.7,1.61,15.65,4h0a7.21,7.21,0,0,0,.66,2.15c4.64,6.47,4,12.92.37,20.07-3.36,6.6-9.12,10.11-14.33,14.41-5,4.09-16.28,4.05-21.36.44-5.66-4-8.05-13.38-5.11-19.92C173.55,394.3,174,393.29,174.43,392.28Zm24-10.37,0,0c-4.07-1.71-7.49-.09-10.8,2.12-1.62,1.7-3.85,3.13-4.74,5.15-3.39,7.7-.95,8.38,5.35,7.63a21.84,21.84,0,0,0,2.31-.16c2.35-.52,3.54.49,3.92,3.21l-8.11,4.39c7.33.89,16.59-5.08,17.86-12l-6.94,5.91-1.85-2.75c1.36-3,2.82-5.64,3.8-8.49.42-1.21-.13-2.76-.24-4.16Zm3.26,21.8-.76-1.25-5.22,3.23.7,1.15Z"/><path class="cls-23" d="M212.85,378.15a37.46,37.46,0,0,1-3.15-3.89c-2.71-4.4-3.1-9-.65-13.67.65-1.25,1.26-2.51,1.89-3.77,3.49,1.3,6.7.51,9.78-1.32,7.49,1.46,10.83,11.72,7.75,17.47-1.88,3.52-3.55,7.39-8.21,7.32-2.47,0-4.92-1.38-7.38-2.14Zm12.05-16.87-.9.11c-.16.78-.36,1.55-.47,2.34-.7,5-4.57,7.49-9.29,6-.75-.23-1.71.24-2.57.39.61,1,1,2.53,1.88,2.94,3.16,1.48,6.78,1.57,9.39-.64a9,9,0,0,0,2.76-8.74A21.57,21.57,0,0,0,224.9,361.28Z"/><path class="cls-23" d="M153.61,398.16c2.89-.26,5.55-.89,8.68.24,7.72,2.79,9,14.35,6.1,19.53-1.41,2.5-7.58,4.44-10.71,3.65-8.08-2-10-6.5-11.18-14.27C149.55,407.2,153.61,402,153.61,398.16Zm.32,14.68c-1.39,2.32-.81,4,1.85,5.32,5.18,2.64,10.42-.52,11.81-7.29.23-1.1-.45-2.38-.72-3.57a12.31,12.31,0,0,0-2.09,2.65c-1.34,3.3-4.42,6-6.84,5.32C156.49,414.86,155.26,413.68,153.93,412.84Z"/><path class="cls-24" d="M154.08,437.91c-3.46,0-6.84-2.89-6.92-5.9-.14-5.23,4.25-9.39,9.92-9.39,4.26,0,6.76,2.66,6.68,7.12C163.68,434.61,159.76,437.92,154.08,437.91Z"/><path class="cls-24" d="M237,376.78c-4.57,0-6.94-2.17-6.83-6.17.14-5.41,4.31-9.87,9.15-9.77,4.42.09,6.88,2.7,6.78,7.18A8.88,8.88,0,0,1,237,376.78Z"/><path class="cls-3" d="M153.61,398.16c0,3.81-4.06,9-7.11,9.15-1.33-4.19.28-8.15,4.12-9.6C151.44,397.4,152.6,398,153.61,398.16Z"/><path class="cls-3" d="M220.72,355.5c-3.08,1.83-6.29,2.62-9.78,1.32.62-3.65,4.63-6.51,7.81-5.14C219.76,352.12,220.08,354.18,220.72,355.5Z"/><path class="cls-20" d="M169,365.36c-.88,1.34-1.47,3.18-2.7,3.92-2.77,1.65-5.75,1.18-8.39-.66a9.75,9.75,0,0,1-2.28-2.38c-1.88-2.64-1.57-6.71.56-8.47,1.95-1.62,6.12-1.34,8.2.82C166.17,360.4,169.05,361.62,169,365.36Z"/><path class="cls-25" d="M115.27,381.3l10.37-3.76a88.1,88.1,0,0,1-.59,9.18c-.18,1.19-1.63,2.18-2.51,3.27-.53-.39-1.23-1.23-1.57-1.1-4,1.51-7.62-.6-11.33-1.43-.89-.21-1.51-1.63-2.26-2.5a13.48,13.48,0,0,1,2.7-2.07A50.26,50.26,0,0,1,115.27,381.3Z"/><path class="cls-8" d="M161.84,332.9l3.17-5.14,4,1.88c3.51,3,4.64,6.9,4,11.24-.21,1.56-1.49,3-2.28,4.45a22.71,22.71,0,0,1-3.5-1.93C163.88,340.73,162.67,336.9,161.84,332.9Z"/><path class="cls-25" d="M211.58,325.63l-8.67-3.32,3.34-4.68c.5-.33,1.22-.55,1.47-1,1.3-2.38,2.41-4.88,3.75-7.23a11,11,0,0,1,2.22-2.14c.69.91,1.69,1.71,2,2.73a56.91,56.91,0,0,1,1.14,6.28Q214.2,320.94,211.58,325.63Z"/><path class="cls-26" d="M216.81,316.26a56.91,56.91,0,0,0-1.14-6.28c-.29-1-1.29-1.82-2-2.73a11,11,0,0,0-2.22,2.14c-1.34,2.35-2.45,4.85-3.75,7.23-.25.46-1,.68-1.47,1q2-9.47,4-18.95c.05-.21,0-.47.08-.65.81-1.45,1.65-2.89,2.47-4.33,1.21,1.27,2.86,2.34,3.55,3.85C219.23,303.67,218.84,310,216.81,316.26Z"/><path class="cls-26" d="M115.27,381.3a50.26,50.26,0,0,0-5.19,1.59,13.48,13.48,0,0,0-2.7,2.07c.75.87,1.37,2.29,2.26,2.5,3.71.83,7.29,2.94,11.33,1.43.34-.13,1,.71,1.57,1.1-4.55,1.79-9.34,2.38-13.89.76-3.5-1.24-6.64-3.57-9.81-5.63-.75-.49-1.57-2.22-1.28-2.66a3.93,3.93,0,0,1,2.88-1.53C105.38,380.92,110.32,381.16,115.27,381.3Z"/><path class="cls-20" d="M146.55,342.9l3.94-3.4c3.23-.36,4.74,2.24,6.74,3.95a19.14,19.14,0,0,1,1.84,2.32c2.14,2.47,1.44,4.81-1.7,5.59C153.3,352.37,146.74,347.24,146.55,342.9Z"/><path class="cls-20" d="M167.62,353.14c1-1.42,1.62-3.58,2.93-4.09,2.67-1,5.07.69,5.89,3.58.4,1.42,1,3,.78,4.35-.29,1.86-.71,4.07-3.54,3.91a5.15,5.15,0,0,1-5.16-4.27,12.79,12.79,0,0,1,0-3Z"/><path class="cls-20" d="M181.38,331c2.14,0,5,3.16,4.9,5.43s-3,5.88-4.95,5.87c-2.35,0-3.65-2.15-3.67-6C177.64,333,179.11,330.94,181.38,331Z"/><path class="cls-20" d="M172.87,368.79c3,0,6.51,2.88,5.79,5.36a8.68,8.68,0,0,1-4,4.48c-1.33.73-5.62-4.93-5.61-7.14S169.66,368.77,172.87,368.79Z"/><path class="cls-16" d="M146.64,364.48c-1.51-1.3-3.39-2.37-4.37-4-.5-.83.75-3.83,1-3.8a29.61,29.61,0,0,1,7.58,1.73c.56.23.9,2.88.32,3.65C150.33,363.16,148.57,363.53,146.64,364.48Z"/><path class="cls-20" d="M135.92,362.84c1.23,1.44,3.16,2.73,3.51,4.36.43,2-1.48,3.54-3.55,3.27-1.82-.23-4.15-.71-4-3.44C132,365,132.76,363.37,135.92,362.84Z"/><path class="cls-16" d="M182.28,346c.87,2.19,2.05,4.32,2.45,6.59.13.78-1.78,2.78-2.62,2.71-3-.27-3.37-2.81-3.06-5.21a18.27,18.27,0,0,1,1.51-4.05Z"/><path class="cls-16" d="M183.87,366.91l-1.68,2.46a26,26,0,0,1-2.88-2.07c-.45-.41-.55-1.18-.84-1.77-1-1.95-.49-3.82,1.48-4.19,1-.18,2.45,1.51,3.47,2.58C183.85,364.37,183.67,365.39,183.87,366.91Z"/><path class="cls-16" d="M153.15,336.91l6-4,.62.05c2,4.81,2,4.81-2,7.63l-4.54-3A4.46,4.46,0,0,1,153.15,336.91Z"/><path class="cls-17" d="M187.84,320.43a1.66,1.66,0,0,0,.49-.11c.44,1.32.89,2.65,1.33,4-3.4,4.15-3.52,4.17-6,1.33l2.78-5.05C186.91,320.54,187.37,320.49,187.84,320.43Z"/><path class="cls-16" d="M212,284.65l2.23-2.66c1.27,1.62,2.56,3.22,3.73,4.91.06.08-1.18,1.33-1.29,1.25C215.19,287.16,213.79,286,212,284.65Z"/><path class="cls-16" d="M94.64,392.79c-.08-.64-.39-1.36-.2-1.91A28.94,28.94,0,0,1,96,387.54c.89.73,2.49,1.45,2.49,2.19,0,1-1.12,2.08-2,2.9-.35.34-1.25.11-1.9.14Z"/><path class="cls-16" d="M218,296.43c-.57-1-1.45-2-1.6-3.09-.09-.66.92-1.48,1.44-2.24.77.87,1.88,1.63,2.21,2.65.22.67-.67,1.7-1.06,2.58Z"/><path class="cls-16" d="M173.67,327.72l6-1.44-3.41,3.9Z"/><path class="cls-13" d="M183.06,264.51l-1.36,4-4.63,2.9-.91-1.29Z"/><path class="cls-13" d="M183.69,261.85v1.33l-.62-1.22Z"/><path class="cls-27" d="M199,382.77c.11,1.4.66,3,.24,4.16-1,2.85-2.44,5.53-3.8,8.49l1.85,2.75,6.94-5.91c-1.27,6.94-10.53,12.91-17.86,12l8.11-4.39c-.38-2.72-1.57-3.73-3.92-3.21a21.84,21.84,0,0,1-2.31.16c-6.3.75-8.74.07-5.35-7.63.89-2,3.12-3.45,4.74-5.15l.07.88-3.25,5.21.72.5c3.62-2.18,7.25-4.37,10.85-6.6,0,0-.33-.62-.52-1l2.93-1.15,0,0Z"/><path class="cls-28" d="M187.73,384.94l-.07-.88c3.31-2.21,6.73-3.83,10.8-2.12l-2.93,1.15Z"/><path class="cls-24" d="M201.69,403.71l-5.28,3.13-.7-1.15,5.22-3.23Z"/><path class="cls-28" d="M199,382.77l-.59-.86Z"/><path class="cls-28" d="M224.9,361.28a21.57,21.57,0,0,1,.8,2.43,9,9,0,0,1-2.76,8.74c-2.61,2.21-6.23,2.12-9.39.64-.89-.41-1.27-1.93-1.88-2.94.86-.15,1.82-.62,2.57-.39,4.72,1.46,8.59-1,9.29-6,.11-.79.31-1.56.47-2.34Z"/><path class="cls-28" d="M153.93,412.84c1.33.84,2.56,2,4,2.43,2.42.68,5.5-2,6.84-5.32a12.31,12.31,0,0,1,2.09-2.65c.27,1.19.95,2.47.72,3.57-1.39,6.77-6.63,9.93-11.81,7.29C153.12,416.81,152.54,415.16,153.93,412.84Z"/><path class="cls-29" d="M187.73,384.94l7.8-1.85c.19.34.54,1,.52,1-3.6,2.23-7.23,4.42-10.85,6.6l-.72-.5Z"/></svg>