<svg id="Layer_1" data-name="Layer 1" xmlns="http://www.w3.org/2000/svg" viewBox="0 0 512 512"><defs><style>.cls-1{fill:#c16129;}.cls-2{fill:#f0d1ab;}.cls-3{fill:#b85823;}.cls-4{fill:#c2622a;}.cls-5{fill:#f8e0c2;}.cls-6{fill:#e5bf7e;}.cls-7{fill:#9d491b;}.cls-8{fill:#7e5e4c;}.cls-9{fill:#80604f;}.cls-10{fill:#964516;}.cls-11{fill:#c5652f;}.cls-12{fill:#9c491a;}.cls-13{fill:#432c1c;}.cls-14{fill:#422a1a;}.cls-15{fill:#ce6e3d;}.cls-16{fill:#775641;}.cls-17{fill:#eea770;}.cls-18{fill:#8b675a;}.cls-19{fill:#ef985b;}.cls-20{fill:#ee975b;}.cls-21{fill:#ed965a;}.cls-22{fill:#eec49b;}.cls-23{fill:#fbdfd2;}.cls-24{fill:#dfbb90;}.cls-25{fill:#f9b69c;}.cls-26{fill:#e6a080;}.cls-27{fill:#f6b196;}.cls-28{fill:#453124;}</style></defs><path class="cls-1" d="M252.75,273.18q-2.58,7.92-5.15,15.84l-.92-1.49-1,0c-.18,5.49-.84,11-.4,16.47.37,4.65,2,9.18,3.09,13.76-3,1.81-3.69,4.9-1.78,8.16,1.4,2.4,3.78,2.47,6.66.21l2.26,1.63c-2.85,5.31-1.52,10.23,1.5,14.76,2.51,3.78,8.63,5.88,12.32,4.63,3.4-1.14,5.24-4.39,5.4-9.53l2.75,0c.12,4.54,1.35,6,4.86,6.11s4.37-2.16,4.33-5.31l3.62-.83a39.56,39.56,0,0,0,5.48,2.5c5.33,1.55,12.26,1.11,11.49-6.26l8.48-.73.1-.06c1.57,6.48,6.12,10.07,11.48,12.2,6.69,2.66,14.71-.93,14-9.12l.13.06,6.94,3.76c-3.26-.3-5.91.58-6.66,4.42a7.71,7.71,0,0,0,3.9,8.44,11.1,11.1,0,0,0,7.55.85c2.5-.61,2.94-4.66,1.28-6.94-.71-1-1.34-2-2-3l1.6.71.3.18-.3-.18a17.35,17.35,0,0,0-1.6-3.52c-1.45-1.93-3.14-3.66-4.74-5.48,2.3-6.08,4.57-12.18,4.29-18.93,4.3.69,7.69,5.48,7.66,11.31,0,2.24.33,3.53,2.48,4.5,3.18,1.44,3.79,3.88,2.55,7.65-.47-1.26-.65-2.84-1.48-3.71s-2.53-1.88-3.67-1.7c-.8.13-1.88,2.2-1.82,3.34a6.84,6.84,0,0,0,1.83,4.39c2.09,1.87,3.53-.55,5.11-1.62,3.48,1.14,4.56,3.78,4.44,7.48a39.19,39.19,0,0,0,.74,6.23c-1,4.46-4.77,4.95-8.23,6.62,3,2.74,5.9,5.33,8.7,8.08,4.15,4.08,7.92,8.66,12.36,12.31,6.5,5.35,13.89,7.43,22.28,5.71,2.62-.54,6,.53,8.41,2,7.86,4.92,15.42,10.36,23.07,15.66.52.37.77,1.2,1.14,1.81.09,3.52.17,7,.25,10.55-11.65-7.93-25.94-10.64-36.18-21.48-.59.92-.87,1.31-1.1,1.73a14.54,14.54,0,0,0-.78,1.7c-3.88,10.22-10.94,16.8-20.27,21.27-11.3,5.42-22.9,5.17-34.55,2.62-8.61-1.88-16.25-6.08-21.2-14.37-4.22-7.06-5.94-14.64-3.17-22.93-.55,0-.81-.07-1,0a3.32,3.32,0,0,0-.85.65,14.92,14.92,0,0,0-4.39,11.49c0,1.87.31,3.8-2.37,4.16a133.21,133.21,0,0,1-38.25-.07c-6-.93-8.32-5.15-6.31-11.25.92-2.79,1.55-5.7,2.31-8.55l-1-.36c-.52.93-1,1.86-1.55,2.77-3.75,6.39-7.47,13-14.25,16.12a156.71,156.71,0,0,1-53.82,14.05c-15.08,1.23-30.3.69-45.22,4q-3.47-4.95-6.92-9.89c8.3-2.58,16.62-5,24.88-7.76,8-2.63,16-5.51,24-8.27l12.26-11c1.1-1.5,3-2.93,3.13-4.51.26-3.66-.35-7.39-.61-11.2L207.35,368c-1.48-7.74-.29-14.9,1.69-21.91,1.22-4.31,3.09-8.42,4.53-12.67,3-8.86,5.4-18,9-26.57,5.45-13.18,14.33-23.58,25.28-32ZM291,362.27c2.79-.76,4.81-1,6.6-1.86,5.3-2.45,6.05-8.52,1.52-12.25a14.06,14.06,0,0,0-12.73-2.68c-5.6,1.37-7.37,9.06-2.92,13C285.65,360.42,288.77,361.2,291,362.27Zm30.28-12.62c-2.68-.15-4.66.88-4.75,4.32-.1,3.66,3,7.09,6.4,7,2.58,0,4.28-2.16,4.25-5.31C327.12,352.08,324.82,349.65,321.25,349.65Zm-54.4,7.63c.61-.6,2.53-1.71,3.22-3.4s-3.56-5-5.94-4.85-4.2,1.09-4.33,4C259.69,355.53,262.05,357.27,266.85,357.28Zm69-9.71c-2.19,2-4.42,3.09-5,4.8-.76,2.3,2.62,4.66,6,4.9a3.15,3.15,0,0,0,3.48-4C339.86,351.4,337.8,349.94,335.85,347.57Zm16.76,31.62c.47-.73,1.83-2,2.1-3.42.41-2.3-3.2-6.8-4.69-6a6.59,6.59,0,0,0-2.88,4.34C346.72,377.1,348.89,379.29,352.61,379.19Zm-41-18.18c1.12-1.14,3.15-2.26,3.18-3.44a3.72,3.72,0,0,0-4.49-4c-1.6.3-4.1,2.05-4.16,3.26C306,359.82,308.56,360.33,311.61,361Zm1-12.87c1.08-1.3,3-2.55,3.08-3.92.27-4.67-3.9-2.12-5.85-3.34-.36-.23-2.87,1.87-2.82,2.8C307.15,346.57,309.39,347.37,312.58,348.14Zm43.9-16.45-2.27-2.44a35.33,35.33,0,0,0-3.48,5.36c-.25.56,1.11,2.77,1.76,2.79C355.38,337.46,355.82,334.91,356.48,331.69Zm-2.21,36.71c1.56-1.91,3.31-3.2,3.14-4a4.68,4.68,0,0,0-2.91-3.14c-.82-.17-2.65,1.65-2.83,2.79S353,366.35,354.27,368.4Zm-11.15-7.64-2.38,2.95a23.57,23.57,0,0,0,3.15,2.47c.26.15,1.63-1.11,1.56-1.28A37.32,37.32,0,0,0,343.12,360.76Z"/><path class="cls-2" d="M252.75,273.18l-4.95,1.69a5.77,5.77,0,0,0-1.8-.41c-5,.54-10.05,1.81-15,1.58-7.82-.36-15.6-1.74-23.4-2.66-3.16-.37-6.32-.66-9.48-1l-1.41-.75c-1.85-1-3.67-2-5.56-2.89-9.78-4.5-17.66-10.94-20.91-22.42-2.41-8.5-.41-16.35,2.79-24.06,1.41-3.4,3-6.74,4.45-10.11l5-3.34c10.1-.3,25.68,15.6,27.25,26.14-.61.38-1.23.74-1.82,1.16-9.7,6.86-9.66,17.52.31,23.8,6.86,4.31,14.39,4.68,21.82,2.1,6.76-2.34,10-8,9.12-14.67-.62-4.73-3.74-7.62-7-10.37a47.53,47.53,0,0,1,15.4-15.1c6-3.58,12.42-5.17,19.3-3.25,1.74,5.44,3.94,10.78,5.13,16.36,3.35,15.79-2.66,27.82-15.52,35.09a28.72,28.72,0,0,0-3.1,2.35l-.68.79Zm3.91-37.46c.28-3.42-2.17-4.19-4.41-4.86-1.64-.49-3.41-.4-3.69,2.16-1.89,1.1-4.19,1.8-5.6,3.39-3.44,3.87-2.61,10.88,1.33,14.51,3.28,3,8.07,2.22,11.56-2C259,245.23,259.25,240.7,256.66,235.72Zm-65.23-6.51c-.35-3.73-2.82-2.78-4.72-2.15s-4.35,1.4-2.85,4.64c-2.23,4.11-1.22,8.41-.66,12.68-1.41,0-3-.45-4.19.13a8.44,8.44,0,0,0-4,3.7c-.44,1.08.56,3.88,1.55,4.35a10.85,10.85,0,0,0,6.78,1c3.19-.83,2.71-4.2,2.69-7,1.57.77,3.09,2,4.73,2.22,5.26.78,8.53-3.47,9.27-9.86C200.6,233.91,196.51,229.54,191.43,229.21ZM264,256c0-3.49-1.7-4.84-5.68-4.84-2.92,0-4.81,1.16-4.94,4.49a5.56,5.56,0,0,0,5.3,5.37C262.11,261.05,264.07,259.2,264,256Z"/><path class="cls-3" d="M153.94,418.66c14.92-3.33,30.14-2.79,45.22-4A156.71,156.71,0,0,0,253,400.59c6.78-3.16,10.5-9.73,14.25-16.12.54-.91,1-1.84,1.55-2.77l1,.36c-.76,2.85-1.39,5.76-2.31,8.55-2,6.1.28,10.32,6.31,11.25a133.21,133.21,0,0,0,38.25.07c2.68-.36,2.41-2.29,2.37-4.16a14.92,14.92,0,0,1,4.39-11.49,3.32,3.32,0,0,1,.85-.65c.19-.09.45,0,1,0-2.77,8.29-1.05,15.87,3.17,22.93,4.95,8.29,12.59,12.49,21.2,14.37,11.65,2.55,23.25,2.8,34.55-2.62,9.33-4.47,16.39-11.05,20.27-21.27a14.54,14.54,0,0,1,.78-1.7c.23-.42.51-.81,1.1-1.73,10.24,10.84,24.53,13.55,36.18,21.48-.55,3-1.09,6-1.63,8.95-7.66-3.38-15.37-6.63-22.95-10.19-7.08-3.32-13.44-2.22-19.34,2.84a8.32,8.32,0,0,0-1.28,2,30.3,30.3,0,0,0-4,2.29c-7.56,5.92-16.27,8.24-25.37,9.15-13,1.31-24.93-2.15-35.92-9.61-2.34-1.58-4.95-2.71-7.43-4.05-1.75-3.39-4.12-6.05-8-6-5.76.09-11.52.67-17.28.71-12.58.09-25.13-.37-37.51,3.07-5.87,1.64-12,2.14-18,3.16-6.91.59-13.82,1.53-20.75,1.7-15.28.4-30.58.31-45.87.62-5.14.1-10.28.79-15.43,1.22Z"/><path class="cls-2" d="M208.15,381.76l-12.26,11L192,389.27c-.57-1-1.08-2-1.71-2.92-1.77-2.59-3.58-5.15-5.37-7.72a7,7,0,0,0,.29-2.5c-.92-3.25-2.11-6.41-3-9.67a12.53,12.53,0,0,1,.12-3.65l.78.13q1.62,4.95,3.23,9.89l.89-.21,3.33-13,2.22,5.44c3.51-6.35,7.23-12.44,10.26-18.89,1.51-3.21,1.74-7.1,2.55-10.68l-1.2-.36q-2.48,4.77-5,9.54l-.76-.28v-12a12.59,12.59,0,0,0-1.37,3.12c-2.77,6.44-3.52,14.5-12.31,17.14l3.35-15.95c-1.88,2.74-3.2,4.67-4.92,7.16-.64-4.11.17-7.38-1.93-10.54-1.2-1.79.36-5.51-.63-7.68-2.3-5-.06-9,1.57-13.17.94-2.4,3.71-5.1,3.19-6.82-1.06-3.53,1.23-5.11,2.24-7.3,1.51-3.24,3.76-6.07,5.45-9.22,2.64-5,6.35-9.57,5.46-15.93,2.35.76,4.66,1.69,7.06,2.24,5.95,1.36,11.94,2.56,17.91,3.81,3.63.75,4.8,2.68,3.55,6.44a58.68,58.68,0,0,1-3,6.8c-2.1,4.35-4.81,8.47-6.29,13.05-2.17,6.7-3.38,13.75-5.19,20.6-2.08,7.85-4.63,15.57-6.5,23.47-2,8.42-3.19,17-.6,25.61C206.43,377.41,207.34,379.57,208.15,381.76Z"/><path class="cls-4" d="M209.74,235c-1.57-10.54-17.15-26.44-27.25-26.14l0-2.26.69-.76c1-.48,2.08-.9,3.07-1.44,4.18-2.29,8.34-4.61,12.51-6.92l.92,1.05L200,198l-1.23-.59c1-1,1.91-2.07,2.86-3.1,4,2.48,5,2.15,6.95-2.28L211,193c-.92,3.65.35,6.66,2.6,9.23,1.87,2.13,4.08,1.72,4.33-1.05.32-3.46-.43-7-.72-10.55h2.15l.1,0c.77,1.48,1.37,4.06,2.34,4.23,2.39.4,3.21-1.82,3.32-4.15l.57-.1,2.19.78c-1.16,2.71-2.71,5.33-3.34,8.17-.43,2,1,3.68,3.28,2.76,3.4-1.33,5.47-6.34,4.34-10.15l2.78-.72a11.49,11.49,0,0,0-.38,2.56c.08,1.28.14,3.44.69,3.63A4.76,4.76,0,0,0,239,197c1.43-1,2.47-2.63,3.68-4a.83.83,0,0,1,.54-.27l4.39,2.52,3.21,2.26a71.79,71.79,0,0,0,5.38,5.24,3.56,3.56,0,0,0,3.07.44c3.76-1.51,7.43-3.29,11.13-5l4.28.77-5,3.83-10,3.68c5.22,8.2,5.26,8.22,10.55,4.76,5.18-1.84,8.31-5.81,10.27-11.07.94-2.51.17-3.59-2.29-3.45l-1.57,0c0-1.07,0-2.13,0-3.2l1.54-1.26L281,193.9l3.45,3.51,3.77,1.6c-1,2.35-2,4.69-3.05,7.19,2.74.22,2.44,1.79,1,3.68A21.56,21.56,0,0,1,270,218.49c-1.05.08-2.11.1-3.17.14-6.88-1.92-13.31-.33-19.3,3.25a47.53,47.53,0,0,0-15.4,15.1C224.88,234,217.48,232.34,209.74,235Zm25.14-23.77c.08-3-1.8-5.31-4.31-5.41s-5.3,3.48-5.5,7.28c-.13,2.44,2,5.28,4,5.34C231.49,218.47,234.79,214.34,234.88,211.19Zm-15.53-6-1.76.12c-.81,1.85-2.18,3.65-2.32,5.56-.2,2.75,1.48,5.07,4.15,5.12s3.64-2.71,3.21-4.87S220.49,207.17,219.35,205.21Zm9.85,17.89c-1-1.19-2.07-3.36-3.12-3.38-2.41,0-4,1.67-4,4.63,0,2.3.69,4.05,3.07,4.1C228.15,228.52,228.34,226.09,229.2,223.1Zm-27-22.24c.26,4.17,2.14,5.52,4.48,5.45.94,0,2.69-2.12,2.56-3-.34-2.3-.82-5.44-4-5C204,198.49,202.88,200.25,202.19,200.86Zm39.91.24c-.84-.57-2.73-2.19-3-1.94a26,26,0,0,0-4,5.5c-.1.17,1.64,2.24,2.44,2.17C240.14,206.63,241.68,204.82,242.1,201.1Zm6.84-2.1c-1.47,2.18-2.65,3.41-3.11,4.89-.15.49,2.07,2.51,2.34,2.34a12,12,0,0,0,3.46-3.6C251.82,202.34,250.36,200.88,248.94,199Zm-38.26,16.86,1.33,0c.55-1.19,1.7-2.52,1.5-3.53-.27-1.29-1.63-2.33-2.52-3.47-.72.93-2.08,1.9-2,2.78C209.06,213.06,210.06,214.45,210.68,215.86Zm6.87,2.55-1.28.05c-.39,1.12-1.23,2.34-1,3.33.24,1.23,1.34,2.28,2.06,3.41.65-.91,1.85-1.85,1.81-2.71C219,221.1,218.11,219.77,217.55,218.41Z"/><path class="cls-5" d="M198.8,273.16c.89,6.36-2.82,11-5.46,15.93-1.69,3.15-3.94,6-5.45,9.22-1,2.19-3.3,3.77-2.24,7.3.52,1.72-2.25,4.42-3.19,6.82-1.63,4.18-3.87,8.16-1.57,13.17,1,2.17-.57,5.89.63,7.68,2.1,3.16,1.29,6.43,1.93,10.54,1.72-2.49,3-4.42,4.92-7.16L185,352.61c8.79-2.64,9.54-10.7,12.31-17.14a12.59,12.59,0,0,1,1.37-3.12v12l.76.28q2.49-4.77,5-9.54l1.2.36c-.81,3.58-1,7.47-2.55,10.68-3,6.45-6.75,12.54-10.26,18.89l-2.22-5.44-3.33,13-.89.21q-1.6-4.95-3.23-9.89l-.78-.13a12.53,12.53,0,0,0-.12,3.65c.88,3.26,2.07,6.42,3,9.67a7,7,0,0,1-.29,2.5q-3.7-8.06-7.42-16.1l-4.71-26.35-2.83,1L172.66,322l-3.54,1.92c1.56-4.94,2.88-9.08,4.26-13.42l-1.48-.13-.15-.16c1.44-6.66,6.5-10.24,10.86-14.33,5.9-5.56,12.49-10.5,13.7-19.73.2-1.49.26-3,.38-4.49l1.41.75Z"/><path class="cls-6" d="M239.15,419.44c6-1,12.16-1.52,18-3.16,12.38-3.44,24.93-3,37.51-3.07,5.76,0,11.52-.62,17.28-.71,3.87-.06,6.24,2.6,8,6l-31.18,6.12c-8.94,0-17.89.34-26.81-.09C254.17,424.14,246.32,423.34,239.15,419.44Z"/><path class="cls-7" d="M134.81,375.91c6.34-2,12.67-4,19-5.9,4.48-1.35,9-2.55,13.49-3.82a10,10,0,0,1,1.21,2.18,35.5,35.5,0,0,0,10.6,17.4,56.16,56.16,0,0,0,5.48,3.92c-7-.19-14.07-.52-21.11-.51-5.95,0-11.91.41-17.86.64Z"/><path class="cls-7" d="M357.77,437.56c-9.59,6.58-20.11,8.17-31.29,7.11a52.26,52.26,0,0,1-31.15-14,24.1,24.1,0,0,1,4.57-1.42,92.24,92.24,0,0,1,10.5-.69c5.51,0,11.13-.37,16.5.62,6.78,1.25,13.35,3.76,20,5.64C350.52,435.81,354.16,436.64,357.77,437.56Z"/><path class="cls-8" d="M247.64,195.22l-4.39-2.52,3.14-2.79c.84-.06,2,.23,2.46-.24A21.53,21.53,0,0,0,256,175.58c.18-2.12.82-5.94-3.23-6.18-.33-2.29.26-4.4,2.59-4.34,1,0,2.26,2,2.85,3.37a43.31,43.31,0,0,1,1.71,6.36A20.15,20.15,0,0,0,268,163.58c2-6.8,3.45-13.77,5.48-20.56.48-1.58,2.16-3.56,3.56-3.84,2.52-.5,3.43,1.91,3.78,4.29a8.57,8.57,0,0,1,.17,2.61c-.69,3.81-1.59,7.58-2.21,11.4a62.29,62.29,0,0,0-.41,6.57l-2.29.06-.29-.17.29.17c.46,3.26,2.76,3.07,5,3a15.21,15.21,0,0,1-3.3,2.16c-2.33.75-4.83,1-7.14,1.78a3.82,3.82,0,0,0-2.14,2.53c-.12.74,1.11,1.72,1.75,2.59l0,1.56.25.75c.18.15.36.3.53.46-1.84.89-1.18,2,.08,2.45a28.23,28.23,0,0,0,5,.87c-1.8,4.58-5.42,3.16-8.45,2.56a12.51,12.51,0,0,0-12,3.64C253.15,191,250.32,193,247.64,195.22Z"/><path class="cls-9" d="M184,132.2c.7,1.29,1.8,2.49,2,3.86,1.75,9.71,3.33,19.46,5.14,30.31.8-3.12,1-5.27,1.9-7,.65-1.29,2.16-2.09,3.29-3.11a36.9,36.9,0,0,1,2.05,4.65,4.25,4.25,0,0,1-.57,2.51c-4.52,10.07-1.51,18.7,4.44,26.78l-1.32,1.21-2.83.79c-1.8-2.87-4-5.53-5.29-8.64-1.37-3.34-2.65-3.31-4.74-1.06l-2-.23a9.37,9.37,0,0,0-1.69-1.43,59.23,59.23,0,0,1-6.31-3.06c-1.67-1.09-3.24-2.67-1.94-5.23l6.41,2.23c1.51,0,3.55.61,4.4-.2s1-3.14.73-4.64c-1.32-6.89-5.24-11.82-10.7-15.61s-7.18-7.9-5.72-12.26c.85,1.23,1.68,2.48,2.58,3.67,1.51,2,2.87,4.52,5.91,2.62,1.13-.14,3,.09,3.25-.49a15.4,15.4,0,0,0,1.08-5.51C184.14,139,184,135.58,184,132.2Z"/><path class="cls-10" d="M357.77,437.56c-3.61-.92-7.25-1.75-10.84-2.76-6.68-1.88-13.25-4.39-20-5.64-5.37-1-11-.61-16.5-.62a92.24,92.24,0,0,0-10.5.69,24.1,24.1,0,0,0-4.57,1.42l-6.55-6L320,418.49c2.48,1.34,5.09,2.47,7.43,4.05,11,7.46,22.93,10.92,35.92,9.61,9.1-.91,17.81-3.23,25.37-9.15a30.3,30.3,0,0,1,4-2.29l1.85,1.77c-.23.56-.33,1.36-.73,1.62-5,3.23-10,6.35-14.94,9.56a28,28,0,0,0-2.77,2.37C369.69,432.61,363.62,433.57,357.77,437.56Z"/><path class="cls-11" d="M198.09,192.16l2.83-.79c.24,1,.49,2,.73,3-1,1-1.9,2.07-2.86,3.1h0c-4.17,2.31-8.33,4.63-12.51,6.92-1,.54-2,1-3.07,1.44l-.06-.07,2-3.74-4.85-3h0l-1.11-.84c-2.68-3.31-5.31-6.67-8.07-9.9a4.82,4.82,0,0,0-2.65-1.45c-.37-.06-1.22,1.09-1.37,1.81-.9,4.46,2.74,11.91,6.81,14.19l0,0,0,.75c1.42,1.1,2.92,2.11,4.24,3.32,1.61,1.48,2.94,1.08,4.28-.32l.05.05,0,2.26-5,3.34c-4.17-1.12-8.4-2.06-12.5-3.45-2.83-1-3.31-3-.84-5.3-2-2.79-5.53-4.54-5.05-9l2.57-.18a9.08,9.08,0,0,0-.21-1c-2.25-6.76-3-13.53-.23-20.35,1.37,5.47,2.54,6.2,6.48,4.07l1.55,2.35c-1,.73-2.59,1.29-2.86,2.25s.89,2.26,1.42,3.41l3.33-2.65c4.07,6,7.92,12.18,14.1,16.17,2,1.29,3.24,1.4,4.85-.31,1.46-1.55,3.1-2.91,4.65-4.36Zm-35.94-7.95,1.33.53c.42-1.13,1.17-2.26,1.14-3.38,0-.77-1.11-1.51-1.72-2.26l-.75.48Z"/><path class="cls-12" d="M376.08,436a28,28,0,0,1,2.77-2.37c5-3.21,10-6.33,14.94-9.56.4-.26.5-1.06.73-1.62l9.26,10A37.33,37.33,0,0,1,399.32,452Z"/><path class="cls-10" d="M184.61,389.69a56.16,56.16,0,0,1-5.48-3.92,35.5,35.5,0,0,1-10.6-17.4,10,10,0,0,0-1.21-2.18l10.21-3.66q3.71,8.06,7.42,16.1c1.79,2.57,3.6,5.13,5.37,7.72.63.93,1.14,1.95,1.71,2.92Z"/><path class="cls-2" d="M369.89,354.29a39.19,39.19,0,0,1-.74-6.23c.12-3.7-1-6.34-4.44-7.48a2.72,2.72,0,0,0,0-.7c1.24-3.77.63-6.21-2.55-7.65-2.15-1-2.49-2.26-2.48-4.5,0-5.83-3.36-10.62-7.66-11.31a64.5,64.5,0,0,1,.47-8.6c.61-3.35,2.47-3.85,4.68-1.4,4,4.45,5.54,10.08,6.11,16.06.12,1.23,0,2.48,0,3.72,6.19.11,6.9,2.43,4,12.45,4.33,0,5.23,1,5.2,6C372.55,348.14,373,351.8,369.89,354.29Z"/><path class="cls-13" d="M134.81,375.91l10.83,13.91c-8.61,2-16.74,1-24-4.68a6.06,6.06,0,0,1-2.1-3.85c-.06-.66,1.86-1.85,3-2.2C126.62,377.89,130.73,377,134.81,375.91Z"/><path class="cls-13" d="M153.94,418.66,157.1,423a26.19,26.19,0,0,1-23-4.66c-1.24-.92-1.8-2.87-2.67-4.35a17.44,17.44,0,0,1,3.7-2.2c3.94-1.14,7.94-2,11.92-3Q150.49,413.71,153.94,418.66Z"/><path class="cls-13" d="M399.32,452a37.33,37.33,0,0,0,4.46-19.52,41.23,41.23,0,0,1,10.4,21.14c.29,1.82-.66,3.87-1,5.81-1.71-.39-3.63-.38-5.1-1.25C405,456.4,402.21,454.13,399.32,452Z"/><path class="cls-14" d="M436.24,426c.54-3,1.08-6,1.63-8.95-.08-3.52-.16-7-.25-10.55a36.82,36.82,0,0,1,14,19.86,5.71,5.71,0,0,1-1,4.34c-.55.71-2.48.83-3.51.41C443.43,429.61,439.86,427.75,436.24,426Z"/><path class="cls-15" d="M248.4,317.71c-1.08-4.58-2.72-9.11-3.09-13.76-.44-5.44.22-11,.4-16.47l1,0,.92,1.49c.14,4.37-.16,8.82.53,13.09a40.91,40.91,0,0,0,11.75,22.47l-3.69,3.09-.65,0-2.26-1.63C253.57,321.05,252.88,319.86,248.4,317.71Z"/><path class="cls-16" d="M171.2,142c-1.46,4.36.35,8.52,5.72,12.26s9.38,8.72,10.7,15.61c.29,1.5.14,3.82-.73,4.64s-2.89.19-4.4.2c.61-.67,1.84-1.47,1.75-2-1.26-7.1-4.22-13-9.87-17.5-3-2.36-5.3-5.89-7.18-9.35-1.44-2.67.51-5.56,2.93-5.27C170.53,140.66,170.84,141.53,171.2,142Z"/><path class="cls-17" d="M316.12,328.27c8.49-1.46,16.61.2,24.56,3.3l.71.65,0-.05.12,3.93-.13-.06c-8.25-3.39-16.88-3.16-25.49-3.08l-.1.06C315.89,331.43,316,329.85,316.12,328.27Z"/><path class="cls-16" d="M247.64,195.22c2.68-2.22,5.51-4.27,8-6.71a12.51,12.51,0,0,1,12-3.64c3,.6,6.65,2,8.45-2.56l1.43-2.16c.72.37,2.08.81,2.05,1.11-.13,1.66-.16,4.29-1,4.72-2.53,1.25-5.68,2.71-8.18,2.11-6.4-1.54-11,1-15.21,5.51-1.33,1.41-2.86,2.59-4.3,3.88Z"/><path class="cls-16" d="M270.24,176.22c-.64-.87-1.87-1.85-1.75-2.59a3.82,3.82,0,0,1,2.14-2.53c2.31-.81,4.81-1,7.14-1.78a15.21,15.21,0,0,0,3.3-2.16l6.12-3.41-1.9-3.47c1.72-1.48,3.78-1.2,4.3.74s.29,5.63-.76,6.23c-4.32,2.46-9.11,4-13.67,6A43.12,43.12,0,0,0,270.24,176.22Z"/><path class="cls-17" d="M256.19,327.67l3.69-3.09,12,6.25,2.7,5.92c-1.38-.21-2.77-.33-4.14-.63C264.9,334.88,260.36,331.63,256.19,327.67Z"/><path class="cls-17" d="M288.84,332l14.92-2q1.44,1.86,2.87,3.73l-16.4,3.11C289.77,335.22,289.3,333.62,288.84,332Z"/><path class="cls-15" d="M288.84,332c.46,1.6.93,3.2,1.39,4.8l.09.69-3.62.83c-2.9-2.48-5.9-3.61-9.19-.8l-2.75,0c-.05-.27-.11-.55-.16-.82l-2.7-5.92Z"/><path class="cls-16" d="M184,132.2c0,3.38.19,6.75.07,10.12a15.4,15.4,0,0,1-1.08,5.51c-.25.58-2.12.35-3.25.49.1-1.7.3-3.39.28-5.09,0-3.13-.37-6.27-.22-9.39a4.5,4.5,0,0,1,1.91-2.84C182,130.75,183.16,131.76,184,132.2Z"/><path class="cls-18" d="M252.8,169.4c4.05.24,3.41,4.06,3.23,6.18a21.53,21.53,0,0,1-7.18,14.09c-.5.47-1.62.18-2.46.24A26.18,26.18,0,0,0,252.8,169.4Z"/><path class="cls-16" d="M198.09,192.16l-3.37,1.6-6.66-11.3c2.09-2.25,3.37-2.28,4.74,1.06C194.07,186.63,196.29,189.29,198.09,192.16Z"/><path class="cls-16" d="M176.08,172.51c-1.3,2.56.27,4.14,1.94,5.23a59.23,59.23,0,0,0,6.31,3.06,9.37,9.37,0,0,1,1.69,1.43,13.94,13.94,0,0,1-13.12-4.59c-.92-1-.57-3.35-.81-5.08Z"/><path class="cls-15" d="M306.63,333.71q-1.42-1.87-2.87-3.73l12.36-1.71c-.12,1.58-.23,3.16-.35,4.75l-8.48.73A4.87,4.87,0,0,1,306.63,333.71Z"/><path class="cls-15" d="M341.49,336.1l-.12-3.93,6.39,3.18c1.6,1.82,3.29,3.55,4.74,5.48a17.35,17.35,0,0,1,1.6,3.52h0l-1.6-.71-4.07-3.78Z"/><path class="cls-19" d="M242.71,193c-1.21,1.36-2.25,3-3.68,4a4.76,4.76,0,0,1-3.81.63c-.55-.19-.61-2.35-.69-3.63a11.49,11.49,0,0,1,.38-2.56l.21-1Z"/><path class="cls-18" d="M285.29,160.28l1.9,3.47-6.12,3.41c-2.22,0-4.52.21-5-3h0l2.29-.06C281.77,165.07,283.11,161.79,285.29,160.28Z"/><path class="cls-17" d="M201.65,194.33c-.24-1-.49-2-.73-3l1.32-1.21,6.39-1.19,0,3.08C206.64,196.48,205.61,196.81,201.65,194.33Z"/><path class="cls-4" d="M285.13,185.89l2.31-2c-.05,2.69-.58,5.74,3.52,5.26q-.42,3-.86,5.94c-.69-1-1.38-1.93-2.08-2.89-.93.81-1.89,1.59-2.78,2.46a5,5,0,0,0-.71,1.27l-2-2.18C286.17,192.19,286.79,189.48,285.13,185.89Z"/><path class="cls-19" d="M285.13,185.89c1.66,3.59,1,6.3-2.65,7.82l-1.44.19-2.82-1.67Z"/><path class="cls-15" d="M208.6,192.05l0-3.08,10-1.32c.23,1,.47,2,.7,3h-2.15c-3.28-2.82-4.69-.06-6.21,2.37Z"/><path class="cls-20" d="M284.53,195.89a5,5,0,0,1,.71-1.27c.89-.87,1.85-1.65,2.78-2.46.7,1,1.39,1.92,2.08,2.89l-1.21,3.13-.72.83h.09l-3.77-1.6C284.5,196.9,284.52,196.4,284.53,195.89Z"/><path class="cls-20" d="M167.68,176.9c-3.94,2.13-5.11,1.4-6.48-4.07C164.45,171.08,164.86,171.34,167.68,176.9Z"/><path class="cls-21" d="M171.12,182.26l-3.33,2.65c-.53-1.15-1.67-2.5-1.42-3.41s1.85-1.52,2.86-2.25Z"/><path class="cls-15" d="M235.12,190.38l-.21,1-2.78.72-4.28-.78-2.19-.78.12-2.12Z"/><path class="cls-19" d="M291,189.11c-4.1.48-3.57-2.57-3.52-5.26C291.24,183.93,292,185.05,291,189.11Z"/><path class="cls-17" d="M225.78,188.44l-.12,2.12-.57.1-5.66-.08-.1,0c-.23-1-.47-2-.7-3Z"/><path class="cls-19" d="M276.68,193.49c0,1.07,0,2.13.05,3.2l.09.78v0l-1.45.78,0,0-.75.8,0,0-4.28-.76Z"/><path class="cls-18" d="M277.53,180.15l-1.43,2.16a28.23,28.23,0,0,1-5-.87c-1.26-.46-1.92-1.56-.08-2.45l4.13.77C276,179.91,276.75,180,277.53,180.15Z"/><path class="cls-15" d="M341.39,332.22l-.71-.65Z"/><path class="cls-5" d="M171.9,310.35l-.4.27c.09-.14.17-.28.25-.43Z"/><path class="cls-1" d="M252.7,273.22l.68-.79Z"/><path class="cls-16" d="M270.52,178.53l-.25-.75Z"/><path class="cls-4" d="M288.17,199l.72-.83Z"/><path class="cls-22" d="M198.8,273.16l-.7-.77c3.16.33,6.32.62,9.48,1,7.8.92,15.58,2.3,23.4,2.66,5,.23,10-1,15-1.58a5.77,5.77,0,0,1,1.8.41c-11,8.38-19.83,18.78-25.28,32-3.55,8.59-6,17.71-9,26.57-1.44,4.25-3.31,8.36-4.53,12.67-2,7-3.17,14.17-1.69,21.91l3.32-1.93c.26,3.81.87,7.54.61,11.2-.12,1.58-2,3-3.13,4.51-.81-2.19-1.72-4.35-2.4-6.58-2.59-8.6-1.39-17.19.6-25.61,1.87-7.9,4.42-15.62,6.5-23.47,1.81-6.85,3-13.9,5.19-20.6,1.48-4.58,4.19-8.7,6.29-13.05a58.68,58.68,0,0,0,3-6.8c1.25-3.76.08-5.69-3.55-6.44-6-1.25-12-2.45-17.91-3.81C203.46,274.85,201.15,273.92,198.8,273.16Z"/><path class="cls-20" d="M291,362.27c-2.2-1.07-5.32-1.85-7.53-3.8-4.45-3.93-2.68-11.62,2.92-13a14.06,14.06,0,0,1,12.73,2.68c4.53,3.73,3.78,9.8-1.52,12.25C295.78,361.24,293.76,361.51,291,362.27Z"/><path class="cls-19" d="M274.6,336.75c0,.27.11.55.16.82-.16,5.14-2,8.39-5.4,9.53-3.69,1.25-9.81-.85-12.32-4.63-3-4.53-4.35-9.45-1.5-14.76l.65,0c4.17,4,8.71,7.21,14.27,8.45C271.83,336.42,273.22,336.54,274.6,336.75Z"/><path class="cls-19" d="M315.87,333c8.61-.08,17.24-.31,25.49,3.08.7,8.19-7.32,11.78-14,9.12C322,343,317.44,339.44,315.87,333Z"/><path class="cls-20" d="M348.43,339.86l4.07,3.78c.66,1,1.29,2,2,3,1.66,2.28,1.22,6.33-1.28,6.94a11.1,11.1,0,0,1-7.55-.85,7.71,7.71,0,0,1-3.9-8.44C342.52,340.44,345.17,339.56,348.43,339.86Z"/><path class="cls-20" d="M321.25,349.65c3.57,0,5.87,2.43,5.9,6.05,0,3.15-1.67,5.27-4.25,5.31-3.37.05-6.5-3.38-6.4-7C316.59,350.53,318.57,349.5,321.25,349.65Z"/><path class="cls-21" d="M266.85,357.28c-4.8,0-7.16-1.75-7.05-4.29.13-2.87,2.09-3.82,4.33-4s6.6,3.26,5.94,4.85S267.46,356.68,266.85,357.28Z"/><path class="cls-20" d="M306.63,333.71a4.87,4.87,0,0,0,.66,0c.77,7.37-6.16,7.81-11.49,6.26a39.56,39.56,0,0,1-5.48-2.5l-.09-.69Z"/><path class="cls-21" d="M335.85,347.57c1.95,2.37,4,3.83,4.46,5.73a3.15,3.15,0,0,1-3.48,4c-3.34-.24-6.72-2.6-6-4.9C331.43,350.66,333.66,349.58,335.85,347.57Z"/><path class="cls-20" d="M248.4,317.71c4.48,2.15,5.17,3.34,4.88,8.37-2.88,2.26-5.26,2.19-6.66-.21C244.71,322.61,245.39,319.52,248.4,317.71Z"/><path class="cls-20" d="M352.61,379.19c-3.72.1-5.89-2.09-5.47-5.1a6.59,6.59,0,0,1,2.88-4.34c1.49-.78,5.1,3.72,4.69,6C354.44,377.23,353.08,378.46,352.61,379.19Z"/><path class="cls-19" d="M277.51,337.54c3.29-2.81,6.29-1.68,9.19.8,0,3.15-.86,5.38-4.33,5.31S277.63,342.08,277.51,337.54Z"/><path class="cls-21" d="M311.61,361c-3.05-.68-5.62-1.19-5.47-4.2.06-1.21,2.56-3,4.16-3.26a3.72,3.72,0,0,1,4.49,4C314.76,358.75,312.73,359.87,311.61,361Z"/><path class="cls-21" d="M312.58,348.14c-3.19-.77-5.43-1.57-5.59-4.46-.05-.93,2.46-3,2.82-2.8,1.95,1.22,6.12-1.33,5.85,3.34C315.59,345.59,313.66,346.84,312.58,348.14Z"/><path class="cls-21" d="M364.74,339.88a2.72,2.72,0,0,1,0,.7c-1.58,1.07-3,3.49-5.11,1.62a6.84,6.84,0,0,1-1.83-4.39c-.06-1.14,1-3.21,1.82-3.34,1.14-.18,2.74.73,3.67,1.7S364.27,338.62,364.74,339.88Z"/><path class="cls-21" d="M356.48,331.69c-.66,3.22-1.1,5.77-4,5.71-.65,0-2-2.23-1.76-2.79a35.33,35.33,0,0,1,3.48-5.36Z"/><path class="cls-21" d="M354.27,368.4c-1.3-2-2.77-3.37-2.6-4.4s2-3,2.83-2.79a4.68,4.68,0,0,1,2.91,3.14C357.58,365.2,355.83,366.49,354.27,368.4Z"/><path class="cls-21" d="M343.12,360.76a37.32,37.32,0,0,1,2.33,4.14c.07.17-1.3,1.43-1.56,1.28a23.57,23.57,0,0,1-3.15-2.47Z"/><path class="cls-15" d="M354.1,344.35l.3.18-.3-.18Z"/><path class="cls-23" d="M209.74,235c7.74-2.62,15.14-1,22.43,2,3.26,2.75,6.38,5.64,7,10.37.87,6.68-2.36,12.33-9.12,14.67-7.43,2.58-15,2.21-21.82-2.1-10-6.28-10-16.94-.31-23.8C208.51,235.7,209.13,235.34,209.74,235ZM218,247.37c.43,1.18.87,2.35,1.48,4h-5.89c5,3.63,12.37,2.8,15-1.33l-6.86,1.78c-1-2.31-1.44-4,1.27-4.51l1.09-.52,1.72-.94c3.64-2,3.85-4.13.65-6.47-3.47-2.54-9.6-2.68-13.1-.33-1.77,1.19-2.55,2.55-1,4.52l4.54,3.22Z"/><path class="cls-24" d="M183.2,244.38c-.56-4.27-1.57-8.57.66-12.68l7.57-2.49c5.08.33,9.17,4.7,8.58,9.77-.74,6.39-4,10.64-9.27,9.86-1.64-.24-3.16-1.45-4.73-2.22l-1.37-1.47-1.45-.77Zm3.85-6.36c1.57,3.87,4,5.09,7,3.86,2.13-.86,4.18-2,3.37-6C194.16,238.48,191.4,243.34,187.05,238Z"/><path class="cls-24" d="M256.66,235.72c2.59,5,2.31,9.51-.81,13.24-3.49,4.18-8.28,5-11.56,2-3.94-3.63-4.77-10.64-1.33-14.51,1.41-1.59,3.71-2.29,5.6-3.39Zm-2,6.23c-4,6.88-7.52,1.16-11.53-1,.6,4.43,2.65,6,5.59,6.39C252.1,247.79,254,246,254.71,242Z"/><path class="cls-25" d="M184.64,245.15l1.37,1.47c0,2.76.5,6.13-2.69,7a10.85,10.85,0,0,1-6.78-1c-1-.47-2-3.27-1.55-4.35a8.44,8.44,0,0,1,4-3.7c1.16-.58,2.78-.12,4.19-.13h0Z"/><path class="cls-25" d="M264,256c0,3.18-1.93,5-5.32,5a5.56,5.56,0,0,1-5.3-5.37c.13-3.33,2-4.49,4.94-4.49C262.34,251.18,264,252.53,264,256Z"/><path class="cls-11" d="M256.66,235.72l-8.1-2.7c.28-2.56,2.05-2.65,3.69-2.16C254.49,231.53,256.94,232.3,256.66,235.72Z"/><path class="cls-11" d="M191.43,229.21l-7.57,2.49c-1.5-3.24.93-4,2.85-4.64S191.08,225.48,191.43,229.21Z"/><path class="cls-21" d="M234.88,211.19c-.09,3.15-3.39,7.28-5.77,7.21-2-.06-4.17-2.9-4-5.34.2-3.8,2.91-7.38,5.5-7.28S235,208.23,234.88,211.19Z"/><path class="cls-26" d="M270.31,211.23c-5.29,3.46-5.33,3.44-10.55-4.76l10-3.68a7.36,7.36,0,0,0,1.54.52c1,.12,2.12.12,3.18.17a26.12,26.12,0,0,1-1.38,3.55C272.28,208.5,271.25,209.83,270.31,211.23Z"/><path class="cls-20" d="M211,193c1.52-2.43,2.93-5.19,6.21-2.37.29,3.52,1,7.09.72,10.55-.25,2.77-2.46,3.18-4.33,1.05C211.32,199.65,210.05,196.64,211,193Z"/><path class="cls-21" d="M227.85,191.34l4.28.78c1.13,3.81-.94,8.82-4.34,10.15-2.33.92-3.71-.8-3.28-2.76C225.14,196.67,226.69,194.05,227.85,191.34Z"/><path class="cls-27" d="M270.31,211.23c.94-1.4,2-2.73,2.78-4.2a26.12,26.12,0,0,0,1.38-3.55c-1.06,0-2.13,0-3.18-.17a7.36,7.36,0,0,1-1.54-.52l5-3.83,0,0,.75-.8,0,0,1.45-.78v0l1.47-.76c2.46-.14,3.23.94,2.29,3.45C278.62,205.42,275.49,209.39,270.31,211.23Z"/><path class="cls-21" d="M219.35,205.21c1.14,2,2.85,3.8,3.28,5.93s-.57,4.92-3.21,4.87-4.35-2.37-4.15-5.12c.14-1.91,1.51-3.71,2.32-5.56Z"/><path class="cls-21" d="M229.2,223.1c-.86,3-1,5.42-4,5.35-2.38,0-3-1.8-3.07-4.1-.06-3,1.54-4.67,4-4.63C227.13,219.74,228.16,221.91,229.2,223.1Z"/><path class="cls-20" d="M202.19,200.86c.69-.61,1.76-2.37,3-2.56,3.19-.45,3.67,2.69,4,5,.13.9-1.62,3-2.56,3C204.33,206.38,202.45,205,202.19,200.86Z"/><path class="cls-21" d="M242.1,201.1c-.42,3.72-2,5.53-4.55,5.73-.8.07-2.54-2-2.44-2.17a26,26,0,0,1,4-5.5C239.37,198.91,241.26,200.53,242.1,201.1Z"/><path class="cls-21" d="M248.94,199c1.42,1.88,2.88,3.34,2.69,3.63a12,12,0,0,1-3.46,3.6c-.27.17-2.49-1.85-2.34-2.34C246.29,202.41,247.47,201.18,248.94,199Z"/><path class="cls-21" d="M210.68,215.86c-.62-1.41-1.62-2.8-1.71-4.25-.06-.88,1.3-1.85,2-2.78.89,1.14,2.25,2.18,2.52,3.47.2,1-.95,2.34-1.5,3.53Z"/><path class="cls-21" d="M217.55,218.41c.56,1.36,1.47,2.69,1.55,4.08,0,.86-1.16,1.8-1.81,2.71-.72-1.13-1.82-2.18-2.06-3.41-.19-1,.65-2.21,1-3.33Z"/><path class="cls-21" d="M219.43,190.58l5.66.08c-.11,2.33-.93,4.55-3.32,4.15C220.8,194.64,220.2,192.06,219.43,190.58Z"/><path class="cls-11" d="M284.53,195.89c0,.51,0,1,0,1.52L281,193.9l1.44-.19Z"/><path class="cls-11" d="M198.79,197.43,200,198l-.31.47-.92-1.05Z"/><path class="cls-11" d="M278.29,196.71l-1.47.76-.09-.78Z"/><path class="cls-11" d="M183.21,205.8l-.69.76-.05-.05.68-.78Z"/><path class="cls-18" d="M276.09,164.11l-.29-.17.29.17Z"/><path class="cls-26" d="M183.15,205.73l-.68.78c-1.34,1.4-2.67,1.8-4.28.32-1.32-1.21-2.82-2.22-4.24-3.32,0-.25,0-.5,0-.75l0,0c-.5-2.13-1-4.27-1.62-6.86l6.9,2.21,1.11.84-.15.31.15-.3,4.85,3Z"/><path class="cls-27" d="M179.21,198.14l-6.9-2.21c.61,2.59,1.12,4.73,1.62,6.86-4.07-2.28-7.71-9.73-6.81-14.19.15-.72,1-1.87,1.37-1.81a4.82,4.82,0,0,1,2.65,1.45C173.9,191.47,176.53,194.83,179.21,198.14Z"/><path class="cls-21" d="M162.15,184.21v-4.63l.75-.48c.61.75,1.7,1.49,1.72,2.26,0,1.12-.72,2.25-1.14,3.38Z"/><path class="cls-27" d="M173.91,202.76c0,.25,0,.5,0,.75C173.94,203.26,173.93,203,173.91,202.76Z"/><path class="cls-11" d="M276.83,197.45l-1.45.78Z"/><path class="cls-11" d="M275.42,198.19l-.75.8Z"/><path class="cls-28" d="M212.3,243.56c-1.58-2-.8-3.33,1-4.52,3.5-2.35,9.63-2.21,13.1.33,3.2,2.34,3,4.46-.65,6.47C221.49,243.47,216.81,244,212.3,243.56Zm2.28-1.93,10-1.32c-3-2.39-5.9-2.55-8.81-1.07-.6.3-.75,1.58-1.12,2.4l-.4-.16Z"/><path class="cls-14" d="M212.3,243.56c4.51.48,9.19-.09,13.42,2.28l-1.72.94-1.09.52c-2.71.49-2.25,2.2-1.27,4.51L228.5,250c-2.59,4.13-10,5-15,1.33h5.89c-.61-1.64-1.05-2.81-1.48-4l-1.11-.59Z"/><path class="cls-28" d="M222.91,247.3l1.09-.52Z"/><path class="cls-28" d="M216.84,246.78l1.11.59Z"/><path class="cls-13" d="M187.05,238c4.35,5.32,7.11.46,10.41-2.13.81,4-1.24,5.13-3.37,6C191.05,243.11,188.62,241.89,187.05,238Z"/><path class="cls-2" d="M184.64,245.15l-1.45-.77Z"/><path class="cls-14" d="M254.71,242c-.68,4-2.61,5.84-5.94,5.41-2.94-.39-5-2-5.59-6.39C247.19,243.11,250.75,248.83,254.71,242Z"/><path class="cls-27" d="M180.32,199l-.15.3.15-.31Z"/><path class="cls-23" d="M214.63,241.64c.36-.82.51-2.1,1.11-2.4,2.91-1.48,5.78-1.32,8.81,1.07l-10,1.32Z"/><path class="cls-23" d="M214.58,241.63l-.36-.15.4.16Z"/></svg>