<svg id="Layer_1" data-name="Layer 1" xmlns="http://www.w3.org/2000/svg" viewBox="0 0 512 512"><defs><style>.cls-1{fill:#b56637;}.cls-2{fill:#ebd2b0;}.cls-3{fill:#b66738;}.cls-4{fill:#f4e1c6;}.cls-5{fill:#ac5e32;}.cls-6{fill:#934d26;}.cls-7{fill:#7a6050;}.cls-8{fill:#775d4d;}.cls-9{fill:#ead1b0;}.cls-10{fill:#412c1e;}.cls-11{fill:#c27249;}.cls-12{fill:#725845;}.cls-13{fill:#e4a978;}.cls-14{fill:#85685a;}.cls-15{fill:#e29c69;}.cls-16{fill:#e19a65;}.cls-17{fill:#ac5d31;}.cls-18{fill:#e8c59f;}.cls-19{fill:#e29b66;}.cls-20{fill:#f7e0d4;}.cls-21{fill:#dabc96;}.cls-22{fill:#efb8a0;}.cls-23{fill:#dca485;}.cls-24{fill:#edb59c;}.cls-25{fill:#fefefe;}.cls-26{fill:#46352a;}.cls-27{fill:#e5e3e1;}</style></defs><path class="cls-1" d="M399.58,390.75c-2.11,4.9-6.29,6.48-11.17,6.93-1.21,6.33-2.86,12.62-3.54,19a41.09,41.09,0,0,1-17.15,29.89c-11,8-23.61,12.22-37.53,11.47-2.7-.15-5.41,0-8.12,0l-.28.9a43.72,43.72,0,0,0,4.41,3.42c4.93,3,10,5.71,14.92,8.68,3.78,2.27,4.93,4.75,4.14,8.13a8.64,8.64,0,0,1-7.85,6.61c-4,.32-8,.36-12,.8-1.08.12-2.05,1.24-3.07,1.89H291.81c-1.23-1.66-2.42-3.34-3.68-5-2.69-3.47-5.43-6.92-8.14-10.38a3.53,3.53,0,0,0,0-.46l16.57-2.44,2.07.14.09-.46-2.11-.71-13.86-8.4a13.52,13.52,0,0,0-1.15-2.28c-1.41-1.81-3.19-3.37-4.33-5.32-5.9-10.09-9.49-20.86-9.11-32.73.3-9.46,4.51-17.07,10.81-23.78,2.46-2.61,4.74-5.38,7.11-8.07a1.92,1.92,0,0,0-1.74.12q-4.34,2.31-8.66,4.66c1-2,1.86-3.91.21-6-1.93-2.49-6.72-3.85-9.27-2a5.58,5.58,0,0,0-1.95,4.36c.4,3.49,2.39,4.35,8.37,4.47-.29.47-.46,1.2-.87,1.37-6.73,2.88-13.65,5-21.08,4-1.84-.23-3.6-1.14-6.36-2.06,2.09,4.85,3.65,9,5.62,12.89,3,6.06,6.76,11.82,9.49,18,3.3,7.46,5.85,15.25,4.18,23.68-.48,2.47-.94,4.95-1.41,7.42a15.63,15.63,0,0,0-1.39,1.17c-3,3.26-6,6.53-9,9.8a21.8,21.8,0,0,0-3.26-.56c-8.12-.25-16.31.11-24.35-.81S208.86,466,201,464.46c-2.67-.52-5.62-.72-6.8,2.47-1.05,2.83.09,5.08,2.86,6.6,4.8,2.63,9.51,5.44,14.26,8.17L204.82,486a87.42,87.42,0,0,1-30.37-7.79c-4.22-2-5.8-6.85-4.32-11.35.56-1.73,1-3.49,1.51-5.24a22,22,0,0,1,2.48-2.78c2.15-1.72,4.41-3.29,6.63-4.92a7.32,7.32,0,0,0,2.1-.06c2.51-.84,4.91-2.2,7.47-2.63,8.43-1.4,16.8-3.82,25.49-2.17,5.61,1.06,11.23,2,16.77,3.38a97,97,0,0,1,9.53,3.34l.63-.77c-11.17-10-23.9-18.54-29.44-33.44l-1.07.41v15.54l-2-1.62c-5.12-10.06-6.48-20.84-5.66-32.3-1,.64-1.66,1.11-2.35,1.45s-1.56.62-2.57,1a60.58,60.58,0,0,1,4-29.83c1.67-4.26,3.38-8.52,4.82-12.86,2.28-6.85,4-13.92,6.57-20.63A93.64,93.64,0,0,1,240,306a7.72,7.72,0,0,0,1.19-2l12.06-3q-1.62,4.54-3.23,9.08c-.66.84-1.63,1.58-1.94,2.54a44.43,44.43,0,0,0-.35,26c.82,3,1.59,5.95,2.39,8.92a8.49,8.49,0,0,0-1.81,1c-1.93,1.8-2,4-1.12,6.32s1.84,5.21,5.2,5.11c2.42-.07,3.58-1.79,4-4q1,2.1,2.06,4.18c-3.19,8.6-1,15.21,6.67,20.21a12.17,12.17,0,0,0,12.49.95c4-1.92,5.58-5.6,5.18-10.05l3.41,0c0,4.68,1.85,6.94,5.59,7s5.48-2.08,5.44-6.2l3.57-1.54,1.25.16c3.74,1.57,7.35,3.91,11.24,4.54,6.16,1,9-1.87,8.94-7.41,0-.22.05-.44.07-.67l10.42-.72a3.7,3.7,0,0,0,.57.07c2.43,8.17,8.64,12,16.32,14,7.93,2,14.22-2.46,15.06-10.54l9,4.27a18,18,0,0,0-2.07-.12c-5.72.22-8.54,4.74-5.77,9.74a20.38,20.38,0,0,0,5.23,5.77c2.37,1.87,7.9,1.11,9.68-.89,1.95-2.2,1.57-5.57-.93-8.37,1.63-.7,1.6-1.58.45-2.82-2.67-2.91-5.27-5.89-7.89-8.84q2.38-7.36,4.79-14.72c1-.18,2.21-.06,2.76-.62s.24-1.79.32-2.73l-2.39-.14c0-1.6,0-3.21,0-4.81,8.63,3.16,9.41,10.38,9.19,18,6.63,2.39,8.71,6.32,6.05,11.26.12-2.82-.49-5.45-3.13-6.83-1.12-.59-3.89-.51-3.95-.24a18.31,18.31,0,0,0-.81,7.18c.16,1,2.58,2.12,4,2.21,1.26.08,2.6-1.21,3.91-1.9,3.27-.29,4.55,1.71,5,4.49C398.7,383.44,399.11,387.1,399.58,390.75Zm-99-11.14c-5.13,0-9,2.73-10,6.79A9.2,9.2,0,0,0,295.5,397c5.16,2.24,10.41,2.61,15.68.23s6.55-7.81,3-12.38S305.26,380.24,300.56,379.61Zm39.58,5.49c-4.11,0-6.66,1.91-6.65,4.94,0,3.68,4.77,8.36,8.38,8.22,2.92-.11,5.38-2.9,5.4-6.13C347.29,387.89,344.45,385.09,340.14,385.1ZM172.42,468.28c0,3.59,1.85,6.32,4.44,6.41,2.91.09,5.18-2.57,5.23-6.12,0-2.76-2.43-5.6-4.93-5.67C174,462.8,172.47,464.55,172.42,468.28Zm186-74.77c3.67,0,4.8-.94,4.8-4.19,0-2.93-2.19-4.88-5.5-4.88-4.08,0-6.28,1.38-6.24,3.9C351.53,391.37,354.34,393.46,358.42,393.51ZM370,414.08c2,2.21,3.41,4.42,5.39,5.55,1,.59,3.5-.26,4.71-1.22,3-2.36.46-4.6-.93-6.43-1.11-1.45-3.54-3.59-4.35-3.21C373,409.61,371.87,411.84,370,414.08Zm-43.81-24.79c-2.84,0-5.07,1.47-5.18,3.46-.14,2.6,2.53,4.84,6,4.82,2.42,0,4.77-.56,5-3.56C332.1,391.49,329.24,389.31,326.17,389.29Zm.52-6.33c5,.05,7.45-2.57,6.36-5.45-1.37-3.62-4.63-1.52-7-2.21a3.81,3.81,0,0,0-3.24,1,3.23,3.23,0,0,0-.12,3.14A26.82,26.82,0,0,0,326.69,383Zm56-18.54c-.26-.43-.95-1.63-1.64-2.83-1.18.69-2.72,1.12-3.45,2.13a11.84,11.84,0,0,0-1.76,4.7c-.37,2,.83,2.93,2.86,2.84C381.27,371.15,382.62,369.2,382.67,364.42Zm-1.06,41.44c1-1.37,2.76-2.64,2.95-4.11a3.57,3.57,0,0,0-3.79-4c-2.56,0-3.54,2.1-3.5,4.27C377.3,404,378.43,405.51,381.61,405.86Zm-15.8-8c-1.1,1.88-2.4,3.69-2.21,3.86a13,13,0,0,0,4.29,2.68c.45.16,1.44-1.18,2.19-1.84Z"/><path class="cls-2" d="M253.26,301.06l-12.06,3a6.33,6.33,0,0,0-2.1-.49c-4.16.52-8.3,1.52-12.47,1.62-3.67.08-7.37-.86-11.07-1.26-4.44-.48-8.9-.89-13.35-1.28-3.69-.33-7.39-.6-11.09-.9l-.25.88c1.83.91,3.57,2.22,5.51,2.65,8.05,1.77,16.16,3.3,24.26,4.87,4.25.82,5.52,2.59,3.58,6.48-3,6-6.71,11.73-9.75,17.76a86.93,86.93,0,0,0-5.25,13c-1.42,4.48-2.05,9.19-3.33,13.72-2.63,9.27-5.8,18.39-8.11,27.73-1.93,7.82-2.9,15.89-.38,23.85,1,3.2,2.47,6.26,3.59,9.43.84,2.37,1.27,4.9,2.22,7.22,2.11,5.2,4.44,10.32,6.67,15.46l-16.65,2.09c-1.88-2.44-3.64-5-5.64-7.28-5.36-6.21-10.33-12.68-13.14-20.48-2-5.5-3.62-11.13-5.4-16.71-.06-.19.07-.44.14-.82l1.77-.16c1.34,4.16,2.59,8,3.84,11.89l1.22-.22c1.18-5,2.36-10,3.77-16,1.26,3.11,2.08,5.16,3,7.33,3.33-4.21,3-9.75,7-13.68,3.22-3.14,5.05-7.92,6.8-12.25,1.23-3,1.29-6.54,1.88-9.84l-1-.15-7,12-.85-.32V367.13a3.89,3.89,0,0,0-1.24,1.77c-2.53,5.38-5,10.78-7.64,16.13a7.21,7.21,0,0,1-1.94,2.22c-3.24-2.27-2.78,1.87-4.3,2.52-.45.2-.5,1.36-.73,2.07l-.95-1q2.08-9.57,4.19-19.12l-.48-.15-4.65,7.09-.75-.42v-9.16l-1.74,1.14c-.44-1.73-.9-3.15-1.15-4.6-.71-4.14-2.06-8.33-1.8-12.41.4-6.16,3.17-11.7,6.87-16.72a5.79,5.79,0,0,0,.73-3c-2.12-.79-.66-1.82-.2-2.61,4.68-7.88,9.48-15.68,14.07-23.62,1.08-1.86,1.47-4.12,2.32-6.59l-3.92-.28c-.5-.44-1-1.12-1.53-1.27a43.88,43.88,0,0,1-23.69-16.09,26.58,26.58,0,0,1-5.38-13.19c-1.39-11.52,1.33-22.07,7-32a25.86,25.86,0,0,0,1.3-3.16,9.69,9.69,0,0,1,11.68-3.39,59.42,59.42,0,0,1,13.88,7.36c7.13,5,12.63,11.62,15.45,20.11-1,.74-2.08,1.43-3,2.23-10.64,8.94-10,18.71,1.25,25.77a28.63,28.63,0,0,0,20,3.84c6.78-1.11,13.16-3.19,17-9.71,2.41-4.07,2.88-8,.9-12.43-1.91-4.23-5.23-6.86-9.08-9l3.07-4.52a51.58,51.58,0,0,1,21.11-18.58c5.72-2.69,11.57-2.51,17.53-2.4a79,79,0,0,0,3.29,7.81,53.64,53.64,0,0,1,6.17,22.11A29.64,29.64,0,0,1,277.64,283a43.9,43.9,0,0,1-21.8,16.39A13.47,13.47,0,0,0,253.26,301.06Zm-7.78-32.73-.14.18.13-.19c.76,1.69,1.13,3.77,2.36,5,3.22,3.14,7.81,3.41,13.25-.92,4.69-3.75,5.18-12.71.83-16.37a10,10,0,0,0-.23-3.07c-1.21-2.93-3.86-3.28-6.6-3.28-2.4,0-2.74,1.64-2.68,3.55-5.41.77-10,6.58-9.08,11.91C243.51,266.27,244.73,267.26,245.48,268.33Zm-73-9.59c-1.63,4.85-2.45,9.42,1.49,13.87s10.13,5.72,14.75,2.68c3.78-2.48,5-10.53,2.8-14.75-2.33-4.42-6.16-5.82-10.54-6.66-.8-3-2.82-3.17-5.05-1.95C171.36,254.41,170.75,255.81,172.43,258.74Zm-2.15,28.5c3.93,0,7.74-3.14,7.69-6.38s-3.12-6-7.15-6.09-7.42,3-7.41,6.56C163.43,284.43,166.67,287.22,170.28,287.24ZM266,274c-3.9,0-6.15,1.87-6.16,5.22a7.74,7.74,0,0,0,7.31,7.27c3.18,0,6.45-2.75,6.53-5.47C273.81,277,270.61,274.09,266,274Z"/><path class="cls-3" d="M205,258.76c-2.82-8.49-8.32-15.07-15.45-20.11a59.42,59.42,0,0,0-13.88-7.36A9.69,9.69,0,0,0,164,234.68l-2.67.11-.78,0c-4.55-1-9.21-1.74-13.62-3.21-3.23-1.08-3.26-3.06-1.08-5.33l-8-10.12,4.2-.75a5.64,5.64,0,0,0-.15-.81c-2.26-7-4.24-14.09-2.77-21.6a20.66,20.66,0,0,1,.73-2.27,35.48,35.48,0,0,0,1.43,3.35c2.06,3.73,4.85,1.57,7.45.85l2.29,2.72c-2.07-.54-4-.69-4.24,2.18-.19,2.12.25,4.25,2.65,4.55,2.87.35,2.8-2,2.85-4l0-.69c5.67,8.52,12.6,15.62,22.18,19.76l-2.1,2.58-5.46-2.08a41.47,41.47,0,0,1-3.86-2.82c-3.63-3.32-7.14-6.78-10.77-10.1a10.17,10.17,0,0,0-2.58-1.27,10.45,10.45,0,0,0-.92,3.1c.2,7.57,4,13,10.38,16.74l0-.09.73.8,7.52,4c.62-.41,1.28-.77,1.85-1.23,5.23-4.19,10.43-8.39,15.65-12.59h3.44l1.2.87.2-2.93-.07-1.39,2.84-.71c4.75,1.95,5.24,1.79,6.34-2l.61-.74,4.18-1.4c-.16.79-.61,1.65-.43,2.34a52.14,52.14,0,0,0,2.88,9.21c.47,1,2.9,1.66,4.19,1.38,1-.21,2-2.16,2.15-3.43.41-3.53.66-7.16-1.88-10.2l2.06-.68.1-.05c.43,2.24.6,4.69,3.95,4.23,3-.41,3-2.61,3-4.83l.61-.75,2.84.79c-3.06,2.42-3.13,6-3.41,9.4-.26,3,1.58,4.16,4.41,3.23,4.47-1.48,6.54-8.56,3.71-12.7h4.2a10.09,10.09,0,0,0-.53,3c.17,1.38.38,3.23,1.3,3.89s2.9.14,3.83-.6a49,49,0,0,0,5.15-5.42,1,1,0,0,1,.61-.24l5.67,2.78c1.29.7,2.59,1.39,3.89,2.08l8.83,7,15.62-7.95,4.29,1L273,217.79l.05,0-.82.74-9.49,1.57c1.54,1.9,2.71,3.44,4,4.88,3.59,4.09,3.61,4.07,8.44,1.82,7.36-2.85,12-8,13.62-15.85.51-2.47-.77-3.44-3.18-2.53a17.16,17.16,0,0,0-2.12,1.12c0-1.63-.05-3.27-.07-4.9l1.38-1.45c3.6,2.32,5.55,2.11,8.33-.91,2.4-2.6,1.84-5.12-.23-7.59L296,192c-1.24,4,0,5.54,4.78,5.71-.16,1.65-.31,3.31-.47,5-2.07-.63-4.41-1.83-5.57,1.11-.64,1.63-1.34,3.94-.67,5.25,1.21,2.37,3.15.18,4.78-.26q-1.77,3.51-3.52,7c-.08-1,.15-2.22-.33-3a3.19,3.19,0,0,0-2.48-1.11c-.48,0-1.33,1.23-1.28,1.85a3.09,3.09,0,0,0,1.43,2.13c.73.37,1.78.09,2.69.1-.2.77-.4,1.54-.61,2.3,3.05.94,3.44,2.16,1.55,4.75-5.56,7.6-13.1,11.21-22.47,11.1-6-.11-11.81-.29-17.53,2.4a51.58,51.58,0,0,0-21.11,18.58l-3.07,4.52C223.14,255.93,214.14,255.41,205,258.76ZM233.47,229c0-3.12-2.61-6.19-5.28-6.17-3.45,0-6.57,4.33-6.51,9,0,2.91,2.44,5.52,5,5.48C230.1,237.19,233.45,233.09,233.47,229Zm-13.68,1.43-5.88-6.7c-1.49,1.39-3.93,2.6-4.24,4.22-.37,1.89.76,4.38,2,6.14.68,1,3.2,1.85,4.1,1.35C217.23,234.57,218.11,232.59,219.79,230.39Zm-18.22-8c0-3.34-2.65-6.63-5.13-6.63-3,0-3.51,2.39-3.73,4.51-.28,2.73,2.95,5.72,5.89,5.64C200.89,225.84,201.81,224.4,201.57,222.38Zm25,22c.1-2.51.11-5.14-3.2-5.39-2.33-.18-4.44,2.76-4.45,5.6s1.1,4.95,4,4.87S226.92,247.16,226.54,244.35Zm8.53-21c3.5.07,7.11-3.14,6.52-5.44-.36-1.37-2.3-2.33-3.52-3.48a56.66,56.66,0,0,0-5,6.28C232.78,221.1,234.62,222.79,235.07,223.35Zm16.7-8.14c-4.22-.51-5.55,1.26-5.4,3.64.07,1.07,2.57,3,2.78,2.89a16.4,16.4,0,0,0,4.3-4.25C253.68,217.13,252,215.48,251.77,215.21Zm-42.65,17-4.93-4.47c-.87,1.07-2.66,2.49-2.41,3.15.64,1.75,2.18,3.17,3.36,4.73Zm7.65,11.15-4.28-4.76c-.84,1-2.37,2.08-2.37,3.12,0,1.79.45,4.18,3.24,3.8C214.26,245.43,215.06,244.51,216.77,243.39Zm-76.55-42.61,3.19,3.8c.63-1.2,1.86-2.46,1.75-3.58-.15-1.38-1.41-2.64-2.18-4Zm5.06,5.09c-.68,1.71-1.37,2.61-1.25,3.38s1,1.46,1.6,2.18c.58-.68,1.66-1.4,1.62-2C147.19,208.47,146.31,207.61,145.28,205.87Z"/><path class="cls-4" d="M186.33,300.42l3.92.28c-.85,2.47-1.24,4.73-2.32,6.59-4.59,7.94-9.39,15.74-14.07,23.62-.46.79-1.92,1.82.2,2.61a5.79,5.79,0,0,1-.73,3c-3.7,5-6.47,10.56-6.87,16.72-.26,4.08,1.09,8.27,1.8,12.41.25,1.45.71,2.87,1.15,4.6l1.74-1.14v9.16l.75.42,4.65-7.09.48.15q-2.1,9.55-4.19,19.12l.95,1c.23-.71.28-1.87.73-2.07,1.52-.65,1.06-4.79,4.3-2.52a7.21,7.21,0,0,0,1.94-2.22c2.61-5.35,5.11-10.75,7.64-16.13a3.89,3.89,0,0,1,1.24-1.77v13.09l.85.32,7-12,1,.15c-.59,3.3-.65,6.8-1.88,9.84-1.75,4.33-3.58,9.11-6.8,12.25-4,3.93-3.7,9.47-7,13.68-.88-2.17-1.7-4.22-3-7.33-1.41,6-2.59,11-3.77,16l-1.22.22c-1.25-3.86-2.5-7.73-3.84-11.89l-1.77.16c-.07.38-.2.63-.14.82,1.78,5.58,3.41,11.21,5.4,16.71,2.81,7.8,7.78,14.27,13.14,20.48,2,2.32,3.76,4.84,5.64,7.28l-3.42.68c-3.93-5-7.94-9.95-11.76-15-2.26-3-4.24-6.2-6.34-9.3-1.77-4.21-3.75-8.33-5.27-12.63-3.44-9.73-7.05-19.42-7.27-30-.08-3.89-.62-7.76-1-12l-3.1,1.73-1.09-.27c1.08-5.93,2.16-11.85,3.32-18.25-1.08.81-2.06,1.53-3.53,2.64-.18-5.92,2.39-10.5,4.76-15.15,0-.1.1-.21.14-.31l-.16.29-2.76,0h0c1-6,5.55-9.49,9.57-13.34,5.36-5.14,11-10,16-15.5C183.7,307.76,184.7,303.81,186.33,300.42Z"/><path class="cls-5" d="M322.32,488.47c1-.65,2-1.77,3.07-1.89,4-.44,8-.48,12-.8a8.64,8.64,0,0,0,7.85-6.61c.79-3.38-.36-5.86-4.14-8.13-4.93-3-10-5.72-14.92-8.68a43.72,43.72,0,0,1-4.41-3.42l.28-.9c2.71,0,5.42-.13,8.12,0,13.92.75,26.5-3.43,37.53-11.47a41.09,41.09,0,0,0,17.15-29.89c.68-6.4,2.33-12.69,3.54-19,1.25,9.55.11,19-1.69,28.34-2.16,11.24-8.21,20.15-16.65,27.57-2.16,1.9-4.63,3.44-7,5.15L349.32,463c2.09,1.37,4,2.55,5.83,3.83,6.45,4.47,12.66,9.13,11.6,18.37-2.93,3.75-6.92,4.26-11.37,4.1C344.37,488.9,333.34,488.74,322.32,488.47Z"/><path class="cls-6" d="M171.71,423.22c2.1,3.1,4.08,6.31,6.34,9.3,3.82,5.08,7.83,10,11.76,15l-9.06,6.33c-2.22,1.63-4.48,3.2-6.63,4.92a22,22,0,0,0-2.48,2.78c-5.61-2-11.82-2.19-16.78-6.32-4.16-3.47-5.27-7.69-4.47-12.57,1-6.33,5.35-10.53,10.38-13.84C164.18,426.6,168.05,425.07,171.71,423.22Z"/><path class="cls-7" d="M173.8,199.08l-2.05,0c-.52-.48-1-1.2-1.58-1.39-2.49-.78-5.18-1.08-7.52-2.16-3.15-1.45-5.8-3.64-6.2-7.52l7.06,1.81-3.47.51c4.61,3.57,12.87,4.37,15.5.53l-3.12-.18c1.62-5.33-.94-9.59-3.7-13.69-1.83-2.73-4-5.22-6-7.81l3.32-.84-.23-1-8.65-1c-5.78-2-8.28-5.92-8.31-13.1,1.07,1,2.19,1.9,3.2,2.94,1.62,1.67,2.91,3.85,4.82,5,2.22,1.35,3.79-.29,4.63-2.47l1.13,2.63c3.39-1.94,3.68-2.56,2.71-5.7a29.12,29.12,0,0,1-.49-15.79c.87,1.4,2.15,2.69,2.53,4.22,2.79,11.21,5.4,22.47,8.08,33.71a15.69,15.69,0,0,0,.89,2c.61-3.15,1-5.81,1.69-8.37.28-1,1.32-1.79,2-2.68-.14,2-.21,4.1-.44,6.14s-.75,4.05,1.7,5.23c1.74-4.1,1.13-9.28-1.25-11.39,1.89-1.15,3.7-.63,4.26,1.84a10.54,10.54,0,0,1-.48,5.93,22.61,22.61,0,0,0,.8,19.29c1.94,3.95,4.51,7.59,6.8,11.36l-1.15,1.35-3.14.88a17.56,17.56,0,0,1-8.27-10.07C178,197,175.81,196.91,173.8,199.08Z"/><path class="cls-8" d="M248.08,209.44l-5.67-2.78,3.64-3.4c1.06-.29,2.53-.24,3.11-.93,1.79-2.16,3.8-4.42,4.71-7a41.65,41.65,0,0,0,2.36-11.56c.14-2.48-.52-5.52-4-6.23,0-1-.25-2.3.25-3a4.92,4.92,0,0,1,3-1.71c.65-.08,1.78.9,2.13,1.66,1.16,2.49,2,5.13,3.13,7.64.25.58,1.13.88,1.73,1.31l.64,4c2.22-3,3.94-5.11,5.41-7.36,6.88-10.61,6.49-23.07,9.08-35.14l-2,.7c-.28-3.36,2-5,4.64-5,2.94-.06,3.88,2.7,3.74,5.21-.37,6.6-1.08,13.17-1.52,19.77a19.43,19.43,0,0,0,.6,4.22l-3.38.49c1.64,3.91,4.66,2.82,7.16,3.07-1.32.93-2.52,2.2-4,2.73-2.55.92-5.39,1.11-7.88,2.17a6.23,6.23,0,0,0-3.13,3.57c-.26.86,1.28,2.25,2,3.41l1.38,2.62-2.65.34c2.66,3.17,2.66,3.17,9.4,3.22-1.57,3.31-5.66,4.76-10.29,3.87-5.56-1.08-10.4.24-14.36,4.52C254.39,203.11,251.2,206.25,248.08,209.44Z"/><path class="cls-6" d="M366.75,485.21c1.06-9.24-5.15-13.9-11.6-18.37-1.84-1.28-3.74-2.46-5.83-3.83l13.79-4.27a94.24,94.24,0,0,1,9.2,4.79,58.11,58.11,0,0,1,7.28,6.24c2.94,2.73,4.35,7.86,2.93,10.93-1.74,3.78-5.08,4.57-8.89,4.43C371.35,485.05,369.05,485.17,366.75,485.21Z"/><path class="cls-9" d="M393.12,374.89c2.66-4.94.58-8.87-6.05-11.26.22-7.64-.56-14.86-9.19-18,.13-3.11.1-6.23.49-9.31.15-1.13,1.27-3,2-3a5.85,5.85,0,0,1,4.18,1.66A30.82,30.82,0,0,1,391.7,355c0,1.12,0,2.25,0,3.42,5.22-.65,7.63,2.06,6.5,6.88q-.79,3.33-1.61,6.65c6.37,1.93,7.69,4,6.19,10.92-.59,2.72-2.11,5.25-3.2,7.87-.47-3.65-.88-7.31-1.44-10.95-.42-2.78-1.7-4.78-5-4.49A1.18,1.18,0,0,0,393.12,374.89Z"/><path class="cls-9" d="M252.21,470.5c3-3.27,6-6.54,9-9.8a15.63,15.63,0,0,1,1.39-1.17l12.55,2.08c1,2.37,1.92,4.76,2.93,7.12.57,1.33,1.26,2.62,1.9,3.93a3.53,3.53,0,0,1,0,.46l-6.88,2.37c-4.22.32-8.44.87-12.67.91-7.31.07-14.63-.16-21.94-.33-.54,0-1.06-.66-1.58-1C242.16,474,247.82,474.4,252.21,470.5Z"/><path class="cls-5" d="M252.21,470.5c-4.39,3.9-10.05,3.53-15.29,4.56-5.48-.59-11-1-16.44-1.83-5.22-.81-10.36-2.08-15.54-3.15l-.25,1,12.08,4.3-5.47,6.31c-4.75-2.73-9.46-5.54-14.26-8.17-2.77-1.52-3.91-3.77-2.86-6.6,1.18-3.19,4.13-3,6.8-2.47,7.88,1.53,15.67,3.77,23.62,4.67s16.23.56,24.35.81A21.8,21.8,0,0,1,252.21,470.5Z"/><path class="cls-10" d="M273.11,475.49l6.88-2.37c2.71,3.46,5.45,6.91,8.14,10.38,1.26,1.63,2.45,3.31,3.68,5-10,.52-19.94,1.12-29.91,1.51-1.36,0-2.76-.92-4.14-1.41.63-1.44.87-3.42,2-4.22C264,481.2,268.62,478.41,273.11,475.49Z"/><path class="cls-11" d="M258.49,360.17q-1-2.09-2.06-4.18c0-.22,0-.45,0-.67,1.45-4.43-.41-7.35-4.91-7.67l-1.4,0c-.8-3-1.57-5.95-2.39-8.92a44.43,44.43,0,0,1,.35-26c.31-1,1.28-1.7,1.94-2.54,0,6.44-.72,12.95,0,19.29,1.2,10.16,6.36,18.56,13.84,25.5a11,11,0,0,1,.89,1l-4.93,3.49Z"/><path class="cls-12" d="M162.69,169.23c2,2.59,4.2,5.08,6,7.81,2.76,4.1,5.32,8.36,3.7,13.69l-6.27,0,2.67-.17c-2-9-5.39-16.73-14-21.37-4.38-2.35-8.71-5.31-9.77-10.8-.28-1.46.31-3.1.5-4.66l1.21-.47,2.08.13c0,7.18,2.53,11.12,8.31,13.1Z"/><path class="cls-10" d="M211.3,481.7l5.47-6.31c5.06,1.82,10.16,3.55,15.17,5.48,3.1,1.2,3.23,3.43.51,5.67l-1.06-.07c-4.15-.22-8.3-.55-12.45-.61a49.53,49.53,0,0,0-6.27.64c0,.2,0,.4,0,.6L204.82,486Z"/><path class="cls-13" d="M333.33,366.44a3.7,3.7,0,0,1-.57-.07c.21-2.06.43-4.12.64-6.18,10.24-.63,20.34-.26,29.89,4.15q.65,2.4,1.31,4.81c-4.37-.88-8.71-2.2-13.12-2.53C345.46,366.17,339.38,366.47,333.33,366.44Z"/><path class="cls-12" d="M248.08,209.44c3.12-3.19,6.31-6.33,9.34-9.6,4-4.28,8.8-5.6,14.36-4.52,4.63.89,8.72-.56,10.29-3.87l1.39-3.46c3.31,1.76,4.06,5.71,1.13,7.71-2,1.36-4.56,2-6.94,2.63a8.18,8.18,0,0,1-3.78,0c-7.22-1.54-11.82,2.54-16.17,7.31-1.85,2-3.82,3.92-5.73,5.87C250.67,210.83,249.37,210.14,248.08,209.44Z"/><path class="cls-12" d="M273.94,185.27c-.73-1.16-2.27-2.55-2-3.41a6.23,6.23,0,0,1,3.13-3.57c2.49-1.06,5.33-1.25,7.88-2.17,1.47-.53,2.67-1.8,4-2.73a23.24,23.24,0,0,0,4.48-2.18,20.26,20.26,0,0,0,3-3.68l-4.56-1.26c1.81-2.2,3.63-4,6.41-1.13,2.31,2.38,2.38,4.93,0,7.58-4.17,4.7-9.88,6.4-15.65,7.72C277.58,181.16,275.08,182.11,273.94,185.27Z"/><path class="cls-13" d="M259.86,359.45l4.93-3.49c4.3,4.17,9.66,6.43,15.2,8.35l2.17,5.49c-.83.18-1.77.72-2.49.51C272.29,368.13,265,365.79,259.86,359.45Z"/><path class="cls-13" d="M302.09,370.63l-1.25-.16-1.47-5.36,19.51-2.8c1.15,1.6,2.31,3.19,3.46,4.78,0,.23,0,.45-.07.67-1.46.16-2.93.26-4.39.47C312.61,369,307.35,369.83,302.09,370.63Z"/><path class="cls-14" d="M275.69,145.64l2-.7c-2.59,12.07-2.2,24.53-9.08,35.14-1.47,2.25-3.19,4.35-5.41,7.36l-.64-4c9.32-9.66,9.93-22.43,12.31-34.57C275.05,147.8,275.4,146.72,275.69,145.64Z"/><path class="cls-11" d="M299.37,365.11l1.47,5.36L297.27,372c-3.55-2.06-7.1-4.23-11-.76l-3.41,0c-.22-.5-.45-1-.67-1.48L280,364.31c3.1.6,6.19,1.4,9.32,1.73a36.36,36.36,0,0,0,6.74-.31C297.17,365.63,298.27,365.32,299.37,365.11Z"/><path class="cls-12" d="M164.82,140a29.12,29.12,0,0,0,.49,15.79c1,3.14.68,3.76-2.71,5.7l-1.13-2.63c-.69-4.52-1.57-9-2-13.55S160.38,139.63,164.82,140Z"/><path class="cls-14" d="M252.27,177.55c3.44.71,4.1,3.75,4,6.23a41.65,41.65,0,0,1-2.36,11.56c-.91,2.57-2.92,4.83-4.71,7-.58.69-2,.64-3.11.93,2.14-5.1,4.75-10,6.22-15.33C253.17,184.73,252.33,181,252.27,177.55Z"/><path class="cls-12" d="M156.45,188.06c.4,3.88,3.05,6.07,6.2,7.52,2.34,1.08,5,1.38,7.52,2.16.61.19,1.06.91,1.58,1.39-6.78,1.63-12.7-.22-17.62-4.89-1-1-1.11-3.28-1-4.93C153.13,188.84,155.28,188.47,156.45,188.06Z"/><path class="cls-12" d="M173.8,199.08c2-2.17,4.2-2.07,5,.38a17.56,17.56,0,0,0,8.27,10.07l-1.59,1.91-1.91.9-.74-.06A24.66,24.66,0,0,1,173.8,199.08Z"/><path class="cls-11" d="M322.34,367.09c-1.15-1.59-2.31-3.18-3.46-4.78,4.21-.49,8.43-1,12.63-1.5a10.19,10.19,0,0,0,1.89-.62c-.21,2.06-.43,4.12-.64,6.18Z"/><path class="cls-11" d="M364.6,369.15q-.66-2.41-1.31-4.81l9.07,4.29c2.62,2.95,5.22,5.93,7.89,8.84,1.15,1.24,1.18,2.12-.45,2.82l-.61-.51-.69-.92-4.84-4.7-9-4.27C364.67,369.64,364.64,369.39,364.6,369.15Z"/><path class="cls-15" d="M241.8,206.9a49,49,0,0,1-5.15,5.42c-.93.74-3.06,1.16-3.83.6s-1.13-2.51-1.3-3.89a10.09,10.09,0,0,1,.53-3l.06-1.42Z"/><path class="cls-11" d="M182.88,212.28l.73.06c.45,1.36.89,2.71,1.33,4.07-5.22,4.2-10.42,8.4-15.65,12.59-.57.46-1.23.82-1.85,1.23q2.48-4.12,4.94-8.24l2.1-2.58Z"/><path class="cls-14" d="M289.89,166.27l4.56,1.26a20.26,20.26,0,0,1-3,3.68,23.24,23.24,0,0,1-4.48,2.18c-2.5-.25-5.52.84-7.16-3.07l3.38-.49a49.45,49.45,0,0,0,5-1.66C288.86,167.85,289.31,166.92,289.89,166.27Z"/><path class="cls-15" d="M292.88,194.66c2.07,2.47,2.63,5,.23,7.59-2.78,3-4.73,3.23-8.33.91Z"/><path class="cls-11" d="M212.65,206.71l-2.06.68c-3.79-3-4.09-3-6.91.7l-4.18,1.4-.15-4.35,13.27-1.84Z"/><path class="cls-16" d="M298.81,208.78c-1.63.44-3.57,2.63-4.78.26-.67-1.31,0-3.62.67-5.25,1.16-2.94,3.5-1.74,5.57-1.11C299.78,204.71,299.29,206.75,298.81,208.78Z"/><path class="cls-15" d="M148.72,194.93c-2.6.72-5.39,2.88-7.45-.85a35.48,35.48,0,0,1-1.43-3.35c1.82-2.78,3.73-2.66,5.67-.13C146.6,192,147.65,193.49,148.72,194.93Z"/><path class="cls-13" d="M199.35,205.14l.15,4.35-.61.74-6.42,1.39-2.21-3,1.15-1.35Z"/><path class="cls-16" d="M152.3,199.65l0,.69c-.05,2,0,4.39-2.85,4-2.4-.3-2.84-2.43-2.65-4.55.27-2.87,2.17-2.72,4.24-2.18l-.08,0c.27.48.55,1,.83,1.43Z"/><path class="cls-14" d="M283.46,188l-1.39,3.46c-6.74,0-6.74,0-9.4-3.22l2.65-.34Z"/><path class="cls-14" d="M166.15,190.68l6.27,0,3.12.18c-2.63,3.84-10.89,3-15.5-.53l3.47-.51h-.06l1.47.82Z"/><path class="cls-16" d="M283.4,204.61c0,1.63,0,3.27.07,4.9v0l-.71.71v0l-.72.73,0,0-1.43.73,0,0-4.29-1Z"/><path class="cls-15" d="M300.74,197.72c-4.74-.17-6-1.7-4.78-5.71C299.94,191.21,301.09,192.59,300.74,197.72Z"/><path class="cls-11" d="M232.11,204.61l-.06,1.42h-4.2l-4.71.07-2.84-.79v-2.07Z"/><path class="cls-13" d="M220.3,203.24v2.07l-.61.75-6.94.6-.1.05,0-3.41Z"/><path d="M231.39,486.47l1.06.07a61.83,61.83,0,0,1-6.31.71c-4.48.06-9-.09-13.45-.15,0-.2,0-.4,0-.6Z"/><path class="cls-16" d="M377.84,350.42l2.39.14c-.08.94.19,2.21-.32,2.73s-1.81.44-2.76.62Z"/><path class="cls-3" d="M151.76,199.05c-.28-.47-.56-1-.83-1.43C151.2,198.1,151.48,198.58,151.76,199.05Z"/><path class="cls-7" d="M164.92,190.69l-1.47-.82Z"/><path class="cls-2" d="M160.58,234.82l.78,0Z"/><path class="cls-4" d="M155.77,339.32l-.16.3.15-.31Z"/><path class="cls-7" d="M146.74,153.21l-1.21.47Z"/><path class="cls-17" d="M275.17,461.61l-12.55-2.08c.47-2.47.93-4.95,1.41-7.42,1.67-8.43-.88-16.22-4.18-23.68-2.73-6.19-6.44-11.95-9.49-18-2-3.92-3.53-8-5.62-12.89,2.76.92,4.52,1.83,6.36,2.06,7.43.93,14.35-1.17,21.08-4,.41-.17.58-.9.87-1.37l2.64-.78q4.33-2.34,8.66-4.66a1.92,1.92,0,0,1,1.74-.12c-2.37,2.69-4.65,5.46-7.11,8.07-6.3,6.71-10.51,14.32-10.81,23.78-.38,11.87,3.21,22.64,9.11,32.73,1.14,1.95,2.92,3.51,4.33,5.32a13.52,13.52,0,0,1,1.15,2.28Z"/><path class="cls-18" d="M209.88,444.78c-2.23-5.14-4.56-10.26-6.67-15.46-1-2.32-1.38-4.85-2.22-7.22-1.12-3.17-2.58-6.23-3.59-9.43-2.52-8-1.55-16,.38-23.85,2.31-9.34,5.48-18.46,8.11-27.73,1.28-4.53,1.91-9.24,3.33-13.72a86.93,86.93,0,0,1,5.25-13c3-6,6.74-11.72,9.75-17.76,1.94-3.89.67-5.66-3.58-6.48-8.1-1.57-16.21-3.1-24.26-4.87-1.94-.43-3.68-1.74-5.51-2.65l.25-.88c3.7.3,7.4.57,11.09.9,4.45.39,8.91.8,13.35,1.28,3.7.4,7.4,1.34,11.07,1.26,4.17-.1,8.31-1.1,12.47-1.62a6.33,6.33,0,0,1,2.1.49,7.72,7.72,0,0,1-1.19,2,93.64,93.64,0,0,0-25,36.68c-2.61,6.71-4.29,13.78-6.57,20.63-1.44,4.34-3.15,8.6-4.82,12.86a60.58,60.58,0,0,0-4,29.83c1-.39,1.82-.64,2.57-1s1.32-.81,2.35-1.45c-.82,11.46.54,22.24,5.67,32.3.54,2.08,1.15,4.15,1.61,6.25C212.13,443.61,212.43,445.26,209.88,444.78Z"/><path class="cls-5" d="M209.88,444.78c2.55.48,2.25-1.17,1.92-2.67-.46-2.1-1.07-4.17-1.61-6.25l2,1.62V421.94l1.07-.41c5.54,14.9,18.27,23.49,29.44,33.44l-.63.77a97,97,0,0,0-9.53-3.34c-5.54-1.34-11.16-2.32-16.77-3.38-8.69-1.65-17.06.77-25.49,2.17-2.56.43-5,1.79-7.47,2.63a7.32,7.32,0,0,1-2.1.06l9.06-6.33,3.42-.68Z"/><path class="cls-19" d="M300.56,379.61c4.7.63,9.95.62,13.59,5.28s2.36,10-3,12.38-10.52,2-15.68-.23a9.2,9.2,0,0,1-4.94-10.64C291.54,382.34,295.43,379.59,300.56,379.61Z"/><path class="cls-19" d="M282.16,369.8c.22.49.45,1,.67,1.48.4,4.45-1.19,8.13-5.18,10.05a12.17,12.17,0,0,1-12.49-.95c-7.65-5-9.86-11.61-6.67-20.21l1.37-.72c5.11,6.34,12.43,8.68,19.81,10.86C280.39,370.52,281.33,370,282.16,369.8Z"/><path class="cls-19" d="M364.6,369.15c0,.24.07.49.11.74-.84,8.08-7.13,12.58-15.06,10.54-7.68-2-13.89-5.82-16.32-14,6.05,0,12.13-.27,18.15.18C355.89,367,360.23,368.27,364.6,369.15Z"/><path class="cls-19" d="M379.19,379.78l.61.51c2.5,2.8,2.88,6.17.93,8.37-1.78,2-7.31,2.76-9.68.89a20.38,20.38,0,0,1-5.23-5.77c-2.77-5,.05-9.52,5.77-9.74a18,18,0,0,1,2.07.12l4.84,4.7Z"/><path class="cls-19" d="M340.14,385.1c4.31,0,7.15,2.79,7.13,7,0,3.23-2.48,6-5.4,6.13-3.61.14-8.38-4.54-8.38-8.22C333.48,387,336,385.12,340.14,385.1Z"/><path class="cls-16" d="M275.69,393.39l-2.64.78c-6-.12-8-1-8.37-4.47a5.58,5.58,0,0,1,1.95-4.36c2.55-1.84,7.34-.48,9.27,2C277.55,389.48,276.67,391.41,275.69,393.39Z"/><path class="cls-19" d="M302.09,370.63c5.26-.8,10.52-1.62,15.79-2.4,1.46-.21,2.93-.31,4.39-.47.1,5.54-2.78,8.4-8.94,7.41C309.44,374.54,305.83,372.2,302.09,370.63Z"/><path class="cls-17" d="M172.42,468.28c.05-3.73,1.58-5.48,4.74-5.38,2.5.07,5,2.91,4.93,5.67-.05,3.55-2.32,6.21-5.23,6.12C174.27,474.6,172.37,471.87,172.42,468.28Z"/><path class="cls-16" d="M358.42,393.51c-4.08-.05-6.89-2.14-6.94-5.17,0-2.52,2.16-3.89,6.24-3.9,3.31,0,5.51,1.95,5.5,4.88C363.22,392.57,362.09,393.55,358.42,393.51Z"/><path class="cls-16" d="M370,414.08c1.89-2.24,3-4.47,4.82-5.31.81-.38,3.24,1.76,4.35,3.21,1.39,1.83,3.91,4.07.93,6.43-1.21,1-3.67,1.81-4.71,1.22C373.39,418.5,372,416.29,370,414.08Z"/><path class="cls-19" d="M256.44,355.32c0,.22,0,.45,0,.67-.45,2.25-1.61,4-4,4-3.36.1-4.23-2.6-5.2-5.11s-.81-4.52,1.12-6.32a8.49,8.49,0,0,1,1.81-1l1.4,0Q254,351.48,256.44,355.32Z"/><path class="cls-15" d="M286.24,371.25c3.93-3.47,7.48-1.3,11,.76,0,4.12-1.8,6.22-5.44,6.2S286.28,375.93,286.24,371.25Z"/><path class="cls-16" d="M326.17,389.29c3.07,0,5.93,2.2,5.78,4.72-.19,3-2.54,3.55-5,3.56-3.47,0-6.14-2.22-6-4.82C321.1,390.76,323.33,389.27,326.17,389.29Z"/><path class="cls-16" d="M326.69,383a26.82,26.82,0,0,1-4-3.5,3.23,3.23,0,0,1,.12-3.14,3.81,3.81,0,0,1,3.24-1c2.33.69,5.59-1.41,7,2.21C334.14,380.39,331.68,383,326.69,383Z"/><path class="cls-16" d="M393.12,374.89a1.18,1.18,0,0,1,.05.42c-1.31.69-2.65,2-3.91,1.9-1.45-.09-3.87-1.23-4-2.21a18.31,18.31,0,0,1,.81-7.18c.06-.27,2.83-.35,3.95.24C392.63,369.44,393.24,372.07,393.12,374.89Z"/><path class="cls-16" d="M382.67,364.42c-.05,4.78-1.4,6.73-4,6.84-2,.09-3.23-.8-2.86-2.84a11.84,11.84,0,0,1,1.76-4.7c.73-1,2.27-1.44,3.45-2.13C381.72,362.79,382.41,364,382.67,364.42Z"/><path class="cls-16" d="M381.61,405.86c-3.18-.35-4.31-1.84-4.34-3.84,0-2.17.94-4.29,3.5-4.27a3.57,3.57,0,0,1,3.79,4C384.37,403.22,382.65,404.49,381.61,405.86Z"/><path class="cls-16" d="M365.81,397.89l4.27,4.7c-.75.66-1.74,2-2.19,1.84a13,13,0,0,1-4.29-2.68C363.41,401.58,364.71,399.77,365.81,397.89Z"/><path class="cls-4" d="M296.57,470.22l.05-1,2.11.71-.09.46Z"/><path class="cls-20" d="M205,258.76c9.1-3.35,18.1-2.83,27,.66,3.85,2.18,7.17,4.81,9.08,9,2,4.39,1.51,8.36-.9,12.43-3.87,6.52-10.25,8.6-17,9.71a28.63,28.63,0,0,1-20-3.84C192,279.7,191.36,269.93,202,261,203,260.19,204,259.5,205,258.76Zm6.82,3.2c-4,1.73-5.6,4.57-3.44,6.45,1.88,1.63,4.44,2.48,6.69,3.67l1.7.65.51.59v3.45h-7.55c4.51,3.26,11.65,3.25,15.45.27l-5.08-1-.44-2.72c2.25-1.33,4.54-2.58,6.73-4,2.41-1.56,2.48-4.87,0-6.11-1.82-.9-4-1.1-6-1.62Zm10.72,20.65-.07-1.35-6,.35.07,1Z"/><path class="cls-21" d="M180.93,253.88c4.38.84,8.21,2.24,10.54,6.66,2.22,4.22,1,12.27-2.8,14.75-4.62,3-10.94,1.63-14.75-2.68s-3.12-9-1.49-13.87Zm3.52,10.42c-4.79-.15-8.38.91-9.9,5.77,5-2.75,10-4.92,15.59-2,.3-3.93-3.45-6.84-8-6.35Z"/><path class="cls-21" d="M261.91,256c4.35,3.66,3.86,12.62-.83,16.37-5.44,4.33-10,4.06-13.25.92-1.23-1.2-1.6-3.28-2.36-5a7.1,7.1,0,0,0,1.93-.35c3.94-2,7.8-2.77,11.74.07.69.5,1.8.41,2.72.6l.55-1c-1-.91-1.92-2.32-3.11-2.64a52.55,52.55,0,0,0-7.45-1l-.56-.6c-.52-1.54-1.5-2.25-2.61-.72a53.78,53.78,0,0,0-3.2,5.65c-.75-1.07-2-2.06-2.16-3.22-.88-5.33,3.67-11.14,9.08-11.91C255.59,254.07,258.08,257.32,261.91,256Z"/><path class="cls-22" d="M170.28,287.24c-3.61,0-6.85-2.81-6.87-5.91,0-3.59,3.45-6.66,7.41-6.56s7.09,2.7,7.15,6.09S174.21,287.27,170.28,287.24Z"/><path class="cls-22" d="M266,274c4.59,0,7.79,3,7.68,7-.08,2.72-3.35,5.47-6.53,5.47a7.74,7.74,0,0,1-7.31-7.27C259.87,275.91,262.12,274,266,274Z"/><path class="cls-3" d="M261.91,256c-3.83,1.32-6.32-1.93-9.51-2.8-.06-1.91.28-3.55,2.68-3.55,2.74,0,5.39.35,6.6,3.28A10,10,0,0,1,261.91,256Z"/><path class="cls-3" d="M180.93,253.88l-8.5,4.86c-1.68-2.93-1.07-4.33,3.45-6.81C178.11,250.71,180.13,250.92,180.93,253.88Z"/><path class="cls-19" d="M233.47,229c0,4.13-3.37,8.23-6.76,8.29-2.59,0-5-2.57-5-5.48-.06-4.65,3.06-9,6.51-9C230.86,222.77,233.49,225.84,233.47,229Z"/><path class="cls-23" d="M275.15,226.77c-4.83,2.25-4.85,2.27-8.44-1.82-1.27-1.44-2.44-3-4-4.88l9.49-1.57.82-.74-.05,0c2.14-.73,4.27-1.51,6.43-2.14.66-.19,1.74-.21,2.09.18a2.29,2.29,0,0,1,.31,2.16c-1.2,1.89-2.64,3.63-4,5.42C276.94,224.54,276,225.65,275.15,226.77Z"/><path class="cls-19" d="M203.68,208.09c2.82-3.68,3.12-3.71,6.91-.7,2.54,3,2.29,6.67,1.88,10.2-.15,1.27-1.2,3.22-2.15,3.43-1.29.28-3.72-.4-4.19-1.38a52.14,52.14,0,0,1-2.88-9.21C203.07,209.74,203.52,208.88,203.68,208.09Z"/><path class="cls-24" d="M159.17,225.56c-6.42-3.75-10.18-9.17-10.38-16.74a10.45,10.45,0,0,1,.92-3.1,10.17,10.17,0,0,1,2.58,1.27c3.63,3.32,7.14,6.78,10.77,10.1a41.47,41.47,0,0,0,3.86,2.82c-2.5-.8-5-1.61-7.48-2.38-1-.32-2.09-.56-3.13-.84,0,1.19-.36,2.51,0,3.55A46,46,0,0,0,159.17,225.56Z"/><path class="cls-23" d="M159.17,225.56a46,46,0,0,1-2.82-5.32c-.4-1,0-2.36,0-3.55,1,.28,2.1.52,3.13.84,2.5.77,5,1.58,7.48,2.38l5.46,2.08q-2.46,4.13-4.94,8.24l-7.52-4-.73-.8Z"/><path class="cls-24" d="M275.15,226.77c.89-1.12,1.79-2.23,2.66-3.36,1.37-1.79,2.81-3.53,4-5.42a2.29,2.29,0,0,0-.31-2.16c-.35-.39-1.43-.37-2.09-.18-2.16.63-4.29,1.41-6.43,2.14l7.72-6.22,0,0,1.43-.73,0,0,.72-.73v0l.71-.71v0a17.16,17.16,0,0,1,2.12-1.12c2.41-.91,3.69.06,3.18,2.53C287.19,218.73,282.51,223.92,275.15,226.77Z"/><path class="cls-16" d="M223.14,206.1l4.71-.07c2.83,4.14.76,11.22-3.71,12.7-2.83.93-4.67-.23-4.41-3.23C220,212.13,220.08,208.52,223.14,206.1Z"/><path class="cls-16" d="M219.79,230.39c-1.68,2.2-2.56,4.18-4.07,5-.9.5-3.42-.35-4.1-1.35-1.19-1.76-2.32-4.25-2-6.14.31-1.62,2.75-2.83,4.24-4.22Z"/><path class="cls-16" d="M201.57,222.38c.24,2-.68,3.46-3,3.52-2.94.08-6.17-2.91-5.89-5.64.22-2.12.71-4.51,3.73-4.51C198.92,215.75,201.52,219,201.57,222.38Z"/><path class="cls-16" d="M226.54,244.35c.38,2.81-.63,5-3.61,5.08s-4.05-2.09-4-4.87,2.12-5.78,4.45-5.6C226.65,239.21,226.64,241.84,226.54,244.35Z"/><path class="cls-16" d="M235.07,223.35c-.45-.56-2.29-2.25-2-2.64a56.66,56.66,0,0,1,5-6.28c1.22,1.15,3.16,2.11,3.52,3.48C242.18,220.21,238.57,223.42,235.07,223.35Z"/><path class="cls-16" d="M251.77,215.21c.21.27,1.91,1.92,1.68,2.28a16.4,16.4,0,0,1-4.3,4.25c-.21.14-2.71-1.82-2.78-2.89C246.22,216.47,247.55,214.7,251.77,215.21Z"/><path class="cls-16" d="M209.12,232.24l-4,3.41c-1.18-1.56-2.72-3-3.36-4.73-.25-.66,1.54-2.08,2.41-3.15Z"/><path class="cls-16" d="M216.77,243.39c-1.71,1.12-2.51,2-3.41,2.16-2.79.38-3.23-2-3.24-3.8,0-1,1.53-2.08,2.37-3.12Z"/><path class="cls-16" d="M212.75,206.66l6.94-.6c0,2.22,0,4.42-3,4.83C213.35,211.35,213.18,208.9,212.75,206.66Z"/><path class="cls-16" d="M140.22,200.78,143,197c.77,1.32,2,2.58,2.18,4,.11,1.12-1.12,2.38-1.75,3.58Z"/><path class="cls-13" d="M184.94,216.41c-.44-1.36-.88-2.71-1.33-4.07l1.92-.9,4.18,1.52c0,.46,0,.92.07,1.39-.47.68-.94,1.37-1.4,2.06Z"/><path class="cls-16" d="M295.32,215.77c-.91,0-2,.27-2.69-.1a3.09,3.09,0,0,1-1.43-2.13c-.05-.62.8-1.84,1.28-1.85A3.19,3.19,0,0,1,295,212.8c.48.78.25,2,.33,3Z"/><path class="cls-11" d="M189.71,213l-4.18-1.52,1.59-1.91,3.14-.88,2.21,3c0,.21.06.42.08.63Z"/><path class="cls-16" d="M145.28,205.87c1,1.74,1.91,2.6,2,3.52,0,.64-1,1.36-1.62,2-.56-.72-1.47-1.39-1.6-2.18S144.6,207.58,145.28,205.87Z"/><path class="cls-16" d="M192.55,212.25c0-.21-.05-.42-.08-.63l6.42-1.39C197.79,214,197.3,214.2,192.55,212.25Z"/><path class="cls-11" d="M188.38,216.41c.46-.69.93-1.38,1.4-2.06-.07,1-.13,2-.2,2.93Z"/><path class="cls-24" d="M273,217.76l-.82.74Z"/><path class="cls-24" d="M159.19,225.47l.73.8C159.67,226,159.43,225.74,159.19,225.47Z"/><path class="cls-25" d="M158.53,339.3l.16-.29c0,.1-.09.21-.14.31Z"/><path class="cls-14" d="M180,168.88c2.38,2.11,3,7.29,1.25,11.39-2.45-1.18-1.92-3.23-1.7-5.23s.3-4.09.44-6.14Z"/><path class="cls-14" d="M162.69,169.23l-5.56-2.79,8.65,1,.23,1Z"/><path class="cls-13" d="M256.44,355.32q-2.46-3.84-4.91-7.67C256,348,257.89,350.89,256.44,355.32Z"/><path class="cls-26" d="M231.39,486.47l-18.72,0a49.53,49.53,0,0,1,6.27-.64C223.09,485.92,227.24,486.25,231.39,486.47Z"/><path class="cls-1" d="M379.19,379.78l-.69-.92Z"/><path class="cls-3" d="M282.1,210.87l-1.43.73Z"/><path class="cls-3" d="M283.48,209.49l-.71.71Z"/><path class="cls-3" d="M282.78,210.18l-.72.73Z"/><path class="cls-10" d="M215.11,272.08c-2.25-1.19-4.81-2-6.69-3.67-2.16-1.88-.54-4.72,3.44-6.45-.31,1.14-.63,2.29-1,3.47l12.55-1.27-3.07-2.57c2,.52,4.2.72,6,1.62,2.51,1.24,2.44,4.55,0,6.11-2.19,1.42-4.48,2.67-6.73,4h-2.38l-.51-.59Z"/><path class="cls-26" d="M217.32,273.32h2.38l.44,2.72,5.08,1c-3.8,3-10.94,3-15.45-.27h7.55Z"/><path class="cls-27" d="M220.38,261.59l3.07,2.57-12.55,1.27c.33-1.18.65-2.33,1-3.47Z"/><path class="cls-22" d="M222.58,282.61h-6l-.07-1,6-.35Z"/><path class="cls-26" d="M215.11,272.08l1.7.65Z"/><path class="cls-10" d="M184.45,264.3l-2.27-2.56c4.51-.49,8.26,2.42,8,6.35-5.6-2.94-10.6-.77-15.59,2C176.07,265.21,179.66,264.15,184.45,264.3Z"/><path class="cls-10" d="M245.48,268.33a53.78,53.78,0,0,1,3.2-5.65c1.11-1.53,2.09-.82,2.61.72-.09.22-.17.44-.26.67l.82-.07a52.55,52.55,0,0,1,7.45,1c1.19.32,2.08,1.73,3.11,2.64l-.55,1c-.92-.19-2-.1-2.72-.6-3.94-2.84-7.8-2.05-11.74-.07a7.1,7.1,0,0,1-1.93.35l-.13.19Z"/><path class="cls-21" d="M251.85,264l-.82.07c.09-.23.17-.45.26-.67Z"/></svg>