<svg id="Layer_1" data-name="Layer 1" xmlns="http://www.w3.org/2000/svg" viewBox="0 0 512 512"><defs><style>.cls-1{fill:#b56637;}.cls-2{fill:#ebd2b0;}.cls-3{fill:#b76739;}.cls-4{fill:#ac5d31;}.cls-5{fill:#f4e1c6;}.cls-6{fill:#934d27;}.cls-7{fill:#934d26;}.cls-8{fill:#ead1af;}.cls-9{fill:#795f4f;}.cls-10{fill:#ac5e31;}.cls-11{fill:#7a6050;}.cls-12{fill:#412d1f;}.cls-13{fill:#8d4a24;}.cls-14{fill:#725743;}.cls-15{fill:#efb8a0;}.cls-16{fill:#c3734a;}.cls-17{fill:#e4aa7a;}.cls-18{fill:#846658;}.cls-19{fill:#896c5f;}.cls-20{fill:#e29b66;}.cls-21{fill:#e19965;}.cls-22{fill:#e8c7a2;}.cls-23{fill:#f7e0d4;}.cls-24{fill:#dbbd97;}.cls-25{fill:#dabc96;}.cls-26{fill:#3c2a1e;}.cls-27{fill:#dda485;}.cls-28{fill:#ecb39b;}.cls-29{fill:#fefefe;}.cls-30{fill:#eceae8;}</style></defs><path class="cls-1" d="M383.05,361.54c-.94,5.47-5.62,5.69-9.52,7.51,2.09,4.37,4.07,8.6,6.13,12.78,4.91,9.94,7,20.77,9,31.68a76.13,76.13,0,0,0,5,16.83,19.39,19.39,0,0,0,7.26,8.4c10.12,6.05,15,16,18.69,27,1.48,4.35,2.47,8.91,3.68,13.37l-5.74,11.31c-1.2-3.25-2.11-6.68-3.66-9.74-3.37-6.64-7.27-13-10.55-19.67-1.82-3.71-2.82-7.88-4.25-12a8.54,8.54,0,0,0-1.68.79c-10,7.79-20.86,9.42-32.68,5.65a50.23,50.23,0,0,1-19.4-11.75,80.19,80.19,0,0,1-22.09-34.43c-1.37-4.28-2.17-8.79-3.51-14.33-1,3.25-1.79,5.33-2.33,7.49-1.7,6.81-5.95,11-12.15,12.19-4.81.93-9.81.74-14.73.92-11.19.41-19.5-6.93-20.33-20.55a33.12,33.12,0,0,0-1.28-5.12c-2.1,7.54-3.94,14.05-5.71,20.58-.58,2.15-1,4.36-1.48,6.54-.54.8-1.06,1.64-1.64,2.41q-6.65,8.71-13.3,17.41C241,444,235.31,451.37,229.5,458.62c-6.63,8.27-13.35,16.46-20,24.69l-12.17-1.56a10.72,10.72,0,0,1,.84-2.47c3.61-5.58,7.1-11.28,11-16.62a107.32,107.32,0,0,1,11.18-13.43c2.8-2.76,6.55-4.4,9.88-6.54-4.31-4.14-5.65-8.85-4.33-15.43,2.2-10.94,4.55-21.84,6.57-32.81.76-4.15.79-8.45,1.15-12.68l-1.23-.17a31.51,31.51,0,0,1-1.1,4.17,19.16,19.16,0,0,1-1.91,3.07c-4.59-16.83-3-34-2.27-51.25l2.76,5c4.81-7,4.57-14.94,5.29-23.42l4.88,7.06c1.76-4.67,3.72-8.57,4.7-12.74,2-8.29,3.37-16.74,5-25.12l7.9-6.07,4.94-1.61-.9,2.29c-1.16,2.32-2.79,4.51-3.41,7A53.29,53.29,0,0,0,261,324.48l-.75.28c-2.5,0-3.9,1.62-3.36,4.05.47,2.09,1.51,4.66,3.05,5.66,1.88,1.22,4.08.11,4.71-2.73l2.78,2.29c0,.22-.06.44-.08.67-.67,1.13-1.79,2.2-1.94,3.42-1,7.76,2.68,16.31,12.14,16.48,6.18.11,8.73-2.49,9-9.18l2.67.81c-.11,3.84,2.32,5.16,5.17,5.09,3.24-.07,3.9-2.95,4.07-5.89l4.44-.09,1.32.1a36.27,36.27,0,0,0,5.28,2.66c5.44,1.69,9.55-1,10.17-6.46l8.53-.75c1.63,5.81,5.63,9.17,10.57,11.29,6.86,3,14.95.9,15.77-9.05l5.63,3.89c-4.1.68-5.85,2.71-5.7,6.64.13,3.26,3.76,8,6.71,8.45,2.37.37,4.7.35,6.35-2.15a4.76,4.76,0,0,0-.28-6.19,39.13,39.13,0,0,0-2.21-5.68,62.76,62.76,0,0,0-4.21-5.82c1.53-4.34,3.23-8.62,4.53-13,.55-1.88.26-4.05.36-6.09,4.79,2.28,7.05,6.39,7.12,11.88,0,2.15.08,3.65,2.45,4.61,3.14,1.27,3.81,4.18,2.58,8.13-.4-1.3-.45-3-1.28-3.8-1.13-1.06-2.86-1.39-4.33-2-.56,1.56-1.68,3.19-1.52,4.66.14,1.31,1.71,3.43,2.64,3.43,1.51,0,3-1.47,4.52-2.32.08.37.12,1,.24,1.05,3.77.46,4,3.35,4.1,6.53A58.56,58.56,0,0,0,383.05,361.54Zm-81.19-9.05c-5.38.46-8.12,2-8.93,5.45-1.05,4.46.42,8.15,4.65,10.34s8.61,2.28,12.72-.61c5.26-3.69,5-10.21-.7-13.13C307.25,353.34,304.45,353.14,301.86,352.49Zm32.28,4.39c-3.52-.2-5.05,1.12-5.2,4.49-.18,3.89,2.6,7.56,5.82,7.69,2.88.11,4.74-1.86,4.84-5.15C339.72,360.05,337.41,357.07,334.14,356.88Zm-57.71,0c-3.32-.1-5.28.75-5.44,3.84-.11,2.24,2.91,4.7,5.67,4.49,2.17-.16,4.7-.34,4.87-3.6C281.65,359.14,278.67,356.88,276.43,356.85ZM353.18,362c-.8-3.61-2-5.42-5-5.18-2.34.18-5-.2-5,3.54,0,2.34,3.41,5.22,6.26,4.66C350.89,364.72,352.11,362.89,353.18,362Zm12.34,25.36c.48-.67,2-1.86,2.21-3.29.37-2.28-3.71-7.19-5-6.35a7.94,7.94,0,0,0-3.12,4.77C359.13,385.22,361.52,387.33,365.52,387.34Zm-41.43-18.71c.73-.89,2.47-2,2.61-3.36.31-3-2.18-4.35-4.32-4.28-1.36,0-3.65,2-3.81,3.35C318.23,367.37,320.89,367.86,324.09,368.63Zm.78-13.34a25.86,25.86,0,0,0,3.23-3.58c.18-.27-1.65-2.85-2.07-2.7-2.19.74-5-2.07-6.64,1.23C318.36,352.34,320.94,355.29,324.87,355.29Zm45.62-15.37-3.57-3.62c-1.09,1.86-2.48,3.6-3.13,5.61-.27.82,1.07,2.24,1.67,3.39Zm1.23,32.18c-1.92-1.43-3.08-3-4.13-2.88s-2.11,1.72-3.15,2.68c1,1.08,2,2.79,3.16,3C368.54,375.13,369.8,373.51,371.72,372.1Zm-15.89,2.65,1.85.95c.26-1,1-2.21.68-2.83a9.2,9.2,0,0,0-2.85-2.91c-.17-.13-1.75,1.3-1.66,1.53A21,21,0,0,0,355.83,374.75Z"/><path class="cls-2" d="M262.56,280.65l-4.94,1.61a19.56,19.56,0,0,0-4.14.55c-9.88,3.47-20,5.35-30.39,4.69-3.65-.23-7.3-.62-11.6-1,.71,1,.84,1.4,1.09,1.56a13.89,13.89,0,0,0,2.2,1.21c10.45,4.17,20.84,3.66,31.21-.47a14.28,14.28,0,0,1,3.73-.47c-1.64,8.38-3.05,16.83-5,25.12-1,4.17-2.94,8.07-4.7,12.74l-4.88-7.06c-.72,8.48-.48,16.41-5.29,23.42l-2.76-5c-.76,17.25-2.32,34.42,2.27,51.25.1,1.87.62,3.84.23,5.58-2,8.85-4.21,17.63-6.36,26.43a26.9,26.9,0,0,1-4.06-2.85c-2.85-2.85-5.56-5.85-8.28-8.85a73.55,73.55,0,0,1-18-34.58,8.42,8.42,0,0,1,.43-2.82l.67.18q1.51,4.86,3,9.72l.92-.11,3.47-12.6c1,2,1.67,3.52,2.18,4.61,3.29-5.94,6.72-11.77,9.79-17.82,2-3.89,3.24-8.12,2.31-12.89l-5.56,10.52-.87-.25V341.72l-7.82,17.35-.91-.43-.69-2-3.19,5.24-.92-.41,2.43-13.18-.89-.3-2.68,3.79c-.87-3.77-1.44-7.39-2.58-10.8s1.35-7.42-2.82-10.88c2.38-5.3,5-11.05,7.51-16.8a9.09,9.09,0,0,0,.64-1.84c-2.58-1.43-.42-2.72.17-3.86,1.06-2.11,2.39-4.06,3.5-6.14,2.63-4.88,5.19-9.8,7.94-15l-3.13-1.16-9.19-4.56c.37-.57.63-1.36,1.14-1.69,4.91-3.12,5.37-4.32,3.82-10.52l5.7-.51,4.32-4c.59-2.2,1.94-4.54,1.61-6.56-1-5.86-4.84-8.54-11.37-8.74-2.57-2.81-4.39-.59-6,1.25-1.12,1.26-2.56,3,.07,4.4-1.66,4.92-.08,9,2.89,12.68-7.18,0-9,1.26-10,6.93-4.07-3.95-5.73-9.26-6.22-14.77-.67-7.54-.28-15.1,2.46-22.3a10.51,10.51,0,0,0,.26-2.61c3.85-5.46,7.11-6.72,12.38-4.8,1.11.41,2.25.74,3.34,1.2,8.58,3.54,16.59,7.89,21.14,17.17-.84,1.06-1.65,2.13-2.5,3.17-6.44,7.85-4.8,16.47,4,21,6.72,3.49,21.57,2.62,28.06-5.84,3.71-4.85,4.53-12.82.44-17.17-2-2.14-4.9-3.29-7.4-4.89,2.53-4.93,4.55-10.3,7.72-14.7,5.5-7.65,12.43-13.3,22.08-13.39,3.61,6.45,8,12.55,10.64,19.44,4.47,11.67,2.36,22.7-6.23,31.6-3.66,3.79-8.05,6.78-12.1,10.13Zm7-28.94c0,1.14,0,2.28,0,3.42,0,3.67,2.16,5.17,5.06,5.67,3.52.6,7.89-2.29,8.28-5.48s-1.25-5.36-4-6.77c-3.14-1.61-5.34.87-7.93,1.67.31-1.19.56-2.41.94-3.57a9.06,9.06,0,0,0-3.7-10.17c.23-4-2.61-4-5-4.21-2.06-.19-3.4.88-2.94,3.45-3.24.23-4.91,2.71-5.38,5.57-.56,3.38-.83,7.11,2,9.89.35.35,1.08.28,1.64.41,1.65,2.65,4,3.11,6.64,2.28Z"/><path class="cls-3" d="M274.5,216c-9.65.09-16.58,5.74-22.08,13.39-3.17,4.4-5.19,9.77-7.72,14.7-7.91-1.49-15.52-.8-22.58,3.7-4.55-9.28-12.56-13.63-21.14-17.17-1.09-.46-2.23-.79-3.34-1.2-5.27-1.92-8.53-.66-12.38,4.8-4.3,0-8.62.21-12.91-.12-3.58-.28-4.08-1.57-2.86-5L162,222l3.07-2.12c-4.09-6-5.78-12.65-5.84-19.88a14.79,14.79,0,0,1,1.21,1.3c2.37,3.45,3.92,3.47,6.46.06l2.07,2.41a18.06,18.06,0,0,0-1.93,3.59c-.09.29,1.41,1.15,2.18,1.75l1.91-3.4c2.67,2.28,5.12,5,8,6.75,4.21,2.53,8.77,4.39,13.18,6.54-.47.77-1,1.54-1.42,2.32l-6.44-1.46c-3.89-2.79-7.74-5.65-11.7-8.32-.86-.59-2.13-.49-3.21-.7-.1,1.07-.51,2.25-.24,3.21,1.49,5.47,4.57,9.57,9.54,11.86l0,0,2.15,1c2.61.88,5.28,4,7.72-.29q5-6.1,10-12.19l4.5.78c1-3.53.42-5.54-3.16-5.45,0-.22,0-.44.05-.67l2.7-1.53,2.78,2.2c5.42-2.31,5.83-3,4.29-6.88l10-4.27,1.37,2.22,2.65,4.38c1-1.5,2-3,3-4.51.1-.16,0-.49-.07-.74s.09-.48.15-.71l2.09.74a62.47,62.47,0,0,0-.66,7.44c0,1.09,1.11,3,1.7,3,1.14,0,3.12-.94,3.27-1.8a77.18,77.18,0,0,0,.65-9.41l2.86-.78a5.31,5.31,0,0,0,0,1.87c.55,1.39,1.28,2.69,1.93,4,1.12-.76,2.5-1.28,3.3-2.32a32,32,0,0,0,2.56-4.86.75.75,0,0,1,.52-.28l5.1,1.55,3.49.84a68.55,68.55,0,0,0,6.5,4.21,3.48,3.48,0,0,0,3.08-.52c3.27-2.41,6.39-5.05,9.57-7.6l3.59,0-1.47,3-10.42,7.85,6.37,5.75c1.44-1,2.73-1.85,4-2.75a6.86,6.86,0,0,0,.79-.74l.73-.92v0c6-4.9,8.49-11.75,5.87-16.92l-3.78,2.43c-.24-1.29-.49-2.58-.74-3.88l1.42-2.27c2.21,1.28,4.13,1.17,5.85-1.06,2-2.62,1.46-5-.27-7.39.3-.47.6-.94.89-1.41,1.42,2.21,2.73,4.62,5.86,3.52.12,1.35.23,2.7.34,4.05-2.19-.88-4.24-.91-4.95,2-.3,1.24.21,2.71.35,4.07l4-1.45c-.56,3-1.12,6.05-1.71,9.3,3.69-.23,2.76,2.35,1.55,4.62C287.56,210.19,282,214.53,274.5,216ZM232,220c-.14,3.7,1.26,5.73,4,5.86s5.11-2.6,5.18-6.32-1.5-5.88-4.43-6C233.57,213.49,232.17,215.37,232,220Zm-8.49-9.63c-1.62-2.83-3-5.84-4.88-8.35-1.63-2.14-3.51-1.4-4.35,1.31-1.09,3.48.39,8.82,3.24,10.75,1,.65,2.69,1.09,3.5.59C222,214,222.46,212.3,223.52,210.35Zm-1.48,8.7c0,5,1.6,7.49,4.12,7.47s3.08-1.83,3.05-4.12c0-3.13-2.09-6-4.49-5.6C223.48,217,222.47,218.66,222,219.05Zm-9.62,1.45c.38-.56,1.61-1.57,1.8-2.76.37-2.41-2.38-6-4.2-5.43a5.79,5.79,0,0,0-3.34,3.44C206.05,218.2,208.62,220.48,212.42,220.5ZM239.36,234c-1.68-2.42-2.62-5.19-4.17-5.67-2.48-.78-3.72,2-3.77,4.3s1.07,4.73,3.73,4.44C236.41,237,237.54,235.41,239.36,234Zm6.84-27.4c-.52-.45-1.51-2-2.52-2-3.13,0-3.4,3-3.75,5.37a3.52,3.52,0,0,0,1.95,2.74C243.8,213.21,246.11,210.29,246.2,206.62Zm3-1.14c1.48,1.75,2.71,3.47,2.89,3.35a31.94,31.94,0,0,0,3.93-3.38c-.78-.84-1.62-2.43-2.34-2.37C252.39,203.19,251.21,204.31,249.17,205.48Zm-27,20.38a40.52,40.52,0,0,0-4.21-4.26c-.18-.14-2.24,1.71-2.11,2.07a11.76,11.76,0,0,0,2.67,4.25C218.78,228.2,220.41,226.87,222.15,225.86Zm4.38,3.4-1.2.19c-.37,1-1.3,2.34-1,3a9.44,9.44,0,0,0,2.86,3.12c.09.08,1.73-1.37,1.62-1.69A36.49,36.49,0,0,0,226.53,229.26ZM163.2,210.51l1.32-.19a3.42,3.42,0,0,0-.36-5.15c-.31-.3-1.18.07-1.79.13Z"/><path class="cls-4" d="M261.71,416.93c.49-2.18.9-4.39,1.48-6.54,1.77-6.53,3.61-13,5.71-20.58a33.12,33.12,0,0,1,1.28,5.12c.83,13.62,9.14,21,20.33,20.55,4.92-.18,9.92,0,14.73-.92,6.2-1.21,10.45-5.38,12.15-12.19.54-2.16,1.31-4.24,2.33-7.49,1.34,5.54,2.14,10.05,3.51,14.33a80.19,80.19,0,0,0,22.09,34.43,50.23,50.23,0,0,0,19.4,11.75c11.82,3.77,22.67,2.14,32.68-5.65a8.54,8.54,0,0,1,1.68-.79c1.43,4.16,2.43,8.33,4.25,12,3.28,6.69,7.18,13,10.55,19.67,1.55,3.06,2.46,6.49,3.65,9.74l-5.72,5.78c-4.43-7.37-9.15-14.56-13.22-22.15-5.07-9.44-12.67-11.43-21.91-10.23-11.36,1.48-22.56,1.13-32.72-5.52-7.45-4.87-14.2-10.67-19.32-18.43-.44-.67-1.33-1-2-1.46-.94-2.29-1.87-4.57-2.8-6.86-.59-3-1.19-6-1.79-9.13-1.8,0-3.2,0-4.6,0-11.36-.22-22.76,0-34.08-.88C273.41,421,267.59,418.52,261.71,416.93Z"/><path class="cls-5" d="M205.77,285.24l3.13,1.16c-2.75,5.22-5.31,10.14-7.94,15-1.11,2.08-2.44,4-3.5,6.14-.59,1.14-2.75,2.43-.17,3.86a9.09,9.09,0,0,1-.64,1.84c-2.56,5.75-5.13,11.5-7.51,16.8,4.17,3.46,1.72,7.6,2.82,10.88s1.71,7,2.58,10.8l2.68-3.79.89.3-2.43,13.18.92.41,3.19-5.24.69,2,.91.43,7.82-17.35v11.39l.87.25,5.56-10.52c.93,4.77-.35,9-2.31,12.89-3.07,6-6.5,11.88-9.79,17.82-.51-1.09-1.21-2.58-2.18-4.61l-3.47,12.6-.92.11q-1.53-4.86-3-9.72l-.67-.18a8.42,8.42,0,0,0-.43,2.82,73.55,73.55,0,0,0,18,34.58c2.72,3,5.43,6,8.28,8.85a26.9,26.9,0,0,0,4.06,2.85l-.63,3.08c-2.39-1.77-5.16-3.15-7.09-5.39-5.32-6.19-10.28-12.74-15.41-19.13-.68-.85-1.5-1.56-2.25-2.34L187.4,372.86c-1.54-9.64-3.08-19.27-4.67-29.26h-3.06c1.13-5.32,2.16-10.24,3.28-15.51l-2.83,2.4-.86-.38c.65-2.42,1.25-4.86,2-7.25.56-1.9,1.27-3.75,1.92-5.62.1-.11.19-.22.29-.32l-.31.3-2-.19c2.68-7,7.58-11.44,12.64-15.91S203.8,292.31,205.77,285.24Z"/><path class="cls-6" d="M138.86,419.06c2.84-7.56,5.19-15.39,8.7-22.57a22.35,22.35,0,0,1,8.81-9.39c8.64-4.63,17.78-8.17,26.71-12.16q2.16,11.47,4.31,22.93c-4.18,1.13-8.41,2.09-12.53,3.41-7.85,2.53-12.81,8.86-17.25,15.78l-.64.83.19,0Z"/><path class="cls-7" d="M319.84,445.34a37.05,37.05,0,0,1-9,22.36c-5.13,6.13-11.05,11.48-16.62,17.17-6.18.34-12.11-.34-17.1-4.87,4.35-7,8.64-14,13.07-20.94,2.69-4.22,4.85-8.6,4.87-13.88.59-2.65,2.15-3.41,4.58-3,4.14.64,8.31,1,12.45,1.61C314.72,444.14,317.28,444.8,319.84,445.34Z"/><path class="cls-8" d="M261.71,416.93c5.88,1.59,11.7,4.1,17.66,4.58,11.32.91,22.72.66,34.08.88,1.4,0,2.8,0,4.6,0,.6,3.09,1.2,6.11,1.79,9.13l-27.59,3c-7.21.77-14.41,1.88-21.64,2.21-7.93.37-15.89,0-23.84,0q6.64-8.7,13.3-17.41C260.65,418.57,261.17,417.73,261.71,416.93Z"/><path class="cls-9" d="M250.4,198.37l-5.1-1.55,2.61-3.94c.56-.1,1.29,0,1.66-.33,3.49-3.17,5.73-13.33,3.59-17.66-.81-1.63-2.7-2.64-4.1-3.94-.39-2-.94-4.54,1.52-5,1.15-.2,2.91,1.57,3.9,2.88a40.16,40.16,0,0,1,3.1,5.88c6.71-9.38,5.89-20,5.91-30.5a32.54,32.54,0,0,1,.43-7.14,4.27,4.27,0,0,1,2.84-2.6c.81-.16,2.33,1,2.79,2a26.85,26.85,0,0,1,2.51,15.74c0,.25-.22.53-.17.73.55,1.93,1.13,3.85,1.7,5.76,1.37-1.17,3.17-2.07,4-3.59,1.35-2.45,2.81-3.58,5.39-2.55-1,2.21-1.43,5.09-3,6.49-3.49,3.07-7.6,5.31-11.34,8.09a8.26,8.26,0,0,0-3,3.75c-.21.66,1.5,2,2.34,3.08l.84,1.49c-1.16,2,.15,2.87,1.61,2.94a30.55,30.55,0,0,0,5.43-.63c-.79,3.48-3.51,4.15-6.15,4.55-5.65.86-11,1.94-14.19,8C254.05,193.15,252.12,195.7,250.4,198.37Z"/><path class="cls-10" d="M222.59,423.93l.63-3.08c2.15-8.8,4.37-17.58,6.36-26.43.39-1.74-.13-3.71-.23-5.58a19.16,19.16,0,0,0,1.91-3.07,31.51,31.51,0,0,0,1.1-4.17l1.23.17c-.36,4.23-.39,8.53-1.15,12.68-2,11-4.37,21.87-6.57,32.81-1.32,6.58,0,11.29,4.33,15.43-3.33,2.14-7.08,3.78-9.88,6.54a107.32,107.32,0,0,0-11.18,13.43c-3.9,5.34-7.39,11-11,16.62a10.72,10.72,0,0,0-.84,2.47l-6-1.82c8.69-14.32,17.52-28.56,26-43C219.57,432.94,220.84,428.27,222.59,423.93Z"/><path class="cls-11" d="M202.81,207.47,200.12,209c-2.29-2.39-4.47-4.93-6.92-7.12a7,7,0,0,0-4.06-1.65c-2.89-.12-5.84.65-8.69.32-3.1-.36-6.29-1.29-7.26-5.33l8.52.19-5,1.05c3.64,2.14,8.1,1.59,11.78-1.65l-2.54-.24c-.74-2.7-1.11-5.6-2.27-8.06-3-6.35-9-8.42-14.6-10.86-5-2.15-7.16-5.42-7.21-10.65,1.48,1.46,2.89,3,4.47,4.33a16.7,16.7,0,0,0,3.3,1.73l-2.7,1.38c4.73,2.61,5.94,2.13,6.25-2.2,2.73-.7,3.13-2.21,2.07-5s-1.39-5.82-2.05-8.74a9.3,9.3,0,0,1,1,1.49c3.15,7.23,6.22,14.5,9.48,21.67.52,1.14,1.85,1.85,2.8,2.75.34-.21.95-.39,1-.64a52.76,52.76,0,0,1,.57-6.35c.62-2.64,3-3.09,4.38-.89.74,1.17,1.46,2.94,1.19,4.18-2.57,11.57,2.27,19.72,10.21,26.54C203.49,206,203.15,206.73,202.81,207.47Z"/><path class="cls-12" d="M138.86,419.06l18.3-1.14c-4.57,6.41-8.94,13-13.84,19.12-1.5,1.87-4.39,2.76-6.8,3.4s-3.94-.47-3-3.59C135.32,430.93,137.08,425,138.86,419.06Z"/><path class="cls-13" d="M292.25,434.56l27.59-3c.93,2.29,1.86,4.57,2.8,6.86-.93,2.31-1.87,4.63-2.8,6.95-2.56-.54-5.12-1.2-7.71-1.59-4.14-.62-8.31-1-12.45-1.61-2.43-.37-4,.39-4.58,3Z"/><path class="cls-8" d="M377.84,347.76c1.23-3.95.56-6.86-2.58-8.13-2.37-1-2.42-2.46-2.45-4.61-.07-5.49-2.33-9.6-7.12-11.88a61.23,61.23,0,0,1-.48-7.87,4.31,4.31,0,0,1,2-3.1c.7-.36,2.24.39,3,1.14,4.16,4.07,5.6,9.52,6.17,15.3.15,1.49,0,3,0,4.52,4.95.24,6.51,2.4,5.54,7.55-.35,1.84-.87,3.65-1.31,5.48l-.28.33.32-.29c4.46,0,5,.56,4.95,5.45,0,3.53.56,7.28-2.58,9.88a58,58,0,0,1-.84-6.26c-.11-3.18-.33-6.07-4.1-6.53-.12,0-.16-.68-.24-1.05Z"/><path class="cls-12" d="M191.26,479.93l6,1.82,12.17,1.56c-5.72,7-12.6,11.85-21.28,13.37a13.34,13.34,0,0,1-2.82.2c-3.06-.15-4-1.89-2.31-4.72C185.63,488,188.51,484,191.26,479.93Z"/><path class="cls-12" d="M411.81,496.18l5.72-5.78q2.88-5.65,5.75-11.31c3.12,8.91,4.36,17.94,1.25,27.15-.41,1.21-1.62,2.85-2.57,2.94a4.72,4.72,0,0,1-3.67-1.94C415.94,503.7,413.94,499.89,411.81,496.18Z"/><path class="cls-12" d="M277.16,480c5,4.53,10.92,5.21,17.1,4.87a37.09,37.09,0,0,1-21.67,12.06c-3.17.53-4.89-2.44-3.14-5.39C271.82,487.56,274.57,483.83,277.16,480Z"/><path class="cls-13" d="M187.39,397.87q-2.16-11.46-4.31-22.93l4.32-2.08,10.44,24.21Z"/><path class="cls-14" d="M161.89,165c.05,5.23,2.22,8.5,7.21,10.65,5.64,2.44,11.59,4.51,14.6,10.86,1.16,2.46,1.53,5.36,2.27,8.06l-3,.71c-1.87-7.08-5.68-12.51-11.83-15.88-2.49-1.36-5.2-2.28-7.61-3.79a12.32,12.32,0,0,1-4-4C157.38,167.91,158.1,166.25,161.89,165Z"/><path class="cls-15" d="M201.54,268.47c1.55,6.2,1.09,7.4-3.82,10.52-.51.33-.77,1.12-1.14,1.69-2.92-1.85-7-2.21-7.82-6.8,1-5.67,2.79-6.95,10-6.93Z"/><path class="cls-16" d="M261,324.48a53.29,53.29,0,0,1-2.74-34.56c.62-2.47,2.25-4.66,3.41-7-1,4.89-2.36,9.74-2.79,14.69-1.22,13.9,3.61,25.37,13,34.78L267.42,334l-2.78-2.29-.09-.81C264.79,327.87,264.69,325,261,324.48Z"/><path class="cls-17" d="M328.25,335.06c8.81-.76,17.4,0,25.52,4.14,0,1.3.05,2.61.08,3.91a77.81,77.81,0,0,0-25.59-3Z"/><path class="cls-14" d="M250.4,198.37c1.72-2.67,3.65-5.22,5.13-8,3.17-6,8.54-7.12,14.19-8,2.64-.4,5.36-1.07,6.15-4.55.25-1,.49-2.07.73-3.1a4.76,4.76,0,0,1-.08,8.22,19.85,19.85,0,0,1-7.67,2.35c-4.9.49-8.23,3.09-10.69,7.48-1.27,2.25-2.84,4.31-4.27,6.46Z"/><path class="cls-14" d="M173.19,195.22c1,4,4.16,5,7.26,5.33,2.85.33,5.8-.44,8.69-.32a7,7,0,0,1,4.06,1.65c2.45,2.19,4.63,4.73,6.92,7.12,0,.23,0,.45-.06.68l-2.65,1.1-8.8-7.8c-4,0-7.67.25-11.33-.11a10.6,10.6,0,0,1-5.37-2.4c-1-.78-1.11-2.71-1.63-4.12Z"/><path class="cls-17" d="M267.42,334l4.44-1.62,11.84,6.18,1.44.71,0-.05.72,4.66c-7.46-.07-13.24-4-18.5-9.21C267.36,334.47,267.38,334.25,267.42,334Z"/><path class="cls-17" d="M304.19,345.44l-1.32-.1L300.65,340l15-2.83,3.4,4.46c-4.1.76-8.2,1.46-12.27,2.33A9.37,9.37,0,0,0,304.19,345.44Z"/><path class="cls-14" d="M268,174c-.84-1.05-2.55-2.42-2.34-3.08a8.26,8.26,0,0,1,3-3.75c3.74-2.78,7.85-5,11.34-8.09,1.59-1.4,2-4.28,3-6.49,2.93,4,2.53,7.45-1.67,10.53-3.17,2.32-6.79,3.93-9.95,6.26C269.93,170.43,269.1,172.43,268,174Z"/><path class="cls-16" d="M300.65,340l2.22,5.36-4.44.09c-1.25-.58-2.48-1.22-3.76-1.74-2.56-1-4.53-.5-5.48,2.54l-2.67-.81c-.23-.5-.46-1-.68-1.51l-.72-4.66A56.17,56.17,0,0,0,300.65,340Z"/><path class="cls-14" d="M173.23,156.49c.66,2.92,1,6,2.05,8.74s.66,4.31-2.07,5l-1-.11c-.2-1.41-.31-2.85-.64-4.22-.87-3.73-2.22-7.38-2.65-11.16-.36-3.23,1.67-4,4.43-2.15l-.18,2.37Z"/><path class="cls-18" d="M173.23,156.49c0-.51,0-1,0-1.52l1.43-.79,11.87,28.22c-1-.9-2.28-1.61-2.8-2.75-3.26-7.17-6.33-14.44-9.48-21.67A9.3,9.3,0,0,0,173.23,156.49Z"/><path class="cls-19" d="M249.06,171c1.4,1.3,3.29,2.31,4.1,3.94,2.14,4.33-.1,14.49-3.59,17.66-.37.34-1.1.23-1.66.33A29.51,29.51,0,0,0,249.06,171Z"/><path class="cls-16" d="M319,341.61l-3.4-4.46,12.63-2.09c0,1.68,0,3.35,0,5l-.09.8-8.53.75C319.43,341.64,319.23,341.63,319,341.61Z"/><path class="cls-16" d="M353.85,343.11c0-1.3-.05-2.61-.08-3.91l7,3.07a62.76,62.76,0,0,1,4.21,5.82,39.13,39.13,0,0,1,2.21,5.68L360.14,347l-5.63-3.89A4.85,4.85,0,0,0,353.85,343.11Z"/><path class="cls-20" d="M244.78,197.1a32,32,0,0,1-2.56,4.86c-.8,1-2.18,1.56-3.3,2.32-.65-1.34-1.38-2.64-1.93-4a5.31,5.31,0,0,1,0-1.87c0-.67-.05-1.34-.07-2Z"/><path class="cls-16" d="M198.72,214.34q-5,6.09-10,12.19l2.2-5.26c.47-.78,1-1.55,1.42-2.32l5.59-7.08Z"/><path class="cls-20" d="M285,178.49c1.73,2.4,2.31,4.77.27,7.39-1.72,2.23-3.64,2.34-5.85,1.06Z"/><path class="cls-17" d="M202.81,207.47c.34-.74.68-1.49,1-2.23l6-2.45c1.54,3.9,1.13,4.57-4.29,6.88Z"/><path class="cls-21" d="M291.47,189.25l-4,1.45c-.14-1.36-.65-2.83-.35-4.07.71-2.89,2.76-2.86,4.95-2Z"/><path class="cls-20" d="M166.88,201.31c-2.54,3.41-4.09,3.39-6.46-.06a14.79,14.79,0,0,0-1.21-1.3C161.75,196.3,162.78,196.48,166.88,201.31Z"/><path class="cls-20" d="M198.72,214.34l-.79-2.47c-.18-.36-.35-.73-.52-1.09l2.65-1.1c3.58-.1,4.17,1.91,3.16,5.44Z"/><path class="cls-19" d="M276.6,174.7c-.24,1-.48,2.07-.73,3.1a30.55,30.55,0,0,1-5.43.63c-1.46-.07-2.77-.89-1.61-2.94Z"/><path class="cls-16" d="M236.9,196.37c0,.67,0,1.34.07,2l-2.86.78-5,.74-2.09-.74c0-.73,0-1.46,0-2.19Z"/><path class="cls-20" d="M291.73,180.6c-3.13,1.1-4.44-1.31-5.86-3.52C289.13,174.21,290.89,175.27,291.73,180.6Z"/><path class="cls-18" d="M183,195.28l3-.71,2.54.24c-3.68,3.24-8.14,3.79-11.78,1.65l5-1.05Z"/><path class="cls-17" d="M227.07,197c0,.73,0,1.46,0,2.19-.06.23-.11.47-.15.71l-5.63.87-1.37-2.22Z"/><path class="cls-20" d="M276.63,195.35l-3.59,0,4.94-6.09c.25,1.3.5,2.59.74,3.88l0,0-.75,1.57,0-.05-1.45.8Z"/><path class="cls-21" d="M171.11,205.66l-1.91,3.4c-.77-.6-2.27-1.46-2.18-1.75a18.06,18.06,0,0,1,1.93-3.59Z"/><path class="cls-18" d="M172.26,170.13l1,.11c-.31,4.33-1.52,4.81-6.25,2.2l2.7-1.38Z"/><path class="cls-11" d="M174.65,154.18l-1.43.79.18-2.37Z"/><path class="cls-16" d="M285.14,339.3l-1.44-.71Z"/><path class="cls-12" d="M157,417.89l.64-.83Z"/><path class="cls-20" d="M301.86,352.49c2.59.65,5.39.85,7.74,2.05,5.7,2.92,6,9.44.7,13.13-4.11,2.89-8.49,2.81-12.72.61s-5.7-5.88-4.65-10.34C293.74,354.49,296.48,353,301.86,352.49Z"/><path class="cls-20" d="M285.84,343.91c.22.5.45,1,.68,1.51-.25,6.69-2.8,9.29-9,9.18-9.46-.17-13.12-8.72-12.14-16.48.15-1.22,1.27-2.29,1.94-3.42C272.6,339.87,278.38,343.84,285.84,343.91Z"/><path class="cls-20" d="M353.85,343.11a4.85,4.85,0,0,1,.66,0c-.82,9.95-8.91,12-15.77,9.05-4.94-2.12-8.94-5.48-10.57-11.29l.09-.8A77.81,77.81,0,0,1,353.85,343.11Z"/><path class="cls-22" d="M249.72,288.33a14.28,14.28,0,0,0-3.73.47c-10.37,4.13-20.76,4.64-31.21.47a13.89,13.89,0,0,1-2.2-1.21c-.25-.16-.38-.53-1.09-1.56,4.3.38,7.95.77,11.6,1,10.43.66,20.51-1.22,30.39-4.69a19.56,19.56,0,0,1,4.14-.55Z"/><path class="cls-20" d="M360.14,347l7.08,6.75a4.76,4.76,0,0,1,.28,6.19c-1.65,2.5-4,2.52-6.35,2.15-2.95-.47-6.58-5.19-6.71-8.45C354.29,349.73,356,347.7,360.14,347Z"/><path class="cls-21" d="M334.14,356.88c3.27.19,5.58,3.17,5.46,7-.1,3.29-2,5.26-4.84,5.15-3.22-.13-6-3.8-5.82-7.69C329.09,358,330.62,356.68,334.14,356.88Z"/><path class="cls-20" d="M276.43,356.85c2.24,0,5.22,2.29,5.1,4.73-.17,3.26-2.7,3.44-4.87,3.6-2.76.21-5.78-2.25-5.67-4.49C271.15,357.6,273.11,356.75,276.43,356.85Z"/><path class="cls-20" d="M319,341.61c.21,0,.41,0,.62,0-.62,5.44-4.73,8.15-10.17,6.46a36.27,36.27,0,0,1-5.28-2.66,9.37,9.37,0,0,1,2.56-1.5C310.82,343.07,314.92,342.37,319,341.61Z"/><path class="cls-21" d="M353.18,362c-1.07.91-2.29,2.74-3.76,3-2.85.56-6.3-2.32-6.26-4.66,0-3.74,2.68-3.36,5-3.54C351.15,356.56,352.38,358.37,353.18,362Z"/><path class="cls-21" d="M365.52,387.34c-4,0-6.39-2.12-5.91-4.87a7.94,7.94,0,0,1,3.12-4.77c1.29-.84,5.37,4.07,5,6.35C367.49,385.48,366,386.67,365.52,387.34Z"/><path class="cls-20" d="M289.19,346.23c.95-3,2.92-3.58,5.48-2.54,1.28.52,2.51,1.16,3.76,1.74-.17,2.94-.83,5.82-4.07,5.89C291.51,351.39,289.08,350.07,289.19,346.23Z"/><path class="cls-21" d="M264.55,330.93l.09.81c-.63,2.84-2.83,3.95-4.71,2.73-1.54-1-2.58-3.57-3.05-5.66-.54-2.43.86-4,3.36-4.05Z"/><path class="cls-21" d="M377.87,347.69c-1.51.85-3,2.31-4.52,2.32-.93,0-2.5-2.12-2.64-3.43-.16-1.47,1-3.1,1.52-4.66,1.47.65,3.2,1,4.33,2,.83.77.88,2.5,1.28,3.8Z"/><path class="cls-21" d="M324.09,368.63c-3.2-.77-5.86-1.26-5.52-4.29.16-1.34,2.45-3.31,3.81-3.35,2.14-.07,4.63,1.31,4.32,4.28C326.56,366.6,324.82,367.74,324.09,368.63Z"/><path class="cls-21" d="M324.87,355.29c-3.93,0-6.51-3-5.48-5.05,1.61-3.3,4.45-.49,6.64-1.23.42-.15,2.25,2.43,2.07,2.7A25.86,25.86,0,0,1,324.87,355.29Z"/><path class="cls-21" d="M370.49,339.92l-5,5.38c-.6-1.15-1.94-2.57-1.67-3.39.65-2,2-3.75,3.13-5.61Z"/><path class="cls-21" d="M371.72,372.1c-1.92,1.41-3.18,3-4.12,2.84-1.19-.25-2.12-2-3.16-3,1-1,2.05-2.6,3.15-2.68S369.8,370.67,371.72,372.1Z"/><path class="cls-21" d="M355.83,374.75a21,21,0,0,1-2-3.26c-.09-.23,1.49-1.66,1.66-1.53a9.2,9.2,0,0,1,2.85,2.91c.31.62-.42,1.87-.68,2.83Z"/><path class="cls-17" d="M264.55,330.93l-4.31-6.17.75-.28C264.69,325,264.79,327.87,264.55,330.93Z"/><path class="cls-23" d="M222.12,247.77c7.06-4.5,14.67-5.19,22.58-3.7,2.5,1.6,5.4,2.75,7.4,4.89,4.09,4.35,3.27,12.32-.44,17.17-6.49,8.46-21.34,9.33-28.06,5.84-8.78-4.56-10.42-13.18-4-21C220.47,249.9,221.28,248.83,222.12,247.77Zm19.27,5.68c1.91-3.39,1.39-4.46-2.94-6l-1.52-.36a9,9,0,0,0-8.54,3.16c-2.32-.65-2.68,1.22-2.9,2.86-.28,2.12.82,3.19,2.8,3.19,1.91,2,6.4.3,6.6,5.33l-6.26.94c4.06,1.46,8,2.15,11.53-1,.11-.1,0-.43.05-.84h-2.88l-.91-2.93,5-4.39-.18-.21Z"/><path class="cls-24" d="M201.54,268.47,198.73,267c-3-3.7-4.55-7.76-2.89-12.68l6-5.65c6.53.2,10.41,2.88,11.37,8.74.33,2-1,4.36-1.61,6.56a26.38,26.38,0,0,0-.54-3.7c-.78-2.75-2.61-4.25-5.28-3.87s-3.13,2.13-3.24,5c-.17,4.11,1.75,5.57,4.74,6.59Z"/><path class="cls-25" d="M268.15,236.48a9.06,9.06,0,0,1,3.7,10.17c-.38,1.16-.63,2.38-.94,3.57l-.67.72-.73.78h0l-4.45,2.16c.55-2.32,1.89-4.85,1.42-6.91a6.63,6.63,0,0,0-4.48-4.11c-2.43-.42-3.93,1.81-3.92,4.62,0,1.38.22,2.75.34,4.12-.56-.13-1.29-.06-1.64-.41-2.78-2.78-2.51-6.51-2-9.89.47-2.86,2.14-5.34,5.38-5.57Z"/><path class="cls-15" d="M270.24,250.94l.67-.72c2.59-.8,4.79-3.28,7.93-1.67,2.76,1.41,4.41,3.45,4,6.77s-4.76,6.08-8.28,5.48c-2.9-.5-5.1-2-5.06-5.67,0-1.14,0-2.28,0-3.42h0Z"/><path class="cls-12" d="M207.24,268c-3-1-4.91-2.48-4.74-6.59.11-2.89.63-4.65,3.24-5s4.5,1.12,5.28,3.87a26.38,26.38,0,0,1,.54,3.7Z"/><path class="cls-26" d="M258.43,251.59c-.12-1.37-.34-2.74-.34-4.12,0-2.81,1.49-5,3.92-4.62a6.63,6.63,0,0,1,4.48,4.11c.47,2.06-.87,4.59-1.42,6.91C262.39,254.7,260.08,254.24,258.43,251.59Z"/><path class="cls-3" d="M201.8,248.62l-6,5.65c-2.63-1.4-1.19-3.14-.07-4.4C197.41,248,199.23,245.81,201.8,248.62Z"/><path class="cls-3" d="M268.15,236.48l-7.93-.76c-.46-2.57.88-3.64,2.94-3.45C265.54,232.48,268.38,232.5,268.15,236.48Z"/><path class="cls-27" d="M275.91,208.47a6.86,6.86,0,0,1-.79.74c-1.28.9-2.57,1.77-4,2.75l-6.37-5.75,10.42-7.85c.27.2.56.58.82.56,3.5-.27,3.81.15,2.53,3.63-.62,1.68-1.25,3.35-1.88,5v0Z"/><path class="cls-21" d="M232,220c.16-4.61,1.56-6.49,4.77-6.41,2.93.07,4.5,2.18,4.43,6s-2.32,6.46-5.18,6.32S231.87,223.68,232,220Z"/><path class="cls-21" d="M223.52,210.35c-1.06,2-1.48,3.67-2.49,4.3-.81.5-2.54.06-3.5-.59-2.85-1.93-4.33-7.27-3.24-10.75.84-2.71,2.72-3.45,4.35-1.31C220.56,204.51,221.9,207.52,223.52,210.35Z"/><path class="cls-28" d="M178.87,225.86c-5-2.29-8.05-6.39-9.54-11.86-.27-1,.14-2.14.24-3.21,1.08.21,2.35.11,3.21.7,4,2.67,7.81,5.53,11.7,8.32-1.4-.07-2.81-.09-4.22-.22s-2.65-.34-4.61-.6Z"/><path class="cls-27" d="M178.87,225.86,175.65,219c2,.26,3.28.48,4.61.6s2.82.15,4.22.22l6.44,1.46-2.2,5.26c-2.44,4.33-5.11,1.17-7.72.28l-2.15-1Z"/><path class="cls-21" d="M229.15,199.9l5-.74a77.18,77.18,0,0,1-.65,9.41c-.15.86-2.13,1.8-3.27,1.8-.59,0-1.67-1.94-1.7-3A62.47,62.47,0,0,1,229.15,199.9Z"/><path class="cls-28" d="M276.63,207.58c.63-1.68,1.26-3.35,1.88-5,1.28-3.48,1-3.9-2.53-3.63-.26,0-.55-.36-.82-.56l1.47-3,0,0,1.45-.8,0,.05.75-1.57,0,0,3.78-2.43C285.12,195.83,282.64,202.68,276.63,207.58Z"/><path class="cls-20" d="M222,219.05c.43-.39,1.44-2,2.68-2.25,2.4-.44,4.46,2.47,4.49,5.6,0,2.29-.56,4.11-3.05,4.12S222,224.07,222,219.05Z"/><path class="cls-21" d="M212.42,220.5c-3.8,0-6.37-2.3-5.74-4.75a5.79,5.79,0,0,1,3.34-3.44c1.82-.57,4.57,3,4.2,5.43C214,218.93,212.8,219.94,212.42,220.5Z"/><path class="cls-21" d="M239.36,234c-1.82,1.39-3,2.94-4.21,3.07-2.66.29-3.77-2.06-3.73-4.44s1.29-5.08,3.77-4.3C236.74,228.83,237.68,231.6,239.36,234Z"/><path class="cls-21" d="M246.2,206.62c-.09,3.67-2.4,6.59-4.32,6.07a3.52,3.52,0,0,1-1.95-2.74c.35-2.36.62-5.41,3.75-5.37C244.69,204.6,245.68,206.17,246.2,206.62Z"/><path class="cls-21" d="M249.17,205.48c2-1.17,3.22-2.29,4.48-2.4.72-.06,1.56,1.53,2.34,2.37a31.94,31.94,0,0,1-3.93,3.38C251.88,209,250.65,207.23,249.17,205.48Z"/><path class="cls-21" d="M222.15,225.86c-1.74,1-3.37,2.34-3.65,2.06a11.76,11.76,0,0,1-2.67-4.25c-.13-.36,1.93-2.21,2.11-2.07A40.52,40.52,0,0,1,222.15,225.86Z"/><path class="cls-21" d="M226.53,229.26a36.49,36.49,0,0,1,2.28,4.66c.11.32-1.53,1.77-1.62,1.69a9.44,9.44,0,0,1-2.86-3.12c-.3-.7.63-2,1-3Z"/><path class="cls-21" d="M221.28,200.74l5.63-.87c0,.25.17.58.07.74-1,1.52-2,3-3,4.51Z"/><path class="cls-21" d="M163.2,210.51l-.83-5.21c.61-.06,1.48-.43,1.79-.13a3.42,3.42,0,0,1,.36,5.15Z"/><path class="cls-28" d="M178.85,225.83l2.15,1Z"/><path class="cls-28" d="M275.91,208.47l.73-.92Z"/><path class="cls-29" d="M183.13,317.22l.31-.3c-.1.1-.19.21-.29.32Z"/><path class="cls-29" d="M380.68,346.2l-.32.29.28-.33Z"/><path class="cls-3" d="M278.75,193.05l-.75,1.57Z"/><path class="cls-3" d="M278,194.57l-1.45.8Z"/><path class="cls-12" d="M228.29,256.34c-2,0-3.08-1.07-2.8-3.19.22-1.64.58-3.51,2.9-2.86-.15.79-.31,1.58-.52,2.62l10.58-3.35-2.09-1.06.57-1.37,1.52.36,2.94,6-.18-.22.18.21Z"/><path class="cls-26" d="M228.29,256.34l13.1-2.9-5,4.39.91,2.93h2.88c0,.41.06.74-.05.84-3.53,3.16-7.47,2.47-11.53,1l6.26-.94C234.69,256.64,230.2,258.37,228.29,256.34Z"/><path class="cls-30" d="M236.93,247.13l-.57,1.37,2.09,1.06-10.58,3.35c.21-1,.37-1.83.52-2.62A9,9,0,0,1,236.93,247.13Z"/><path class="cls-26" d="M241.39,253.45l-2.94-6C242.78,249,243.3,250.06,241.39,253.45Z"/><path class="cls-2" d="M270.24,250.94l-.73.78Z"/></svg>