<svg id="Layer_1" data-name="Layer 1" xmlns="http://www.w3.org/2000/svg" viewBox="0 0 512 512"><defs><style>.cls-1{fill:#ef7939;}.cls-2{fill:#fee2c1;}.cls-3{fill:#fde1c1;}.cls-4{fill:#8d2b15;}.cls-5{fill:#8c2a15;}.cls-6{fill:#fde1c2;}.cls-7{fill:#8d2c18;}.cls-8{fill:#e7702c;}.cls-9{fill:#ee7435;}.cls-10{fill:#f9b97e;}.cls-11{fill:#e66f2b;}.cls-12{fill:#fbd0ae;}.cls-13{fill:#f9bb81;}.cls-14{fill:#f9bf8a;}.cls-15{fill:#f9bc84;}.cls-16{fill:#fddfbe;}.cls-17{fill:#ec6929;}.cls-18{fill:#802a13;}.cls-19{fill:#ed6b2b;}.cls-20{fill:#78180f;}.cls-21{fill:#fbd2ad;}.cls-22{fill:#542c25;}.cls-23{fill:#531810;}.cls-24{fill:#e15f26;}.cls-25{fill:#fbd0a7;}.cls-26{fill:#facaaf;}.cls-27{fill:#622f26;}</style></defs><path class="cls-1" d="M228.34,173.25c8.27,23.38,22.38,41.77,45,52.91,9.95,4.9,20.17,9.31,29.8,14.77,15.59,8.84,26.46,22.24,34,38.34,8.1,17.22,9.86,35.26,6.6,53.94a6.35,6.35,0,0,0,2.07,5.14,147.6,147.6,0,0,1,30.08,28.87c14.21,18.47,21.88,39.2,18,62.66-2.83,17-10.93,31.84-23.34,44.12-18.71,18.51-41.73,27.86-67.24,32a179.13,179.13,0,0,1-65.54-1.22c-13.26-2.76-26-8.08-38.94-12.37-1.12-.37-2-1.63-2.93-2.48,10.25-6.05,21.88-7,34.62-8.62-2.91-1.72-4.64-2.7-6.34-3.75-4.87-3-9.94-5.76-14.45-9.23a9.91,9.91,0,0,1-3.61-6.82c0-3.29,2.69-5.31,6.24-5.74,9.19-1.13,18.38-2.34,25.38-3.24l-18.35-10.91-3.86-2.29a2.57,2.57,0,0,0-.63-.28,1.2,1.2,0,0,0-.09-.59c-.16-3.25-.1-6.39,4.11-7.07,4.65-.75,9.3-1.41,13.94-2.18s9.26-1.64,13.88-2.46l.66-1.72c-2.25-1.87-4.62-3.61-6.66-5.68-.78-.78-.79-2.32-1.14-3.52,2,1,4,2.36,6.1,3,12.08,3.55,24.18,7.05,36.35,10.29A55.45,55.45,0,0,0,294.84,431c3.44.08,6.9-1.08,10.36-1.58,11.18-1.61,21.22-5.14,29.71-13.33,10-9.69,14.3-21.06,12.89-34.63a39.35,39.35,0,0,0-10.74-23.55c-6.54,9.09-12.43,18.39-19.49,26.71-6.06,7.15-12.3,14.92-23.07,15.36l-7.88-1.62c-1.44-.65-2.86-1.34-4.33-1.92-6.45-2.59-12.6-5.6-16.92-11.37h7.35c-.7-1.36-1.06-2.05-1.41-2.75a15.34,15.34,0,0,0-1.54-2.08c-14-13.66-22.88-30.16-27.33-49.09-1.21-5.15-1.73-10.45-2.63-16.11l-1.52,2.2c-7.5,2.89-8.66,10.67-13.19,17.6.4-2.66.72-4,.8-5.36.26-4.4.95-8.86.49-13.2s-3.74-5.64-6.76-2.49-5.28,7.59-7.7,11.22c-1.58-5.25-2.12-11.72-7.8-15.6l-10.47-54.75c-.64.56-2.91,3.32-3.58,3-2-1.05-4.35-3-5-5.13-1.33-4.48-1.63-9.26-2.44-13.9-.44-2.51-1-5-1.59-7.49a20.91,20.91,0,0,0,1.57-4c1-5.6,1.76-11.22,2.57-16.85,0-.27-.38-.62-.69-1.08-3.76,5.93-3.59,12.38-3.76,18.77-3.62,2.59-6,1.48-7.15-2.57a93.14,93.14,0,0,1-2.49-9.8c-2-11.22-.36-22.28,1.87-33.28l1.38-1.91c2,.32,4.1,1.13,6.05.89,9.7-1.16,19.4-2.43,29-4C215.81,176.23,222.05,174.61,228.34,173.25ZM189.85,192c-5.15,2.29-5.26,7.11-5.66,11.79L189.86,192l.2-.38Zm52.89,116.16h1.69c.14-2.33,1.2-5.21.21-6.88-2.11-3.57-.45-6.46.38-9.57a43.18,43.18,0,0,1,1.91-4.95c8.35-20.53,34.5-29.85,52-14.26,4.86,4.33,9.06,9.4,13.55,14.13,1.77-6.72-4.72-15.65-16.08-21.64-7.78-4.1-16.29-5.83-24.86-4.24-12.79,2.37-22.14,10.12-28.82,22-.68-7.62-1.29-14.46-1.91-21.31l-1.28.14v48.21c1.09-2.45,1.63-3.69,2.28-5.15ZM199.38,218.8c-5.57,13.81-4.94,42.49,1.33,51.47C197.31,252.62,196.5,235.73,199.38,218.8Zm-7.68-4.9c-3.33,6.89-3.83,19.4,0,25.57Zm-5.32-9.26c-.36.45-.74.72-.76,1s.25.72.4,1.08c.35-.32.8-.58,1-1C187.1,205.58,186.68,205.15,186.38,204.64Zm1.36-1.69a1,1,0,0,0,.11-.38s-.2-.08-.31-.12a1.17,1.17,0,0,0-.12.39S187.63,202.92,187.74,203Z"/><path class="cls-1" d="M258,104.24c3,5.69,5.76,11.53,9.07,17,2.84,4.72,6.62,8.63,12.48,9.64a.38.38,0,0,1,.24.3c0,.13-.11.27-.17.4l-7.24.21c-8.5-.74-16-4.26-23.11-8.65l-1.78-1.34.07,0-.94-1,0,.13c-2.89-6.29-7.76-10.53-13.86-13.5-1.27-4-4.59-4.77-8.15-5.14-3.4-.36-6.82-1.13-10.2-1-6.8.28-13.62,6.3-14.7,12.43l.05,0-1.15,1.08q-4.89,11-9.79,22.07c-5.86-3.34-11.64-2-17.39.35a1.76,1.76,0,0,1-.46-.06q-5.1-11.31-10.19-22.64c.09-.1.27-.29.25-.3a6.15,6.15,0,0,0-.53-.49l.06,0c-.77-9.38-16.35-15.27-24.89-11.43-4-.11-7.08,1.39-8.88,5.1-1,.27-2.21.23-2.82.85-5,5-9.89,10.18-14.82,15.29l.05,0-1.84.94c-6.25,3.94-12.91,6.73-20.37,7.25l-5.5-.1-1.71-.1c11.43-4.35,15.84-14.36,19.86-24.69,2.83-2.24,2.93-5.08,2-8.28-.6-2-1.17-4.23,2.16-4.42l.39.5.19-.56-.11-3.44c.68-3.5.32-7.74,5.46-7.63a106.1,106.1,0,0,1,2.68-10.52c.57-1.59,2.26-2.77,3.44-4.14.81,1.52,1.63,3,2.43,4.56.31.6.59,1.22,1.06,2.22.27-1,.39-1.6.57-2.15,1.87-5.72,2.5-5.91,7.27-2.08,1.89,1.52,3.62,2.28,5.84.44a68.23,68.23,0,0,1,5.78-3.93l11.43-5.43c5.41-1.3,10.78-2.79,16.24-3.83,2.91-.55,6,0,9-.52,10.89-1.91,21.18,1,31.54,3.51l12,5.3,5.82,3.33c3.37-6.16,3.7-6.13,9.08.36.2-2.46.38-4.55.55-6.69,4.29,1,6.09,4.2,8.39,14.3,3.33-1.53,4.43-1.24,5.1,2.78.71,4.25,1.05,8.42,5,11.12C253.66,96.25,254.47,100.81,258,104.24Z"/><path class="cls-2" d="M214.9,439.05a2.57,2.57,0,0,1,.63.28l3.86,2.29,18.35,10.91c-7,.9-16.19,2.11-25.38,3.24-3.55.43-6.24,2.45-6.24,5.74a9.91,9.91,0,0,0,3.61,6.82c4.51,3.47,9.58,6.21,14.45,9.23,1.7,1.05,3.43,2,6.34,3.75-12.74,1.64-24.37,2.57-34.62,8.62-3.71-1.62-7.53-3.05-11.12-4.91-7.7-4-15.23-8.32-22.94-12.29a48.93,48.93,0,0,0-27.62-5.1,50,50,0,0,1-5.74-.08c.05-.53.1-1.06.16-1.59.29-.3.59-.59.89-.88l1.76-.9a10.1,10.1,0,0,0,2.08-.66,42.76,42.76,0,0,1,30.23-4.69c2.25.45,4.44,1.18,6.66,1.78-10.34-5.78-21-6-31.64-1.44-2.68,1.14-5,3.25-7.42,4.91l-1.77.91-.87.88-1.73,2.3a.7.7,0,0,1-.62.43H125c.29-1.16.27-2.53.91-3.44,7.19-10.22,16.18-18.6,27.88-23.09,9.9-3.81,20.3-6.32,30.47-9.41a114.81,114.81,0,0,0-12.23.34c-12.17.9-22.69,6-32.2,13.27-4.63,3.52-8.72,7.76-13.05,11.67.53-1.3.78-2.84,1.65-3.85,4.67-5.45,9.5-10.76,14.26-16.14.94-1.06,1.83-2.19,2.74-3.28L144,433.43l-21.1,23.92,4,.56q-2.67,3.57-5.35,7.13c0-.59,0-1.19,0-1.78l1.83-2.63c.21-.36.42-.71.61-1.08a2.87,2.87,0,0,0-.33-.26l-.44,1.2-1.69,2.75c-.86.61-1.71,1.23-2.56,1.85,2.76-7.07,4.83-14.53,8.46-21.11,5.17-9.37,13-16.5,21.48-23.16,11.83-9.29,25.12-13.57,39.79-14.57a3.62,3.62,0,0,0,1.2-.53l2.66-.1a12.85,12.85,0,0,0,2.9.73c15.39.1,29.81,4.7,44.19,9.48.35,1.2.36,2.74,1.14,3.52,2,2.07,4.41,3.81,6.66,5.68l-.66,1.72c-4.62.82-9.24,1.69-13.88,2.46s-9.29,1.43-13.94,2.18c-4.21.68-4.27,3.82-4.11,7.07-8.19-4.31-17.16-5.74-20.7-3.42,4.59.8,9.32,1.58,14,2.46C210.41,437.93,212.65,438.53,214.9,439.05Zm-19.73-17.42,13.66,4.08.4-1.37-14-3.75a40.76,40.76,0,0,0-22.13,1ZM147,433l-.22-.3-.27.26.36.38Z"/><path class="cls-2" d="M173,182.28c-2.23,11-3.83,22.06-1.87,33.28a93.14,93.14,0,0,0,2.49,9.8c1.18,4,3.53,5.16,7.15,2.57.1,1.06.21,2.12.31,3.18.54,2.5,1.15,5,1.59,7.49.81,4.64,1.11,9.42,2.44,13.9.62,2.09,2.93,4.08,5,5.13.67.35,2.94-2.41,3.58-3l10.47,54.75-.3,32.31c-1.35-1.06-2.8-2-4-3.16-4.1-3.88-8.12-7.83-12.17-11.75l-28.34-35.49-1.14-.36c-2.11-4.61-4.31-9.18-6.28-13.85-1.42-3.35-2.55-6.82-3.8-10.24a24,24,0,0,0,.79-4.62c-.11-4.56-.54-9.11-.65-13.67-.12-4.92,0-9.85,0-14.78-3.22,8.81-2.93,17.81-2.2,26.84-1-1.86-2-3.73-3.08-5.57-.81-1.42-1.66-2.81-2.5-4.21,1.7-13.73,3.4-27.46,5.28-42.59-2.3,6.6-4.2,12-6.1,17.47l-6.24,7.78c-3.06-3.85-2.18-7.65-1.51-11.33.52-2.88,1.35-5.71,2-8.55q1-2.28,2-4.57l.89-.88.88-.89.86-.93.33-.56-.55.34-.9.88-.89.89-.89.89-6.3,7.33c-.82-1.09-2.37-2.18-2.36-3.25.2-14.94,5.19-27.84,16.72-37.79,6.64,1.49,13.29,2.93,19.9,4.51C166.73,180.36,169.86,181.38,173,182.28ZM164.59,291c-6.4-14-10.43-28.39-9.13-44.87C149.66,257.89,153.45,279.83,164.59,291Z"/><path class="cls-3" d="M188.77,136.94q4.89-11,9.79-22.06l1.15-1.08-.05,0c6.69-7.55,14.68-11.38,24.93-8.89l5.39,2.7c.93.69,1.91,1.34,2.8,2.07,4.61,3.76,9.19,7.54,13.79,11.32l0-.13.94,1-.07,0,1.78,1.34c7.14,4.39,14.61,7.91,23.11,8.65l2.9,1.09,0,1-14.54,1.7c4.7,2.3,9.46,1.07,14.2.27l-6.19,6.53L256,148.64l2.17,1.41c1,3.94-2.05,5.29-4.64,6.38-7.65,3.22-15.44,6.11-23.16,9.17a38.16,38.16,0,0,0-3.43,1.75,42,42,0,0,0-4.32.92c-14.88,4.73-30,7.58-45.72,7.06l-29.76-2.92c-4.71-1.76-9.45-3.42-14.12-5.3-9.91-4-19.88-7.87-29.6-12.29-2.2-1-3.48-4-5.18-6.08L105,148l-.1-.84-13.69-2.23.06.05-1.21-1-8.55-9.79.33-.34c5.17,1.28,10.13,4.75,16.69,1.75l-15.67-2.3,4-1.52c7.46-.52,14.12-3.31,20.37-7.25l1.84-.94-.05,0a7.45,7.45,0,0,0,2-.83q9.21-7.52,18.37-15.1l6.11-2.85c3.31-.09,6.66-.53,9.93-.18,6.34.67,10.58,5.13,15,9.15l-.06,0a1.08,1.08,0,0,0,.28.79q5.1,11.33,10.19,22.64c.74,4.92.46,10.64,4.92,13.66,3.32,2.24,3.91,4.47,3.46,7.9l-9.87-.83c8.6,5.73,20.7,4.13,23.87-2.46l-12.16,4c.84-3.38,1.16-5.76,2-7.91,1.16-2.87,2.74-5.57,4.15-8.35l0,0,.63-2.77Zm51.71-1.84a25.44,25.44,0,0,0-6.88-19.52,21.67,21.67,0,0,0-24.67-5.88c-7.45,2.88-12.54,18.15-10.61,25.18,1.74,6.32,4.56,11.13,10.89,12.53,8.08,1.78,16.33,2.28,24.15-1.63,1.86,6.54,4.75,9.05,10.24,8.91a9.46,9.46,0,0,0,9.05-7.67C254.29,139.89,249.42,135.12,240.48,135.1ZM127.7,146.66c6.12.59,12.26,1.87,18.34,1.62,10.36-.43,15.38-6.33,15.4-16.62,0-1.63.07-3.26,0-4.89-.7-14.91-14.55-23.15-27.5-16.55-10.51,5.35-15.5,14-15.1,25.78-5.88-.72-8.16,2.58-10.18,7.35-2.6,6.15,1.73,12.13,8.42,12.23C123,155.67,125.22,153.82,127.7,146.66Z"/><path class="cls-4" d="M203.83,341.72l.3-32.31c5.68,3.88,6.22,10.35,7.8,15.6,2.42-3.63,4.53-7.93,7.7-11.22s6.31-1.89,6.76,2.49-.23,8.8-.49,13.2c-.08,1.36-.4,2.7-.8,5.36,4.53-6.93,5.69-14.71,13.19-17.6q-6.73,20.75-13.47,41.49-2.85,6.84-5.72,13.69l-4,8.76-6.51,11c-1,.77-2.46,1.32-3.05,2.34-3,5.26-7.7,8.54-13,11.11l-2.66.1c-3.6-2-2.16-4.7-1.2-7.57,3.87-11.54,7.59-23.14,11.26-34.74a22.8,22.8,0,0,0,.46-4.78Q202.1,350.17,203.83,341.72Z"/><path class="cls-5" d="M159.28,291.32l28.34,35.49-5.79,19c-3.66,8.23-7.18,16.52-11,24.66s-8,16.2-12,24.32c-1.86,3.82-5.23,4-8.67,3.53-3-.39-3.92-3.62-2.72-7.9,2.76-9.83,5.75-19.62,8-29.57,2.25-10.14,3.69-20.46,5.48-30.69a30.74,30.74,0,0,0,.44-4.67C160.7,314.08,160,302.7,159.28,291.32Z"/><path class="cls-6" d="M258,104.24c-3.51-3.43-4.32-8-5.19-12.52.17-.56.16-1.29.52-1.66,4.12-4.25,5.5-8.88,2.48-14.39-.36-.64.08-1.7.11-2.57.18-4.76.42-9.53.46-14.29a3.65,3.65,0,0,0-1.22-2.66c-4.49-3.17-3.95-7.8-4.19-12.42a18.94,18.94,0,0,0-2.42-7.92c-.93-1.7-3-2.85-4.66-4.06a43.22,43.22,0,0,0-4.31-2.45,47,47,0,0,1,3.09-4.15c3.93-4.29,6.52-4.17,10.29.42,1.15,1.41,2.11,3,3.43,4.86.18-1.12.25-1.55.31-2a146.87,146.87,0,0,1,7.08,33c1.32,12.12-.33,23.77-2.94,35.43C260.26,99.42,259,101.79,258,104.24Z"/><path class="cls-7" d="M256.68,28.45c-.06.43-.13.86-.31,2-1.32-1.88-2.28-3.45-3.43-4.86-3.77-4.59-6.36-4.71-10.29-.42a47,47,0,0,0-3.09,4.15L218.88,66.52l-12-5.3c8.25-15.37,18-29.68,30.32-42.06a29.24,29.24,0,0,1,2.64-2.34c5.42-4.29,9.4-3.53,12.58,2.52C254,22.3,255.27,25.41,256.68,28.45Z"/><path class="cls-7" d="M150.15,62.06l-11.43,5.43c-1.83-3.34-3.6-6.72-5.51-10-5.64-9.72-11.34-19.41-17-29.11-4.93-5.9-7.09-6.2-12.16.08-1,1.2-2,2.37-2.94,3.56,2-4.51,3.68-9.17,6-13.48,1.62-3,4.83-3.8,7.55-1.59,4.63,3.74,9.63,7.4,13.11,12.11C135.68,39.72,142.74,51,150.15,62.06Z"/><path class="cls-6" d="M101.09,32c1-1.19,2-2.36,2.94-3.56,5.07-6.28,7.23-6,12.16-.08-1.3,1.19-3.31,2.15-3.77,3.61-1.75,5.6-7.11,9.85-6.11,16.5.14.9-.61,2.65-1.27,2.82-3.47.91-2.85,3.58-3.11,6-.19,1.88-.87,3.7-1.13,5.58s-.24,3.78-.45,5.66-.11,4-.92,5.65c-2.71,5.53-.41,14,4.76,16.49,0,1.15.07,2.29.11,3.44a2.86,2.86,0,0,0-.58.06c-3.33.19-2.76,2.42-2.16,4.42,1,3.2.86,6-2,8.28C97.72,98.77,95,90.71,94.17,82.46c-1.48-14.16.3-28.28,3.49-42.15C98.32,37.43,99.92,34.77,101.09,32Z"/><path class="cls-8" d="M181.83,345.78l5.79-19c4,3.92,8.07,7.87,12.17,11.75,1.24,1.16,2.69,2.1,4,3.16q-1.72,8.46-3.46,16.91Z"/><path class="cls-9" d="M176.91,175.33c15.69.52,30.84-2.33,45.72-7.06a42,42,0,0,1,4.32-.92q.69,3,1.39,5.9c-6.29,1.36-12.53,3-18.87,4-9.64,1.57-19.34,2.84-29,4-2,.24-4-.57-6.05-.89Q175.65,177.85,176.91,175.33Z"/><path class="cls-10" d="M126.82,457.93c4.33-3.91,8.42-8.15,13.05-11.67,9.51-7.25,20-12.37,32.2-13.27a114.81,114.81,0,0,1,12.23-.34c-10.17,3.09-20.57,5.6-30.47,9.41-11.7,4.49-20.69,12.87-27.88,23.09-.64.91-.62,2.28-.91,3.44v.72c-1.28,1.1-2.54,2.21-3.84,3.28-.92.76-1.9,1.46-2.86,2.19-.34-1.16-.67-2.33-1-3.5l.39,0,2.91-5.42,0,.06.93-.94,0,0q2.68-3.56,5.35-7.13Z"/><path class="cls-11" d="M159.28,291.32c.7,11.38,1.42,22.76,2.05,34.14a30.74,30.74,0,0,1-.44,4.67c-.82-3-1.13-6.27-2.56-8.94-5.4-10.13-6.09-20.12-.19-30.23Z"/><path class="cls-12" d="M176.91,175.33q-1.26,2.52-2.53,5L173,182.28c-3.14-.9-6.27-1.92-9.45-2.67-6.61-1.58-13.26-3-19.9-4.51l3.5-2.69Z"/><path class="cls-13" d="M139.57,225.74c1.9-5.43,3.8-10.87,6.1-17.47-1.88,15.13-3.58,28.86-5.28,42.59l-.3,2.06-.84,0c-.26-2.91-.71-5.81-.74-8.71,0-3.08.33-6.16.52-9.23Z"/><path class="cls-10" d="M146,260.64c-.73-9-1-18,2.2-26.84,0,4.93-.09,9.86,0,14.78.11,4.56.54,9.11.65,13.67a24,24,0,0,1-.79,4.62Q147,263.77,146,260.64Z"/><path class="cls-13" d="M274.9,135.86c-4.74.8-9.5,2-14.2-.27l14.54-1.7,0-1-2.9-1.09,7.24-.21Z"/><path class="cls-10" d="M129.29,216.14l6.3-7.33.27.27q-1,2.28-2,4.56l-8,14.05-.57-.13Q127.32,221.85,129.29,216.14Z"/><path class="cls-14" d="M258.18,150.05,256,148.64l12.7-6.25C266.89,147.27,262.3,148.33,258.18,150.05Z"/><path class="cls-15" d="M91.25,144.91l13.69,2.23.1.84-6.79.76Z"/><path class="cls-15" d="M117.72,471.31l-.39,0,1.59-6.19c.85-.62,1.7-1.24,2.56-1.85l0,0c0,.59,0,1.19,0,1.78l0,0-.93.94,0-.06C119.66,467.7,118.69,469.5,117.72,471.31Z"/><path class="cls-3" d="M79.73,131.61l1.71.1c.15.72.29,1.45.44,2.17l-.33.34Z"/><path class="cls-13" d="M128.64,466c-.06.53-.11,1.06-.16,1.59l-1.65.62,1.73-2.3Z"/><path class="cls-15" d="M90.1,144l1.21,1Z"/><path class="cls-13" d="M125,469.31v-.72h1.17Z"/><path class="cls-16" d="M224.82,358.74l13.47-41.5,1.52-2.2c.9,5.66,1.42,11,2.63,16.11,4.45,18.93,13.37,35.43,27.33,49.09a15.34,15.34,0,0,1,1.54,2.08l-2.15-.11c-6.64-2.83-13.53-5.2-19.86-8.61C240.91,369.08,233,363.73,224.82,358.74Z"/><path class="cls-5" d="M217.34,399.23c.67-1.42,1.08-3.06,2.08-4.2a21.35,21.35,0,0,1,4.11-2.94,33.09,33.09,0,0,1,3.37-2c8.91-4,18.48-5.08,28-5.85,3.43-.28,6.94.54,10.42.86,4.32,5.77,10.47,8.78,16.92,11.37,1.47.58,2.89,1.27,4.33,1.92a30.45,30.45,0,0,1-5,.83Q249.45,399.28,217.34,399.23Z"/><path class="cls-17" d="M242.74,308.18l-.89-3.56c-.65,1.46-1.19,2.7-2.28,5.15V261.56l1.28-.14c.62,6.85,1.23,13.69,1.91,21.31,6.68-11.83,16-19.58,28.82-22,8.57-1.59,17.08.14,24.86,4.24,11.36,6,17.85,14.92,16.08,21.64-4.49-4.73-8.69-9.8-13.55-14.13-17.54-15.59-43.69-6.27-52,14.26a43.18,43.18,0,0,0-1.91,4.95c-.83,3.11-2.49,6-.38,9.57,1,1.67-.07,4.55-.21,6.88Z"/><path class="cls-18" d="M265.37,385.07c-3.48-.32-7-1.14-10.42-.86-9.57.77-19.14,1.83-28,5.85a33.09,33.09,0,0,0-3.37,2l-8.36,0-6.61.05,6.51-11,11.23-3.52c7.58.86,15.15,1.74,22.74,2.55,6.7.71,13.41,1.34,20.12,2l2.15.11c.35.7.71,1.39,1.41,2.75Z"/><path class="cls-19" d="M199.38,218.8c-2.88,16.93-2.07,33.82,1.33,51.47C194.44,261.29,193.81,232.61,199.38,218.8Z"/><path class="cls-20" d="M217.34,399.23q32.11,0,64.24,0a30.45,30.45,0,0,0,5-.83L294.5,400q-37.5.07-75,.1A6.53,6.53,0,0,1,217.34,399.23Z"/><path class="cls-19" d="M191.7,213.9v25.57C187.87,233.3,188.37,220.79,191.7,213.9Z"/><path class="cls-17" d="M181.08,231.11c-.1-1.06-.21-2.12-.31-3.18.17-6.39,0-12.84,3.76-18.77.31.46.73.81.69,1.08-.81,5.63-1.61,11.25-2.57,16.85A20.91,20.91,0,0,1,181.08,231.11Z"/><path class="cls-13" d="M214.9,439.05c-2.25-.52-4.49-1.12-6.76-1.55-4.71-.88-9.44-1.66-14-2.46,3.54-2.32,12.51-.89,20.7,3.42A1.2,1.2,0,0,1,214.9,439.05Z"/><path class="cls-19" d="M189.86,192l-5.67,11.78c.4-4.68.51-9.5,5.66-11.79Z"/><path class="cls-13" d="M219.39,441.62l-3.86-2.29Z"/><path class="cls-17" d="M186.38,204.64c.3.51.72.94.63,1.12-.19.4-.64.66-1,1-.15-.36-.43-.74-.4-1.08S186,205.09,186.38,204.64Z"/><path class="cls-17" d="M187.74,203c-.11,0-.32-.07-.32-.11a1.17,1.17,0,0,1,.12-.39c.11,0,.31.08.31.12A1,1,0,0,1,187.74,203Z"/><path class="cls-19" d="M189.85,192l.21-.37-.2.38Z"/><path class="cls-21" d="M104.19,90.72c-5.17-2.48-7.47-11-4.76-16.49.81-1.64.71-3.75.92-5.65s.18-3.79.45-5.66.94-3.7,1.13-5.58c.26-2.46-.36-5.13,3.11-6,.66-.17,1.41-1.92,1.27-2.82-1-6.65,4.36-10.9,6.11-16.5.46-1.46,2.47-2.42,3.77-3.61,5.68,9.7,11.38,19.39,17,29.11,1.91,3.29,3.68,6.67,5.51,10a68.23,68.23,0,0,0-5.78,3.93c-2.22,1.84-3.95,1.08-5.84-.44-4.77-3.83-5.4-3.64-7.27,2.08-.18.55-.3,1.12-.57,2.15-.47-1-.75-1.62-1.06-2.22-.8-1.53-1.62-3-2.43-4.56-1.18,1.37-2.87,2.55-3.44,4.14a106.1,106.1,0,0,0-2.68,10.52C104.51,83,104.87,87.22,104.19,90.72Z"/><path class="cls-21" d="M218.88,66.52,239.56,29.3a43.22,43.22,0,0,1,4.31,2.45c1.68,1.21,3.73,2.36,4.66,4.06A18.94,18.94,0,0,1,251,43.73c.24,4.62-.3,9.25,4.19,12.42a3.65,3.65,0,0,1,1.22,2.66c0,4.76-.28,9.53-.46,14.29,0,.87-.47,1.93-.11,2.57,3,5.51,1.64,10.14-2.48,14.39-.36.37-.35,1.1-.52,1.66-3.92-2.7-4.26-6.87-5-11.12-.67-4-1.77-4.31-5.1-2.78-2.3-10.1-4.1-13.28-8.39-14.3-.17,2.14-.35,4.23-.55,6.69-5.38-6.49-5.71-6.52-9.08-.36Z"/><path class="cls-22" d="M187.32,143.22c-1.41,2.78-3,5.48-4.15,8.35-.87,2.15-1.19,4.53-2,7.91l12.16-4c-3.17,6.59-15.27,8.19-23.87,2.46l9.87.83c.45-3.43-.14-5.66-3.46-7.9-4.46-3-4.18-8.74-4.92-13.66a1.76,1.76,0,0,0,.46.06c2.19,7.22,2.94,7.62,11.42,6.06l1.78,3.12Z"/><path class="cls-23" d="M187.32,143.22l-2.74,3.26-1.78-3.12c-8.48,1.56-9.23,1.16-11.42-6.06,5.75-2.32,11.53-3.69,17.39-.35l-.84,3.52-.63,2.77Z"/><path class="cls-24" d="M224.59,105c-10.25-2.49-18.24,1.34-24.93,8.89,1.08-6.13,7.9-12.15,14.7-12.43,3.38-.14,6.8.63,10.2,1Z"/><path class="cls-24" d="M160.51,113.86c-4.42-4-8.66-8.48-15-9.15-3.27-.35-6.62.09-9.93.18,0-.82,0-1.64,0-2.46C144.16,98.59,159.74,104.48,160.51,113.86Z"/><path class="cls-24" d="M129.47,107.74q-9.18,7.56-18.37,15.1a7.45,7.45,0,0,1-2,.83c4.93-5.11,9.81-10.26,14.82-15.29.61-.62,1.86-.58,2.82-.85Z"/><path class="cls-24" d="M246.57,121.05c-4.6-3.78-9.18-7.56-13.79-11.32-.89-.73-1.87-1.38-2.81-2.07l2.74-.11C238.81,110.52,243.68,114.76,246.57,121.05Z"/><path class="cls-13" d="M81.88,133.88c-.15-.72-.29-1.45-.44-2.17l5.5.1-4,1.52,15.67,2.3C92,138.63,87.05,135.16,81.88,133.88Z"/><path class="cls-7" d="M129.47,107.74l-2.73-.21c1.8-3.71,4.88-5.21,8.88-5.1,0,.82,0,1.64,0,2.46Z"/><path class="cls-7" d="M232.71,107.55l-2.74.11-5.38-2.7,0-2.55C228.12,102.78,231.44,103.53,232.71,107.55Z"/><path class="cls-24" d="M249.25,123.17l-1.78-1.34Z"/><path class="cls-24" d="M109.15,123.62l-1.84.94Z"/><path class="cls-24" d="M247.54,121.88l-.94-1Z"/><path class="cls-24" d="M199.71,113.8l-1.15,1.08Z"/><path class="cls-24" d="M160.73,114.6a1.08,1.08,0,0,1-.28-.79,6.15,6.15,0,0,1,.53.49S160.82,114.5,160.73,114.6Z"/><path class="cls-21" d="M103.72,94.22a2.86,2.86,0,0,1,.58-.06c-.06.19-.13.37-.19.56Z"/><path class="cls-13" d="M131.2,464.08c2.46-1.66,4.74-3.77,7.42-4.91,10.65-4.52,21.3-4.34,31.64,1.44-2.22-.6-4.41-1.33-6.66-1.78a42.76,42.76,0,0,0-30.23,4.69,10.1,10.1,0,0,1-2.08.66Z"/><path class="cls-15" d="M126.83,457.91l-4-.56L144,433.43l1.52,1.23c-.91,1.09-1.8,2.22-2.74,3.28-4.76,5.38-9.59,10.69-14.26,16.14-.87,1-1.12,2.55-1.65,3.85Z"/><path class="cls-10" d="M195.17,421.63H173.05a40.76,40.76,0,0,1,22.13-1C195.17,420.94,195.17,421.28,195.17,421.63Z"/><path class="cls-14" d="M195.17,421.63c0-.35,0-.69,0-1l14,3.75-.4,1.37Z"/><path class="cls-15" d="M123.33,460.63l-1.83,2.63,0,0,1.69-2.75Z"/><path class="cls-15" d="M147,433l-.13.34-.36-.38.27-.26Z"/><path class="cls-15" d="M123.17,460.49l.44-1.2a2.87,2.87,0,0,1,.33.26c-.19.37-.4.72-.61,1.08Z"/><path class="cls-13" d="M131.29,464.18l-1.76.9-.1-.09,1.77-.91Z"/><path class="cls-13" d="M129.53,465.08c-.3.29-.6.58-.89.88l-.08-.09.87-.88Z"/><path class="cls-10" d="M164.59,291c-11.14-11.16-14.93-33.1-9.13-44.87C154.16,262.6,158.19,277,164.59,291Z"/><path class="cls-10" d="M135.59,208.81l.89-.89.27.27-.89.88Z"/><path class="cls-10" d="M136.48,207.92l.89-.89.27.27c-.3.29-.6.59-.89.89Z"/><path class="cls-10" d="M137.37,207l.9-.88.22.23-.86.92Z"/><path class="cls-10" d="M138.27,206.15l.55-.34-.33.56Z"/><path class="cls-25" d="M118.83,136c-.4-11.79,4.59-20.43,15.1-25.78,12.95-6.6,26.8,1.64,27.5,16.55.08,1.63,0,3.26,0,4.89,0,10.29-5,16.19-15.4,16.62-6.08.25-12.22-1-18.34-1.62C126.31,141.79,124.46,137.32,118.83,136Zm14.7-13.72c-.89,6.83.88,10.47,5.85,13,4.11,2.06,9.59,1.5,12.51-2.07,1.45-1.78,1.58-4.65,2.31-7l-1.28-.34c-1.08,4.87-3.15,7.35-7.1,7.85C137.87,134.68,136.36,128,133.53,122.28Z"/><path class="cls-25" d="M233.36,145.78c-7.82,3.91-16.07,3.41-24.15,1.63-6.33-1.4-9.15-6.21-10.89-12.53-1.93-7,3.16-22.3,10.61-25.18a21.67,21.67,0,0,1,24.67,5.88,25.44,25.44,0,0,1,6.88,19.52C235.39,136.84,234,141.08,233.36,145.78Zm-6.93-25.12c-1.58,5.09-4.06,9.53-9.38,10.72-6.1,1.37-8.41-3.45-10.66-8.64-1,4.52.24,7.56,3.32,9.55,3.85,2.5,8.18,2.83,12.08.39C226,130.05,227.38,125.77,226.43,120.66Z"/><path class="cls-26" d="M233.36,145.78c.67-4.7,2-8.94,7.12-10.68,8.94,0,13.81,4.79,12.17,11.92a9.46,9.46,0,0,1-9.05,7.67C238.11,154.83,235.22,152.32,233.36,145.78Z"/><path class="cls-26" d="M118.83,136c5.63,1.32,7.48,5.79,8.87,10.66-2.48,7.16-4.69,9-10.63,8.92-6.69-.1-11-6.08-8.42-12.23C110.67,138.58,113,135.28,118.83,136Z"/><path class="cls-22" d="M187.3,143.24l.63-2.77Z"/><path class="cls-11" d="M269.16,382.21c-6.71-.66-13.42-1.29-20.12-2-7.59-.81-15.16-1.69-22.74-2.55l-7.2-5.24q2.86-6.85,5.72-13.69c8.14,5,16.09,10.35,24.48,14.87C255.63,377,262.52,379.38,269.16,382.21Z"/><path class="cls-2" d="M117.72,471.31c1-1.81,1.94-3.61,2.9-5.42C119.66,467.7,118.69,469.5,117.72,471.31Z"/><path class="cls-2" d="M120.58,466l.93-.94Z"/><path class="cls-27" d="M133.53,122.28c2.83,5.7,4.34,12.4,12.29,11.38,4-.5,6-3,7.1-7.85l1.28.34c-.73,2.37-.86,5.24-2.31,7-2.92,3.57-8.4,4.13-12.51,2.07C134.41,132.75,132.64,129.11,133.53,122.28Z"/><path class="cls-27" d="M226.43,120.66c.95,5.11-.42,9.39-4.64,12-3.9,2.44-8.23,2.11-12.08-.39-3.08-2-4.29-5-3.32-9.55,2.25,5.19,4.56,10,10.66,8.64C222.37,130.19,224.85,125.75,226.43,120.66Z"/></svg>