<svg id="Layer_1" data-name="Layer 1" xmlns="http://www.w3.org/2000/svg" viewBox="0 0 512 512"><defs><style>.cls-1{fill:#fe7a31;}.cls-2{fill:#fd7a31;}.cls-3{fill:#fde0bf;}.cls-4{fill:#fddfbe;}.cls-5{fill:#fed1a6;}.cls-6{fill:#fd7028;}.cls-7{fill:#fd7129;}.cls-8{fill:#fcceab;}.cls-9{fill:#fcdfbf;}.cls-10{fill:#fcb87b;}.cls-11{fill:#8a2814;}.cls-12{fill:#8a2713;}.cls-13{fill:#fddebd;}.cls-14{fill:#8b2812;}.cls-15{fill:#eb6828;}.cls-16{fill:#ec6828;}.cls-17{fill:#f96f29;}.cls-18{fill:#facba8;}.cls-19{fill:#e25e24;}.cls-20{fill:#fcd2ac;}.cls-21{fill:#5b1911;}.cls-22{fill:#e05f27;}.cls-23{fill:#fdcfa5;}.cls-24{fill:#fccfa5;}.cls-25{fill:#f9c9ad;}.cls-26{fill:#f97c38;}.cls-27{fill:#ece4e2;}.cls-28{fill:#561c16;}</style></defs><path class="cls-1" d="M90.55,303c.75-6,1.57-12,2.21-18a40.34,40.34,0,0,0,.1-7.29c-.74-9.77-1.06-19.53,3.91-28.4,4.35-7.77,8.51-15.79,14-22.74,6.46-8.23,14-15.67,21.51-23,11.12-10.93,24.72-17,40-19.89,6.88-1.31,13.66-1.06,20.51-1.31,2.78-.09,5.61-.81,8.32-.46,7.53,1,15,2.29,22.51,3.58,4.43.76,8.85,1.63,13.23,2.63,2.22.51,4.35,1.42,6.52,2.15a11.43,11.43,0,0,1,.6,2.69c-.16,7.07-.35,14.14-.61,21.21-.39,10.52,1.51,20.66,4.57,30.69a11.5,11.5,0,0,1-.49,6.79,52,52,0,0,1-4.78,9.7c-2.77,4.48-5,9.6-11.34,10.43-2.58.35-2.66,2.09-1,3.72,2.79,2.73,5.73,5.3,9,8.3-1.08,1.94.82,3.17,2.71,4.52,2.28,1.62,5,3,6.54,5.2,2.49,3.47,5,6.46,9.28,7.75a24.93,24.93,0,0,1,4.55,2.48l-11.17.77a7.21,7.21,0,0,1-2.33-.62c-8.26-5.6-16.55-11.18-24.65-17a5,5,0,0,1-1.3-4.41c1.27-4.17,3.68-8.05,4.55-12.27A27.35,27.35,0,0,0,225.85,253c-3.32-7-7.47-13.32-14-18.3-5.16-3.93-10.93-5.83-16.53-8.42-1-.48-2.27-.48-4.38-.88,5.52,3.82,10.26,6.87,14.74,10.25,7.8,5.89,13,13.54,14.86,23.27,1.47,7.88-1.45,14.75-4.9,21.52-5.06-3.14-9.42-7.09-14.51-8.69-8.24-2.58-15.84-6.75-24.78-7.85-15.06-1.85-29.9-2.86-44.8.51-3.46.78-6.57,2.29-8.73,5.72,8.51.52,16.93.62,25.35.5,12-.18,24-.25,35.5,4.21,4,1.55,8.47,2,12.38,3.68,6.44,2.85,12.68,6.2,18.85,9.62,5.56,3.07,11,6.42,16.33,9.83,5.09,3.23,10.05,6.66,15,10.09A21.54,21.54,0,0,1,249,310.8l-2.55.33-.28.95,7,3.89.74-1.14c-.83-.64-1.67-1.28-2.48-1.94s-1.64-1.4-2.46-2.1a26,26,0,0,1,3.13,1c3.21,1.49,6.38,3.07,9.57,4.62a107.35,107.35,0,0,1,7.57,7.67c2.74,3.36,5.11,7,7.52,10.63,1.21,1.8,2.16,3.76,3.23,5.64l-24.89-1.82a55.08,55.08,0,0,0,9.56,2.88c5.1.87,10.3,2.49,15.35-.33,3.43.76,3.88,3.5,4.21,6.33H260.91c6.77,4.56,13.37,3.86,19.91,3.05,1.46-.19,2.79-1.52,4.17-2.33l4.28,5.1a4.34,4.34,0,0,1-.08.52L270.86,359c.88.29,2.52.74,4.11,1.33,4.46,1.65,6.8,5.1,4.78,9.13a13.69,13.69,0,0,1-7.66,6.46c-10.21,2.76-20.64,4.74-31,6.78-3.53.69-7.2.66-11.37,1l11.75,3c7.05,1.82,8.19,3.42,7.43,10.54a5.38,5.38,0,0,0-.51.2c-4.28-.44-8.57-.78-12.84-1.35-4.68-.62-9.33-1.49-14-2.17-3.1-.46-6.3-.48-9.33-1.22q-9.27-2.28-18.38-5.16c-7.63-2.4-15.31-4.74-22.72-7.72-6.79-2.73-13.32-6.15-19.83-9.53a87.39,87.39,0,0,1-11-6.75c-4.65-3.37-9.07-7.06-13.52-10.69-3.49-2.85-7.24-5.49-10.22-8.82-5-5.52-9.57-11.39-14-17.35a54.36,54.36,0,0,1-10.06-21.3C92.32,304.54,91.22,303.83,90.55,303Zm126.78-8.49-1.48-1.22-.39.74,1.83.53c.15,2.91,2,4.37,4.87,5.65C221.45,297.11,219.92,295.39,217.33,294.55Zm59.07,43.61c0-.55.07-1.1.11-1.66-2.16-.4-4.45-.48-6.46-1.26-4.63-1.8-9.18-3.83-13.67-6-6-2.83-11.77-6-17.78-8.74q-11.65-5.3-23.56-10.08c-2-.83-4.45-.8-6.85-1.18,6.64,2.83,13.25,5.09,19.33,8.36,8.41,4.53,16.24,10.17,24.67,14.66,4.94,2.63,10.49,4.23,15.92,5.74C270.69,338.76,273.63,338.16,276.4,338.16ZM158.57,285l-.2.93,10.24,2.49C165.84,284.61,162.37,284,158.57,285Zm75.83,23.37-.88,1.38,9.19,4.65.69-1.34Zm-99.29-33,.19,1c3.28.85,7,0,8.91-2.64Zm68.47,9.67-.51,1.29,7.15,2.68C208.53,286.52,207,283.64,203.58,285.11ZM230.52,189l-.36,1.3,7.18,1.71C235.56,187.53,232.74,189.21,230.52,189Zm-68.21.14-.78-1.19-6.16,3.38.53,1C158.38,191.94,161.09,192,162.31,189.18ZM166,275.9l8.15,1C171.06,273.54,169.07,273.31,166,275.9Zm-7,.45.16-1.77-8.31-.45-.09,1.24Zm40.68,22.75.69-1.83L193.55,295l-.47,1.29Zm1.71-109.31.05-.95a7.79,7.79,0,0,0-6.46-.12l0,1.07Zm-50,90.22,0-1.28c-2.77-1.68-4.44-1.55-6.15,1ZM177,190.74l.21.89c2.37-.26,5.16,1,6.9-1.58l-.32-1.23Zm-23.18,7.47.79,1.33,5.72-3.11-1-1.68Zm73.86,108.35.77-1.1-6.12-3C223.06,306.64,225.56,306.27,227.66,306.56Zm7.54-.14c-.11-4-2.08-5.62-5.2-4.75ZM145.52,198l-.89-1.53-6,3.52.73,1.29ZM208,294l1-1.47-5.66-3.14-.77,1.3Zm10.43-95.65c2.12,2.16,4.21,2.29,6.23,1.06l0-1.06Zm-6.28-6.69L212,193.3l6.34.4.13-1.58Zm-24.59-7.13-.21,1.58,6.91.68.15-1.39ZM141.8,283c4.11,4.48,4.41,4.57,7.39,2.42Zm27.8-96.93.28,1.2,7.56-1.5-.31-1.42Zm18.72,93.77-.4,1.23,6.9,2.26.42-1.33ZM139.2,209.34l1.09.94,3.61-4.45C140.48,206.15,138.8,206.81,139.2,209.34Z"/><path class="cls-2" d="M304.91,199.38c4.18-1.3,8.28-2.95,12.55-3.79a94.07,94.07,0,0,1,12.59-1.1c3.45-.21,6.91-.37,10.36-.34,6.43,0,12.28,2.64,18.29,4.49l11.24,5.64a22.55,22.55,0,0,0,4.33,2.24,3.15,3.15,0,0,0,2.82-1c1.69-3.24,3.08-3.51,5.23-.57a35.16,35.16,0,0,1,2.09,3.9v-8c5.56-1,4.58,4.25,6.14,6.52,1.75,2.57,1.91,6.23,2.72,9.28l1.41-2.29c4.85,3.45,3.69,8.39,3.84,12.1l4.06,4.06c1.24,4.57.07,10,4.83,13.31,2.54,5.83,4.63,11.92,7.77,17.42,2.14,3.74,5.74,6.65,8.68,9.93l-5,2.19-15.55-6.12-1.47-1.55.08,0L400.5,265l.05,0-1.46-.74v.07a14.53,14.53,0,0,0-1.61-3.31,76.93,76.93,0,0,0-5.73-6c-3.31-3.12-6.72-6.14-10.09-9.2-2.55-1.93-5-4.1-8.58-3.49-2.95-2.69-6.28-.81-9.36-.56-5.21.43-11.55,6.82-11.73,11.21H352c-1.9.32-2.52,1.21-1.28,2.92-1.29,8.5-2.55,17-3.88,25.5a30.4,30.4,0,0,1-6.95,15.28c-2.55-7.44-4.51-8.79-12.26-8.39-.82,0-1.63.17-2.44.26-1.37-6.35-2.47-12.77-4.2-19-1.28-4.62-3.39-9-5.13-13.49a9.24,9.24,0,0,0-.22-2.76c-3.61-9.13-16.15-14.42-25.77-10.93L282.19,246c-.1,0-.29.1-.28.15a2.55,2.55,0,0,0,.11.55l.11,1.4c-.75.21-1.79.18-2.22.67-4.46,5.17-8.82,10.43-13.22,15.66l0-.07-1.47.71.05,0-1.47.72a9.34,9.34,0,0,1-1.93,1.94c-6.91,3.72-14,7-22.13,6.19-1.46-.16-2.33-.13-1.8,1.65-2.57-2.3-.83-3.29,1.29-4.09,1.49-.57,3.3-.68,4.5-1.6,7.24-5.54,9.35-14.07,12.46-22a6.12,6.12,0,0,0,1.41-1.14c2.11-3,1.43-6.3.84-9.6-.24-1.3-.81-3.18,1.81-2.77l1.19-1.07-.16-2c.12-1.15.25-2.31.35-3.47.26-3.2,1-5.91,4.88-5.21,1-4.87,1.83-9.56,3-14.16.26-1,1.83-1.69,2.8-2.53a11.39,11.39,0,0,1,1.89,2.87,23.83,23.83,0,0,1,.47,4.49,3.33,3.33,0,0,0,1.31-2c2-6.78,2.36-6.86,7.28-1.76,1.63,1.69,3.34,1.88,5.23.25s3.74-3,5.61-4.43Z"/><path class="cls-3" d="M248.87,397.29c.76-7.12-.38-8.72-7.43-10.54l-11.75-3c4.17-.34,7.84-.31,11.37-1,10.39-2,20.82-4,31-6.78a13.69,13.69,0,0,0,7.66-6.46c2-4-.32-7.48-4.78-9.13-1.59-.59-3.23-1-4.11-1.33l18.33-5.24c3.47,5.44,6.85,11,10.45,16.31a118.44,118.44,0,0,0,8.84,12c2.1,2.41,4.44,1.76,6.15-.95l1.35-.81c1.1-1.36,3.18-2.77,3.12-4.08-.27-6.32-1.11-12.62-1.74-18.92a60.23,60.23,0,0,0-9.46-24.45q-3.06-4.59-6.16-9.16c1.4-.22,2.9-.88,4.18-.59,8,1.85,16,3.53,24.37,3.22a152.1,152.1,0,0,0,23.78-2.45,218.91,218.91,0,0,0,31-8.9l21.83-10.15a14.87,14.87,0,0,1-1.3,1.93c-2.14,2.46-4.4,4.83-6.51,7.31-6.61,7.81-14.9,13.63-23.48,18.86-5.91,3.61-12.61,5.9-18.93,8.83a21.5,21.5,0,0,0-2.71,1.79l.72,1.06c23.73-4.91,41.56-18.76,56.05-37.76-11.63,29.79-33.77,49.79-60.69,65.52a79.33,79.33,0,0,0,12.39-5.63,43.71,43.71,0,0,0,6.07-3.39c4.15-3.13,8.21-6.4,12.12-9.82A91.78,91.78,0,0,0,391,343.69c7.5-8.95,14.74-18.16,19.72-28.82,3.16-6.76,5.82-13.76,8.64-20.69.69-1.69,1.1-3.49,1.64-5.24.23.71.47,1.42.7,2.14A18.46,18.46,0,0,0,421,293c-1.29,5.16-2,10.54-3.95,15.45a116.16,116.16,0,0,1-9.43,19.31,120,120,0,0,1-13.29,17c-5.13,5.61-11,10.55-16.41,15.88-6.7,6.56-14.7,11.25-22.73,15.83-8.36,4.76-16.92,9.12-26.44,11.43-8.7,2.12-17.11,5.52-25.85,7.38-14.19,3-28.67,3.8-43.16,3.59C256.11,398.75,252.5,397.82,248.87,397.29ZM361.79,351c-13.83.85-27.21,4-41.42,8.14a30,30,0,0,0,3.72.23c10.16-.86,20.44-1,29.94-5.58A75.43,75.43,0,0,1,361.8,351l.89-.27-.18-.25Zm-19,25.36a17.24,17.24,0,0,0-3,.84,202.37,202.37,0,0,1-37.46,12.93c-6.59,1.65-13.37,2.52-20.07,3.74a138.16,138.16,0,0,0,22.93-1.42c5.41-.9,10.63-3.14,15.87-5a105.31,105.31,0,0,0,12.66-4.92c3.25-1.63,6.08-4.1,9.09-6.2l1.07-.85-.23-.23Z"/><path class="cls-4" d="M238,275.5c-.53-1.78.34-1.81,1.8-1.65,8.17.85,15.22-2.47,22.13-6.19a9.34,9.34,0,0,0,1.93-1.94l1.47-.72-.05,0,1.47-.71,0,.07a10.31,10.31,0,0,0,3-1.37c5.17-4.92,10.24-9.94,15.34-14.93l4.8-2.77c6.73-1.94,13.16-1.55,18.7,3.09,2.71,2.27,4.93,5.12,7.37,7.71,1.74,4.49,3.85,8.87,5.13,13.49,1.73,6.25,2.83,12.67,4.2,19l-.63,6.31c0,1.41,0,2.83,0,4.24,1.86,5.8,2.42,6.08,9.42,4.6.62,1.77,1.23,3.54,2,5.72H330c3.08,3.27,4.26,3.37,10.05,1.09,4.05-1.59,7-5.68,6.87-9.75-2.52,3.33-4.89,6.61-9.2,7.37-2.11-4.9-2-5.34.91-9a12.82,12.82,0,0,0,1.27-2.44,30.4,30.4,0,0,0,6.95-15.28c1.33-8.49,2.59-17,3.88-25.51.43-1,.86-1.94,1.28-2.91H352c1-.82,2-1.57,2.95-2.47,5.05-5.06,11-7.31,18.16-6l8.29,3.67c2.66,2.66,5.23,5.43,8,8,3.13,2.84,6.45,5.48,9.69,8.2v-.07l1.46.74-.05,0,1.45.75-.08,0,1.47,1.55,15.55,6.12,7.12.32c-2.49,3.16-6.19,2.84-9.59,3.19-2.3.23-4.65,0-7,0,3.54,3.16,7.09,3.76,10.93,1.36.91-.58,2.24-.5,3.38-.73-1.17,1.67-2.33,3.35-3.49,5-6.65-.52-6.65-.52-7.26.5l3.77.9a2.74,2.74,0,0,0,0,.7v0l-2.83,3.53h0l-9.13,1.52c-.33-7.84-2.75-14.12-12-12.79-.12-3,.29-6.2-.47-9.07-1.34-5.09-4.54-9.19-7.94-13.27-7.59-9.13-23.43-8.76-28.66,3.28a34.89,34.89,0,0,0-3.08,17.39c.48,5.2,2.46,10.38,7,12.57a29.39,29.39,0,0,0,19.37,2.42c2.49-.57,4.94-1.35,7.4-2,.31.88.61,1.76.94,2.63,2.54,6.64,7.88,8.32,13.74,4.16,1.45-1,2.48-2.66,3.7-4l7.71-1.37c-2.12,2.6-3.82,5.78-6.45,7.69a73.7,73.7,0,0,1-14.26,8.3,197,197,0,0,1-20.74,7.21c-9.09,2.73-18.17,5.49-27.81,5.95-10.22.49-20.4,1.33-30.44-1.43a29.85,29.85,0,0,1-4.15-.61c-8.38-2.44-16.74-5-25.1-7.45h0l-1.57-.65-8.34-2.79a7.58,7.58,0,0,0-1.64-1.57c-3.65-1.82-7.6-3.17-11-5.4-3.11-2.05-4.63-5.88-7.68-8.23a22.93,22.93,0,0,1-6.79-7.51C244.93,280,241,278,238,275.5Zm40.66,4.26c-4.62-3.83-11.26-1.17-13.36,5-1.86,5.5.34,9.37,4.47,12.43,1.48,1.1,3.94,2.2,5.44,1.71,5.31-1.72,8.07-5.79,8.39-11.42a27.69,27.69,0,0,0,17.91,2.82c7.08-1.32,13-5.42,13.64-10.76,1-8.43,1.11-16.69-3.86-24.54-3.37-5.33-12.23-8.45-17.34-6.12a25.75,25.75,0,0,0-14.42,16C277.92,269.77,277.22,274.73,278.62,279.76Zm-22.79-2.61-13-.79C248.49,278.77,252.07,279,255.83,277.15Zm72.9,32-.59-.05A.54.54,0,0,1,328,309l.59.05S328.68,309.1,328.73,309.12Z"/><path class="cls-5" d="M248.87,397.29c3.63.53,7.24,1.46,10.88,1.52,14.49.21,29-.57,43.16-3.59,8.74-1.86,17.15-5.26,25.85-7.38,9.52-2.31,18.08-6.67,26.44-11.43,8-4.58,16-9.27,22.73-15.83,5.44-5.33,11.28-10.27,16.41-15.88a120,120,0,0,0,13.29-17,116.16,116.16,0,0,0,9.43-19.31c1.93-4.91,2.66-10.29,3.95-15.45a18.46,18.46,0,0,1,.67-1.89,78.56,78.56,0,0,1-7,36.84,119.92,119.92,0,0,1-21.58,32.34,145.85,145.85,0,0,1-30.68,25.67,179.63,179.63,0,0,1-28.87,14.42c-7.14,2.8-14.58,3.89-21.64,6.42-11.55,4.14-23.48,4.59-35.48,4.78-9.82.15-19.65.28-29.46-.08-7.57-.28-15.12-1.33-22.67-2.1-.47,0-.89-.61-1.33-.94,4.7-1.19,9.37-2.49,14.1-3.54a19,19,0,0,0,11.28-7.4A5.38,5.38,0,0,1,248.87,397.29Z"/><path class="cls-6" d="M248.36,397.49a19,19,0,0,1-11.28,7.4c-4.73,1.05-9.4,2.35-14.1,3.54-10.75-2.54-21.93-3.29-32.16-8.09-3.32-1.57-7.2-1.93-10.58-3.41q-10.05-4.38-19.79-9.44a189.22,189.22,0,0,1-16.81-9.69,168.83,168.83,0,0,1-14.78-11.21,127.43,127.43,0,0,1-13.71-12.53,209.38,209.38,0,0,1-13.81-17.8,51.8,51.8,0,0,1-9.69-23.51c-.43-3.23-.73-6.47-1.1-9.71.67.79,1.77,1.5,2,2.39a54.36,54.36,0,0,0,10.06,21.3c4.42,6,9,11.83,14,17.35,3,3.33,6.73,6,10.22,8.82,4.45,3.63,8.87,7.32,13.52,10.69a87.39,87.39,0,0,0,11,6.75c6.51,3.38,13,6.8,19.83,9.53,7.41,3,15.09,5.32,22.72,7.72q9.1,2.87,18.38,5.16c3,.74,6.23.76,9.33,1.22,4.68.68,9.33,1.55,14,2.17C239.79,396.71,244.08,397.05,248.36,397.49Z"/><path class="cls-7" d="M238,275.5c3,2.5,7,4.47,8.68,7.65a22.93,22.93,0,0,0,6.79,7.51c3.05,2.35,4.57,6.18,7.68,8.23,3.37,2.23,7.32,3.58,11,5.4a7.58,7.58,0,0,1,1.64,1.57l-11.29-2.13a24.93,24.93,0,0,0-4.55-2.48c-4.26-1.29-6.79-4.28-9.28-7.75-1.56-2.18-4.26-3.58-6.54-5.2-1.89-1.35-3.79-2.58-2.71-4.52-3.27-3-6.21-5.57-9-8.3-1.67-1.63-1.59-3.37,1-3.72,6.31-.83,8.57-5.95,11.34-10.43a52,52,0,0,0,4.78-9.7,11.5,11.5,0,0,0,.49-6.79c-3.06-10-5-20.17-4.57-30.69.26-7.07.45-14.14.61-21.21a11.43,11.43,0,0,0-.6-2.69l8.49,2q-.52,5.7-1,11.41c-.34.29-1,.56-1,.86-.08,4.28-.11,8.56,0,12.84,0,.37.75.72,1.15,1.08l5.22,29.36c-3.11,7.93-5.22,16.46-12.46,22-1.2.92-3,1-4.5,1.6C237.13,272.21,235.39,273.2,238,275.5Z"/><path class="cls-8" d="M416.77,284l-3.77-.9c.61-1,.61-1,7.26-.5l.75,4.91-11,9.24c-3.94,3.32-7.73,6.86-11.88,9.9s-8.67,5.58-13,8.33a218.91,218.91,0,0,1-31,8.9,152.1,152.1,0,0,1-23.78,2.45c-8.33.31-16.34-1.37-24.37-3.22-1.28-.29-2.78.37-4.18.59l-5.55-4.55a17.63,17.63,0,0,1,3.23-.71c3.51-.07,7,.09,10.52,0a9.83,9.83,0,0,0,2.9-1.07c10.05,2.76,20.23,1.92,30.45,1.43,9.64-.46,18.72-3.22,27.81-5.95a197,197,0,0,0,20.74-7.21,73.7,73.7,0,0,0,14.26-8.3c2.63-1.91,4.33-5.09,6.45-7.69l1.39-1.41h0l2.83-3.53v0Z"/><path class="cls-9" d="M407.41,243.87c-4.76-3.3-3.59-8.74-4.83-13.31a52.58,52.58,0,0,0,3.39-6.91c.64-1.91,1.34-4.49.56-6-1.48-3-1.21-5.76-1.08-8.77.17-4,0-8.1.06-12.15.05-2.65-.47-4.82-3.57-5.17-.79-6.64-1.56-13-2.19-18.3-2.19-1.42-3.71-2.08-4.8-3.18a69.35,69.35,0,0,1-4.45-5.47c2.75-6.75,6.32-7.93,12.16-4a8.72,8.72,0,0,0,1.54.63c1.59,3.91,3.57,7.72,4.69,11.76A132.39,132.39,0,0,1,412,188.61a120.68,120.68,0,0,1,0,37.27c-.84,5.16-2,10.27-3.1,15.37A10.14,10.14,0,0,1,407.41,243.87Z"/><path class="cls-10" d="M385.09,315c4.35-2.75,8.87-5.29,13-8.33s7.94-6.58,11.88-9.9l11-9.24,0,1.42c-.54,1.75-1,3.55-1.64,5.24-2.82,6.93-5.48,13.93-8.64,20.69-5,10.66-12.22,19.87-19.72,28.82a91.78,91.78,0,0,1-10.33,9.85c-3.91,3.42-8,6.69-12.12,9.82a43.71,43.71,0,0,1-6.07,3.39,79.33,79.33,0,0,1-12.39,5.63c26.92-15.73,49.06-35.73,60.69-65.52-14.49,19-32.32,32.85-56.05,37.76l-.72-1.06a21.5,21.5,0,0,1,2.71-1.79c6.32-2.93,13-5.22,18.93-8.83,8.58-5.23,16.87-11.05,23.48-18.86,2.11-2.48,4.37-4.85,6.51-7.31a14.87,14.87,0,0,0,1.3-1.93Z"/><path class="cls-11" d="M404.2,161.16a8.72,8.72,0,0,1-1.54-.63c-5.84-3.89-9.41-2.71-12.16,4-2.58,4.62-5.31,9.16-7.71,13.86-4.38,8.56-8.58,17.22-12.85,25.85l-11.24-5.64c4.12-7.17,8-14.47,12.42-21.49,3.64-5.84,7.64-11.48,11.83-16.94a76.45,76.45,0,0,1,8.48-8.79c4.06-3.82,4.6-3.36,8.45.26C402.81,154.43,403.66,157.59,404.2,161.16Z"/><path class="cls-12" d="M304.91,199.38l-10.77,5.83c-3.13-6.35-6.14-12.77-9.44-19-3.66-7-7.6-13.77-11.41-20.65A29.42,29.42,0,0,0,271,162c-3.09-3.54-6.21-3.31-8.91.52-.71,1-1.51,2-2.26,2.93l-.29-.63c0-.67,0-1.35-.05-2,1.15-2.52,2.23-5.07,3.47-7.55,1.88-3.78,5.14-4.32,10-1.58,3.66,2,6.5,5.85,9.21,9.26,4,5.06,7.71,10.37,11.28,15.74,2.5,3.76,4.64,7.76,6.82,11.72C302,193.36,303.4,196.39,304.91,199.38Z"/><path class="cls-13" d="M259.85,165.49c.75-1,1.55-1.92,2.26-2.93,2.7-3.83,5.82-4.06,8.91-.52a28.15,28.15,0,0,1,2.26,3.49c-1.37.7-3.64,1.12-4,2.15-2.06,6.59-7.4,12.14-6.2,19.66-3.61,1-4.67,3.06-4,6.89.25,1.51.49,3.45-.21,4.63a9.42,9.42,0,0,0-.89,7.69c.37,1.52.51,3.67-.29,4.81-3.66,5.24-1.87,16,3.59,19.82.06.69.11,1.37.16,2l-1.19,1.07c-2.62-.41-2,1.47-1.81,2.77.59,3.3,1.27,6.57-.84,9.6a6.12,6.12,0,0,1-1.41,1.14L251,218.45q-.24-5.83-.46-11.68l.24-.88c0-.74,0-1.48.08-2.22q.51-5.7,1-11.41A99.89,99.89,0,0,1,254,181.72C255.75,176.24,257.89,170.89,259.85,165.49Z"/><path class="cls-10" d="M423.75,277.59c-1.14.23-2.47.15-3.38.73-3.84,2.4-7.39,1.8-10.93-1.36,2.33,0,4.68.19,7,0,3.4-.35,7.1,0,9.59-3.19l1.42-.21Q425.59,275.55,423.75,277.59Z"/><path class="cls-6" d="M427.43,273.52l-1.42.21-7.12-.32,5-2.19Z"/><path class="cls-13" d="M259.51,162.84c0,.67,0,1.35.05,2C259.55,164.19,259.53,163.51,259.51,162.84Z"/><path class="cls-14" d="M296.19,319.16l5.55,4.55q3.09,4.57,6.16,9.16a60.23,60.23,0,0,1,9.46,24.45,54.87,54.87,0,0,1,.46,7.76c-.41,5.1-1.21,10.16-1.84,15.24l-1.35.81c-1.17-.48-2.83-.62-3.44-1.49-3.92-5.6-7.58-11.38-11.38-17.07-2.28-3.41-4.66-6.75-7-10.13-1.46-2.39-2.76-4.91-4.4-7.17-4.57-6.3-9.36-12.44-13.92-18.75s-9.76-12.14-16.25-16.63c-1.2-.87-2.43-1.7-3.6-2.61s-2.27-1.85-3.39-2.78l11.17-.77,11.29,2.13,8.34,2.79,1.57.65h0Z"/><path class="cls-15" d="M251.26,304.5c1.12.93,2.23,1.89,3.39,2.78s2.4,1.74,3.6,2.61l3.47,6.54c-3.19-1.55-6.36-3.13-9.57-4.62a26,26,0,0,0-3.13-1h0a21.54,21.54,0,0,0-2.79-2.78c-5-3.43-9.92-6.86-15-10.09-5.36-3.41-10.77-6.76-16.33-9.83-6.17-3.42-12.41-6.77-18.85-9.62-3.91-1.72-8.38-2.13-12.38-3.68-11.51-4.46-23.47-4.39-35.5-4.21-8.42.12-16.84,0-25.35-.5,2.16-3.43,5.27-4.94,8.73-5.72,14.9-3.37,29.74-2.36,44.8-.51,8.94,1.1,16.54,5.27,24.78,7.85,5.09,1.6,9.45,5.55,14.51,8.69,3.45-6.77,6.37-13.64,4.9-21.52-1.81-9.73-7.06-17.38-14.86-23.27-4.48-3.38-9.22-6.43-14.74-10.25,2.11.4,3.36.4,4.38.88,5.6,2.59,11.37,4.49,16.53,8.42,6.53,5,10.68,11.29,14,18.3a27.35,27.35,0,0,1,1.68,17.21c-.87,4.22-3.28,8.1-4.55,12.27a5,5,0,0,0,1.3,4.41c8.1,5.85,16.39,11.43,24.65,17A7.21,7.21,0,0,0,251.26,304.5Z"/><path class="cls-16" d="M276.4,338.16c-2.77,0-5.71.6-8.29-.12-5.43-1.51-11-3.11-15.92-5.74-8.43-4.49-16.26-10.13-24.67-14.66-6.08-3.27-12.69-5.53-19.33-8.36,2.4.38,4.8.35,6.85,1.18q11.88,4.8,23.56,10.08c6,2.74,11.81,5.91,17.78,8.74,4.49,2.13,9,4.16,13.67,6,2,.78,4.3.86,6.46,1.26C276.47,337.06,276.44,337.61,276.4,338.16Z"/><path class="cls-17" d="M261.72,316.43l-3.47-6.54c6.49,4.49,11.65,10.26,16.25,16.63s9.35,12.45,13.92,18.75c1.64,2.26,2.94,4.78,4.4,7.17l-3.55.81-4.28-5.1-.72-.72c-.33-2.83-.78-5.57-4.21-6.33,0-.24,0-.49,0-.73-1.07-1.88-2-3.84-3.23-5.64-2.41-3.6-4.78-7.27-7.52-10.63A107.35,107.35,0,0,0,261.72,316.43Z"/><path class="cls-18" d="M289.27,353.25l3.55-.81c2.33,3.38,4.71,6.72,7,10.13,3.8,5.69,7.46,11.47,11.38,17.07.61.87,2.27,1,3.44,1.49-1.71,2.71-4.05,3.36-6.15.95a118.44,118.44,0,0,1-8.84-12c-3.6-5.36-7-10.87-10.45-16.31A4.34,4.34,0,0,0,289.27,353.25Z"/><path class="cls-16" d="M284.27,347.43l.72.72c-1.38.81-2.71,2.14-4.17,2.33-6.54.81-13.14,1.51-19.91-3.05Z"/><path class="cls-16" d="M280,340.37c0,.24,0,.49,0,.73-5.05,2.82-10.25,1.2-15.35.33a55.08,55.08,0,0,1-9.56-2.88Z"/><path class="cls-19" d="M158.57,285c3.8-1,7.27-.43,10,3.42L158.37,286Z"/><path class="cls-19" d="M234.4,308.41l9,4.69-.69,1.34-9.19-4.65Z"/><path class="cls-19" d="M135.11,275.44l9.1-1.68c-1.88,2.68-5.63,3.49-8.91,2.64Z"/><path class="cls-19" d="M203.58,285.11c3.45-1.47,4.95,1.41,6.64,4l-7.15-2.68Z"/><path class="cls-19" d="M249,310.79c.82.7,1.63,1.42,2.46,2.1s1.65,1.3,2.48,1.94l-.74,1.14-7-3.89.28-.95,2.55-.33Z"/><path class="cls-19" d="M230.52,189c2.22.17,5-1.51,6.82,3l-7.18-1.71Z"/><path class="cls-19" d="M162.31,189.18c-1.22,2.8-3.93,2.76-6.41,3.15l-.53-1,6.16-3.38Z"/><path class="cls-19" d="M166,275.9c3.09-2.59,5.08-2.36,8.15,1Z"/><path class="cls-19" d="M159,276.35l-8.24-1,.09-1.24,8.31.45Z"/><path class="cls-19" d="M199.68,299.1l-6.6-2.83.47-1.29,6.82,2.29Z"/><path class="cls-19" d="M201.39,189.79h-6.46l0-1.07a7.79,7.79,0,0,1,6.46.12Z"/><path class="cls-19" d="M151.41,280l-6.12-.28c1.71-2.55,3.38-2.68,6.15-1Z"/><path class="cls-19" d="M177,190.74l6.79-1.92.32,1.23c-1.74,2.62-4.53,1.32-6.9,1.58Z"/><path class="cls-19" d="M153.8,198.21l5.52-3.46,1,1.68-5.72,3.11Z"/><path class="cls-19" d="M227.66,306.56c-2.1-.29-4.6.08-5.35-4.06l6.12,3Z"/><path class="cls-19" d="M235.2,306.42l-5.2-4.75C233.12,300.8,235.09,302.4,235.2,306.42Z"/><path class="cls-19" d="M145.52,198l-6.13,3.28-.73-1.29,6-3.52Z"/><path class="cls-19" d="M208,294l-5.47-3.31.77-1.3,5.66,3.14Z"/><path class="cls-19" d="M218.47,198.31h6.18l0,1.06C222.68,200.6,220.59,200.47,218.47,198.31Z"/><path class="cls-19" d="M212.19,191.62l6.29.5-.13,1.58-6.34-.4Z"/><path class="cls-19" d="M187.6,184.49l6.85.87-.15,1.39-6.91-.68Z"/><path class="cls-19" d="M141.8,283l7.39,2.42C146.21,287.59,145.91,287.5,141.8,283Z"/><path class="cls-19" d="M217.33,294.55c2.59.84,4.12,2.56,4.83,5.7-2.89-1.28-4.72-2.74-4.87-5.65Z"/><path class="cls-19" d="M169.6,186.09l7.53-1.72.31,1.42-7.56,1.5Z"/><path class="cls-19" d="M188.32,279.86l6.92,2.16-.42,1.33-6.9-2.26Z"/><path class="cls-19" d="M139.2,209.34c-.4-2.53,1.28-3.19,4.7-3.51l-3.61,4.45Z"/><path class="cls-19" d="M217.29,294.6l-1.83-.53.39-.74,1.48,1.22Z"/><path class="cls-20" d="M261.3,231.18c-5.46-3.79-7.25-14.58-3.59-19.82.8-1.14.66-3.29.29-4.81a9.42,9.42,0,0,1,.89-7.69c.7-1.18.46-3.12.21-4.63-.65-3.83.41-5.89,4-6.89-1.2-7.52,4.14-13.07,6.2-19.66.32-1,2.59-1.45,4-2.15,3.82,6.88,7.76,13.7,11.42,20.65,3.3,6.26,6.31,12.68,9.44,19-1.87,1.47-3.8,2.88-5.61,4.43s-3.6,1.44-5.23-.25c-4.92-5.1-5.28-5-7.28,1.76a3.33,3.33,0,0,1-1.31,2,23.83,23.83,0,0,0-.47-4.49,11.39,11.39,0,0,0-1.89-2.87c-1,.84-2.54,1.51-2.8,2.53-1.19,4.6-2,9.29-3,14.16-3.87-.7-4.62,2-4.88,5.21C261.55,228.87,261.42,230,261.3,231.18Z"/><path class="cls-20" d="M369.94,204.28c4.27-8.63,8.47-17.29,12.85-25.85,2.4-4.7,5.13-9.24,7.71-13.86A69.35,69.35,0,0,0,395,170c1.09,1.1,2.61,1.76,4.8,3.18.63,5.28,1.4,11.66,2.19,18.3,3.1.35,3.62,2.52,3.57,5.17-.07,4.05.11,8.11-.06,12.15-.13,3-.4,5.81,1.08,8.77.78,1.55.08,4.13-.56,6a52.58,52.58,0,0,1-3.39,6.91l-4.06-4.06c-.15-3.71,1-8.65-3.84-12.1l-1.41,2.29c-.81-3.05-1-6.71-2.72-9.28-1.56-2.27-.58-7.54-6.14-6.52v8a35.16,35.16,0,0,0-2.09-3.9c-2.15-2.94-3.54-2.67-5.23.57a3.15,3.15,0,0,1-2.82,1A22.55,22.55,0,0,1,369.94,204.28Z"/><path class="cls-21" d="M324.6,294.93l.63-6.31c.81-.08,1.62-.21,2.44-.25,7.75-.4,9.71.95,12.26,8.39a12.82,12.82,0,0,1-1.27,2.44c-3,3.66-3,4.1-.91,9,4.31-.76,6.68-4,9.2-7.37.15,4.07-2.82,8.16-6.87,9.75-5.79,2.28-7,2.18-10.05-1.09H336c-.75-2.18-1.36-3.95-2-5.72-7,1.48-7.56,1.2-9.42-4.6A24.19,24.19,0,0,0,327,301a29.48,29.48,0,0,0,2.94,1.3V292.08l-1.07-.22-3,3.67Z"/><path class="cls-22" d="M315.9,256.12c-2.44-2.59-4.66-5.44-7.37-7.71-5.54-4.64-12-5-18.7-3.09,0-1,.05-1.93.08-2.89,9.62-3.49,22.16,1.8,25.77,10.93A9.24,9.24,0,0,1,315.9,256.12Z"/><path class="cls-22" d="M373.09,244.55c-7.14-1.27-13.11,1-18.16,6-.9.9-2,1.65-2.95,2.47.18-4.39,6.52-10.78,11.73-11.21,3.08-.25,6.41-2.13,9.36.56C373.08,243.12,373.09,243.84,373.09,244.55Z"/><path class="cls-22" d="M285,248.09c-5.1,5-10.17,10-15.34,14.93a10.31,10.31,0,0,1-3,1.37c4.4-5.23,8.76-10.49,13.22-15.66.43-.49,1.47-.46,2.22-.67Z"/><path class="cls-22" d="M399.08,264.38c-3.24-2.72-6.56-5.36-9.69-8.2-2.78-2.53-5.35-5.3-8-8l.27-2.32c3.37,3.06,6.78,6.08,10.09,9.2a76.93,76.93,0,0,1,5.73,6A14.53,14.53,0,0,1,399.08,264.38Z"/><path class="cls-11" d="M381.65,245.9l-.27,2.32-8.29-3.67c0-.71,0-1.43,0-2.14C376.65,241.8,379.1,244,381.65,245.9Z"/><path class="cls-14" d="M285,248.09l-2.9,0c0-.46-.07-.93-.1-1.4.05-.23.1-.47.16-.7l7.72-3.53c0,1-.05,1.93-.08,2.89Z"/><path class="cls-22" d="M352,253.06c-.42,1-.85,1.94-1.28,2.91C349.52,254.27,350.14,253.38,352,253.06Z"/><path class="cls-20" d="M260.27,234.3l1.19-1.07Z"/><path class="cls-22" d="M403.34,267.29l-1.47-1.55Z"/><path class="cls-22" d="M265.29,265l-1.47.72Z"/><path class="cls-22" d="M400.55,265.05l-1.46-.74Z"/><path class="cls-22" d="M266.71,264.32l-1.47.71Z"/><path class="cls-22" d="M402,265.76,400.5,265Z"/><path class="cls-22" d="M282.19,246c-.06.23-.11.47-.16.7a2.08,2.08,0,0,1-.12-.55C281.9,246.06,282.09,246,282.19,246Z"/><path class="cls-10" d="M342.78,376.34c-3,2.1-5.84,4.57-9.09,6.2A105.31,105.31,0,0,1,321,387.46c-5.24,1.81-10.46,4.05-15.87,5a138.16,138.16,0,0,1-22.93,1.42c6.7-1.22,13.48-2.09,20.07-3.74a202.37,202.37,0,0,0,37.46-12.93,17.24,17.24,0,0,1,3-.84Z"/><path class="cls-10" d="M361.8,351a75.43,75.43,0,0,0-7.77,2.79c-9.5,4.57-19.78,4.72-29.94,5.58a30,30,0,0,1-3.72-.23C334.58,355,348,351.81,361.79,351Z"/><path class="cls-11" d="M316,380.32c.63-5.08,1.43-10.14,1.84-15.24a54.87,54.87,0,0,0-.46-7.76c.63,6.3,1.47,12.6,1.74,18.92C319.16,377.55,317.08,379,316,380.32Z"/><path class="cls-10" d="M342.76,376.32l.86-1.06.23.23-1.07.85Z"/><path class="cls-10" d="M361.79,351l.72-.52.18.25-.89.27Z"/><path class="cls-23" d="M386.46,288.23c-2.46.69-4.91,1.47-7.4,2a29.39,29.39,0,0,1-19.37-2.42c-4.56-2.19-6.54-7.37-7-12.57a34.89,34.89,0,0,1,3.08-17.39c5.23-12,21.07-12.41,28.66-3.28,3.4,4.08,6.6,8.18,7.94,13.27.76,2.87.35,6,.47,9.07A12.54,12.54,0,0,0,386.46,288.23Zm-6.28-24.66c-2.43,6-3,13-11,12.8-5.31-.12-6.27-4.67-7.69-8.79-1.47,6.55,3.6,12.69,9.46,11.77C377.49,278.33,382.05,271.17,380.18,263.57Z"/><path class="cls-24" d="M278.62,279.76c-1.4-5-.7-10,.87-14.8a25.75,25.75,0,0,1,14.42-16c5.11-2.33,14,.79,17.34,6.12,5,7.85,4.82,16.11,3.86,24.54-.61,5.34-6.56,9.44-13.64,10.76a27.69,27.69,0,0,1-17.91-2.82C282.74,284.4,281.71,281.43,278.62,279.76Zm13.09-11.38c.46,1.81.51,3.9,1.49,5.36a9.13,9.13,0,0,0,4.51,3.41,11.19,11.19,0,0,0,6.1,0,9.41,9.41,0,0,0,4.69-3.23c1-1.37,1.07-3.45,1.73-5.88-3.75,2.68-4.05,8.16-9.52,7.69C295.83,275.3,295,270.73,291.71,268.38Z"/><path class="cls-25" d="M278.62,279.76c3.09,1.67,4.12,4.64,4.94,7.76-.32,5.63-3.08,9.7-8.39,11.42-1.5.49-4-.61-5.44-1.71-4.13-3.06-6.33-6.93-4.47-12.43C267.36,278.59,274,275.93,278.62,279.76Z"/><path class="cls-25" d="M386.46,288.23A12.54,12.54,0,0,1,392.82,277c9.24-1.33,11.66,4.95,12,12.79l0,1.26c-1.22,1.36-2.25,3-3.7,4-5.86,4.16-11.2,2.48-13.74-4.16C387.07,290,386.77,289.11,386.46,288.23Z"/><path class="cls-26" d="M296.19,319.16l-12.59-9.87c8.36,2.49,16.72,5,25.1,7.45a29.85,29.85,0,0,0,4.15.61,10,10,0,0,1-2.91,1.07c-3.5.12-7,0-10.52,0A17.63,17.63,0,0,0,296.19,319.16Z"/><path class="cls-27" d="M324.6,294.93l1.29.6,3-3.67,1.07.22v10.24A29.48,29.48,0,0,1,327,301a24.19,24.19,0,0,1-2.48-1.85C324.58,297.76,324.59,296.34,324.6,294.93Z"/><path class="cls-10" d="M255.83,277.15c-3.76,1.85-7.34,1.62-13-.79Z"/><path class="cls-10" d="M404.84,291l0-1.26,9.13-1.52-1.39,1.41Z"/><path class="cls-10" d="M416.76,284.69l-2.83,3.53Z"/><path class="cls-21" d="M328.73,309.12c-.05,0-.09-.06-.13-.07L328,309a.54.54,0,0,0,.13.07Z"/><path class="cls-26" d="M283.63,309.3l-1.57-.65Z"/><path class="cls-10" d="M416.77,284l0,.7A2.74,2.74,0,0,1,416.77,284Z"/><path class="cls-6" d="M250.53,206.77q.22,5.85.46,11.68c-.4-.36-1.14-.71-1.15-1.08-.06-4.28,0-8.56,0-12.84,0-.3.62-.57,1-.86,0,.74-.06,1.48-.08,2.22Z"/><path class="cls-7" d="M250.53,206.77l.24-.88Z"/><path class="cls-28" d="M380.18,263.57c1.87,7.6-2.69,14.76-9.22,15.78-5.86.92-10.93-5.22-9.46-11.77,1.42,4.12,2.38,8.67,7.69,8.79C377.19,276.55,377.75,269.61,380.18,263.57Z"/><path class="cls-28" d="M291.71,268.38c3.24,2.35,4.12,6.92,9,7.34,5.47.47,5.77-5,9.52-7.69-.66,2.43-.71,4.51-1.73,5.88a9.41,9.41,0,0,1-4.69,3.23,11.19,11.19,0,0,1-6.1,0,9.13,9.13,0,0,1-4.51-3.41C292.22,272.28,292.17,270.19,291.71,268.38Z"/></svg>