<svg id="Layer_1" data-name="Layer 1" xmlns="http://www.w3.org/2000/svg" viewBox="0 0 1920 1080"><defs><style>.cls-1{fill:#629003;}.cls-2{fill:#418036;}.cls-3{fill:#c18c49;}.cls-4{fill:#82c13f;}.cls-5{fill:#285b20;}.cls-6{fill:#459513;}.cls-7{fill:#5b6669;}.cls-8{fill:#7c8a8b;}.cls-9{fill:#934e15;}.cls-10{fill:#b6d232;}.cls-11{fill:#033212;}.cls-12{fill:#1c4718;}.cls-13{fill:#45853a;}.cls-14{fill:#3d7a32;}.cls-15{fill:#60a02b;}.cls-16{fill:#0c5324;}.cls-17{fill:#7cc046;}.cls-18{fill:#06290e;}.cls-19{fill:#5c3621;}.cls-20{fill:#424e4e;}.cls-21{fill:#3b761b;}.cls-22{fill:#407825;}.cls-23{fill:#84af0a;}.cls-24{fill:#206c07;}.cls-25{fill:#703207;}.cls-26{fill:#02461c;}.cls-27{fill:#fcfdfc;}.cls-28{fill:#fdfefd;}.cls-29{fill:#59a42a;}.cls-30{fill:#f7f9f7;}</style></defs><path class="cls-1" d="M0,948.34V924.16q29.85,1.35,59.71,2.7c17.24.79,34.47,2,51.72,2.27,9.37.14,18.78-1.29,28.17-2l21.57-.16,5.34-.19,115.62-2.3c5.63,2.49,11.06,6.46,16.91,7.22,26,3.35,52.06,7.76,78.15,8.11,46.85.64,93.74-1.21,140.6-2.36,16.46-.4,32.91-1.67,49.34-2.74,52.82-3.45,105.62-9.57,158.46-10,113.52-.87,227.06,1,340.58,2.13,41.06.4,82.11,1.95,123.17,2.55,73.71,1.09,147.42,2.29,221.14,2.59,37.92.15,75.84-2.06,113.77-2.22,24.49-.11,49,2.34,73.5,2.23,39.26-.19,78.53-1.54,117.79-2.44s78.53-1.87,117.79-2.87c1.34,0,2.66-.8,7.73-2.41-46.26-13.95-90-5.36-133.22-10.49L1739,903.17c-.15-.72-.31-1.44-.47-2.16l-10.46-1.64,28.12-15.59,54.27,1.74,4.62.15,8,.32,18.92.24,51.26.49,26.72-.17V956.4c-9.28-7.41-19.81-5.7-30.5-4.73-6.8.61-13.76-.44-20.65-.74l-18.59.77-21.51,2.38L1807.18,951v7.89l-21.93-9c-3.86,7.46-14.53,10.21-20.76,5.18-9.46-7.64-18.7-14-30.11-2.93-1.51,1.47-5,1.28-7.57,1.22-8.85-.24-17.69-.79-26.53-1.16-3-.12-7,1.21-8.84-.27-9.33-7.72-19.13-3.47-29-2.43-3.59.38-7.35-.85-11-1.35-4.64-.63-9.37-2.15-13.91-1.74-27.58,2.54-54.17,16.11-82.77,7.27l.07.08c-9.68-3.76-20.35-12.15-28.83-10.33-17.85,3.85-35,12.2-51.51,20.44-7.39,3.67-11.36,2.87-15.75-2.83-2.41-3.12-4.71-6.32-6.17-8.29-7.88,1.67-16.73,6.5-20.95,3.88-13.17-8.18-25.42-16-42.51-8.73l-5.45,16-35.45-10.55c-5.83-2.73-11.52-5.88-17.58-7.94-1.81-.62-4.66,1.81-7,2.84l-45.4-7.65L1249,937.13c-.28.86-.57,1.72-.85,2.58l13.76,8.56-13.23.19c-15-1.74-30-3.51-45-5.22-13.4-1.54-27.15,1.46-40,2.56-18.26,1.57-36.72-.85-54.78,2.52l0,0c-.94-1.62-2.14-4.75-2.77-4.63-10.77,1.95-21.48,4.29-32.19,6.55l-4.83,0c.86-3,1.72-6.08,2.75-9.75l-52.9,5c-.22-3.4-.38-6.05-.43-6.79l-30.51,1.84c-17.59,6.38-35.45,7-53.57,2.67l-22.42-3c3.54,4.33,6.19,7.56,8.83,10.8H904.89L862,945.4c-6.85.88-13.68,2.14-20.55,2.56-17.18,1-34.38,1.73-51.58,2.46-3,.13-8.06.85-8.81-.52-5.52-10.18-12.32-3.62-18.75-2.11l-19.55.92-3.58.12c-5.89-13.3-14.92-1.3-22.27-2.79L694,942.1c-.24,1.89-.69,5.46-1.15,9a20.55,20.55,0,0,0-.1,2.6l-29-10.11,4.87,10.06-5.38.12c-18.56-10.62-39.35-4.41-58.89-7.7-.84-.14-2,1.5-3,2.32l.11-.15-56.3-2.82-37.39,5.18c-6.42-10.66-12.83-2-19.24,0l-34.69,6-5.31-.06,2.74-5.81H421.83c-3.26-1.42-6.62-4.18-9.77-3.95-5,.37-9.8,2.73-14.69,4.25l-20.89-3.56c-.14,3-.27,6-.41,9-7.25-1.66-18.7-7-21-4.33-9,10.34-16.12,2-24.16.79-9.35-1.37-18.92-2.46-28.31-2-10,.52-19.8,3.35-29.76,4.56-5.13.61-10.75-1.31-15.56,0-9.08,2.53-17.74,8.79-25.26-3.1-1.08-1.7-6.59-.69-10.05-.73-2.95,0-5.9.23-8.86.33q-18,.63-36,1.23l-21.42,5.32-19,3.43L126.4,962l8.09-10.25-1.2-2L98.92,961.93c-.65-.19-1.29-.4-1.93-.63-.26-3.48-.52-7-.59-7.92l-27.06,8.69-10.18,5.46c-8.51-3.9-16.7-9-25.61-11.4C22.51,953.14,13.42,940.92,0,948.34Z"/><path class="cls-2" d="M81,686.68c-1.13-4.95-2.27-9.9-3.65-16L121,685.44c-1.5-5.86-2.54-10-4.07-15.93l11.26-1.71,8.86,4c.23-4.73.4-8.46.6-12.47l14.53,1.27L147.43,647l34.22,6.6-16.42-14.75,14.55-4.36,2.1-2.14L180,631.18l.14.08-.18-7.79c7,1.35,14.21,4.6,20.82,3.61,10.28-1.54,20.13-6,30.16-9.15l-.05-.06Q229.32,623,227.74,628l2.88,2.63L270.33,601l-8.67,23.6,2.51,1.71L284,603.79c15.15,13.88,33.73,9.07,51.62,7.13,4.71-.52,9.07-4.34,13.58-6.64l10.58,6.12-35.72,18.47L303,631.06l.08,4.16,30.14,2.62-35.53,18.35c.36.94.71,1.89,1.07,2.83L333,655.54l-.06-.06c-5,15.57-19.61,18.84-32.07,23.54-24.49,9.21-50,11.78-76,6.44-3.21-.66-6.67-.09-10.85-.09l7.06,5.82-.89,2.42-51-7.32,28,21.54C166.8,723.93,134,716,101,715.55l7.14,5.93c-.11,1.15-.21,2.31-.32,3.46L35,728l-7.71-5.52c-.55,1.16-1.11,2.31-1.67,3.47l9.29,2.16c-2.14,1.53-4.77,4.78-6.34,4.32-9.64-2.78-19-6.41-28.52-9.75V706.55l24.17,4.59h9.54l-7.8-4.27c-1.28-2.75-2.55-5.5-4.79-10.31l27.49,5.14c-1.71-7-3-12.45-4.81-19.72l33.58,8.68,5.28,1.45Q81.84,689.4,81,686.68Z"/><path class="cls-3" d="M97,961.3c.64.23,1.28.44,1.93.63-6.54,27.83-5.32,55.78-2.34,83.79a537.6,537.6,0,0,0,10.6-57.37c1.58-12.87,3.7-24.18,19.22-26.35l10.29.08-9.18,8.18,1.17,2.8,27-5.85h0c-1.7,11.15-4.27,22.24-4.92,33.46-1.46,25.27-2,50.6-2.85,75.91L0,1077.29V959.08c10.94-6.08,19.6.78,28.75,5C39,968.84,49.2,973.45,61.36,979c-1.09-5.68-1.65-8.58-2.2-11.47l10.19-5.46c-.15,2.8-.3,5.6-.44,8.31l12.2,1.3Z"/><path class="cls-4" d="M0,889.23V835.5l10.65-.79c-1.2-7.1-3.43-13-2.51-18.29.38-2.24,8.58-5.77,11.23-4.52,11.63,5.51,18.79-4.32,25.14-8.69,16.26-11.18,22.8-12,36.75,3.3,10.84-17.82,23.69-19.23,32.1-2,5,10.29,10.07,11.84,20.32,10.23,4.66-.73,11.49,3.66,14.95,7.75,1.67,2-2.19,8.61-3.55,13.13,0-2.68.94-6-.29-7.9a22.86,22.86,0,0,0-8.62-8c-1.39-.68-4.66,2.45-7.07,3.84,2.31,3.37,4.11,7.36,7.13,9.89,2.09,1.75,5.86,1.5,8.88,2.14-4.61,10.59,6.08,15.61,8.75,23.57,2,5.92,8.68,11.78,7.87,16.8-1.57,9.84-10.6,7.47-18.41,7.25-6.38-.18-17.49,1.4-18.45,4.62-3.45,11.49-11.74,10.9-19.06,9.31-8.6-1.86-16.55-6.69-24.92-10.3-7.55,9.2-16.26,15.23-29,6-2.19-1.57-7.16-1.62-9.54-.2C27.21,901.69,13.47,898.06,0,889.23Zm89.19-30.75c-4.21,5.52-8.5,10-8,10.64a56,56,0,0,0,12.59,11.65c.92.62,7.19-4.62,7-4.9C97.86,870.66,94.29,865.8,89.19,858.48Z"/><path class="cls-5" d="M35,728l72.83-3c.11-1.15.21-2.31.32-3.46L101,715.55c33.07.47,65.84,8.38,96.31-7.72l-28-21.54,51,7.32.89-2.42-7.06-5.82c4.18,0,7.64-.57,10.85.09,26,5.34,51.47,2.77,76-6.44,12.46-4.7,27.09-8,32.07-23.54l.61-1.08-.55,1.14L298.78,659c-.36-.94-.71-1.89-1.07-2.83l35.53-18.35-30.14-2.62-.08-4.16,21.08-2.19,11.56,5,18.93.62c-5.47,15-10.94,30-16.6,45.59l17.49-5.91c1.74,4.85,3.47,9.71,6,16.91-10.89-2.06-20.62-4.2-30.47-5.56-2.9-.4-6.11,1.44-9.18,2.26l-16.93-5c-2.12,10.58-4.15,20.73-6.83,34.12l-35.66-13.39c-.71,6.07-1.49,12.64-2.26,19.22l-18.89-9.48-13,25.48c-2.75,1.77-5.29,4.44-8.29,5.15-9.77,2.31-19.71,3.9-29.59,5.77l-13.59-.71,8.87-14.73c-14.94,8.2-28.2,12.4-45.62,11.7-22.46-.89-45.24,5.65-67.84,9.21-4.34.69-8.52,3.4-12.77,3.38-4,0-8-2.4-12-3.74C32.8,758.16,17.71,767,0,760.28V749.54l24.86-8.76-.47-3.17L0,730.73v-8.06c9.48,3.34,18.88,7,28.52,9.75,1.57.46,4.2-2.79,6.34-4.32Z"/><path class="cls-6" d="M145.08,835.61c1.36-4.53,5.22-11.18,3.55-13.14-3.46-4.09-10.29-8.48-14.95-7.75-10.25,1.61-15.3.06-20.32-10.23-8.41-17.21-21.26-15.8-32.1,2-14-15.25-20.49-14.48-36.75-3.3-6.35,4.37-13.51,14.2-25.14,8.69-2.65-1.25-10.85,2.28-11.23,4.52-.92,5.32,1.31,11.19,2.51,18.29L0,835.5V806c1.24-2.14,3.12-4.14,3.61-6.44,3-14.21,9-17.65,22.29-12.51,2.84,1.09,5.74,2,8.61,3l-1.08-4.36c7.64-3.07,15.56-9.11,22.86-8.44C65,778,73.1,784.61,82.12,789c4.56-8.3,13.31-15.62,22.86-9.38C114.72,786,121.44,797,129.48,806l-2.27,2.24h10.51c6.46,1.35,13.38,1.67,19.29,4.27,10,4.42,12.5,13.19,5.37,20-9.11,8.68-5.95,16.23,1.09,22.46,10.52,9.33,11.24,18.17,1.52,27.49,9.14,15.25,8,26.75-3,27.65-12.09,1-14.82,11.7-22.44,17.07-9.39.72-18.8,2.15-28.17,2-17.25-.27-34.48-1.48-51.72-2.27Q29.86,925.5,0,924.16V889.23c13.47,8.83,27.21,12.46,42.33,3.45,2.38-1.42,7.35-1.37,9.54.2,12.76,9.18,21.47,3.15,29-6,8.37,3.61,16.32,8.44,24.92,10.3,7.32,1.59,15.61,2.18,19.06-9.31,1-3.22,12.07-4.8,18.45-4.62,7.81.22,16.84,2.59,18.41-7.25.81-5-5.89-10.88-7.87-16.8-2.67-8-13.36-13-8.75-23.57Z"/><path class="cls-3" d="M1920,967.14v110.15l-43.33-1q-5.22-57.29-10.43-114.57l2.64-2.79,17.13.86v56.31c4.18-15.15,5.06-30.37,7.19-45.42.48-3.41,5.38-8.88,8-8.77C1907.56,962.17,1913.76,965.22,1920,967.14Z"/><path class="cls-7" d="M1920,886.55l-26.73.16c-11.87-5.9-23.59-12.14-35.66-17.62-10.32-4.69-11.94-13.07-9.44-22.26,2-7.46,6.49-14.22,9.43-21.47,4-9.82,7.56-19.82,11.31-29.74l24,2.66c-2.58,3-7.79,6.52-7.33,9,4.47,24,11,47.16,34.4,60.49Z"/><path class="cls-8" d="M1920,867.74c-23.42-13.33-29.93-36.5-34.4-60.49-.46-2.45,4.75-6,7.33-9l27.07,13Z"/><path class="cls-9" d="M1920,967.14c-6.24-1.92-12.44-5-18.76-5.23-2.66-.11-7.56,5.36-8,8.77-2.13,15.05-3,30.27-7.19,45.42V959.79l-17.13-.86,0-8c6.89.3,13.85,1.35,20.65.74,10.69-1,21.22-2.68,30.5,4.73Z"/><path class="cls-9" d="M59.16,967.53c.55,2.89,1.11,5.79,2.2,11.47C49.2,973.45,39,968.84,28.75,964.11,19.6,959.86,10.94,953,0,959.08V948.34c13.42-7.42,22.51,4.8,33.55,7.79C42.46,958.54,50.65,963.63,59.16,967.53Z"/><path class="cls-5" d="M161.13,229.12c-24.59-.84-49.56-4-71.17,13.75-.67-1.14-1.35-2.27-2-3.41L103.5,219.4H67.62c18.2-7.62,12.61-20.13,8.07-33.5-1.59-4.7,1.59-11,2.59-16.6l2.87-.9.25.16c-1.75,18.22,2.12,28.12,13.95,32.7,8.5,3.29,17.35,6.64,26.3,7.59,12.22,1.29,24.69.32,37,.32.06-1.47.12-2.94.17-4.41l-5.49-2.84c18.49-2.69,40-4.27,60.56-9.44,10.94-2.75,20.31-11.72,30.4-17.88l5-1.25-5-1.39c1.45-3.88,2.9-7.76,4.59-12.3l-30,5,9.67-20-2.86-2.1c-15,10.5-29.77,22.11-49.13,10.88-12.87-4.29-25.83-8.32-38.57-12.93-17.38-6.3-18.08-21.6-18-37.39l3.37,4.73c3.28,12.59,17.68,24.29,32.86,23.33,16-1,31.89-5,47.82-7.72l.07.06-10.43,15.64c9.81-3.28,19.55-7.93,26.48-15.25,5.27-5.58,8.92-5.08,14.84-3.19a63.18,63.18,0,0,0,42-.64l-22.17-7.57c4.24-2.47,7.92-1.86,11.33-2.57,12.73-2.65,26.63-3,34.67-15.93L304.3,93l-.69-1-2.89,2c-5.15,1.25-10.35,2.33-15.44,3.78-22.42,6.41-54.49-8.2-63.58-29.13,15.92-6.09,35-4.48,48.19-18l-20.53-8,29.63-2c-14.57-8.48-26.63-14.47-26.35-30.72,1.56.63,3.71.82,4.61,2,18.34,23.64,18.7,23.76,47.84,12.74L284.75,54.49l1.18,2.63,27.13-10.64,2.62,1.05-22.8,30.78c13.25-4.71,24.22-8.35,35-12.56,4.31-1.68,8.14-4.61,12.19-7l3.65.33c-.11,1.81-.23,3.63-.35,5.45-16.56,18.15-30.78,38.86-55,49.44,8,.8,14.7-1,21.53-1.62,4.16-.38,8.49,1.11,12.75,1.76l-11.81,9.59-58.2,19.63c29.27,9.53,59.89,5.07,89.38-12.51q1.65,2.66,3.32,5.31l-29,17.86,4.93,5.79,8.33,3.32c-17.56,15.92-38.84,13.81-59.28,14.64.05,1.09.1,2.19.16,3.29l29.3,9.23c.16,1,.32,2,.49,3l-29.44,12,.47,2,32.09-2.45L293,212.89c22,7.39,38.86-5.68,60.87-11.61-15.07,33.19-40,49.74-70.63,59.93l1.49,5.09,48.29-3,0,0c-5.79,5.41-10.7,13.13-17.56,15.74-13.34,5.08-27.77,7.28-43.17,11,26.32,9.56,51.79,4.32,77.52,0-.95,4-1.58,6.68-2.39,10.1l34.75-7.62,1.07,4.2c-19.59,17.58-44.17,22.25-71,24l25.63,18.53L285.48,369.6h48l-22.93,18.3,28.85-5.71.9,2.62L323,397.44l.65,3.21h44.9c-26.94,20.31-59.15,9-88.41,14.6L279,418.8l26.33,19.32-18,4.71-5.4.25.1.38-.12-2.74-2.51.34a5.86,5.86,0,0,1-.07,2.17l-5.44,0q-4-4-8-8.09L263,432.32c-11.13,1.18-22.3,2.07-33.36,3.67-6.78,1-13.39,3.08-20.08,4.68l-.14-.17,12.93-7.89c-1.31-1.8-2.63-3.6-3.94-5.41-5.23,1.18-10.41,3-15.7,3.42-11.31.83-22.67.91-34,1.29-3.55-10.76-12.89-8.77-21-9.55l-23.47-7.59.67-5,17.06-2.32h9c-4.12-1.83-6.37-2.84-8.62-3.85q-17.51-11.08-35-22.18c11.2,2.48,22.38,5.09,33.62,7.39,10.75,2.21,21.28,12.23,32.65,1,.88-.87,4.19.53,6.31,1.11,6.83,1.87,13.52,4.78,20.46,5.62,16.68,2,33.39,2.59,51.38-9.34L225.32,381c19.91-.79,37.82-5.07,56.12-20.76L257,366.45l12.57-13.32-22.56,4.18h0l13.74-18.42-1.89-1.35L224,359c.7-9.36,1.12-15,1.54-20.57l.64-1-.58,1.08c-10.44,6.91-20.15,17-31.57,19.62-7.55,1.74-17.88-2.54-27.19-.77l-24-.27,4.89-8.37,10.14-2.24-.45-2.52-10.07.92c-14.38-1.19-29.25-.48-43-4.05C85.72,336,78.64,323.81,78.15,303.58l3.32-2.5a1.65,1.65,0,0,1,1.58,1.3c2.78,5.63,4.19,12.94,8.61,16.57,12.77,10.49,29.16,7.81,44.15,8.45,12.82.54,25.77-2,38.66-3.21L174,320l-13-.7-1.12-3.82c26.89-.19,51.22-7,75.42-24.9h-44.5c.05-.52.11-1,.16-1.56l36.32-7.62c-.15-1-.3-2-.44-3l-20.93-7,.72-1.71,65.35-3.45-8.41-16.65c17.84,12.16,27-7.88,40.46-8.23-5.39-1.89-12.13-.22-15.45-2.85-14.44-11.47-27.79-8.24-41.47.59l0,0c.55-2.85,1.11-5.7,1.92-9.84l-23.22,10-1.66-5.52c-23.8,3.62-47.16,7.41-70.63,10.46-3.43.45-7.32-2.66-11-4.13l21.78-7.15s.51,0,.51,0l4.31.12,7-3.15-.61-1.52Zm117,116.73c-.74-.31-1.66-1.05-2.19-.83s-.7,1.37-1,2.11c.75.32,1.65,1.05,2.19.84S277.83,346.6,278.15,345.85Z"/><path class="cls-10" d="M982.5,871.09c121.07-1.82,242.14-3.9,363.22-5.26,33.94-.39,67.9,1.36,101.85,2.12L1429,883c.65,1.3,1.31,2.6,2,3.9l41-4c.35-1.32.71-2.64,1.06-4-3.25-1.93-6.69-3.61-9.67-5.89-1.28-1-1.61-3.2-2.38-4.85l101.79,3.74c4.44.17,8.89.27,13.34.4l42.77,3.35c17.69,3.64,35.49,6.81,53,11.08,10.57,2.57,20.72,6.83,32.57,10.84L1674.39,907l16.2,2.25,0,5.42c-22.69,3.15-45.44,9.22-68.08,8.87-55.22-.87-110.38-4.87-165.59-7.3-45.88-2-91.79-3.39-137.67-5.44-54.75-2.45-109.49-7.58-164.23-7.54-106.73.07-213.47,2.62-320.19,4.74-54.86,1.09-109.69,3.83-164.54,5.1-33.09.76-66.22.67-99.31-.08-16.73-.38-33.41-3.08-50.12-4.73,8.76-1,17.51-2.14,26.28-3q40.17-4.2,80.36-8.26l9.05-.18,10.81-2.14,7.75-.37,27.42-2.56c6.67,0,13.38.52,20,0q81-6.6,161.9-13.54l9-.44L902.19,876l26.87,8.26c11.05.51,22.1,1.42,33.14,1.19,2.34,0,4.6-4.25,6.89-6.54Z"/><path class="cls-11" d="M714.3,276.33l-1.09.6-1.25-.09-28.57,3,.36,3.53,15.82,3.72-9,12.63c17.74,21.14,34.83-1.52,53.41,1.38-7,10-14.53,19.49-23.72,26.91-9.51,7.69-20.65,13.34-31.09,19.89.06,1.17.11,2.35.17,3.52l40.05-2.75c-11.23,16.56-30.1,16.29-49.65,22.29,26.31,5.3,55.61,2.54,72-5.55h27.34C772.86,374,769.21,379,765.55,384l-50.71,13.4L730.78,412l-37.59,22.53c.73,1.73,1.47,3.47,2.21,5.2L717,432.76l5.1-1v15.91h12.73l-14.25,12c.3,1.11.6,2.23.91,3.34H756c0,2.14.09,4.29.13,6.43l-76.42,5.29c6.83,5.09,11,7.63,14.4,10.88s6.35,7.33,9.48,11l-10.79-.09L688,495.1l-5.18-.5-4.67,2.52,5,1.64-.61.55.49-.66c4.28,3.52,9,6.68,12.73,10.69,3.14,3.32,5.23,7.64,7.79,11.52a2,2,0,0,1-2.08.55l-22.1-.26c-3-6.93-6.15-13.78-8.93-20.79-7.17-18-7.11-18.07-25.41-11.21-4,1.5-8,3-13.09,5v-8.75l-33.61,3.87-43.09-16.81,8.22-8.94c-2.78-4.45-5.19-8.31-7.61-12.17,11.93,1.75,23.82,3.73,35.78,5.16,7.65.91,15.5.32,23.07,1.58,15.72,2.63,30.57,1.68,47.3-7.15l-24.68-5.27,36-7.5c-.15-1.29-.3-2.59-.46-3.89l-7-2.67c1.5-1.65,3-3.31,6.05-6.61l-13.43.71,4.76-11.95,4.09-3.24-.87-.87c-1.08,1.37-2.16,2.73-3.23,4.1l-25.52,13.9c.52-7,.88-11.79,1.24-16.58l-2.2-.42q-1.53,4.1-3.08,8.17l-21.68,7c-3.34-3.1-4.74-5.36-5.85-5.22-2.11.26-4,2-6.08,2.92-2.49,1.17-5,2.19-7.57,3.28L570.59,425l-.24-2.88,10.43-4.9L550,414.69l16.53-14.89c8.71-.68,17.43-1.34,26.13-2.11.26,0,.41-1.25.63-2l-13.36-2.5c25-3.67,47.19-5.66,66.59-22.09H612.41c0-.55.09-1.1.14-1.64l29.58-6.82c-5.91-3.15-8.81-4.69-14-7.47l50.47-5.43-6.45-11.18,29.28-5.28L674.52,319c-11.23,8.52-11.23,8.52-16.64,3.35.21-.36.41-.72.62-1.07l-.58,1.1-21.47,5.39-.07-.06c-3.82-.68-7.85-2.48-11.45-1.85-18.43,3.19-36.4,11.23-55.64,4.56L596.77,323c-.21-1.08-.41-2.16-.61-3.24-22.65.57-45.73-3.49-67.39,7.8l.29.22c2.47-4.91,4.93-9.82,7.85-15.65H515.39c.21-13.24.4-25.63.59-38,4.82,7.67,7.93,18.78,14.84,22.18,10.56,5.21,23.7,5.36,35.83,7.07,3.73.53,10.88-.24,11.12-1.46,2-10,9.46-5.39,14.71-6.44,15.56-3.12,31.1-6.32,46.68-9.34,12-2.33,18.84-8.52,16.9-21.69l-22.44,1.19,8.18-15.55c-18.34,11-27,12.16-47.85,5-11.46-4.23-23.33-7.64-34.15-13.13-3.65-1.86-4.62-9-6.81-13.71,20.21,10,40.82,16.5,63.17,6.13.19,3.7.34,6.41.61,11.63,6.87-4.52,13.19-6.86,16.65-11.39,5.29-6.91,9.85-5.81,17.14-3.83,9.2,2.5,19.22,1.94,28.89,2.71.07-1.23.13-2.45.2-3.68l-17.13-6.58,34.4-8.83c-.2-1.5-.41-3-.61-4.5-25.87,6.81-45.46-2.77-62.82-21.76l42-12-.77-3.72-15.23-5.79c.12-.82.23-1.65.35-2.48h16.4l-13-22c2.06,1.45,4.54,2.55,6.09,4.42,8.38,10.12,17.86,14.53,32.18,7.81-4.34,7.27-8.68,14.55-14.14,23.68l22.92-6.77,2.29,2.7q-8.14,8.8-16.31,17.6l1.69,3.82,42.13-17.63c-2.7,8.86-4.2,16.68-7.42,23.71-4.65,10.14-10.55,19.71-15.93,29.52l.3,0-5.38,2.67-40.25,13.22c22.08,10.84,42.38,1.45,63.42-3.55-4.15,6.32-9.92,9.9-13.44,15S716.6,270.29,714.3,276.33Z"/><path class="cls-5" d="M765.55,384c3.66-5,7.31-10,13.59-18.65H751.8c11-8.09,8.37-15.27-1.65-20.76,1.78-3.7,3.06-6.35,4.33-9,.83-1.79,1.67-3.58,2.5-5.38,2.71,16.92,13.28,25.83,29.62,28,9.15,1.19,18.56,2,27.69,1.15,4.77-.44,8.89-6.06,13.81-7.21,15-3.5,30.33-5.36,45.2-9.16,4.8-1.23,8.57-6.48,12.81-9.89l5.9-.57v-1.47l-5.89-.58c.19-2.46.39-4.91.63-8l-21.08,3.06,9.5-14.29-2-3.17c-12.74,7.08-25.08,16.5-40.28,8.93-7.77-2.63-16.47-3.86-23-8.26-6.93-4.64-11.82-12.3-17.6-18.65,20.21,10.69,40.7,16.95,63.25,4.68L847.74,305c7.22-1.37,13.55-4.23,17.12-9.11,5.48-7.48,10.17-7,18-3.86,6.75,2.7,15,1.79,22.5,2.48.14-1.37.27-2.74.41-4.11l-9.39-6.18,29.41-7.75-.48-4.3c-23.78,6-42.6-.8-56.6-20.16l36.78-12.11-9.37-7.75,14.43-3.7c-10.24-5.62-17.84-10.15-14.65-21.32,11.47,17.19,15.88,18.58,35.42,10.23l-10.55,21.48-1.57,2.05,3.16-.22,17.09-5.89,2,1.53-15,18.92-1.62,1.41,1.21.3.2-1.86,32.66-10.52c-1.58,4.32-2,9.81-4.94,12.74-10.41,10.36-21.69,19.84-31.3,28.44L940,290.5a6.51,6.51,0,0,0,.26,2.15l-46.71,16c21.56,6.56,44.41,4.31,66.63-7.76l1.58,3.78-15.31,16.48,6.94,2.13-8.13,9.55-1.09.51-1.2-.12-33.19,3.18c0,.84,0,1.69-.08,2.53l17.7,6.1.54,3.29-20.14,7.52c18.55,10.53,38.91,9.65,58.93-1.24h0c-4.93,27.34-27.26,35.72-48.9,47.79h38.51c-11.6,14.4-28.83,16.78-46.8,17.39.16,1.39.31,2.78.47,4.17h56.9c0,.63-.26,2.9-.54,6.12l29.09-6.79c-14.56,19.45-35.83,17.8-57,25l15.62,4.32L947,458.29l8.43,2.72L921.25,482.7c.6,1.27,1.19,2.53,1.79,3.79l33.7-3.18L937.3,497.24l19.08-2.19-11.6,13.6h35.88C958.7,521.09,935.25,519,911,519l20.77,17.08-13.34,3.47a4.79,4.79,0,0,1-2.49.5l-10.81-5.38-1.92,4L919,544.89l-.18-.18L937.72,559l-22,2.55-23.63-32.07-32.83,10.21-.79-2.28,13.08-9.74-48.22,6.88-12.13-7.83-15.92-10.22,1.25-2.55,14-1.27L784,494.43c34.12,8.41,68.33,14.51,103,7,.18-1.33.36-2.67.53-4L878.34,493l28.35-9.84-1.77-13,.67-1.1-.62,1.15-16.41,5.34,8.3-16.14.66-1.09-.6,1.14-28.6,17.45c1.81-6.31,2.81-9.78,3.81-13.25-19.27,17-40.59,12.12-61.53,9.46-2.56-2.28-1.39-4.54,5.64-8.71l-31.45,1.4c-8.19-7.43-23.13-7.12-25-21.81,2.59-.29,5.88-1.76,7.65-.69,20.13,12.2,41.11,8.61,64.13,4.62l-15.52-5.14c51.66-10.05,53.16-10.57,59.71-20.54H845.85l.09-1.85,27.47-4.55c0-.83-.08-1.66-.13-2.48l-17.35-6.66,52.21-2.9-3.94-9.13,25.73-7.44-25.35-12.95c-6,3-11.91,2.64-17.75,3.07-9.32.7-18.71,1.36-27.88,3-19.45,3.56-38.58,10.58-58.7,4.07l32.9-7.06c-.28-1.23-.55-2.46-.82-3.69l-35.52,2.79Zm145.81,81.45c.73.31,1.62,1,2.15.83s.69-1.34,1-2.06c-.73-.32-1.62-1.05-2.13-.84S911.69,464.75,911.36,465.48ZM932,270.7l.84-.61-.7-.75-1.07,1Z"/><path class="cls-12" d="M333,263.27l-48.29,3-1.49-5.09c30.66-10.19,55.56-26.74,70.63-59.93-22,5.93-38.83,19-60.87,11.61l10.43-8.07-32.09,2.45-.47-2,29.44-12c-.17-1-.33-2-.49-3l-29.3-9.23c-.06-1.1-.11-2.2-.16-3.29,20.44-.83,41.72,1.28,59.28-14.64l-8.33-3.32L316.33,154l29-17.86q-1.66-2.66-3.32-5.31c-29.49,17.58-60.11,22-89.38,12.51l58.2-19.63c20.54,2,29.11-14.36,41.77-28.87V116.3l18-6.53c1.19,14.59-8,23.19-16.73,32l-2.31,2.67,4.14,0,20.12-10.91c-1,12-5.88,20.69-15.15,25.2-16.07,7.81-32.89,14.1-49.39,21l-3.88,1,.43,1.48,4.59-1.26,8.13,5.37-5.42,3,.47,1.45,7.07-2.27,7,14.4,44.85-24.58c5.52,16.56-1,35.24-20.06,49l13.19,1.58-21.87,18.7,18.67-4.11c-3.88,8.48-6.77,14.79-11.05,24.12,6.56-3.26,11.51-5.14,15.8-8,4.51-3,8.39-7,12.55-10.55l4.8,2.95-13,32.57L427.31,278c.83,18.26-17.95,21.61-26.86,34.46l37.39-8.71c-10.44,21-29.45,29.24-48.09,28.44-24.38-1.05-42.28,8.69-60.36,21.62-4.19,3-9,5.11-13.14,9.87,8.42-1.82,17.23-2.65,25.16-5.74s14.83-8.38,22.19-12.71l2.79,3.58-18.82,17.66c.29.8.59,1.6.88,2.41l26-9c-4.06,6.92-7.35,12.54-10.64,18.17l1.51,2.66q17.51-12.27,35-24.53l2.74,1.06q-3.87,9.29-7.72,18.56.79,4.34,1.61,8.67l0,.12,14.67,16.11L372.88,417l-7.52,2.74-60.22,6.36,29.72,8.74c-16.21,8.59-31.54,10-47.52,8l18-4.71L279,418.8l1.11-3.55c29.26-5.61,61.47,5.71,88.41-14.6h-44.9l-.65-3.21,17.3-12.63-.9-2.62-28.85,5.71,22.93-18.3h-48l52.31-30.35-25.63-18.53c26.88-1.77,51.46-6.44,71-24l-1.07-4.2-34.75,7.62c.81-3.42,1.44-6.1,2.39-10.1-25.73,4.35-51.2,9.59-77.52,0,15.4-3.74,29.83-5.94,43.17-11,6.86-2.61,11.77-10.33,17.56-15.74l.61-1.14Z"/><path class="cls-12" d="M915.7,561.51l22-2.55-18.91-14.25,33.12,8.44L931.19,565c22,6.07,38.87.7,54.12-18.09l5.68,8.63c4.59-11.25,8.34-20.45,12.62-31,2.78,5.94,5.3,11.36,8.67,18.56l25.81-28.44c5.23,34.13,5.23,34.13-1.19,50.59,4.14-2.63,6.95-4.3,9.64-6.15,2.85-2,5.58-4.07,8.36-6.11l4,2c-3.83,8-8.19,15.84-11.34,24.12-2.72,7.15-13.42,7.29-12.86,19,.26,5.46-12.93,12.83-21.19,17.06-8.07,4.14-17.52,5.88-26.55,7.8-9.53,2-19.27,3-27.27,4.18.49,3.82,1,7.74,1.82,14.07l41.67-9.86c.21,1.06.73,3.7,1.51,7.63l23.49-18.22c10.93,11.53,15-5.7,25.27-5.27-1.73,4.55-3.28,8.6-5.33,14l24.8-5.64,2.45,2.44-16.4,16,22.2-3.11q1.14,2,2.29,4l-44.54,28.54h10.48l1.78,3c-5.3,3.64-10.15,9.09-16,10.54-14.19,3.51-28.89,4.88-43.26,7.76-3.5.71-6.49,3.92-9.72,6,.7,1.11,1.4,2.22,2.09,3.33l18-6.22,3.73,8.71,35.57-12.7-8.67,19.5,39.92-15.06c-1.67,6.91-3.24,13.43-5,20.54h22.1l.72,3.23-23.51,10.86,0,1.89h27.07c-11.77,15.92-27.51,16.53-41.79,18.8-11.79,1.87-24.08.33-36.07,1.31-4.4.35-8.8,5.58-12.79,5.1-6.26-.75-12.17-4.45-18.42-7l-16.74,12.66c-.63-6.4-.92-9.31-1.2-12.23l-2.28-2q-1.42,4.83-2.86,9.65l-3.29-2.7c-.24-3.4-.47-6.81-.74-10.77l-19.19-4.64c2.12,7.13,4,13.59,7.21,24.31-12.34-3.94-22.63-7.39-33-10.44-3-.89-8.48-6.94-8.4,2.7a17.09,17.09,0,0,1-2.48-.09l-2.68-15.83L928,750.59c.53-6,.88-9.46,1.13-12.91.82-11.64,4.13-13.26,14.9-7.75a59.62,59.62,0,0,0,13.6,5.28c20.52,4.73,47.39-5.31,50.17-22.34l-30.3,12.51,0,0L961,719.92c3.5-10.26,7.4-21.71,11.31-33.19l42.84-5.89c-.11-1.53-.22-3.05-.32-4.58H984.34c-.1-1-.21-2.07-.32-3.11l43.68-12.95c-10.14-3.61-19.7-6.45-28.83-5.44s-18.15,5.85-29.69,9.88l11-17.19c.32-1.16.65-2.32,1-3.47l-1,3.47q-23.32,4-46.66,7.92c-.45.08-1.08-.89-1.62-1.38l6.94-8.09c-13.9-3.85-28.71,3.9-40.76-7.5l33.3-6.69L921.2,620.85l7.91-.22c27.14,3.86,52.25-1.75,74.71-17.32,7.46-5.17,13.54-12.32,20.24-18.57l-2.16-3-13.68,3.11c3.4-10.29,6.45-19.53,9.5-28.78l.63-1.1c-.2.37-.41.74-.61,1.12l-13,9.1c.67-4.49,1.25-8.47,2-13.78C984.16,566,962.31,575.39,936.23,579c-20.19,2.77-32-7.78-47.07-14-.82-.34-.22-4.08-.27-6.24Z"/><path class="cls-5" d="M147.69,521.65c-11.65-3.49-24.78-4-33.15-17.13l12-3.58c-.78-5-1.59-10.12-2.51-16L105.8,495c-.22-1.41-.43-2.83-.65-4.24-5.13-.37-10.41-1.72-15.35-.93-18.27,2.93-36.35,7.06-54.66,9.59-4.6.63-9.8-3.05-14.72-4.74,15.63-2.95,31.8-4.29,46.75-9.3s28.56-13.67,42.77-20.73l.3.29c1.22,1.59,2.57,4.63,3.64,4.53,10.75-1,21.53-2.1,32.16-4,7.81-1.39,15.39-4,23.08-6.11l.12.13c9.83,6.12,19,14.6,32.11,8,7.34-3.67,15-6.79,22.74-10.28,1.3,5.64,2.3,10,3.59,15.61l10.48-19.75,11.63,14.23c.11,2.41-.76,6,.48,7,14.15,11.23,29.1,21,48.25,22.51-1.24-3.12-2.18-5.5-3.13-7.88h0c25.84,7.33,49.33-.89,71.84-12.1,9.06-4.51,16.5-12.29,24.68-18.58L434,455.83l-9.71,9-5.22.49-5.59.32-13.22-.25-3.73-.11.49,2.12,12.86,8-7,9.53c8.25,1,20-8.82,19.06,6.48l-18.46,9.86-11.81-3.79c1.17,6,2,10.06,3.27,16.67l-27-6.37c-3.49.44-7.19.3-10.45,1.43-26.05,9-52.17,11.44-78.86,2.62-2.5-.83-6.34,1.12-9.08,2.64-3.25,1.79-6,4.51-8.94,6.82l-.23-.19-.69-6.72-31.4,20.27-.07-.08,5-15.83-31.12,14.46c-.5-1.1-1-2.2-1.48-3.29l25.1-21.17c-.72-1.12-1.45-2.23-2.17-3.34-5.23,1.92-10.35,4.2-15.69,5.69-17.33,4.85-33,16.56-52.44,12.7Zm-41.62-36.12,3.56-4-1.26-1.32-3.79,3.2-2.41,2.83Z"/><path class="cls-2" d="M228.28,534.66l31.4-20.27c.26,2.54.48,4.63.69,6.72-.65,1-1.32,2-1.92,3,0,0,.64.46,1,.7.38-1.17.77-2.35,1.16-3.52,3-2.31,5.69-5,8.94-6.82,2.74-1.52,6.58-3.47,9.08-2.64,26.69,8.82,52.81,6.35,78.86-2.62,3.26-1.13,7-1,10.45-1.43q1.33,3.94,2.68,7.89c-25.53,10.39-51.07,20.75-76.55,31.27-.89.37-1.13,2.3-1.68,3.5-.85,0-1.7,0-2.56.08-9.49-.3-19-1-28.48-.7a38.45,38.45,0,0,0-15.45,3.52c-16.6,8.3-32.57,18.24-52.21,15.91l7.83-13.07c.66-1,1.32-2,1.92-3,0,0-.63-.46-1-.71l-1.2,3.48-33,11.82,10.56,5.15c0,1.62,0,3.24,0,4.86-12.27,2.61-24.49,5.46-36.82,7.73-7.31,1.34-15.58,0-22,2.88C94.45,599.92,69.16,599.3,43.44,590a36.48,36.48,0,0,0-4.45-.92v8.7l-3.08,2.65c-6.76-6.22-13.39-12.6-20.37-18.56-2.14-1.84-5.24-2.55-7.9-3.77q-1.9-5.85-3.8-11.7l1.52-2.24,43.87,13.94,4.23,1.06,11,.62.39-6c-.93-8-1.86-16-3.11-26.75l26.89,8.81,5-2.08-4.72-3.94L111,539.32l2.44,3.75c2.78-5.51,5.56-11,7.4-14.67L139.63,540l9,2.84.78-2.2-9.8-6.37c-3.94-8.56,1.22-10.25,8.06-10.67l7.75.23c19.43,3.86,35.11-7.85,52.44-12.7,5.34-1.49,10.46-3.77,15.69-5.69.72,1.11,1.45,2.22,2.17,3.34l-25.1,21.17c.49,1.09,1,2.19,1.48,3.29l31.12-14.46-5,15.83-1.09,1.13Z"/><path class="cls-5" d="M7.64,578.13c2.66,1.22,5.76,1.93,7.9,3.77,7,6,13.61,12.34,20.37,18.56L39,597.81v-8.7a36.48,36.48,0,0,1,4.45.92c25.72,9.27,51,9.89,76.52-1.62,6.46-2.91,14.73-1.54,22-2.88,12.33-2.27,24.55-5.12,36.82-7.73,0-1.62,0-3.24,0-4.86l-10.56-5.15,33-11.82.26.22-7.84,13.07c19.64,2.33,35.61-7.61,52.21-15.91a38.45,38.45,0,0,1,15.45-3.52c9.48-.34,19,.4,28.49.7L308,560l-51.11,9.66C275.35,581,293.38,582,313.4,578.15c-3.92,5.36-6.64,9.1-10.8,14.81,20.79,2.22,37.78-3,53.93-11.19,8.51-4.3,14.24-4.62,16.83,6-10.32-6.49-6.25,7.11-9.73,8L341.88,593l7.35,11.31c-4.51,2.3-8.87,6.12-13.58,6.64-17.89,1.94-36.47,6.75-51.62-7.13l-19.86,22.56-2.51-1.71,8.67-23.6-39.71,29.62L227.74,628q1.57-5.07,3.17-10.16l.65-1.09-.6,1.15c-10,3.19-19.88,7.61-30.16,9.15-6.61,1-13.86-2.26-20.82-3.61l31.16-16.55,8-4.14-9.61-1.08c1.48-5.53,3-11.07,5.53-20.72-12.73,8.14-22.32,15-32.65,20.48-3.65,1.93-9.06,11-13.7.31v-6.4c-2,2.81-3,4.21-4.07,5.61-14.05,12.62-30.13,19.27-49.28,21.33-11.87,1.28-22.82,9.8-34.76,12.08C67,637,52.74,636.24,38.79,637c-.4-1.58-.81-3.16-1.21-4.73l15.28-11C30.64,614.33,14.54,601,7.64,578.13ZM215,589.27c1-1.48,2.07-2.45,2.13-3.49,0-.76-1.26-1.61-2-2.42-.75.84-2,1.64-2.09,2.53S214.15,587.84,215,589.27Z"/><path class="cls-12" d="M966.71,354.62c-20,10.89-40.38,11.77-58.93,1.24l20.14-7.52-.54-3.29-17.7-6.1c0-.84.05-1.69.08-2.53L943,333.24,939.41,336,950.78,351c-.28,1.66-.55,3.32-.83,5l37.58-20.23c.16,1.62,1.56,5.14.62,7.86-5.18,14.92-10.92,29.64-16.4,44.26l6.59.45c-1,3.58-1.88,6.95-2.8,10.31l-4.66,1.55,2.29,2.86,5.42-1.56,15.27-8.3c-1.78,5.61-3.49,11.25-5.38,16.83-.54,1.61-1.58,3.05-3.77,7.14l46-3.95L1008.81,438l25.33-3.37c-10.09,16.29-25.65,21.75-40.59,20.61-22-1.68-34,14.28-50.88,21.21.46,1.22.92,2.44,1.39,3.65l32.74-12.2c1.3,1.35,2.59,2.7,3.89,4l-14,7.17,1.26,2.46,15.52-2.69c-.74,3.41-1.41,6.46-2.73,12.56l28.2-19.08c-3.74,9.5-6.51,16.5-9.85,24.95l28.73-8.18c-6.7,22.63-18.57,27.68-88.35,39.55l15.56,4.5c.2,1.2.39,2.4.58,3.6l-37.15,2.79,13.34-3.47L911,519c24.23,0,47.68,2.08,69.64-10.36H944.78l11.6-13.6-19.08,2.19,19.44-13.93L923,486.49c-.6-1.26-1.19-2.52-1.79-3.79L955.41,461,947,458.29l7.11-5.69-15.62-4.32c21.15-7.18,42.42-5.53,57-25l-29.09,6.79c.28-3.22.49-5.49.54-6.12H910c-.16-1.39-.31-2.78-.47-4.17,18-.61,35.2-3,46.8-17.39H917.82c21.64-12.07,44-20.45,48.9-47.79l.61-1.12Z"/><path class="cls-2" d="M142.45,240.08c3.68,1.47,7.57,4.58,11,4.13,23.47-3.05,46.83-6.84,70.63-10.46l1.66,5.52,23.22-10c-.81,4.14-1.37,7-1.92,9.84a3.66,3.66,0,0,0-.91.44c-.15.13-.13.46-.18.69l1.11-1.11c13.68-8.83,27-12.06,41.47-.59,3.32,2.63,10.06,1,15.45,2.85-13.48.35-22.62,20.39-40.46,8.23l8.41,16.65-65.35,3.45-.72,1.71,20.93,7c.14,1,.29,2,.44,3L190.91,289c0,.52-.11,1-.16,1.56h44.5c-24.2,17.9-48.53,24.71-75.42,24.9l1.12,3.82,13,.7.48,4.17c-12.89,1.19-25.84,3.75-38.66,3.21-15-.64-31.38,2-44.15-8.45-4.42-3.63-5.83-10.94-8.61-16.57L110,311.69l8.86-.27-3.64-10.53c0-3.58,0-7.17,0-10.75,2.89-.13,6.15-1.18,8.58-.18,3.8,1.56,7,4.5,11.89,7.8.88-5.48,1.41-8.75,2-12.56h14.93c-.72-4.36-1.37-8.26-2-12.15l6.1-1.38a1.09,1.09,0,0,0,1.71-.38l4.24-3.44-.8-1.56-7,2-18.13,3.79-5.67,1.77c-8.77-5.68.07-7.5,2.58-9.93,2.66-2.58,6.42-4,9.7-6l-3.46-2.83-2.85-1.79-22-13.25Z"/><path class="cls-13" d="M109.94,464.61c-14.21,7.06-27.87,15.73-42.77,20.73s-31.12,6.35-46.75,9.3L2.31,487.35l41.28-8.57c-8.05-9.74-4.83-13.7,4.84-14.49l9-1.88,9.45-1.31c-8.64-5.84-15-9.45-20.49-14.17-2.63-2.27-3.44-6.64-5.07-10.06,3.92-1.35,7.95-4,11.74-3.72,5.13.42,10,3.45,15.13,4.78,7.4,1.92,8.44-2.09,6.77-8.09l0-5.37,4.82-8.7,8.48,9.87,5.48-3.86c2.59-.36,6.34-2,7.53-.84,2.76,2.61,4.27,6.52,6.29,9.9,4.79-2.39,9.4-6.6,13.43-6.1,3.15.39,5.57,6.62,9.67,12l17.09-12.67,7.37,2.38c-2.1,3.78-3.84,6.89-7.66,13.74l21.26-8.32c11.34-.38,22.7-.46,34-1.29,5.29-.39,10.47-2.24,15.7-3.42,1.31,1.81,2.63,3.61,3.94,5.41l-12.93,7.89-3.45,1.13c.24.33.66,1,.69.95,1-.6,1.94-1.26,2.9-1.91,6.69-1.6,13.3-3.69,20.08-4.68,11.06-1.6,22.23-2.49,33.36-3.67-.05,1-.11,1.94-.17,2.9-5.92,17,8.21,23.8,18.16,34.09l-12.51,1.13-18.64-3.15-11.63-14.23-10.48,19.75c-1.29-5.62-2.29-10-3.59-15.61-7.77,3.49-15.4,6.61-22.74,10.28-13.13,6.57-22.28-1.91-32.11-8l1.07-1.2-1.19,1.08c-7.69,2.08-15.27,4.72-23.08,6.11-10.63,1.9-21.41,3-32.16,4-1.07.1-2.42-2.94-3.64-4.53l4.06-3.44-.89-.88Z"/><path class="cls-14" d="M252.64,9.85C252.36,26.1,264.42,32.09,279,40.57l-29.63,2,20.53,8c-13.23,13.49-32.27,11.88-48.19,18,9.09,20.93,41.16,35.54,63.58,29.13,5.09-1.45,10.29-2.53,15.44-3.78l.1.12c-8,13-21.94,13.28-34.67,15.93-3.41.71-7.09.1-11.33,2.57L277,120.16a63.18,63.18,0,0,1-42,.64c-5.92-1.89-9.57-2.39-14.84,3.19-6.93,7.32-16.67,12-26.48,15.25l10.43-15.64,2-2.89-1-.68-1,3.51c-15.93,2.7-31.78,6.71-47.82,7.72-15.18,1-29.58-10.74-32.86-23.33l5.87,2.14,2.13,1.47,8.3,1.29,4.5.91,3.08-.4.34-.27,8.62,2.85,13-.43,7.13,2.29.43-2.2h-7.63l-7.55-3.24L145.45,99.9c.6-1,1.19-2,1.78-3H166c-6.75-10.18-23-10-20.63-24.5,15,0,29.69,2.22,43.38-.55,18.14-3.67,36.33-10.14,42.15-31.57.22-.37.45-.73.68-1.09L231,40.34c-8.57-5.57,1-7.33,2.46-10.49,3-6.67,6.89-12.94,10.41-19.37l.18-.19,5.72-2.72Z"/><path class="cls-15" d="M424.26,464.85l9.71-9c-16.33.94-29.2,1.69-42.07,2.45-9.43,4.54-17.16,3.73-21.78-6.9l-4.47-.45c.69-6.69,1.27-12.41,1.86-18.12,1.39-.2,3.62-1,4-.49,7.33,9.68,35.45,18.19,44.19,10.81,7.09-6,13.84-4.05,20.91-5.41a246.82,246.82,0,0,0,29.59-7.58c7.13-2.31,6.93-2.93,13.73-19.08l-19.07,3.21L470,400c-15.54,5.59-27.25,14.41-40.3,5.84l-18-5.19L397,384.56c17.57,11.34,37.35,7.69,59.66,4.83,8-12,24.31,1.69,38.08-3.73l-7.56-6.33,18.05-2.75c4.37,1.48,8.66,3.29,13.14,4.33,3.44.8,7.11.63,10.67.9a6.65,6.65,0,0,1,0,2l-45.37,16.48c16.59,6.3,35.72,2.52,55.95-2.85l-8.19,10.58c.93,4,1.78,7.62,2.64,11.29l-.85-.15L526,421.86l-3.35.57-25.49,2.41,18.53,8.91L495.4,441c17.58,10.85,35.74,7.77,54.24-4-4.9,19.3-26.09,36.71-44.58,38.68l8.11-11c-9.33,1.19-15.34-11.26-26.75-4.19-4.45,2.76-12.69-.6-19.21-1.17l.62-1.05-.56,1.11c-5.57,1.06-11.1,2.44-16.71,3.1C441.82,463.56,433,464.1,424.26,464.85Z"/><path class="cls-16" d="M663.31,142.18l13,22h-16.4c-.12.83-.23,1.66-.35,2.48l15.23,5.79.77,3.72-42,12c17.36,19,37,28.57,62.82,21.76.2,1.5.41,3,.61,4.5l-34.4,8.83,17.13,6.58c-.07,1.23-.13,2.45-.2,3.68-9.67-.77-19.69-.21-28.89-2.71-7.29-2-11.85-3.08-17.14,3.83-3.46,4.53-9.78,6.87-16.65,11.39-.27-5.22-.42-7.93-.61-11.63-22.35,10.37-43,3.88-63.17-6.13L550,218l29.66,10c-.82-9.37-18-12.41-6.46-22-1.74-8.66-3.54-17.64-5-25.08l45.36,6.94.75-4.41-12-1.86c23.9-10.08,42.16-27.06,56.89-50C660.69,135.52,662,138.85,663.31,142.18Z"/><path class="cls-16" d="M636.45,327.79l21.47-5.39,0,0c5.41,5.17,5.41,5.17,16.64-3.35l26.91,14.3-29.28,5.28,6.45,11.18-50.47,5.43c5.19,2.78,8.09,4.32,14,7.47l-29.58,6.82c0,.54-.1,1.09-.14,1.64h34.06c-19.4,16.43-41.62,18.42-66.59,22.09l13.36,2.5c-.22.71-.37,1.93-.63,2-8.7.77-17.42,1.43-26.13,2.12l-13-1.91-.53-.48,8.31-15.84-4.23.73-8.65-11.54c2-.28,4.43-1.38,6-.66,4.18,1.91,8,4.6,13.41,7.85-.38-5.22-.61-8.25-.9-12.13l13.5.81-3.89-8.08,10.88-4.1-.54-3.34-30.66,4.41,17.17-12.67-19.84-10,.66-2.4h15.12c19.24,6.67,37.21-1.37,55.64-4.56,3.6-.63,7.63,1.17,11.45,1.85l-.58,1.2C636,328.55,636.23,328.17,636.45,327.79Z"/><path class="cls-2" d="M225.53,338.47c-.42,5.61-.84,11.21-1.54,20.57l34.9-21.51,1.89,1.35L247,357.3c-.2.39-.4.78-.59,1.17l.6-1.16,22.56-4.18L257,366.45l24.4-6.17c-18.3,15.69-36.21,20-56.12,20.76l26.4,6.21c-18,11.93-34.7,11.34-51.38,9.34-6.94-.84-13.63-3.75-20.46-5.62-2.12-.58-5.43-2-6.31-1.11-11.37,11.22-21.9,1.2-32.65-1-11.24-2.3-22.42-4.91-33.62-7.39L97.21,362.22l12.16,3.42c7.26,4.87,9.45,2.18,8.28-5.55,4.8-11,12.52-.28,18.51-2.49,4.71,2,9.25,4.67,14.16,5.72,6.33,1.35,14.39,5.32,16.51-5.93,9.31-1.77,19.64,2.51,27.19.77,11.42-2.64,21.13-12.71,31.57-19.62Z"/><path class="cls-2" d="M895.92,207.14c-3.19,11.17,4.41,15.7,14.65,21.32l-14.43,3.7,9.37,7.75L868.73,252c14,19.36,32.82,26.14,56.6,20.16l.48,4.3-29.41,7.75,9.39,6.18c-.14,1.37-.27,2.74-.41,4.11-7.55-.69-15.75.22-22.5-2.48-7.85-3.14-12.54-3.62-18,3.86-3.57,4.88-9.9,7.74-17.12,9.11l7.72-10.23c-22.55,12.27-43,6-63.25-4.68l-.58-.57.36-.72c.06-3.09.13-6.18.19-9.27l26.05,9.74,1.06-2.81L801.86,273l8.47-4.51-7.4-23.73,42.87,4.9c9.75,5.58,14-2,18.91-7.94l-.06.07,10.81-10.75-.09-2.69q1.23-5.48,2.44-10.94l.1-.1,8.16-12.81,5.26-4.68Z"/><path class="cls-13" d="M176.6,153.52c19.36,11.23,34.13-.38,49.13-10.88l2.86,2.1-9.67,20,30-5c-1.69,4.54-3.14,8.42-4.59,12.3l.07-.06-3.24.91,3.23,1.84,0-.05c-10.09,6.16-19.46,15.13-30.4,17.88-20.59,5.17-42.07,6.75-60.56,9.44l5.49,2.84c-.05,1.47-.11,2.94-.17,4.41-12.36,0-24.83,1-37-.32-9-.95-17.8-4.3-26.3-7.59-11.83-4.58-15.7-14.48-13.95-32.7l24.65,20.08,10.69,3.74,3.85-5.33-10.16-5.27,10.48-7.68,1.27.37,1.27-.4c11.1,4.19,9-11.15,15.93-8.95l20.94,9.78,20.66,0,5.45-.71C167.27,158.82,167.27,158.82,176.6,153.52Z"/><path class="cls-17" d="M505.26,376.58l-18.05,2.75,7.56,6.33c-13.77,5.42-30-8.26-38.08,3.73-22.31,2.86-42.09,6.51-59.66-4.83l0-.12,9.41-3.12,5.52,1c-1.42-12.51-2.89-25.37-4.62-40.55,20.39,13.37,34.59,3.31,47.67-8.2,8.45-7.44,15.26-16.75,23.08-25,.77-.81,3.49.24,5.3.42l2.85,5.21-.07-.11,2.84,5.47-.14-.18,2.83,2.84,0-.29,2.87,10.52L484.8,334l10.37,8.32-33.26,8.58c12.94,18.12,26.39,22.9,48.25,17.71,2.36-.57,5.3,1.32,8,2.06Z"/><path class="cls-18" d="M754.48,335.62c-1.27,2.65-2.55,5.3-4.33,9,10,5.49,12.61,12.67,1.65,20.76-16.4,8.09-45.7,10.85-72,5.55,19.55-6,38.42-5.73,49.65-22.29l-40.05,2.75c-.06-1.17-.11-2.35-.17-3.52,10.44-6.55,21.58-12.2,31.09-19.89C729.5,320.56,737,311,744,301.07c-18.58-2.9-35.67,19.76-53.41-1.38l9-12.63-15.82-3.72-.36-3.53,28.57-3c3.86,2.9,1.58,11.37,9.55,10.54q0,3.71.11,7.41l-1.32,2,3.37.46,39.72-18.15c2.22,14.31-2.84,28-15.74,39.57l9.09,2.09L742.27,332Z"/><path class="cls-8" d="M1815.06,885.67l-4.63-.14c-3.9-2.49-7.48-6.16-11.74-7.29-19-5-36.64-12.11-50.46-26.7,4.13-16.15,11.69-29.38,29.11-34.2l29.85,10.08c2.22,2.93,4.36,5.92,6.66,8.79,12.1,15.15,29.79,27.13,28.17,50l-18.91-.24Z"/><path class="cls-16" d="M594,255.13c20.82,7.11,29.51,6,47.85-5l-8.18,15.55,22.44-1.19c1.94,13.17-4.9,19.36-16.9,21.69-15.58,3-31.12,6.22-46.68,9.34-5.25,1-12.76-3.56-14.71,6.44-.24,1.22-7.39,2-11.12,1.46-12.13-1.71-25.27-1.86-35.83-7.07-6.91-3.4-10-14.51-14.84-22.18a45.53,45.53,0,0,1,3.64-3.43c5,4.28,9.51,9.06,14.6,13.16,4.36,3.51,9.31,6.27,15.33,10.24-.77-10.16-7.55-21.45,9.89-18.24,2.39.44,6.1-6.27,9.39-9.89,10.43,14.29,24.24,11.67,36.16,10.16Z"/><path class="cls-13" d="M832.85,317c15.2,7.57,27.54-1.85,40.28-8.93l2,3.17-9.5,14.29,21.08-3.06c-.24,3.08-.44,5.53-.63,8l0-.06-3.19.92,3.21,1.84-.09-.08c-4.24,3.41-8,8.66-12.81,9.89-14.87,3.8-30.24,5.66-45.2,9.16-4.92,1.15-9,6.77-13.81,7.21-9.13.85-18.54,0-27.69-1.15-16.34-2.13-26.91-11-29.62-28,1.8-.16,4.27-1.17,5.29-.36,7.08,5.63,13.86,11.64,23.85,20.19-2.54-12.74-.56-18.62,10.51-17.21,2.06.26,4.84-5.11,8.42-9.17,9.2,10.16,21,13,36.82,8.71l-14.62-10.93Z"/><path class="cls-19" d="M902.11,757.69a17.09,17.09,0,0,0,2.48.09l3.06,104.27-5.46,14-28.74,1.72,1.62-37.07c1.37-21.66,2.73-43.33,4.17-66.3l-11.42,2.15-1-5.13c6.17-6.6,12.33-13.21,20-21.46,2.11,1.7,5.93,4.78,9.76,7.85-3.24,1.7-9.26,3.34-9.29,5.09-.22,11.09.89,22.21,1.56,33.32l4.47-.29,3.39-38Zm-18.29,40.52-1.63.07v53.53l1.63-.18Z"/><path class="cls-20" d="M1618.93,875.64l-42.77-3.35c4.73-5.51,9.78-10.78,14.11-16.59,3.54-4.78,6.21-10.2,9.31-15.31,4.78-7.89,9.61-15.76,14.41-23.64,13.41,1.86,31.43-1,39.23,6.63,13.85,13.53,23.12,11.49,35.49,1.6,1.69-1.35,3.91-2.06,5.88-3.06l5.22.06.21,3-7.77,13.26-5.47,4.15,10.13,6.69,2.74,2.75.15,5.17-.57.43-47.82-22.14c-4.27.36-10.71-.92-12.43,1.36-8.4,11.14-18.49,21.92-17.18,37.62Z"/><path class="cls-20" d="M1842,886.23c1.62-22.89-16.07-34.87-28.17-50-2.3-2.87-4.44-5.86-6.66-8.79,18.75-14.14,36.45-30.33,61.72-31.8-3.75,9.92-7.32,19.92-11.31,29.74-2.94,7.25-7.4,14-9.43,21.47-2.5,9.19-.88,17.57,9.44,22.26,12.07,5.48,23.79,11.72,35.66,17.62Z"/><path class="cls-7" d="M1694.59,821.92c-2,1-4.19,1.71-5.88,3.06-12.37,9.89-21.64,11.93-35.49-1.6-7.8-7.62-25.82-4.77-39.23-6.63,19.25-22.74,46-28.32,73.52-32.07,4.8-.66,9.8.14,14.71.27-16,12-16.49,13.63-9.14,31.85A52,52,0,0,1,1694.59,821.92Z"/><path class="cls-18" d="M714.3,276.33c2.3-6,3.61-12.76,7.16-17.94s9.29-8.71,13.44-15c-21,5-41.34,14.39-63.42,3.55l40.25-13.22,5.38-2.67-.3,0,26.81-16.48c.14,1.52.56,5.92,1.16,12.22l16.94-6.32-9.64,22.39-9.08,6.8,1.85,2.75,10.44-7.2,8.7-3.69C756.24,268.3,734,270.49,714.3,276.33Z"/><path class="cls-12" d="M945.24,332.85l8.13-9.55-6.94-2.13,15.31-16.48-1.58-3.78c-22.22,12.07-45.07,14.32-66.63,7.76l46.71-16,7.8-2.54-.13.22c7.05-4.83,14.11-9.65,21.35-14.59.23,2.95.55,7.09,1,12.67l15.7-6.44-8.38,23,9.66-2.77C993.71,311.19,970.56,328,945.24,332.85Zm22-23.84c.39.91.78,1.83,1.16,2.75l9.68-4-1.21-2.91Z"/><path class="cls-15" d="M518.14,370.67c-2.68-.74-5.62-2.63-8-2.06-21.86,5.19-35.31.41-48.25-17.71l33.26-8.58L484.8,334l9.76-1.47L491.69,322l23.41,3.24c-1.74,3.24-4.76,8.84-9.48,17.63l21.23-8.52-13.71,19.29,1.68,2.77,22-9.87C539.68,361.64,527.22,364.84,518.14,370.67Z"/><path class="cls-17" d="M243.84,10.48c-3.52,6.43-7.41,12.7-10.41,19.37C232,33,222.4,34.77,231,40.34l-.07-.07c-5.82,21.43-24,27.9-42.15,31.57-13.69,2.77-28.39.55-43.38.55C143,86.84,159.25,86.71,166,96.89H147.23c-.59,1-1.18,2-1.78,3l16.12,12.44c-.37.35-.75.69-1.15,1l-12.83-.28-.34.27-9.89-18.59,8-3.93-8.1-22.64,1.13-3.36c.67-2.53,1.35-5.06,2-7.45l23.16,7.26L169,66.4l18.81.17,11.53-2.48-.4-2h-21.6l-1.06-.81-.91-.7C206.47,55.21,223.44,30.5,243.84,10.48Z"/><path class="cls-8" d="M1694.59,821.92a52,52,0,0,0-1.51-5.12c-7.35-18.22-6.88-19.89,9.14-31.85l46.11,17.12c-1.89,16.25-14.21,22.4-27.08,28l.09.1-2.8-2.8.12.11-2.78-2.77.07,0-16.14-2.8Z"/><path class="cls-14" d="M902.19,876l5.46-14,14.2,2.79c-.38-.79-.75-1.59-1.13-2.38l48.18-18.27-9.08,16.08h15.92c3.2,5.13,5,8,6.76,10.81l-13.41,7.86-40,5.35Z"/><path class="cls-21" d="M553.48,397.9l13,1.91L550,414.69l-15.86,4.66c-.86-3.67-1.71-7.33-2.64-11.29l8.19-10.58c-20.23,5.37-39.36,9.15-55.95,2.85l45.37-16.48,19.32-13.08L557,382.31l4.23-.73L553,397.42l-5.66,1.82,3.63,3.2C551.78,400.93,552.63,399.41,553.48,397.9Z"/><path class="cls-7" d="M1721.25,830.09c12.87-5.62,25.19-11.77,27.08-28l29,15.27c-17.42,4.82-25,18-29.11,34.2l-21.58,8.13v0c8.59-13.38,17.17-26.76,26.56-41.41l-31.31,20.21Z"/><path class="cls-12" d="M322.65,114.14c-4.26-.65-8.59-2.14-12.75-1.76-6.83.61-13.54,2.42-21.53,1.62,24.19-10.58,38.41-31.29,55-49.44,2.54,10.32.64,18.68-9,25-2.47,1.61-2.51,6.69-4.07,10C327.92,104.48,325.21,109.28,322.65,114.14Z"/><path class="cls-17" d="M179.78,634.49l-14.55,4.36,16.42,14.75L147.43,647l4.72,13.6-14.53-1.27c-.2,4-.37,7.74-.6,12.47l-8.86-4c2.79-5.38-3.29-17.2,10.55-14.54l5.41,1.52-1.5-5.2c-.36-2.14-.71-4.29-1.26-7.65l19.75,2.19c.13-1,.25-2,.37-2.93v-10.8l18.68.87-.14-.09Z"/><path class="cls-12" d="M940,290.5l-17.31-4.75c9.61-8.6,20.89-18.08,31.3-28.44,2.95-2.93,3.36-8.42,4.94-12.74l4.93.78c-2.6,7.67-3.37,16.88-8.25,22.59-6,7.05-6.27,14.58-7.69,22.39l.14-.22Z"/><path class="cls-14" d="M1461,868.15c.77,1.65,1.1,3.87,2.38,4.85,3,2.28,6.42,4,9.67,5.89-.35,1.32-.71,2.64-1.06,4l-41,4c-.66-1.3-1.32-2.6-2-3.9l18.55-15Z"/><path class="cls-17" d="M875.46,231.07l-10.81,10.75-2.88-2.1-.71,1.06,3.65,1c-4.93,5.92-9.16,13.52-18.91,7.94l-7.19-3.57,39.2-28.68q-1.21,5.48-2.44,10.94l.09-.07-6,.61c0,.49,0,1,0,1.47l5.92.61Z"/><path class="cls-22" d="M518.14,370.67c9.08-5.83,21.54-9,18.71-24.12l3.32-7.23c9.25,19.79-7.85,28.75-11.1,42.49-3.56-.27-7.23-.1-10.67-.9-4.48-1-8.77-2.85-13.14-4.33Z"/><path class="cls-12" d="M919,544.89l-15.76-6.25,1.92-4L916,540.06Z"/><path class="cls-15" d="M406.39,381.32,397,384.44q-.81-4.33-1.61-8.67Z"/><path class="cls-17" d="M886.07,204.53l-8.16,12.81Z"/><path class="cls-5" d="M792.18,279.54c-.06,3.09-.13,6.18-.19,9.27q-2.28-5.16-4.57-10.32Z"/><path class="cls-17" d="M249.74,7.57,244,10.29Z"/><path class="cls-15" d="M489,319.64l-2.84-5.47Z"/><path class="cls-15" d="M486.19,314.28l-2.85-5.21Z"/><path class="cls-2" d="M81.47,301.08l-3.32,2.5c.22-1.58.44-3.16.67-4.74Z"/><path class="cls-13" d="M81.15,168.4l-2.87.9.39-2.06Z"/><path class="cls-12" d="M343.69,59.11,340,58.78l2.33-2.86Z"/><path class="cls-11" d="M528.77,327.58l-.3,1.78L527.4,329l1.67-1.14Z"/><path class="cls-15" d="M491.65,322.3l-2.83-2.84Z"/><path class="cls-23" d="M1618.93,875.64l2.87-1.36q25.41,1.58,50.82,3.12l27.29,1,56.26,5.34-28.12,15.59,10.46,1.64c.16.72.32,1.44.47,2.16l-31.14,10.63c43.2,5.13,87-3.46,133.22,10.49-5.07,1.61-6.39,2.37-7.73,2.41q-58.89,1.5-117.79,2.87c-39.26.9-78.53,2.25-117.79,2.44-24.5.11-49-2.34-73.5-2.23-37.93.16-75.85,2.37-113.77,2.22-73.72-.3-147.43-1.5-221.14-2.59-41.06-.6-82.11-2.15-123.17-2.55-113.52-1.09-227.06-3-340.58-2.13-52.84.4-105.64,6.52-158.46,10-16.43,1.07-32.88,2.34-49.34,2.74-46.86,1.15-93.75,3-140.6,2.36C351.1,939.45,325,935,299,931.69c-5.85-.76-11.28-4.73-16.91-7.22l93.7-6,32.24-2.66c-.14,2.57-.27,5.14-.42,8.16h6.23c8.32-.16,16.79.51,24.88-1,2.84-.51,4.75-6.23,7.09-9.57l24.35-3L499,908.13l21.87.18C537.59,910,554.27,912.66,571,913c33.09.75,66.22.84,99.31.08,54.85-1.27,109.68-4,164.54-5.1,106.72-2.12,213.46-4.67,320.19-4.74,54.74,0,109.48,5.09,164.23,7.54,45.88,2,91.79,3.42,137.67,5.44,55.21,2.43,110.37,6.43,165.59,7.3,22.64.35,45.39-5.72,68.08-8.87l0-5.42-16.2-2.25,30.14-9.46c-11.85-4-22-8.27-32.57-10.84C1654.42,882.45,1636.62,879.28,1618.93,875.64Z"/><path class="cls-9" d="M1275.22,1076.46l-163.28.11c-2.07-2.79-5.56-5.38-6-8.4-2.51-18.31-4.25-36.72-6.38-55.09-2.2-18.94-13.57-36.28-9.82-56.27l17-2.56c-.26,2.5-.5,4.72-.35,3.31h152.75l-10.48-9.1,13.23-.19,15.91,2.38.57.57Q1276.8,1013.85,1275.22,1076.46Z"/><path class="cls-9" d="M697.87,1076.44l-160.45-.06c.5-13.71.68-27.43,1.56-41.11,1.74-27.1,3.87-54.18,5.84-81.26l.59-.59c8.32,1,16.62,2.07,25,3,11.3,1.23,22.31,0,33.62-1,20.56-1.88,41.85,4.2,63.19,7l-3.88-8.61,5.38-.11,22.69,12.77c.69-6.13,1.06-9.43,1.43-12.73a20.55,20.55,0,0,1,.1-2.6l21.64,5.43c-3.51,18.39-7.8,36.68-10.33,55.2C701.28,1033.21,699.91,1054.87,697.87,1076.44Z"/><path class="cls-24" d="M408.07,915.84l-32.24,2.66q-9.1-15.76-18.19-31.55l-3.83.65c-1.29,10.51-5.42,17.18-16.42,13.2-5.46,16.37-11.33,17-29.93,3.46-12.24,20-24.08,3.08-35.86-1-12.81,13.58-15.28,13.61-25.1.72-16.58,23.15-31.65,23.12-42.82-.86-9.16,8.07-16.61,6.45-21.26-6.09l-16.07,27.26L161.17,927l-21.57.15C147.22,921.75,150,911,162,910.05c11-.9,12.09-12.4,3-27.65,9.72-9.32,9-18.16-1.52-27.49-7-6.23-10.2-13.78-1.09-22.46,7.13-6.79,4.64-15.56-5.37-20-5.91-2.6-12.83-2.92-19.29-4.27,5.89-21.27,23-23.63,39.6-23.92l13.1-34.63c9.88-1.87,19.82-3.46,29.59-5.77,3-.71,5.54-3.38,8.29-5.15l21.56-6.12,18.28,11.45c3,9,6.15,12.56,13.37,2.37,4.65-6.56,12.12-11.58,20.34-5a265.28,265.28,0,0,1,24.92,23c1.47,1.5,0,5.9-.09,7l22.26,2,21.53,13.81q-1.31,7.92-2.59,15.85l-14.48,8.1,23.94,27c6.79-.8,14-.17,19.86-2.68,9.13-3.92,17-5,24.66,2.16q-.12,3.08-.22,6.15c-6.58.47-13.24.42-19.7,1.51-15.24,2.58-21.84,17.07-33.19,23.78,2.41,6,6.95,11.65,5.95,16-2.47,10.83,4.72,13.22,11.32,14,9.3,1,19.28,1.08,28.22-1.29s15.24-2,20.85,5.22l-3,5c-2-.89-4.62-3.06-5.89-2.44C420,908.57,414.07,912.33,408.07,915.84ZM349.12,803.29c1.1-4.93,4.73-11.87,2.75-14.36-3.56-4.5-10.2-7.8-16.07-8.93-7.64-1.48-15.78-.36-23.7-.36.88-1.7,1.76-3.39,2.63-5.09-4.68-6.4-8-15.6-14.32-18.63-12.88-6.2-17.81,6.82-24,15.26-2.17-1.69-3.65-2.65-4.9-3.85-16.24-15.59-15.53-14-35.39-2.72-8.57,4.85-17.08,15.57-30.65,10.67-3.46-1.24-10.58,2.82-13.37,6.47-1.63,2.11,2,8.27,3.27,12.59a13.91,13.91,0,0,0,.85,2.41c-9.27,4.7-21.72,6.87-25.44,13.76-7.9,14.64,10.46,18.49,16.69,27.19-10.73,20.21-3.31,34.36,18.77,35.1,7.58.25,15.27-3.12,22.91-4.87,2.84-.65,7.06-2.94,8.28-1.84,15.06,13.51,26.53,6.75,39.29-9.81,2.74,4.57,4.12,8.65,6.91,11.22,10.51,9.73,31.87,11.85,36.33,2.43,6.92-14.62,17.18-12,29.29-11.32,5.71.34,13.8-4.38,16.93-9.29,1.77-2.78-4-10.75-7-16-1.15-2-5-2.65-5.9-4.68-2.6-5.79-4.34-12-7.2-20.29-.12.18,1.48-2.43,3.07-5Z"/><path class="cls-9" d="M1836.4,1076.37h-18.07c-3.66-27.55-9.17-55-10.32-82.66-.73-17.74-3.06-30.45-25.73-33.46-1.45,7.61-4.38,15.8-4.33,24,.2,30.79,1.37,61.57,2.18,92.36l-18.28-.07c-.89-35.29-1.62-70.58-2.89-105.85-.16-4.24-2.32-11-5.14-12-4.58-1.59-10.55.31-15.81,1.33-4.09.8-8,3.5-12,3.58-6.61.12-13.24-1.52-19.89-1.77-4.79-.18-11.32,2.88-14.14.69-11-8.51-21.84-3.13-32.93-2.16-2.9.25-6.08-2.66-12.43-5.7-17.26,3.42-38.47,9.1-60,11.29-11.08,1.13-22.81-5.84-34.22-5.75-12.34.1-21.49-13.27-35-6.25s-28.14,11.55-41,19.29c-8.6,5.17-13.55,4.65-18.78-3.12-1.93-2.86-4.15-5.51-6.11-8.1-17.81,7.85-18.08,7.3-35.18-2.91-4.8-2.86-12.87-4.15-17.58-2-4,1.79-7,9.43-7.37,14.72-1.71,21.34-1.85,42.81-3.38,64.17-1,13.64-3.34,27.17-5.09,40.76l-26.41-.13c3.6-35.6,7.21-71.2,10.79-106.56l-22.7-6c-1.7,38.82-3.31,75.55-4.91,112.28l-34.22.17q1.23-35.58,2.51-71.15a11.88,11.88,0,0,1,1.2-5.11c18.73-34.53,12.11-46.77-26.66-49.13-1.33-.08-2.67.09-4,.14l-.57-.57.36-10.09,45.41,7.65c8.12,11.3,18.08,13.36,24.61,5.1l35.45,10.55,5.45-16c17.09-7.23,29.34.55,42.51,8.73,4.22,2.62,13.07-2.21,20.95-3.88,1.46,2,3.76,5.17,6.17,8.29,4.39,5.7,8.36,6.5,15.75,2.83,16.55-8.24,33.66-16.59,51.51-20.44,8.48-1.82,19.15,6.57,28.83,10.33L1552,955.6l2.77-1.93c28.6,8.84,55.19-4.73,82.77-7.27,4.54-.41,9.27,1.11,13.91,1.74,3.68.5,7.44,1.73,11,1.35,9.83-1,19.63-5.29,29,2.43,1.79,1.48,5.84.15,8.84.27,8.84.37,17.68.92,26.53,1.16,2.56.06,6.06.25,7.57-1.22,11.41-11.11,20.65-4.71,30.11,2.93,6.23,5,16.9,2.28,20.76-5.18l21.93,9,21.34,5.37.69.68C1829.13,1002.25,1826.23,1039.74,1836.4,1076.37Z"/><path class="cls-9" d="M451,1076.66l-18.37-.11c1.7-32.45,3.27-64.9,5.23-97.33.37-6.18,2.27-12.28,3.47-18.42-6.89-.34-13.78-.72-20.67-1-.82,0-1.67.49-3.89,1.2,0,15.49-.89,31.5.22,47.37,1.59,22.78,4.65,45.45,7.08,68.16H389.62c1.68-31.59,2.6-63.24,5.38-94.73,1.37-15.5-4.05-23.15-18.84-25.2l-.09-.09c.14-3,.27-6,.41-9l20.89,3.56c2.83,2.52,6.17,7.51,8.4,7.06,5.62-1.14,10.74-4.74,16.06-7.36h29.52l-2.74,5.8Q449.78,1016.62,451,1076.66Z"/><path class="cls-3" d="M1089.77,956.81c-3.75,20,7.62,37.33,9.82,56.27,2.13,18.37,3.87,36.78,6.38,55.09.41,3,3.9,5.61,6,8.4l-48.9-.23q-2.4-62.6-4.81-125.18l11-.92,4.83,0C1075.7,961.16,1084.8,954,1089.77,956.81Z"/><path class="cls-3" d="M697.87,1076.44c2-21.57,3.41-43.23,6.33-64.68,2.53-18.52,6.82-36.81,10.33-55.2l2.82-2.35,21.8-5.38,3.59-.12q.53,5.2,1,10.4.13,58.77.25,117.53Z"/><path class="cls-9" d="M510,1076.63l-31.58-.43c2.63-37.63,5.27-75.26,8-114.56l-34.59,5.86c.92-4.9,1.48-7.88,2.05-10.86l34.69-6,3.3,7.41,15.94-7.42,37.39-5.18q.07,4,.17,8l-.59.59c-7,.92-14,1.63-20.89,2.82-10.24,1.76-17.51,4.73-16.73,18.47C509.12,1009,509.2,1042.85,510,1076.63Z"/><path class="cls-3" d="M453.92,956.64c-.57,3-1.13,6-2.05,10.86l34.59-5.86c-2.75,39.3-5.39,76.93-8,114.56l-27.48.46q-1.18-60-2.35-120.09Z"/><path class="cls-9" d="M961.11,1076.57H926.68c-1.91-31.89-3.67-63.79-5.83-95.67-.67-10-.49-21.29-15.4-21.28l-.73-.77.17-7.85H921l15.86,2.4.59.59c4.33,24.75,8.41,49.56,13.09,74.24C953.62,1044.43,957.56,1060.47,961.11,1076.57Z"/><path class="cls-12" d="M166.35,924.31l16.07-27.26c4.65,12.54,12.1,14.16,21.26,6.09,11.17,24,26.24,24,42.82.86,9.82,12.89,12.29,12.86,25.1-.72,11.78,4.06,23.62,21,35.86,1,18.6,13.49,24.47,12.91,29.93-3.46,11,4,15.13-2.69,16.42-13.2l3.83-.65q9.09,15.78,18.19,31.55l-93.7,6-115.62,2.3A14.53,14.53,0,0,0,166.35,924.31Z"/><path class="cls-20" d="M1756.17,883.78l-56.26-5.34q-.35-10.5-.68-21l.57-.43c5-.34,13.37,8.09,13.62-5.09l8.49-13.42,31.31-20.21c-9.39,14.65-18,28-26.56,41.41-.32,1.16-.64,2.31-1,3.47l1-3.49,21.58-8.13c13.82,14.59,31.51,21.68,50.46,26.7,4.26,1.13,7.84,4.8,11.74,7.29Z"/><path class="cls-9" d="M177.13,953.33q18-.6,36-1.22c3-.1,5.91-.36,8.86-.33,3.46,0,9-1,10.05.73,7.52,11.89,16.18,5.63,25.26,3.1,4.81-1.34,10.43.58,15.56,0,10-1.21,19.79-4,29.76-4.56,9.39-.49,19,.6,28.31,2,8,1.17,15.18,9.55,24.16-.79,2.3-2.65,13.75,2.67,21,4.33l.09.09c-.53,3.25-1.06,6.51-1.6,9.89-9-1-18.46-12.81-24,3.64-8.26-3-15.95-6.88-24.09-8.47a79.74,79.74,0,0,0-23.9-.62c-9.53,1.06-19.94,7.22-28,4.76-8.31-2.53-14.76-2.14-20.87,1.45-11.06,6.5-17.83,3.05-21.82-6.59-7.19.64-13.18,1.55-19.18,1.64-11.72.16-23.44-.14-35.17-.24l-.57-.57C177,958.78,177.08,956.06,177.13,953.33Z"/><path class="cls-25" d="M1089.77,956.81c-5-2.79-14.07,4.35-15.68-6.53,10.71-2.27,21.42-4.61,32.19-6.56.63-.12,1.83,3,2.77,4.63a4,4,0,0,0-.93.43c-.15.13-.12.46-.17.71l1.07-1.17c18.06-3.37,36.52-1,54.78-2.52,12.8-1.1,26.55-4.1,40-2.56,15,1.71,30,3.48,45,5.22l10.48,9.1H1106.43c-.15,1.41.09-.81.35-3.31Z"/><path class="cls-25" d="M545.41,953.42q-.09-4-.17-8l56.31,2.82,5.29,2.24c.17-.57.33-1.14.49-1.71l-5.9-.38c1-.82,2.13-2.46,3-2.32,19.54,3.29,40.33-2.92,58.89,7.7l3.88,8.61c-21.34-2.8-42.63-8.88-63.19-7-11.31,1-22.32,2.22-33.62,1C562,955.49,553.73,954.42,545.41,953.42Z"/><path class="cls-9" d="M126.4,962c-15.52,2.17-17.64,13.48-19.22,26.35a537.6,537.6,0,0,1-10.6,57.37c-3-28-4.2-56,2.34-83.79l34.37-12.22,1.2,2Z"/><path class="cls-9" d="M762.28,947.79c6.43-1.51,13.23-8.07,18.75,2.11.75,1.37,5.78.65,8.81.52,17.2-.73,34.4-1.42,51.58-2.46,6.87-.42,13.7-1.68,20.55-2.56l-.12,8.51c-10.49.77-21,1.4-31.46,2.35-14.69,1.34-29.36,3-44,4.34-2.06.19-5.83.24-6-.43-2.88-10.18-9.8-4.07-15.16-4Z"/><path class="cls-25" d="M1069.26,950.24l-11,.92-42.94,5.67c.29-3.54.46-5.74.64-8l-27.25,4.61c-.22-.76-.4-1.53-.56-2.31l0-10.66,30.51-1.84c.05.74.21,3.39.43,6.79l52.9-5C1071,944.16,1070.12,947.2,1069.26,950.24Z"/><path class="cls-9" d="M988.17,940.52c0,3.55,0,7.11,0,10.66L937.46,954l-.59-.59q-1.12-5.11-2.27-10.22C952.72,947.53,970.58,946.9,988.17,940.52Z"/><path class="cls-25" d="M861.85,953.91l.12-8.51L904.89,951c-.06,2.62-.11,5.23-.17,7.85l-42.2-2.71A19.51,19.51,0,0,0,861.85,953.91Z"/><path class="cls-25" d="M692.79,953.73c-.37,3.3-.74,6.6-1.43,12.73l-22.69-12.77-4.87-10.07Z"/><path class="cls-9" d="M97,961.3,81.11,971.68l-12.2-1.3c.14-2.71.29-5.51.44-8.31l27.05-8.69C96.47,954.34,96.73,957.82,97,961.3Z"/><path class="cls-25" d="M1278.2,940.56l-.36,10.09-15.91-2.38-13.76-8.56c.28-.86.57-1.72.85-2.58Z"/><path class="cls-9" d="M155.69,967.21l-27,5.85-1.17-2.8,9.18-8.18,19-3.42C155.7,961.52,155.7,964.36,155.69,967.21Z"/><path class="cls-25" d="M717.35,954.21l-2.82,2.35-21.64-5.43c.46-3.57.91-7.14,1.15-9L716.88,946C717,948.76,717.19,951.49,717.35,954.21Z"/><path class="cls-25" d="M1348.22,953.31c-6.53,8.26-16.49,6.2-24.61-5.1,2.37-1,5.22-3.46,7-2.84C1336.7,947.43,1342.39,950.58,1348.22,953.31Z"/><path class="cls-25" d="M1828.52,964.28l-21.34-5.37V951l21.57,3.06C1828.67,957.48,1828.6,960.88,1828.52,964.28Z"/><path class="cls-9" d="M1828.52,964.28c.08-3.4.15-6.8.23-10.2l21.51-2.39q.08,4.92.16,9.84l-.64.64L1829.21,965Z"/><path class="cls-25" d="M421.83,950.77c-5.32,2.62-10.44,6.22-16.06,7.36-2.23.45-5.57-4.54-8.4-7.06,4.89-1.52,9.72-3.88,14.69-4.25C415.21,946.59,418.57,949.35,421.83,950.77Z"/><path class="cls-25" d="M934.6,943.19q1.14,5.1,2.27,10.22L921,951c-2.64-3.24-5.29-6.47-8.83-10.8Z"/><path class="cls-25" d="M155.69,967.21c0-2.85,0-5.69,0-8.55l21.42-5.32c0,2.72-.11,5.44-.16,8.17l-21.29,5.68Z"/><path class="cls-25" d="M762.28,947.79l2.88,8.36-.09.08-21.31,2.88q-.5-5.19-1-10.4Z"/><path class="cls-9" d="M717.35,954.21c-.16-2.72-.31-5.45-.47-8.17,7.35,1.49,16.38-10.51,22.27,2.79Z"/><path class="cls-25" d="M1850.42,961.53q-.09-4.92-.16-9.84l18.59-.76,0,8-2.64,2.79Z"/><path class="cls-25" d="M507.85,950.63l-15.94,7.42-3.3-7.41C495,948.65,501.43,940,507.85,950.63Z"/><path class="cls-6" d="M166.35,924.31a14.53,14.53,0,0,1,.16,2.46l-5.34.19Z"/><path class="cls-20" d="M1815.06,885.67l8,.32Z"/><path class="cls-17" d="M349.23,604.28,341.88,593l21.75,2.76c3.48-.88-.59-14.48,9.73-8,3.86-2.69,7.42-8.22,12.12-.59.67,1.1,4.43.3,6.76.38l8.4,9.93L413.51,591l.05,0c3.67,11.3,10.43,2,15.74,2.37l32.68-4.2-6.18,9.14c8.44-3.15,13.36-5.59,18.56-6.73,3.89-.85,10.72-1.53,11.78.31,5.15,8.85,8.8,18.58,13,28l-21-5c-5-15.91-7-.28-10.66-.61-4.9-1.63-10.1-3-13.89-1.34-8.06,3.65-15.22,7.53-22.68-.87-1.22-1.37-4.16-2-6.14-1.76-9.81,1.25-19.85,2-29.3,4.65-20.1,5.7-39.88,12.51-59.79,18.86l-11.56-5,35.71-18.47Z"/><path class="cls-5" d="M34.86,728.1l-9.29-2.16c.56-1.16,1.12-2.31,1.67-3.47L35,728Z"/><path class="cls-9" d="M155.68,967.19,177,961.51l.57.56c-1.85,7.09-5,14.11-5.34,21.27-1.58,31-2.35,62-3.42,92.95l-20.87.28c.89-25.31,1.39-50.64,2.85-75.91C151.41,989.44,154,978.35,155.68,967.19Z"/><path class="cls-10" d="M89.19,858.48c5.1,7.32,8.67,12.18,11.63,17.39.16.28-6.11,5.52-7,4.9A56,56,0,0,1,81.2,869.12C80.69,868.49,85,864,89.19,858.48Z"/><path class="cls-10" d="M145.11,835.58c-3-.64-6.79-.39-8.88-2.14-3-2.53-4.82-6.52-7.13-9.89,2.41-1.39,5.68-4.52,7.07-3.84a22.86,22.86,0,0,1,8.62,8c1.23,1.9.27,5.22.29,7.9Z"/><path class="cls-15" d="M335.66,633.91c19.91-6.35,39.69-13.16,59.79-18.86,9.45-2.68,19.49-3.4,29.3-4.65,2-.26,4.92.39,6.14,1.76,7.46,8.4,14.62,4.52,22.68.87,3.79-1.71,9-.29,13.89,1.34,3.69.33,5.69-15.3,10.66.61,5.58,10.83,23.35,19.17,34.8,16.33l0,0c20.48.43,39.91-2.8,56.49-16.08,7.49-11.08,13.87,7.26,22.7,1.55L580.2,641,593.47,634l0,0c-1.94,16-15.46,21.65-27.08,26.13-17,6.53-35.35,9.39-52.49,13.66l1.84,1.45-30.45,11.1L523,689.84l-5.62,7.3,1.8,3.29,36.66-10,0,.06c-1,4.27-2,8.55-3.23,14L580,695.74l.12.13c2.86,1.23,5.82,3.63,8.58,3.42,5.15-.4,10.19-2.32,15.27-3.6.35,1.26.69,2.52,1,3.79l-46.16,15.28,27.64,3.58-22.8,9.07a10.24,10.24,0,0,1-2.28.78l-8.25-1.43-11.87,27.9,14.51-2.55.19.19c2.86.78,6.14,2.84,8.52,2.08,6.42-2,12.46-5.28,18.65-8l2.69,5.37c-10.55,5.49-20.7,14.23-31.75,15.56-11.76,1.42-24.37-4.18-37.29-6.86-.83,5.72-1.7,11.72-2.82,19.42l-24.1-6.72c-.44,4-.84,7.62-1.23,11.2-15.79-8.85-17.11,7.73-24.36,13.87h-4.62c-2.15-.82-4.66-2.78-6.38-2.24-6.48,2.07-12.7,5-20.19,8v-5.49l-65.2,4.63q1.29-7.92,2.59-15.85c3.51-.45,8.81.39,10.23-1.58,7.06-9.74,16-3.86,24.11-3.86,13.89,0,27.64-.09,39.82-7.48L432.34,763v0l24.21-2.73-.06.07c12.88,0,25.87,1,38.63-.31,14.93-1.51,30.15-4,39.25-18.55l.61-1.11-.57,1.15H512.53l20.91-12.11-17.64-3.77,30.58-13.46c-11.64-1.58-23,.5-33.12-2.26-7.68-2.1-13-1.73-19.08,2.11l-.15-.14-.7-7.33c-2.34,1.8-4.08,2.58-5,3.92C476.6,726,454.74,713.8,440.6,724.57c-.43.33-3.73-3.12-5.7-4.8,3.24-1.21,6.49-2.4,9.72-3.64,12.89-5,14.62-9.24,9.13-22.46a7.49,7.49,0,0,0-2.64,0q-22.53,9.38-45,18.88c-.37-.39-.75-.78-1.14-1.15-1.35-.72-3.38-2.42-3.94-2-5.83,4.07-11.42,8.49-17.08,12.81a25.92,25.92,0,0,0-5.19.85c-19.25,7.22-37.2,10.24-47.15-14-.13-.31-.74-.43-1.12-.65l-2.67-10.11,15.87.18.08-.08c11.86.85,23.85,3.17,35.56,2.18,14.19-1.21,28.19-5,42.18-8.14,3.27-.73,8.63-3.09,8.77-5,.89-12.17,11.23-10.14,18.15-13.19l.06.06c-.8,4.38-2.36,9.5,5.31,7.87,4.72-1,9.24-2.91,13.93-4.13,12.11-3.14,24.23-6.26,36.4-9.13,21-4.93,42.84-7.76,57.08-26.9l2.85-2-2.8,2c-16.14,1.79-32.25,3.89-48.43,5.19-5.09.4-11-3.22-15.43-1.76-9.51,3.11-18.34,8.33-27.45,12.68l0,0c-2.23-1.77-4.75-5.29-6.65-5-5,.83-9.7,3.31-15,5.3l8.29-13.67,5.92-.5-.37-2-5.65,2.33a20.4,20.4,0,0,0-3.93.25c-15.94,4-30.76,16.7-48.63,6.23-.62-.37-2.29,1-3.47,1.62l-8-10.62a2.15,2.15,0,0,1-.89-2.22c6.51-2.05,16.1,1.93,17.77-7.07-19-13.69-36.55-1.11-54.75,1.63Z"/><path class="cls-17" d="M400.44,652.81c1.18-.58,2.85-2,3.47-1.62,17.87,10.47,32.69-2.19,48.63-6.23a20.4,20.4,0,0,1,3.93-.25l.1.12-8.29,13.67c5.28-2,10-4.47,15-5.3,1.9-.31,4.42,3.21,6.65,5a3.5,3.5,0,0,0-.9.41c-.15.12-.14.45-.2.68l1.13-1.06c9.11-4.35,17.94-9.57,27.45-12.68,4.46-1.46,10.34,2.16,15.43,1.76,16.18-1.3,32.29-3.4,48.43-5.19l0-.05C547,661.19,525.07,664,504.12,669c-12.17,2.87-24.29,6-36.4,9.13-4.69,1.22-9.21,3.13-13.93,4.13-7.67,1.63-6.11-3.49-5.31-7.87l1.08-1.15-1.14,1.09c-6.92,3.05-17.26,1-18.15,13.19-.14,1.93-5.5,4.29-8.77,5-14,3.13-28,6.93-42.18,8.14-11.71,1-23.7-1.33-35.57-2.18l-1.14-1.09,1.07,1.17-15.87-.17-5.94-10.54c3.07-.82,6.28-2.66,9.18-2.26,9.85,1.36,19.58,3.5,30.47,5.56l-6-16.91c5.69-14,12.29,3,17.57-1.48Z"/><path class="cls-12" d="M400.44,652.81l-27.38,19.92c-5.28,4.5-11.88-12.55-17.57,1.48L338,680.12c5.66-15.56,11.13-30.58,16.6-45.59,18.2-2.74,35.73-15.32,54.75-1.63-1.67,9-11.26,5-17.77,7.07-9.66-.1-21.45-4-22.65,16.52l23.54-14.3Z"/><path class="cls-12" d="M321.87,687.82l5.94,10.54q1.33,5,2.66,10.1l-23-7.65c6.37,12.12,10.81,20.6,15.32,29.19-20.66,5.74-36.46-5.42-53.45-13.33-.47,3.5-.82,6.12-1.18,8.74l-7.94-2.68c.77-6.58,1.55-13.15,2.26-19.22l35.66,13.39c2.68-13.39,4.71-23.54,6.83-34.12Z"/><path class="cls-19" d="M260.19,722.73l7.94,2.68q0,9.33,0,18.65l-18.28-11.45-21.56,6.12,13-25.48Z"/><path class="cls-2" d="M333,655.54l.55-1.14-.61,1.08Z"/><path class="cls-9" d="M1850.42,961.53l15.82.19q5.22,57.28,10.43,114.57l-18.16.22c-1.9-9.74-5-19.42-5.5-29.24-1.62-28.34-2.22-56.73-3.23-85.1Z"/><path class="cls-3" d="M1382.81,1076.74c1.75-13.59,4.12-27.12,5.09-40.76,1.53-21.36,1.67-42.83,3.38-64.17.42-5.29,3.41-12.93,7.37-14.72,4.71-2.13,12.78-.84,17.58,2,17.1,10.21,17.37,10.76,35.18,2.91,2,2.59,4.18,5.24,6.11,8.1,5.23,7.77,10.18,8.29,18.78,3.12,12.88-7.74,27.61-12.33,41-19.29s22.7,6.35,35,6.25c11.41-.09,23.14,6.88,34.22,5.75,21.57-2.19,42.78-7.87,60-11.29,6.35,3,9.53,6,12.43,5.7,11.09-1,21.93-6.35,32.93,2.16,2.82,2.19,9.35-.87,14.14-.69,6.65.25,13.28,1.89,19.89,1.77,4-.08,7.91-2.78,12-3.58,5.26-1,11.23-2.92,15.81-1.33,2.82,1,5,7.72,5.14,12,1.27,35.27,2,70.56,2.89,105.85-52.68.16-105.35.44-158,.46Q1493.32,1077,1382.81,1076.74Zm187-107.91c-1.32-.75-2.11-1.55-2.63-1.4s-.92,1.2-1.36,1.85Z"/><path class="cls-3" d="M168.78,1076.29c1.07-31,1.84-62,3.42-92.95.37-7.16,3.49-14.18,5.34-21.27,11.73.11,23.45.41,35.17.25,6-.09,12-1,19.18-1.64,4,9.64,10.76,13.09,21.82,6.59,6.11-3.59,12.56-4,20.87-1.45,8.08,2.46,18.49-3.7,28-4.76a79.74,79.74,0,0,1,23.9.62c8.14,1.59,15.83,5.46,24.09,8.47,5.51-16.45,14.94-4.59,24-3.64.54-3.38,1.07-6.64,1.6-9.89,14.79,2,20.21,9.7,18.84,25.2-2.78,31.49-3.7,63.14-5.38,94.73Z"/><path class="cls-3" d="M861.85,953.91a19.51,19.51,0,0,1,.67,2.22c1.44,23.33,2.16,46.74,4.56,70,1.74,16.86,5.7,33.49,8.67,50.23l-99.9.26c-.15-6.25.11-12.53-.5-18.73C772,1024,768.52,990.1,765.07,956.23l.09-.08c5.36,0,12.28-6.16,15.16,4,.19.67,4,.62,6,.43,14.69-1.39,29.36-3,44-4.34C840.86,955.31,851.36,954.68,861.85,953.91Z"/><path class="cls-9" d="M988.68,953.49l27.25-4.61c-.18,2.21-.35,4.41-.64,8l42.94-5.67q2.4,62.6,4.81,125.18l-63.81.12c-2.73-13.16-7-26.22-7.87-39.51C989.52,1009.2,989.47,981.32,988.68,953.49Z"/><path class="cls-3" d="M988.68,953.49c.79,27.83.84,55.71,2.68,83.46.88,13.29,5.14,26.35,7.87,39.51l-38.12.11c-3.55-16.1-7.49-32.14-10.56-48.34-4.68-24.68-8.76-49.49-13.09-74.24l50.66-2.81C988.28,952,988.46,952.73,988.68,953.49Z"/><path class="cls-9" d="M875.75,1076.33c-3-16.74-6.93-33.37-8.67-50.23-2.4-23.23-3.12-46.64-4.56-70l42.2,2.71.73.77q2.29,58.44,4.6,116.89Z"/><path class="cls-3" d="M1278.41,951.22c1.33-.05,2.67-.22,4-.14,38.77,2.36,45.39,14.6,26.66,49.13a11.88,11.88,0,0,0-1.2,5.11q-1.33,35.58-2.51,71.15h-30.14Q1276.81,1013.84,1278.41,951.22Z"/><path class="cls-3" d="M510,1076.63c-.82-33.78-.9-67.61-2.82-101.33-.78-13.74,6.49-16.71,16.73-18.47,6.92-1.19,13.93-1.9,20.89-2.82-2,27.08-4.1,54.16-5.84,81.26-.88,13.68-1.06,27.4-1.56,41.11Z"/><path class="cls-3" d="M1780.13,1076.57c-.81-30.79-2-61.57-2.18-92.36,0-8.17,2.88-16.36,4.33-24,22.67,3,25,15.72,25.73,33.46,1.15,27.65,6.66,55.11,10.32,82.66Z"/><path class="cls-9" d="M765.07,956.23c3.45,33.87,7,67.74,10.28,101.63.61,6.2.35,12.48.5,18.73l-31.84.05q-.12-58.76-.25-117.53Z"/><path class="cls-3" d="M1849.78,962.17c1,28.37,1.61,56.76,3.23,85.1.55,9.82,3.6,19.5,5.5,29.24l-22.11-.14c-10.17-36.63-7.27-74.12-7.19-111.41Z"/><path class="cls-3" d="M1339.58,1076.3c1.6-36.73,3.21-73.46,4.91-112.28l22.7,6c-3.58,35.36-7.19,71-10.79,106.56Z"/><path class="cls-3" d="M910.05,1076.5q-2.31-58.44-4.6-116.89c14.91,0,14.73,11.3,15.4,21.28,2.16,31.88,3.92,63.78,5.83,95.67Z"/><path class="cls-3" d="M424,1076.54c-2.43-22.71-5.49-45.38-7.08-68.16-1.11-15.87-.22-31.88-.22-47.37,2.22-.71,3.07-1.23,3.89-1.2,6.89.27,13.78.65,20.67,1-1.2,6.14-3.1,12.24-3.47,18.42-2,32.43-3.53,64.88-5.23,97.33Z"/><path class="cls-12" d="M281.94,443.08l44.76,18.56-23.21,13c13.76,12.3,59.91-2,66.63-23.22,4.62,10.63,12.35,11.44,21.78,6.9-8.18,6.28-15.62,14.06-24.68,18.57-22.51,11.21-46,19.43-71.84,12.1l-3.46-1,3.47,1c.95,2.38,1.89,4.76,3.13,7.88-19.15-1.53-34.1-11.28-48.25-22.51-1.24-1-.37-4.61-.48-7l18.64,3.14c8.49,7.94,29.22,4,36.84-5.44L273.9,443.28h0l5.44,0,2.7.22Z"/><path class="cls-12" d="M265.87,435.18q4,4.05,8,8.09h0l-8.09-8Z"/><path class="cls-2" d="M278.15,345.86c-.32.74-.48,1.9-1,2.11s-1.44-.52-2.19-.84c.32-.74.48-1.89,1-2.11S277.41,345.54,278.15,345.86Z"/><path class="cls-13" d="M244.33,172l5,1.39-5,1.25,0,.05c0-.92,0-1.83,0-2.75Z"/><path class="cls-14" d="M300.72,94l2.89-2,.69,1-3.48,1.08Z"/><path class="cls-12" d="M281.92,440.72a15,15,0,0,1-2.51.34Z"/><path class="cls-12" d="M262.78,435.22c.06-1,.12-1.93.17-2.9l2.92,2.86-.06.07Z"/><path class="cls-2" d="M225.59,338.54l.58-1.08-.64,1Z"/><path class="cls-19" d="M674.05,730.78c.78,23.54,1.14,47.1,2.42,70.6,1.64,30.15,4,60.25,6.08,90.37l-27.42,2.56c.87-11.06,2.56-22.13,2.43-33.18-.23-20.47-1.15-41-2.57-61.38-.61-8.62-3.21-17.11-4.91-25.65l-.25-.4c1.26-2.19,2.51-4.38,4.2-7.35l-21.43-1.87,19.71-11.18c-.37-.87-.73-1.75-1.1-2.63l-16.3-2.18,4-6.83c5-6.87,9.94-13.73,15-20.75Zm-11,1.1-7.8,0,3.09,36.26,1.79,0Q661.63,750,663.09,731.88Z"/><path class="cls-19" d="M647.38,894.68l-10.81,2.14c.06-4,0-7.92.18-11.88q1.79-53.88,3.63-107.76l9.45-3.48.25.39Z"/><path class="cls-3" d="M640.37,777.18q-1.82,53.88-3.62,107.76c-.14,4-.12,7.92-.18,11.88l-9.05.18q3-58.62,6.07-117.22Z"/><path class="cls-9" d="M647.38,894.68l2.7-120.59c1.7,8.55,4.3,17,4.91,25.66,1.42,20.42,2.34,40.91,2.57,61.38.13,11-1.56,22.12-2.43,33.18Z"/><path class="cls-3" d="M864.46,878.19q1.15-28.19,2.29-56.39,4.15,9.45,8.32,18.88l-1.62,37.07Z"/><path class="cls-3" d="M929.06,884.29l40-5.35c-2.29,2.29-4.55,6.5-6.89,6.54C951.16,885.71,940.11,884.8,929.06,884.29Z"/><path class="cls-21" d="M505.07,475.7c18.48-2,39.67-19.39,44.57-38.69-18.5,11.8-36.66,14.88-54.24,4l20.32-7.29-18.53-8.91,25.49-2.41c4.06,4.23,9.13,12.64,12,11.95,10.2-2.45,19.67-8,29.41-12.39,8.39,12.08,19.83,14,28.42,4.76,2.53-1.09,5.08-2.11,7.57-3.28,2.06-1,4-2.66,6.08-2.92,1.11-.14,2.51,2.12,5.85,5.22l21.68-7c-13.65,13-30.13,18.43-48.58,16.52-14-1.44-24.61,1.32-29.27,16,2.42,3.86,4.83,7.72,7.61,12.17l-8.22,8.94,43.09,16.81c-3.48,6.74-7,13.48-10.94,21.17l17.66-2.5-6.29,7.83c-10.26,3.59-20.38,7.75-30.85,10.58-6.81,1.84-13.58,2.25-11.55,10l10.88,5.7c-.35.33-.69.68-1,1l-9.88,10.09,2.49,3.21c6.75-3.82,13.49-7.64,21.5-12.16L574.57,562c5.77-1.33,9.76-2.57,13.84-3.1,3.47-.46,7.05-.11,10.58-.11-15.83,21.09-37.58,29.48-67.16,28.22l15.64,9.72H518.28l-21.7-18.91c21.89,3.74,41.13,4.1,59.55-3-.07-1.17-.13-2.33-.2-3.5H526.42l11.25-8c-5.44-18.21-19.75-10.35-32.31-13.49L538,532.06l-13.61-13c15.36-2.44,31.37-5.28,44.18-15.92l-.66-3.77H501.76l35.29-18.49c.19-.37.39-.74.59-1.11-.19.38-.38.76-.56,1.14-5.68.56-11.54,2.21-17,1.36-5.23-.82-10.05-4.25-15.05-6.53ZM581,511.86c-.16-.27-.27-.7-.5-.78s-.68.07-1,.12l.67,1.2Z"/><path class="cls-26" d="M555.86,451.32c4.66-14.69,15.32-17.45,29.27-16,18.45,1.91,34.93-3.51,48.58-16.52q1.54-4.08,3.08-8.17l2.2.42c-.36,4.79-.72,9.59-1.24,16.58l25.52-13.9h0l-4.76,11.95L672,425c-3,3.3-4.55,5-6.05,6.61l7,2.67c.16,1.3.31,2.6.46,3.89l-36,7.5L662,450.91c-16.73,8.83-31.58,9.78-47.3,7.15-7.57-1.26-15.42-.67-23.07-1.58C579.68,455.05,567.79,453.07,555.86,451.32Z"/><path class="cls-18" d="M701.48,521.41c10,8.94,21.61,6.72,31.89,2.45,10.12-4.2,19-11.47,28.75-17.64,0-.11.44,2.2,1.07,5.34,11.27-3.71,10.33-14.3,13.23-22.54l7.57,5.41,26.57,18.21-14,1.27-1.25,2.55,15.92,10.22-11.09,7.65c-6.05-2.33-6.73-17.74-16.07-5l-10.73-7.93-5.67,7-8-6.43-8.35,14.92-.61.29-20.22-2.57c-10.19,2.09-20.5,3.73-30.54,6.36-11.14,2.92-39.38-13.63-42-25.17l21.47,5.35Z"/><path class="cls-18" d="M784.79,465.77c-17.11,10-37.36,14-80,15.59,5.76,2.43,9.06,4.05,12.52,5.22,3.75,1.25,7.64,2.09,12,5.2l-25.66,4.85c-3.13-3.71-6-7.72-9.48-11s-7.57-5.79-14.4-10.88l76.42-5.29c0-2.14-.08-4.29-.13-6.43H721.47c-.31-1.11-.61-2.23-.91-3.34l14.25-12H722.08V431.72l26.16-10.92,3.51,2.58-15.67,13.18,18.26-4.48L759.79,444C761.66,458.65,776.6,458.34,784.79,465.77Z"/><path class="cls-26" d="M679.38,521.15l-21.47-5.35-7.16-9.6L641.25,522c-1.87-6.35-2.9-9.89-3.94-13.42l-.71,4-37.83,3.12,6.29-7.83-17.66,2.5c4-7.69,7.46-14.43,10.94-21.17L632,485.37v8.75c5.11-1.94,9.09-3.47,13.09-5,18.3-6.86,18.24-6.83,25.41,11.21C673.23,507.37,676.39,514.22,679.38,521.15Z"/><path class="cls-18" d="M765.55,384l31.26-7.56-3.18,4.91-6.41,2.82c1.47,1.65,2.85,3.39,4.44,4.92,2.78,2.67,5.69,5.2,8.55,7.79-8.68,3-17.85,9.38-26,8.23-24.55-3.49-39.55,14.06-58.37,23.09-.29.14.7,3,1.09,4.53l-21.58,6.95c-.74-1.73-1.48-3.47-2.21-5.2L730.78,412l-15.94-14.55Z"/><path class="cls-18" d="M683,498.65l41.87,13.23-21.35,9c-2.56-3.88-4.65-8.2-7.79-11.52C692,505.33,687.32,502.17,683,498.65Z"/><path class="cls-18" d="M682.84,494.6c.11,1.39.21,2.77.32,4.16l-5-1.64Z"/><path class="cls-26" d="M663.27,413.72c1.07-1.37,2.15-2.73,3.23-4.1l.87.87-4.09,3.24Z"/><path class="cls-18" d="M692.76,496.54,688,495.1Z"/><path class="cls-16" d="M657.92,322.4l.58-1.1c-.21.35-.41.71-.62,1.07Z"/><path class="cls-2" d="M754.34,432.08c2.13-1.14,5.8-3.64,6.16-3.23,11.11,12.71,17.37,4.68,23.45-5.11,1.12-1.8,2.85-3.2,4.79-5.32l13.69,9.26c-2.23-12.28,5.74-9.35,11-9.09l6.8-14.25-20.46,2.77c.16-3.3.32-6.75.48-10.19-2.86-2.6-5.77-5.13-8.55-7.8-1.59-1.53-3-3.27-4.44-4.92l6.41-2.82,6.62,3.05c20.12,6.51,39.25-.51,58.7-4.07,9.17-1.68,18.56-2.34,27.88-3,5.84-.43,11.75-.08,17.75-3.07l25.35,12.95-25.73,7.44,3.94,9.13-52.21,2.9,17.35,6.66c.05.82.09,1.65.13,2.48l-27.47,4.55-.09,1.85h29.91c-6.55,10-8,10.49-59.71,20.54l15.52,5.14c-23,4-44,7.58-64.13-4.62-1.77-1.07-5.06.4-7.65.69Z"/><path class="cls-14" d="M750.62,537.18l.62-.29c4,.69,11.28,2.73,11.64,1.86,6.54-15.43,13.23-3.83,20.36.79.32-4.23.55-7.22.78-10.22,9.34-12.73,10,2.68,16.07,5l11.09-7.65,12.13,7.83,48.22-6.88-13.08,9.74.79,2.28,32.83-10.21,23.63,32.07-26.81-2.79-7.2-9.28c-2.25,4.32-4,7.66-6.45,12.4L871,551.9c-10.16,3.32-22.22,11.55-28.05,8.37-17.38-9.49-33.69-.16-50.2-1.89-4.68-.49-11-2.32-13.87-.06-18.3,14.53-40.21,17.92-62,22.07l-7.69-.25-5.3-5.46c24.5,2.54,44.33-5.94,59.76-25.12l-21.14-9.19.68-2.37Z"/><path class="cls-2" d="M784,494.43,776.42,489l-.4-6c5.23-3.49,8.21-6.62,11.77-7.54,4.22-1.1,9-.05,13.44-.41,3.15-.24,6.24-1.28,9.36-2,20.95,2.66,42.27,7.56,61.54-9.46-1,3.47-2,6.94-3.81,13.25l28.6-17.45-.06-.05-8.3,16.14L905,470.17l-.05-.05,1.77,13L878.34,493l9.23,4.38c-.17,1.34-.35,2.68-.53,4C852.32,508.94,818.11,502.84,784,494.43Z"/><path class="cls-2" d="M911.36,465.48c.33-.73.5-1.85,1-2.07s1.4.52,2.13.84c-.32.72-.49,1.86-1,2.06S912.09,465.79,911.36,465.48Z"/><path class="cls-13" d="M886.13,330.47l5.89.58v1.47l-5.9.57.09.08c0-.92,0-1.84,0-2.76Z"/><path class="cls-2" d="M932,270.7l-.93-.35,1.07-1,.7.75Z"/><path class="cls-2" d="M905,470.17l.62-1.15-.67,1.1Z"/><path class="cls-2" d="M896.92,459.42l.6-1.14-.66,1.09Z"/><path class="cls-17" d="M367.51,432.81q-1.08-6.57-2.15-13.12l7.53-2.74,11.81,13.86,21.8-14,22,4.36,1.14-15.35c13.05,8.57,24.76-.25,40.3-5.84l-9.08,14.25L480,411.06c-6.8,16.15-6.6,16.77-13.73,19.08a246.82,246.82,0,0,1-29.59,7.58c-7.07,1.36-13.82-.58-20.91,5.41-8.74,7.38-36.86-1.13-44.19-10.81C371.13,431.77,368.9,432.61,367.51,432.81Z"/><path class="cls-5" d="M333,263.27l.63-1.12-.61,1.14Z"/><path class="cls-5" d="M866.78,771.4,863.89,767,834.1,779.49c2.44-6,3.37-8.32,4.29-10.61l1.38-4.83-3.53,2.7c-18,11.48-39.14,6.85-58.51,11.39-6.15,1.45-12.73.94-19.06,1.71-18,2.19-35.86,5-53.88,6.57-4.74.41-9.8-2.93-17.84-5.57l28-9.79-25-21.5c3,1.57,5.85,3.66,9,4.62,7.71,2.31,15.57,4.09,23.38,6.09l0,0c43.89,0,86.65-8.25,129-13.61-5.79-6.78-9.68-11.34-13.56-15.9l.1-.11c7.93.85,15.93,2.8,23.78,2.32a426.06,426.06,0,0,0,46.77-5.19c17.12-3,35.16-5.19,45.17-22.72l-24.69,1.42c0-.91,0-1.82-.08-2.73l22.37-11.54-20.46-4.55,36-15.66-49.06-2.92.09-3.72L902.29,677l-.06-.06c.7-3.91,1.39-7.82,2.28-12.86-8.35,6.1-14.86,11.28-21.89,15.61-1.33.83-4.74-1.72-7.19-2.71.2-.39.41-.78.62-1.17L875.4,677,838,684.81l-2.9.34c2.72-2.85,5.1-6.16,8.24-8.42,4.09-2.94,8.78-5,13.21-7.49,11.42-4.06-.3-15.82,8.9-20.69-16.31-.76-23.28,20.59-42.56,14.35l-11.67,14.35-24.39,2.37c-19.33,5.62-38.06,16.58-59.78,7.08l11.81-9.45-13.74-3-16-24.2,21.78,13c-3.08-6.84-4.45-9.86-5.81-12.88l15.7,3.24c2.76,1.61,5.48,4.54,8.29,4.62,29.43.86,57.3-7.77,85.43-14.73.61-.15,1-1.34,1.55-2.24-2.28-1.08-4.51-2.12-8.72-4.09l26.59-11h0l-6.16,10.19c14.2,2,26.08-2,37.12-10.11a21.49,21.49,0,0,1,10.21-3.64c8.66-.9,17.4-1.08,26.1-1.55l10.14,10.86L898,638.4c12.05,11.4,26.86,3.65,40.76,7.5L931.86,654c.54.49,1.17,1.46,1.62,1.38q23.35-3.87,46.66-7.92h0l-11,17.19c11.54-4,20.41-8.85,29.69-9.88s18.69,1.83,28.83,5.44L984,673.15c.11,1,.22,2.07.32,3.11h30.46c.1,1.53.21,3,.32,4.58l-42.84,5.89c-3.91,11.48-7.81,22.93-11.31,33.19l16.47,5.42c-.21.39-.41.78-.61,1.17l.64-1.13,30.3-12.51c-2.78,17-29.65,27.07-50.17,22.34a59.62,59.62,0,0,1-13.6-5.28c-10.77-5.51-14.08-3.89-14.9,7.75-.25,3.45-.6,6.89-1.13,12.91l-28.54-8.73,2.68,15.83-5.41.23-.13-.12-9.76-7.86C879.11,758.19,873,764.8,866.78,771.4Z"/><path class="cls-5" d="M716.86,580.39c21.78-4.15,43.69-7.54,62-22.07,2.83-2.26,9.19-.43,13.87.06,16.51,1.73,32.82-7.6,50.2,1.89,5.83,3.18,17.89-5,28.05-8.37l4.27,9.94c2.46-4.74,4.2-8.08,6.45-12.4l7.2,9.28c.05,2.16-.55,5.9.27,6.24,15.05,6.24,26.88,16.79,47.07,14,26.08-3.59,47.93-13,70.51-27.54-.79,5.31-1.37,9.29-2,13.78l13-9.1,0,0c-3.05,9.25-6.1,18.49-9.5,28.78l13.68-3.11,2.16,3c-6.7,6.25-12.78,13.4-20.24,18.57-22.46,15.57-47.57,21.18-74.71,17.32,19.67-7.71,40.57-13.16,55.43-30.1-5.45-.22-10.35,1.42-15.37,1.89-15.79,1.48-31.77,4.33-47.37,3-8.5-.72-15.51-2.33-22.24,3.68l-1.35-4.93c-.66,2.52-1,3.72-1.3,4.92l-20,9.51V600l-25.15,10.69c-.35-.78-.71-1.56-1.06-2.35l21.63-17L870.17,588c-3.86,1.58-7.61,3.6-11.6,4.66-15,4-30.17,7.65-45.26,11.45l-21.14-7.79-7.06-9.17,12.46-2.94-.74-5-20.78,3.35c.46-3.1.92-6.2,1-6.45L717,583Z"/><path class="cls-14" d="M813.31,604.14c15.09-3.79,30.22-7.46,45.26-11.44,4-1.06,7.74-3.08,11.6-4.66l2.15,3.37-21.63,17c.35.79.71,1.57,1.06,2.35L876.9,600v8.57l20-9.51,0,0,1.82,3.18.9-3.19,0,0c6.73-6,13.74-4.4,22.24-3.68,15.6,1.32,31.58-1.53,47.37-3,5-.47,9.92-2.11,15.37-1.89-14.86,16.94-35.76,22.39-55.43,30.1l-7.91.22c-8.7.47-17.44.65-26.1,1.55A21.49,21.49,0,0,0,884.89,626c-11,8.15-22.92,12.14-37.12,10.11L853.93,626l.64-1.15c-.22.38-.43.76-.64,1.14l-26.59,11c4.21,2,6.44,3,8.72,4.09-.59.9-.94,2.09-1.55,2.24-28.13,7-56,15.59-85.43,14.73-2.81-.08-5.53-3-8.28-4.62l21.13-1.23c-3.72-8-6.81-14.72-10.65-23l27.5,4.83-1.56-3.89,18.61-11.16-11.77-2.32,6.77-8.63L813,618.66c.43-1,.86-2,1.3-3l-11.42-8.29,1.11-3.26Z"/><path class="cls-5" d="M980.14,647.45l1-3.47c-.33,1.15-.66,2.31-1,3.47Z"/><path class="cls-5" d="M1017.74,556.12c.2-.38.41-.75.61-1.12l-.63,1.1Z"/><path class="cls-17" d="M424.26,464.85c8.77-.75,17.56-1.29,26.3-2.32,5.61-.66,11.14-2,16.71-3.1l-.06-.06c6.52.57,14.76,3.93,19.21,1.17,11.41-7.07,17.42,5.38,26.75,4.19l-8.11,11,0,0-13.09-4.29c1.19,3.76,2,6.39,3.42,10.84L456,484.45c0,.79,0,1.58-.05,2.37,3.18,1.33,6.37,2.65,12.13,5.07l-18.41,4.2.61,3.31,20.06-1.27a22.41,22.41,0,0,1-10.09,6.94c-9.86,3.62-19.88,6.82-29.74,10.43-7,2.57-14,8.18-20.77,7.76-13-.82-25.88-4.93-38.79-7.68l-.33.1q-1.35-3.94-2.68-7.89l27,6.37c-1.29-6.61-2.1-10.7-3.27-16.67l11.81,3.79,18.46-9.86c1-15.3-10.81-5.44-19.06-6.48l7-9.53-12.86-8,3.24-2,13.22.25,5.59-.32Z"/><path class="cls-15" d="M400.23,465.41l-3.24,2c-.16-.7-.32-1.41-.49-2.12Z"/><path class="cls-15" d="M419,465.34l-5.59.32Z"/><path class="cls-12" d="M392.24,587.52c-2.33-.07-6.09.73-6.76-.37-4.7-7.63-8.26-2.1-12.12.59-2.59-10.59-8.32-10.27-16.83-6-16.15,8.17-33.14,13.41-53.93,11.19,4.16-5.71,6.88-9.45,10.8-14.81-20,3.84-38,2.84-56.54-8.52L308,560l-18.14-9.44c.85-.07,1.7-.09,2.56-.08,23.7-2.84,47.51-5.09,71.06-8.9,7.23-1.17,13.76-6.65,20.61-10.15l38.8,2.56-11.9,6.8c-10.23-1-18.72,3.56-27.06,8.55l-39,5.09L336,576.14l51.6-14.93,8.63,5.2c-.2,1.16-.41,2.33-.57,3.5l.77.15c.19-1.17.39-2.34.58-3.51l3.14.2,21.68,11.15H399.16l4.12,4.54Z"/><path class="cls-5" d="M384.06,531.4c-6.85,3.5-13.38,9-20.61,10.15-23.55,3.81-47.36,6.06-71.06,8.9.54-1.2.78-3.13,1.67-3.5,25.48-10.52,51-20.88,76.55-31.27l.32-.09Z"/><path class="cls-5" d="M201.26,556l1.2-3.48c.34.25,1,.68,1,.71-.6,1-1.26,2-1.92,3Z"/><path class="cls-5" d="M260.6,521.3c-.39,1.17-.78,2.35-1.16,3.52-.35-.24-1-.67-1-.7.6-1,1.27-2,1.92-3Z"/><path class="cls-5" d="M228.28,534.66l-1.16,1.05,1.09-1.13Z"/><path class="cls-2" d="M231,617.93l.6-1.15-.65,1.09Z"/><path class="cls-5" d="M966.71,354.62l.62-1.12-.61,1.12Z"/><path class="cls-5" d="M247.06,239.11,246,240.22c.05-.23,0-.56.18-.69a3.66,3.66,0,0,1,.91-.44Z"/><path class="cls-5" d="M262.78,435.22l3,0,8.09,8L305.27,465c-7.62,9.46-28.35,13.38-36.84,5.44l12.51-1.12C271,459,256.86,452.21,262.78,435.22Z"/><path class="cls-5" d="M109.94,464.61l3.47-4,.89.88-4.06,3.44Z"/><path class="cls-5" d="M209.51,440.67c-1,.65-1.91,1.31-2.9,1.91,0,0-.45-.62-.69-.95l3.45-1.13Z"/><path class="cls-5" d="M169.12,459.32l1.19-1.08-1.07,1.2Z"/><path class="cls-17" d="M161.57,112.34l7.55,3.24.07-.09-13,.43,4.22-2.57C160.82,113,161.2,112.69,161.57,112.34Z"/><path class="cls-27" d="M160.42,113.35l-4.22,2.57-8.61-2.85Z"/><path class="cls-17" d="M169.12,115.58h7.63l-.43,2.2-7.13-2.29Z"/><path class="cls-5" d="M204.05,123.54l1-3.51,1,.68-2,2.89Z"/><path class="cls-17" d="M231,40.34l.61-1.16c-.23.36-.46.72-.68,1.09Z"/><path class="cls-21" d="M533.24,419.2l-7.2,2.66Z"/><path class="cls-17" d="M467.27,459.43l.56-1.11-.62,1.05Z"/><path class="cls-11" d="M636.45,327.79c-.22.38-.44.76-.65,1.14l.58-1.2Z"/><path class="cls-5" d="M247.05,357.31l-.6,1.16c.19-.39.39-.78.59-1.17Z"/><path class="cls-17" d="M875.37,228.38l.09,2.69-.09-.07.09-2.69Z"/><path class="cls-5" d="M244.4,171.9c0,.92,0,1.83,0,2.75l-3.23-1.84Z"/><path class="cls-28" d="M723.67,297.21l-3.37-.46,1.32-2C722.3,295.6,723,296.41,723.67,297.21Z"/><path class="cls-5" d="M886.18,330.41c0,.92,0,1.84,0,2.76L883,331.33Z"/><path class="cls-9" d="M875.07,840.68q-4.16-9.43-8.32-18.88.54-22.63,1.07-45.27l11.42-2.15C877.8,797.35,876.44,819,875.07,840.68Z"/><path class="cls-9" d="M896.7,757.92l-3.39,38-4.47.29c-.67-11.11-1.78-22.23-1.56-33.32,0-1.75,6.05-3.39,9.29-5.09Z"/><path class="cls-9" d="M883.82,798.21v53.42l-1.63.18V798.28Z"/><path class="cls-8" d="M1699.23,857.43q.35,10.52.68,21l-27.28-1c-14.69-10.19-20.51-24.87-21.22-42.12Z"/><path class="cls-7" d="M1651.41,835.29c.71,17.25,6.53,31.93,21.22,42.12l-50.83-3.13c-1.31-15.71,8.78-26.49,17.18-37.63C1640.7,834.37,1647.14,835.65,1651.41,835.29Z"/><path class="cls-8" d="M1721.91,838.49l-8.49,13.41-13.77-.07-2.74-2.75-4.66-10.84L1700,825l15.93-.2-.07,0,2.78,2.77-.11-.11,2.79,2.8-.09-.1Z"/><path class="cls-7" d="M1699.65,851.83l13.77.07c-.25,13.19-8.57,4.76-13.62,5.1Z"/><path class="cls-7" d="M1692.25,838.24l4.66,10.84-10.13-6.69Z"/><path class="cls-7" d="M1716,824.78,1700,825l-.21-3Z"/><path class="cls-7" d="M1718.66,827.5l-2.78-2.77Z"/><path class="cls-7" d="M1721.34,830.19l-2.79-2.8Z"/><path class="cls-16" d="M553.48,397.9c-.85,1.51-1.7,3-2.56,4.54l-3.63-3.2,5.66-1.82Z"/><path class="cls-2" d="M875.46,228.31l-.09,2.69-5.92-.61c0-.49,0-1,0-1.47Z"/><path class="cls-2" d="M864.71,241.75l-3.65-1,.71-1.06,2.88,2.1Z"/><path class="cls-19" d="M493.23,786.94c.34,22.7.17,45.42,1.17,68.09.78,17.73,3,35.4,4.61,53.1l-28.81,2.36c12-12.8,4.26-26.51,1.82-40l.88-.2c1.64-1.73,4.7-3.48,4.69-5.21-.09-14.3-.74-28.6-1.23-42.9l-3.73.14v32.06c-1-1-1.94-2.07-2.92-3.1,0-13.17.53-26.36-.18-39.49-.24-4.63-3.43-9.1-5.27-13.64,7.26-6.14,8.58-22.72,24.37-13.87Zm-13.14,27.55c7.41-4.65,8.51-16,0-29.84Z"/><path class="cls-24" d="M472,870.52c2.45,13.46,10.16,27.17-1.81,40l-24.35,3-5.65-12.87c7.34-2.58,14.65-5.24,22-7.72,14.86-5,2.65-13,2.27-19.76Z"/><path class="cls-16" d="M440.2,900.61l5.65,12.87c-2.34,3.34-4.25,9.06-7.09,9.57-8.09,1.46-16.56.79-24.88,1l18.21-16,3-5Z"/><path class="cls-6" d="M432.09,908l-18.21,16h-6.23c.15-3,.28-5.59.42-8.16,6-3.51,11.89-7.27,18.13-10.29C427.47,904.93,430.09,907.1,432.09,908Z"/><path class="cls-29" d="M349.12,803.29c-1.59,2.6-3.19,5.21-3.07,5,2.86,8.32,4.6,14.5,7.2,20.29.91,2,4.75,2.65,5.9,4.68,3,5.28,8.81,13.25,7,16-3.13,4.91-11.22,9.63-16.93,9.29-12.11-.72-22.37-3.3-29.29,11.32-4.46,9.42-25.82,7.3-36.33-2.43-2.79-2.57-4.17-6.65-6.91-11.22-12.76,16.56-24.23,23.32-39.29,9.81-1.22-1.1-5.44,1.19-8.28,1.84-7.64,1.75-15.33,5.12-22.91,4.87-22.08-.74-29.5-14.89-18.77-35.1-6.23-8.7-24.59-12.55-16.69-27.19,3.72-6.89,16.17-9.06,25.44-13.76a13.91,13.91,0,0,1-.85-2.41c-1.31-4.32-4.9-10.48-3.27-12.59,2.79-3.65,9.91-7.71,13.37-6.47,13.57,4.9,22.08-5.82,30.65-10.67,19.86-11.24,19.15-12.87,35.39,2.72,1.25,1.2,2.73,2.16,4.9,3.85,6.18-8.44,11.11-21.46,24-15.26,6.3,3,9.64,12.23,14.32,18.63-.87,1.7-1.75,3.39-2.63,5.09,7.92,0,16.06-1.12,23.7.36,5.87,1.13,12.51,4.43,16.07,8.93,2,2.49-1.65,9.43-2.75,14.36-1.34-4.52-1.74-9.69-4.32-13.33-1.86-2.64-6.6-4.31-10-4.27-1.5,0-4.74,6-4,8.17A17.74,17.74,0,0,0,338.6,803C341.36,804.48,345.56,803.29,349.12,803.29Zm-49.86,45.65c-7.43-6.43-12.47-11.63-18.46-15.28-1.19-.73-6,4.45-9.13,6.91,5.7,5.17,11.2,10.6,17.33,15.18C289.8,856.35,293.83,852.63,299.26,848.94Zm-90.53-66.07-6,5.91c4.18,3.78,8.3,7.63,12.72,11.11.22.17,4.6-4.24,4.46-4.42C216.42,791.1,212.54,787,208.73,782.87Z"/><path class="cls-17" d="M432.34,763l12.29,11.34c-12.18,7.39-25.93,7.46-39.82,7.48-8.1,0-17.05-5.88-24.11,3.86-1.42,2-6.72,1.13-10.23,1.58l-21.53-13.81c-.75-4.64-1.5-9.28-2.42-14.94l23.49,6c-.91-5.44-1.53-9.2-2.28-13.73l21.5,6.65C396,750.31,400.94,745,406,739.72c2.62-2.76,4.85-6.35,8.06-8,6.36-3.19,13.27-5.26,20-7.79l-1.52-3.54a6.52,6.52,0,0,1,2.44-.66c2,1.68,5.27,5.13,5.7,4.8,14.14-10.77,36,1.38,47.75-16.11.9-1.34,2.64-2.12,5-3.92l.7,7.33c-.66,1-1.33,2-1.94,3,0,0,.65.44,1,.68.37-1.18.73-2.35,1.1-3.52,6.05-3.84,11.4-4.21,19.08-2.11,10.07,2.76,21.48.68,33.12,2.26L515.8,725.62l17.64,3.77L512.53,741.5H534.4l0,0C525.26,756,510,758.5,495.11,760c-12.76,1.3-25.75.29-38.63.31l-1.06-.65,1.12.58L432.33,763l-1.12-.66Z"/><path class="cls-29" d="M440.2,900.61,435.09,903c-5.61-7.23-12-7.54-20.85-5.22s-18.92,2.32-28.22,1.29c-6.6-.74-13.79-3.13-11.32-14,1-4.37-3.54-10-5.95-16,11.35-6.71,17.95-21.2,33.19-23.78,6.46-1.09,13.12-1,19.69-1.51,6.19,0,13.42-2.06,18.33.45,8.07,4.11,14.65,11.17,21.71,16.87-4.26,3.66-10.1,8.74,2.82,12,.38,6.71,12.59,14.75-2.27,19.76C454.85,895.37,447.54,898,440.2,900.61Z"/><path class="cls-21" d="M421.86,837.64c12.11-9,20.73-5.42,27.83,7,1.33,2.33,6.25,2.59,9.51,3.8l10.51,2.91c1,1,2,2.07,2.92,3.1l.27,15.91-.88.2-7.53,2.61c-12.92-3.28-7.08-8.36-2.82-12-7.06-5.7-13.64-12.76-21.71-16.87-4.91-2.51-12.14-.46-18.33-.45C421.71,841.74,421.78,839.69,421.86,837.64Z"/><path class="cls-1" d="M1554.77,953.67,1552,955.6l2.84-1.85Z"/><path class="cls-7" d="M1726.65,859.67l-1,3.49c.33-1.16.65-2.31,1-3.47Z"/><path class="cls-1" d="M1109,948.32l-1.07,1.17c0-.25,0-.58.17-.71a4,4,0,0,1,.93-.43Z"/><path class="cls-1" d="M601.43,948.42l5.9.38c-.16.57-.32,1.14-.49,1.71l-5.29-2.24Z"/><path class="cls-15" d="M384.06,531.4l-13.13-15.81c12.92,2.74,25.76,6.85,38.8,7.67,6.73.42,13.76-5.19,20.77-7.76,9.86-3.61,19.88-6.81,29.74-10.43a22.41,22.41,0,0,0,10.09-6.94l-20.06,1.27-.61-3.31,18.41-4.2c-5.76-2.42-8.95-3.74-12.13-5.07,0-.79,0-1.58.05-2.37l39.36-2.17c-1.4-4.45-2.23-7.08-3.42-10.84L505,475.73c5,2.28,9.83,5.71,15.06,6.53,5.46.85,11.32-.8,17-1.36l0,0-35.29,18.49h66.15l.66,3.77c-12.81,10.64-28.82,13.48-44.18,15.92l13.61,13-32.64,17.67c12.56,3.14,26.87-4.72,32.31,13.49l-11.25,8h29.51c.07,1.17.13,2.33.2,3.5-18.42,7.15-37.66,6.79-59.55,3l21.7,18.91-4.67.55-20.14-3.07-1.62,3.58,20.81,9.57,2.48.52c1.17,2.54,2.33,5.09,3.5,7.64l-6.14,5-13.39-.57c-4.17-9.42-7.82-19.15-13-28-1.06-1.84-7.89-1.16-11.78-.31-5.2,1.14-10.12,3.58-18.56,6.73l6.18-9.14-32.68,4.2c-2.11-2.63-3.76-6.76-6.44-7.6-6.27-2-13-2.36-19.58-3.38l-4.12-4.54h22.63l-21.68-11.15c1.95-.85,4-2.59,5.84-2.42,13.91,1.27,27.76,3.69,41.68,4.21,11.14.41,22.36-1.34,33.54-2.13-.07-1.09-.13-2.17-.2-3.26l-11.79-5.27L493.45,552l-7.36-11.9-.13-.16c-.19-2.08-.39-4.17-.66-7.1l-19.78,8.89c.47-4.13.82-7.26,1.46-12.85-6.38,4.09-10.54,7.24-15.14,9.54a36.91,36.91,0,0,1-11.52,3.56A132.87,132.87,0,0,1,421.2,543c-3.43,0-6.83-1.47-10.24-2.27l11.9-6.81Zm143.06,29.31v-1.09H523v1.09Z"/><path class="cls-21" d="M499.11,619.94l13.39.57c18.13,6.58,33.73,2.43,46.12-10l9.94,4,.8.78c-16.58,13.28-36,16.51-56.49,16.08l-1.1-.68,1.15.64c-11.45,2.84-29.22-5.5-34.8-16.33Z"/><path class="cls-5" d="M403.28,582.44c6.56,1,13.31,1.41,19.58,3.38,2.68.84,4.33,5,6.44,7.6-5.31-.36-12.07,8.93-15.74-2.37a3.25,3.25,0,0,0,.93-.47c.14-.14.06-.5.08-.77L413.51,591l-12.87,6.46-8.4-9.93Z"/><path class="cls-21" d="M563.66,727.41l22.8-9.07-27.64-3.58L605,699.48c-.34-1.27-.68-2.53-1-3.79-5.08,1.28-10.12,3.2-15.27,3.6-2.76.21-5.72-2.19-8.59-3.42l3.58-1.13c-.25-.34-.69-1-.72-1-1,.63-2,1.31-3,2l-27.32,8.76c1.26-5.49,2.25-9.77,3.23-14a3.49,3.49,0,0,0,.92-.41c.15-.13.14-.46.2-.7l-1.17,1-36.66,10-1.8-3.29,5.62-7.3-37.75-3.51,30.45-11.1-1.84-1.45c17.14-4.27,35.52-7.13,52.49-13.66C578,655.64,591.49,650,593.43,634l.66-1.08-.62,1.12L580.2,641l11.86-24.13c-8.83,5.71-15.21-12.63-22.7-1.55l-.79-.78c2.54-8.26,5.07-16.53,8.14-26.55l11.51,12.41,21.39-25.78v21.87l-.69,1.09.62-1.16q1.53,2.73,3.05,5.46c-1.59,5.73-3.17,11.46-5,18.09l15.92-6.84-13.82,26.15-2.94,10.86-13.22,11-22.3,7.29c4.51,9.51-5.71,7.84-9.38,11.39-2.36-2.69-4.4-7.25-7.15-7.73-8.61-1.52-13.56,3.42-15.86,13.21l22.13-3c5.06,1.36,12.08-5.55,15.28,3.63L606.92,669l10.7-2.78c0,2.68,0,5.36,0,8a3.36,3.36,0,0,0-.89.44c-.14.13-.11.45-.17.69l1.1-1.09,20.12-1.75L639,675l-16.4,13.29,20.36-3-9.31,13.21-32.78,13.76.71,2,15.73-1.41C609.28,725,580.82,732.16,563.66,727.41Z"/><path class="cls-21" d="M493.23,786.94l-4.6-2.63c.39-3.58.79-7.16,1.23-11.2l24.1,6.72c1.12-7.7,2-13.7,2.82-19.42,12.92,2.68,25.53,8.28,37.29,6.86,11-1.33,21.2-10.07,31.75-15.56l-2.69-5.37c-6.19,2.76-12.23,6-18.65,8-2.38.76-5.66-1.3-8.52-2.08.87-.92,1.74-1.83,2.62-2.74a3.72,3.72,0,0,0,.91-.47c.15-.14.12-.48.17-.73l-1.14,1.14-2.75,2.61-14.51,2.55,11.87-27.9,8.25,1.43L558.47,739l52.13-6.17-11.3,15.35L634.83,735l4.1,6.68-4,6.83,16.3,2.18c.37.88.73,1.76,1.1,2.63L632.6,764.48,654,766.35c-1.69,3-2.94,5.16-4.2,7.35l-9.45,3.48-6.79,2.6c-17.34,2.34-34.63,5.36-52.05,6.63-5.84.43-12-3.62-19.79-6.21l-12.13,9.56c-.85-3.87-1.47-6.66-2.11-9.56l-6.14,3.5-17.15-14.26-3.76,3.13q4.38,7.59,8.75,15.17c-.49,1.16-1,2.32-1.48,3.48-8.86-2.32-17.66-5-26.62-6.75C498.75,784,495.87,786.05,493.23,786.94Z"/><path class="cls-11" d="M638.93,741.66l-4.1-6.68L599.3,748.15l11.3-15.35L558.47,739l2.91-10.78a10.24,10.24,0,0,0,2.28-.78c17.16,4.75,45.62-2.39,53.65-14.62l-15.73,1.41-.71-2,32.78-13.76c18.56-.88,37.38-.17,55.59-3.17,13.73-2.26,29.42-4.74,35.84-21.06l13.74,3L727,686.7c21.72,9.5,40.45-1.46,59.78-7.08-10.12,22.74-40.82,34.86-63,24.88-21.41-9.65-21.4-9.65-23.39,14.47-.07.76-.9,1.45-2.21,3.42L666.34,712l8.42,11.09c-.23,2.57-.47,5.15-.71,7.72l-20.11-9.87C648.87,727.93,643.9,734.79,638.93,741.66Z"/><path class="cls-12" d="M432.46,720.43l-28.18-1.61c-.75,2.76-1.61,6-2.65,9.77l-17.69-6.36c5.66-4.32,11.25-8.74,17.08-12.81.56-.4,2.59,1.3,3.94,2-.45.53-.92,1.06-1.38,1.59l2.52-.45q22.5-9.47,45-18.88a7.49,7.49,0,0,1,2.64,0c5.49,13.22,3.76,17.51-9.13,22.46-3.23,1.24-6.48,2.43-9.72,3.64A6.52,6.52,0,0,0,432.46,720.43Z"/><path class="cls-9" d="M469.71,851.31,459.2,848.4q.24-25.12.45-50.24l4.62,0c1.83,4.54,5,9,5.26,13.64C470.24,825,469.74,838.14,469.71,851.31Z"/><path class="cls-17" d="M456.47,644.71l5.65-2.33.37,2-5.92.5Z"/><path class="cls-17" d="M561.25,642.1l2.8-2-2.85,2Z"/><path class="cls-17" d="M534.4,741.5l.57-1.15-.61,1.11Z"/><path class="cls-15" d="M343.68,698.53l-1.07-1.17,1.14,1.09Z"/><path class="cls-15" d="M448.42,674.28l1.14-1.09-1.08,1.15Z"/><path class="cls-15" d="M469.94,658.21l-1.13,1.06c.06-.23.05-.56.2-.68a3.5,3.5,0,0,1,.9-.41Z"/><path class="cls-9" d="M1569.76,968.83l-4,.45c.44-.65.78-1.68,1.36-1.85S1568.44,968.08,1569.76,968.83Z"/><path class="cls-5" d="M295.39,488.94l-3.47-1,3.46,1Z"/><path class="cls-14" d="M837.76,730.79c3.88,4.56,7.77,9.12,13.56,15.9-42.34,5.36-85.1,13.65-129,13.61l-1.09-.64,1.13.61c-7.81-2-15.67-3.78-23.38-6.09-3.19-1-6-3-9-4.62q-3.26-4-6.5-8.12l2.23-2.58,33.44,9.77c-1.12-5.37-1.76-8.48-2.4-11.59l1.29-4.53,19.64,8.07c4.63-1.42,9.32-4.17,13.89-4,8.45.34,16.82,2.41,28.53,4.28l-14.52-13.12c.35-1.14.69-2.29,1-3.43,15.42,5.33,30.67,14.29,46.95,5.54L792,725c-2.79-3.57-9.94-6.2.08-10.88,6.87-3.21,12.13-9.88,18.11-15l33.12,4.82-16.39-11,10.7-5.1,4.31-1.27-4-1.74L875.4,677l0,0c2.45,1,5.86,3.54,7.19,2.71,7-4.33,13.54-9.51,21.89-15.61-.89,5-1.58,8.95-2.28,12.87-.19.4-.38.8-.58,1.2.22-.38.43-.76.64-1.15l15.45-11.64-.09,3.72L966.71,672l-36,15.66,20.46,4.55-22.37,11.54c0,.91.05,1.82.08,2.73l24.69-1.42c-10,17.53-28.05,19.75-45.17,22.72A426.06,426.06,0,0,1,861.64,733c-7.85.48-15.85-1.47-23.78-2.32l-2.9-2-.69,1Z"/><path class="cls-18" d="M810.21,699.07c-6,5.12-11.23,11.79-18.1,15-10,4.68-2.87,7.31-.08,10.88l-34.48-7.37c1.45,12.26-3.75,14.28-14.55,8.83-3.36-1.69-8.06-.72-12.15-1l-.94-9L710,711.55l8,21L716.72,737l-42-14L666.34,712l31.86,10.42c1.31-2,2.14-2.66,2.21-3.42,2-24.12,2-24.12,23.39-14.47,22.17,10,52.87-2.14,63-24.88l24.39-2.37c3,.19,6.31,1.38,8.83.41,11.4-4.39,22.57-9.39,33.81-14.17l1,.29,1-.1.69,5.56c-4.43,2.46-9.12,4.55-13.21,7.49-3.14,2.26-5.52,5.57-8.24,8.42l-.68.85C821.4,681.25,819.9,697.74,810.21,699.07Z"/><path class="cls-9" d="M663.09,731.88q-1.47,18.17-2.92,36.34l-1.79,0-3.09-36.26Z"/><path class="cls-11" d="M598.77,515.74l37.83-3.12.71-4c1,3.53,2.07,7.07,3.94,13.42l9.5-15.81,7.16,9.6c2.57,11.54,30.81,28.09,42,25.17,10-2.63,20.35-4.27,30.54-6.36l14.92,19.45-20,4.83c-8.49-.1-17.2,1-25.4-.58-11-2.15-21.72-7-31.27,3.18l-3.3-4.2-2.07,4.19-21.48,10.75h0c0-2.68,0-5.36,0-8l4.09-3.24-.87-.87-3.24,4.08-22.22,5.31,17-15.51-1.74-2.29L599,558.78c-3.53,0-7.11-.35-10.58.11-4.08.53-8.07,1.77-13.84,3.1l5.77-17.74c-8,4.52-14.75,8.34-21.5,12.16l-2.49-3.21,9.88-10.09,1.84.86-.82-1.9-10.88-5.7c-2-7.8,4.74-8.21,11.55-10C578.39,523.49,588.51,519.33,598.77,515.74Z"/><path class="cls-26" d="M599,558.78l35.78-7.12,1.74,2.29-17,15.51,22.22-5.31,0,0v8l-.62,1.12.62-1.11,21.48-10.75h0l2.07,4.2c1.11-1.4,2.21-2.81,3.31-4.21v0c9.55-10.16,20.24-5.33,31.27-3.18,8.2,1.59,16.91.48,25.4.58l3.49,8.1-24.93,7.69,5.3,5.46-8.32,2.79-5.33.08c-19.37,1.26-38.29,3.35-56.09,12.78-7.81,4.15-17.82,4.15-26.84,6q-1.51-2.73-3.05-5.46l.07.07V574.57l-21.39,25.78-11.51-12.41c-3.07,10-5.6,18.29-8.14,26.55l-10-4c-12.39,12.47-28,16.62-46.12,10l6.14-5,11.53-2.22c-.06-1-.11-1.92-.17-2.88l-14.86-2.53-2.48-.52c.32-3.37.64-6.72,1-10.08l4.67-.55h29.19L531.83,587C561.41,588.26,583.16,579.87,599,558.78Z"/><path class="cls-26" d="M581,511.86l-.85.54c-.23-.4-.45-.8-.67-1.2.34-.05.73-.22,1-.12S580.84,511.59,581,511.86Z"/><path class="cls-15" d="M537.08,480.9c.18-.38.37-.76.56-1.14-.2.37-.4.74-.59,1.11Z"/><path class="cls-15" d="M703.87,574.68,728.8,567l-3.49-8.1,20-4.83L730.4,534.61l20.22,2.57-7.45.82-.68,2.37,21.14,9.19C748.2,568.74,728.37,577.22,703.87,574.68Z"/><path class="cls-15" d="M784,529.32c-.23,3-.46,6-.78,10.22-7.13-4.62-13.82-16.22-20.36-.79-.36.87-7.6-1.17-11.64-1.86,2.6-4.67,5.21-9.33,8.34-14.92l8,6.43,5.67-7Z"/><path class="cls-18" d="M748.24,420.8l5.27-4.1L755,418c-1.07,1.81-2.15,3.61-3.23,5.42Z"/><path class="cls-11" d="M700.85,582.93l8.32-2.79,7.69.25L717,583Z"/><path class="cls-26" d="M725.08,674.2c-6.42,16.32-22.11,18.8-35.84,21.06-18.21,3-37,2.29-55.59,3.17L643,685.22l-20.36,3L639,675l-1.24-2.37-20.12,1.75,0,0,0-8,1.14-.58-.51-.54-.63,1.12L606.92,669c-2-1.28-4-2.61-6-3.83-2.42-1.43-4.89-2.77-7.34-4.14l13.22-11,39.94-8.46-6,6.91,2.58,3.6,31-21.53c-1,5-2,9.55-2.89,14.15l-.6,1.13.61-1.12,16.19-15.25q6.76,3.66,13.55,7.3,1.15,2.71,2.32,5.43l5.66,7.71.07,0Z"/><path class="cls-15" d="M784.06,616.57l11.77,2.32-18.61,11.16,1.56,3.89-27.5-4.83c3.84,8.3,6.93,15,10.65,23l-21.13,1.23-15.71-3.24-8-9.29c10.34,1.67,20.68,3.32,34,5.46-2.8-9-4.56-14.6-6.9-22.1l10-2.57,15.16,7.77C769.24,617.34,774.14,613.22,784.06,616.57Z"/><path class="cls-30" d="M856.51,669.24l-.69-5.56-.57-2.16c-.47.66-1,1.31-1.43,2-11.24,4.78-22.41,9.78-33.81,14.17-2.52,1-5.87-.22-8.83-.41l11.67-14.35c19.28,6.24,26.25-15.11,42.56-14.35C856.21,653.42,867.93,665.18,856.51,669.24Z"/><path class="cls-14" d="M717.05,640.82l8,9.3c1.36,3,2.73,6,5.81,12.88l-21.78-13-.07,0q-2.84-3.86-5.66-7.72-1.17-2.71-2.32-5.43Z"/><path class="cls-18" d="M838,684.81l4,1.74-4.31,1.27L834.38,686l.68-.85Z"/><path class="cls-12" d="M977.47,725.38l-.64,1.13c.2-.39.4-.78.61-1.17Z"/><path class="cls-14" d="M875.4,677l.65-1.15c-.21.39-.42.78-.62,1.17Z"/><path class="cls-18" d="M784.06,616.57c-9.92-3.35-14.82.77-14.73,12.82l-15.16-7.77c1.23-10.24-4-9.42-11.39-7.48-12.06,3.17-24.39,5.33-38.5,8.32l3-11.76c-13-2.79-27.54,3.4-38.16-10l28-4.54c-.65-5.33-1.13-9.23-1.6-13.14l5.33-.08L717,583l60-6.88c0,.25-.5,3.35-1,6.45l-50.48,8.05.37,2.38,10.28-1.06c-1.21,4.52-2.18,8.1-3.83,14.22L778.45,595l1.27,7.52,12.45-6.18,21.14,7.79H804l-1.11,3.26,11.42,8.29c-.44,1-.87,2-1.3,3l-22.16-10.72Z"/><path class="cls-14" d="M896.91,599.1c.32-1.2.64-2.4,1.3-4.92l1.35,4.93,0,0h-2.72Z"/><path class="cls-5" d="M896.88,599.08h2.72l-.9,3.19Z"/><path class="cls-5" d="M853.93,626c.21-.38.42-.76.64-1.14l-.64,1.15Z"/><path class="cls-17" d="M486.09,540.06l7.36,11.9-24.27,5.92L481,563.15c.07,1.09.13,2.17.2,3.26-11.18.79-22.4,2.54-33.54,2.13-13.92-.52-27.77-2.94-41.68-4.21-1.86-.17-3.89,1.57-5.84,2.42l-3.13-.2-.79-.14c-2.88-1.73-5.75-3.47-8.63-5.19l-3.66-11.91c8.34-5,16.83-9.54,27.06-8.55,3.41.81,6.81,2.23,10.24,2.28a132.87,132.87,0,0,0,19.12-1.1,36.91,36.91,0,0,0,11.52-3.56c4.6-2.3,8.76-5.45,15.14-9.54-.64,5.59-1,8.72-1.46,12.85l19.78-8.89c.27,2.93.47,5,.66,7.11l-5.87.57.51,1.84Z"/><path class="cls-15" d="M396.19,566.41l.79.14c-.2,1.17-.4,2.34-.59,3.51l-.77-.15C395.78,568.74,396,567.57,396.19,566.41Z"/><path class="cls-9" d="M472.9,870.32l-.27-15.91V822.35l3.73-.14c.49,14.3,1.14,28.6,1.23,42.9C477.6,866.84,474.54,868.59,472.9,870.32Z"/><path class="cls-9" d="M480.09,814.49V784.65C488.6,798.44,487.5,809.84,480.09,814.49Z"/><path class="cls-4" d="M299.26,848.94c-5.43,3.69-9.46,7.41-10.26,6.81-6.13-4.58-11.63-10-17.33-15.18,3.14-2.46,7.94-7.64,9.13-6.91C286.79,837.31,291.83,842.51,299.26,848.94Z"/><path class="cls-4" d="M349.12,803.29c-3.56,0-7.76,1.19-10.52-.3a17.74,17.74,0,0,1-7.85-9.13c-.73-2.2,2.51-8.16,4-8.17,3.44,0,8.18,1.63,10,4.27,2.58,3.64,3,8.81,4.32,13.33Z"/><path class="cls-4" d="M208.73,782.87c3.81,4.14,7.69,8.23,11.22,12.6.14.18-4.24,4.59-4.46,4.42-4.42-3.48-8.54-7.33-12.72-11.11Z"/><path class="cls-15" d="M494.18,712c-.37,1.17-.73,2.34-1.1,3.52-.34-.24-1-.66-1-.68.61-1,1.28-2,1.94-3Z"/><path class="cls-15" d="M432.34,763l-1.13-.64,1.12.66Z"/><path class="cls-15" d="M456.54,760.25l-1.12-.58,1.06.65Z"/><path class="cls-21" d="M513.61,597.27c-.31,3.36-.63,6.71-1,10.08l-20.81-9.57,1.62-3.58Z"/><path class="cls-21" d="M515.14,607.87,530,610.4c.06,1,.11,1.92.17,2.88l-11.53,2.22C517.47,613,516.31,610.41,515.14,607.87Z"/><ellipse class="cls-21" cx="525.06" cy="560.16" rx="2.92" ry="0.77"/><path class="cls-15" d="M512.92,631.31l-1.15-.64,1.1.68Z"/><path class="cls-17" d="M413.51,591l1.06-1.19c0,.27.06.63-.08.77a3.25,3.25,0,0,1-.93.47Z"/><path class="cls-11" d="M695.52,583c.47,3.91,1,7.81,1.6,13.14l-28,4.54c10.62,13.41,25.14,7.22,38.16,10l-3,11.76c14.11-3,26.44-5.15,38.5-8.32,7.37-1.94,12.62-2.76,11.39,7.48l-10,2.57c2.34,7.5,4.1,13.12,6.9,22.1-13.33-2.14-23.67-3.79-34-5.46l-16-4q-6.78-3.65-13.55-7.3l-16.19,15.25h0c.94-4.6,1.88-9.19,2.89-14.15l-31,21.53-2.58-3.6,6-6.91-39.94,8.46,2.94-10.86,22.7-6.41-3.38-3,4.06-19.45-9.56,2.75-15.92,6.84c1.83-6.63,3.41-12.36,5-18.09,9-1.89,19-1.89,26.84-6C657.23,586.36,676.15,584.27,695.52,583Z"/><path class="cls-16" d="M593.53,661.06c2.45,1.37,4.92,2.71,7.34,4.14,2,1.22,4,2.55,6,3.83l-30.67,16.8c-3.2-9.18-10.22-2.27-15.28-3.63a12,12,0,0,1,.88-2.46c3.67-3.55,13.89-1.88,9.38-11.39Z"/><path class="cls-15" d="M580,695.74c1-.68,2-1.36,3-2,0,0,.47.65.72,1l-3.58,1.13Z"/><path class="cls-15" d="M555.84,690.4l1.17-1c-.06.24,0,.57-.2.7a3.49,3.49,0,0,1-.92.41Z"/><path class="cls-26" d="M617.64,674.34l-1.1,1.09c.06-.24,0-.56.17-.69a3.36,3.36,0,0,1,.89-.44Z"/><path class="cls-26" d="M609.54,596.37l-.62,1.16.69-1.09Z"/><path class="cls-15" d="M593.47,634l.62-1.12-.66,1.08Z"/><path class="cls-15" d="M555.77,752.11l2.75-2.61.06.06c-.88.91-1.75,1.82-2.62,2.74Z"/><path class="cls-15" d="M558.52,749.5l1.14-1.14c0,.25,0,.59-.17.73a3.72,3.72,0,0,1-.91.47Z"/><path class="cls-15" d="M406.1,712.59l-2.52.45c.46-.53.93-1.06,1.38-1.59C405.35,711.81,405.73,712.2,406.1,712.59Z"/><path class="cls-17" d="M730.85,725.43c4.09.26,8.79-.71,12.15,1,10.8,5.45,16,3.43,14.55-8.83L792,725l21.5,4.92c-16.28,8.75-31.53-.21-46.95-5.54-.34,1.14-.68,2.29-1,3.43l14.52,13.12c-11.71-1.87-20.08-3.94-28.53-4.28-4.57-.19-9.26,2.56-13.9,4Z"/><path class="cls-15" d="M834.38,686l3.27,1.82-10.7,5.1,16.39,11-33.12-4.82C819.9,697.74,821.4,681.25,834.38,686Z"/><path class="cls-5" d="M837.76,730.79l-3.49-1.07.69-1,2.9,2Z"/><path class="cls-5" d="M722.37,760.27l-1.13-.61,1.09.64Z"/><path class="cls-5" d="M902.29,677c-.21.39-.42.77-.64,1.15.2-.4.39-.8.58-1.2Z"/><path class="cls-5" d="M853.82,663.49c.48-.66,1-1.31,1.43-2l.57,2.16-1,.1Z"/><path class="cls-26" d="M663.27,561.48l2.07-4.19,3.3,4.2v0Z"/><path class="cls-26" d="M641.78,564.15l3.24-4.08.87.87-4.09,3.24Z"/><path class="cls-21" d="M567.25,542.07l.82,1.9-1.84-.86C566.56,542.75,566.9,542.4,567.25,542.07Z"/><path class="cls-11" d="M663.27,561.48h5.38c-1.1,1.4-2.2,2.81-3.31,4.21Z"/><path class="cls-11" d="M641.79,572.23l-.62,1.11.62-1.12Z"/><path class="cls-5" d="M703.39,642.25q2.82,3.87,5.66,7.72Q706.23,646.1,703.39,642.25Z"/><polygon class="cls-21" points="617.62 666.25 618.25 665.13 618.76 665.67 617.62 666.25"/><path class="cls-11" d="M671.33,644.77l-.61,1.12.6-1.13Z"/><path class="cls-15" d="M486.09,540.06l-5.49,2.26-.51-1.84,5.87-.57Z"/></svg>